**ABCDEFGHIJKLMNOPQRSTUVWXYZabcdefghijklmnopqrstuvwxyz**************************
**PARASOLID !"#$%&'()*+,-./:;<=>?@[\]^_`{|}~0123456789**************************
**PART1;
MC=AMD64;
MC_MODEL=Intel64 Family 6 Model 37 Stepping 2, GenuineIntel;
MC_ID=unknown;
OS=Windows_NT;
OS_RELEASE=unknown;
FRU=Parasolid Version 25.1, build 198,  6-19-2013;
APPL=SolidWorks 2014-2013262;
SITE=;
USER=unknown;
FORMAT=text;
GUISE=transmit;
KEY=Part1new13;
FILE=Part1new13.x_t;
DATE=Mon Aug 28 20:59:58 2017;
**PART2;
SCH=SCH_2501198_25001;
USFLD_SIZE=0;
**PART3;
**END_OF_HEADER*****************************************************************
T51 : TRANSMIT FILE created by modeller version 250119823 SCH_2501198_25001_1300
6189 0 12 29 CCCCCCCCCCCCCDI5 owner1040 0 CCCCCCCCCA16 index_map_offset0 0 1 dA9
 index_map82 0 A17 node_id_index_map82 0 A20 schema_embedding_map82 0 A5 child12
 0 A14 lowest_node_id0 0 1 dZ1 7075 0 2 0 0 0 0 1e3 1e-8 0 3 0 1 0 1 1 4 5 6 7 8
 9 10 0 0 0 0 0 0 70 11 CI9 list_type0 0 1 uI10 notransmit0 0 1 lCCCDCCDI12 fing
er_index0 0 1 dI12 finger_block1012 0 CZ2 0 4 T1 0 0 1 20 1 11 11 13 255 4 6375
 0 1 0 12 0 0 13 0 50 255 5 123 0 12 14 0 0 +-1110223024625156e-31 0 0 0 0 1 1 -
104744440165294e-28 0 30 255 6 406 0 9 15 0 0 +-.579453093271659 -.6218795001428
38 0 .707106781186555 .70710678118654 0 29 255 7 6665 0 10 16 0 -1 .957573593128
807 -2.41 19 8 CCCCCCCA5 owner12 0 Z8 6377 0 1 13 0 17 V0 16 255 9 350 0 ?18 0 1
9 6 0 0 1 18 255 10 6663 0 20 0 21 7 ?1 17 255 20 0 22 23 24 10 25 26 0 27 -18 2
1 5243 0 28 10 29 16 ?1 17 28 0 30 31 32 21 33 34 0 35 -18 29 469 0 36 21 37 38
 ?1 29 16 5245 0 21 38 7 1 -.957573593128807 0 29 38 567 0 29 39 16 -3.598076211
35337 -3.640502618224485 0 29 39 568 0 37 40 38 -3.64050261822456 -3.59807621135
329 0 18 37 474 0 41 29 42 39 ?1 29 40 2468 0 42 43 39 3.640502618224525 -3.5980
7621135333 0 18 42 1774 0 44 37 45 40 ?1 29 43 2469 0 45 46 40 3.59807621135333
 -3.640502618224525 0 18 45 1733 0 47 42 48 43 ?1 29 46 3155 0 49 50 43 -3.55564
9804482175 -3.598076211353295 0 18 49 3072 0 51 48 52 46 ?1 29 50 3156 0 48 53 4
6 3.55564980448214 -3.59807621135333 0 18 48 3083 0 54 45 49 50 ?1 29 53 5665 0
 52 55 50 -1 -.957573593128807 0 18 52 5507 0 33 49 56 53 ?1 29 55 6328 0 56 57
 53 -3.64050261822456 -3.59807621135329 -2.41 18 56 6123 0 58 52 59 55 ?1 29 57
 6620 0 59 60 55 1 -.957573593128816 -2.41 18 59 6485 0 61 56 62 57 ?1 29 60 662
1 0 62 63 57 -1 -.957573593128796 -2.41 18 62 6486 0 64 59 65 60 ?1 29 63 6622 0
 66 67 60 -3.640502618224525 3.59807621135333 -2.41 18 66 6497 0 23 68 69 63 ?1
 29 67 6628 0 69 70 63 3.640502618224525 -3.59807621135333 -2.41 18 69 6509 0 71
 66 72 67 ?1 29 70 6629 0 72 73 67 3.640502618224535 3.59807621135332 -2.41 18 7
2 6492 0 74 69 75 70 ?1 29 73 6634 0 65 76 70 -3.640502618224525 3.5980762113533
3 -2.42 18 65 6508 0 77 62 78 73 ?1 29 76 6635 0 78 79 73 -3.64050261822456 -3.5
9807621135329 -2.42 18 78 6507 0 80 65 81 76 ?1 29 79 6636 0 81 82 76 -3.5980762
1135337 -3.640502618224485 -2.42 18 81 6506 0 83 78 84 79 ?1 29 82 6637 0 84 85
 79 -3.555649804482175 -3.598076211353295 -2.42 18 84 6505 0 86 81 87 82 ?1 29 8
5 6638 0 87 88 82 3.55564980448214 -3.59807621135333 -2.42 18 87 6504 0 89 84 90
 85 ?1 29 88 6639 0 90 91 85 3.59807621135333 -3.640502618224525 -2.42 18 90 650
3 0 92 87 93 88 ?1 29 91 6640 0 93 94 88 3.640502618224525 -3.59807621135333 -2.
42 18 93 6502 0 95 90 96 91 ?1 29 94 6641 0 96 97 91 3.640502618224535 3.5980762
1135332 -2.42 18 96 6501 0 98 93 99 94 ?1 29 97 6642 0 99 100 94 3.5980762113533
45 3.64050261822451 -2.42 18 99 6500 0 101 96 102 97 ?1 29 100 6643 0 102 103 97
 3.55564980448215 3.59807621135332 -2.42 18 102 6499 0 104 99 105 100 ?1 29 103
 6644 0 105 106 100 -3.55564980448214 3.59807621135333 -2.42 18 105 6498 0 107 1
02 68 103 ?1 29 106 6645 0 68 108 103 -3.59807621135333 3.640502618224525 -2.42
 18 68 6489 0 109 105 66 106 ?1 29 108 6843 0 110 111 106 1 .957573593128807 0 1
8 110 6710 0 112 113 114 108 ?1 29 111 6844 0 75 115 108 1 .957573593128803 -2.4
1 18 75 6717 0 24 72 113 111 ?1 29 115 6845 0 114 116 111 -3.55564980448214 3.59
807621135333 0 18 114 6709 0 117 110 118 115 ?1 29 116 6846 0 118 119 115 -3.598
07621135333 3.640502618224525 0 18 118 6708 0 120 114 121 116 ?1 29 119 6847 0 1
21 122 116 -3.640502618224525 3.59807621135333 0 18 121 6706 0 123 118 124 119 ?
1 29 122 6848 0 125 126 119 3.640502618224535 3.59807621135332 0 18 125 6704 0 1
27 124 128 122 ?1 29 126 6849 0 128 129 122 3.598076211353345 3.64050261822451 0
 18 128 6702 0 130 125 0 126 ?1 29 129 6850 0 124 131 126 3.55564980448215 3.598
07621135332 0 18 124 6705 0 132 121 125 129 ?1 29 131 6851 0 113 0 129 -1 .95757
3593128807 0 18 113 6711 0 133 75 110 131 ?1 17 133 0 134 135 136 113 112 137 0
 138 -15 255 134 6796 0 25 139 0 17 135 0 134 25 133 10 138 140 0 0 -17 136 0 13
4 133 25 110 141 142 0 143 +17 112 0 144 145 146 110 133 137 0 136 +16 137 6692
 0 ?112 147 140 148 0 0 1 17 138 0 149 150 27 113 135 140 0 146 +15 149 6758 0 1
51 152 0 17 150 0 149 151 138 121 146 153 0 154 -17 27 0 149 138 151 10 23 155 0
 135 +16 140 6687 0 ?138 137 155 156 0 0 1 17 146 0 144 112 154 113 150 153 0 0
 +15 144 6791 0 112 157 0 17 154 0 144 146 158 121 159 160 0 0 +16 153 6699 0 ?1
46 26 160 161 0 0 1 16 26 6700 0 ?25 142 153 162 0 0 1 16 160 6698 0 ?154 153 16
3 164 0 0 1 30 161 6829 0 153 165 166 0 +-.621879500142845 .579453093271652 0 .7
07106781186548 -.707106781186548 0 31 255 165 6830 0 167 168 161 0 +3.6192894147
8894 3.619289414788915 0 0 0 1 -1 3491481338843135e-30 0 .02999999999999965 30 1
66 6828 0 163 161 169 0 +-.579453093271652 .621879500142845 0 -.707106781186548
 .707106781186548 0 16 163 6697 0 ?158 160 170 166 0 0 1 30 169 6826 0 171 166 1
56 0 +-3.640502618224525 3.59807621135333 -3.91 0 0 1 16 171 6685 0 ?123 155 172
 169 0 0 1 30 156 6825 0 140 169 164 0 +-1 .957573593128807 -3.91 0 0 1 31 164 6
824 0 160 156 173 0 +-3.619289414788925 3.619289414788925 0 0 0 1 0 -1 0 .029999
99999999965 30 173 6821 0 170 164 148 0 +-3.55564980448214 3.59807621135333 0 -1
 181100330373051e-29 0 16 170 6696 0 ?174 163 175 173 0 0 1 30 148 6820 0 137 17
3 162 0 +-1 .957573593128807 0 1 -177635683940025e-29 0 30 162 6819 0 26 148 176
 0 +-1 .957573593128807 -2.41 1 -177635683940025e-29 0 30 176 6818 0 177 162 178
 0 +.621879500142847 .57945309327165 -2.41 .70710678118655 .707106781186545 0 16
 177 6680 0 ?179 172 0 176 0 0 1 30 178 6812 0 155 176 180 0 +-3.59807621135333
 3.55564980448214 -2.41 .707106781186548 -.707106781186548 0 16 155 6686 0 ?27 1
40 171 178 0 0 1 31 180 6619 0 181 178 182 0 +-3.619289414788925 3.6192894147889
25 -2.42 0 0 -1 0 1 0 .02999999999999965 16 181 6449 0 ?183 184 185 180 0 0 1 30
 182 6618 0 184 180 186 0 +-3.59807621135333 3.640502618224525 -2.42 .7071067811
86555 -.70710678118654 0 16 184 6452 0 ?107 187 181 182 0 0 1 30 186 6617 0 187
 182 188 0 +-3.55564980448214 3.59807621135333 -2.42 1 -181100330373051e-29 0 16
 187 6455 0 ?104 189 184 186 0 0 1 30 188 6616 0 189 186 190 0 +3.55564980448215
 3.59807621135332 -2.42 .707106781186555 .70710678118654 0 16 189 6458 0 ?101 19
1 187 188 0 0 1 31 190 6615 0 191 188 192 0 +3.61928941478894 3.619289414788915
 -2.42 0 0 -1 0 1 0 .0299999999999995 16 191 6461 0 ?98 193 189 190 0 0 1 30 192
 6614 0 193 190 194 0 +3.640502618224525 -3.59807621135333 -2.42 -17279369787340
95e-30 -1 0 16 193 6464 0 ?95 195 191 192 0 0 1 31 194 6613 0 195 192 196 0 +3.6
19289414788925 -3.619289414788925 -2.42 0 0 -1 0 1 0 .03 16 195 6467 0 ?197 198
 193 194 0 0 1 30 196 6612 0 198 194 199 0 +3.59807621135333 -3.640502618224525
 -2.42 -.707106781186555 .70710678118654 0 16 198 6470 0 ?200 201 195 196 0 0 1
 30 199 6611 0 201 196 202 0 +3.55564980448214 -3.59807621135333 -2.42 -1 537056
15214077e-28 0 16 201 6473 0 ?203 204 198 199 0 0 1 30 202 6610 0 204 199 205 0
 +-3.555649804482175 -3.598076211353295 -2.42 -.707106781186559 -.70710678118653
7 0 16 204 6476 0 ?206 207 201 202 0 0 1 31 205 6609 0 207 202 208 0 +-3.6192894
14788965 -3.61928941478889 -2.42 0 0 -1 0 1 0 .02999999999999965 16 207 6479 0 ?
80 209 204 205 0 0 1 30 208 6608 0 209 205 210 0 +-3.64050261822456 -3.598076211
35329 -2.42 51838109362023e-28 1 0 16 209 6482 0 ?77 211 207 208 0 0 1 30 210 66
02 0 212 208 213 0 +3.640502618224525 -3.59807621135333 -2.41 -1727936978734095e
-30 -1 0 16 212 6421 0 ?214 185 142 210 0 0 1 30 213 6596 0 185 210 215 0 +-3.64
050261822456 -3.59807621135329 -2.41 51838109362023e-28 1 0 16 185 6445 0 ?216 1
81 212 213 0 0 1 30 215 6595 0 211 213 217 0 +-3.640502618224525 3.5980762113533
3 -2.42 0 0 1 16 211 6404 0 ?218 219 209 215 0 0 1 30 217 6594 0 219 215 220 0 +
-3.64050261822456 -3.59807621135329 -2.42 0 0 1 16 219 6448 0 ?221 222 211 217 0
 0 1 30 220 6589 0 222 217 223 0 +3.640502618224525 -3.59807621135333 -2.42 0 0
 1 16 222 6428 0 ?224 225 219 220 0 0 1 30 223 6588 0 225 220 226 0 +3.640502618
224535 3.59807621135332 -2.42 0 0 1 16 225 6424 0 ?74 227 222 223 0 0 1 30 226 6
587 0 227 223 228 0 +3.598076211353345 3.64050261822451 -2.42 0 0 1 16 227 6420
 0 ?130 229 225 226 0 0 1 30 228 6586 0 229 226 230 0 +3.55564980448215 3.598076
21135332 -2.42 0 0 1 16 229 6416 0 ?132 231 227 228 0 0 1 30 230 6585 0 231 228
 232 0 +-3.55564980448214 3.59807621135333 -2.42 0 0 1 16 231 6412 0 ?117 233 22
9 230 0 0 1 30 232 6584 0 233 230 234 0 +-3.59807621135333 3.640502618224525 -2.
42 0 0 1 16 233 6408 0 ?120 235 231 232 0 0 1 30 234 6310 0 235 232 236 0 +3.598
07621135333 -3.55564980448214 -2.41 -.707106781186551 .707106781186544 0 16 235
 6042 0 ?237 238 233 234 0 0 1 30 236 6267 0 238 234 239 0 +-.621879500142851 -.
579453093271645 -2.41 -.707106781186555 -.70710678118654 0 16 238 6035 0 ?240 24
1 235 236 0 0 1 30 239 5025 0 241 236 242 0 +1 -.957573593128816 -2.41 -1 993649
607039515e-29 0 16 241 4863 0 ?243 34 238 239 0 0 1 30 242 5022 0 34 239 244 0 +
1 -.957573593128816 0 -1 993649607039515e-29 0 16 34 4901 0 ?33 245 241 242 0 0
 1 30 244 3143 0 245 242 246 0 +3.55564980448214 -3.59807621135333 0 1 -53081131
3162389e-29 0 16 245 3058 0 ?247 248 34 244 0 0 1 30 246 3135 0 249 244 250 0 +3
.55564980448214 -3.59807621135333 -11.48103573683654 0 0 1 16 249 5806 0 ?54 251
 248 246 0 0 1 30 250 3134 0 248 246 252 0 +-3.555649804482175 -3.59807621135329
5 -11.48103573683654 0 0 1 16 248 5803 0 ?51 249 245 250 0 0 1 31 252 2291 0 251
 250 253 0 +3.619289414788925 -3.619289414788925 0 0 0 1 0 1 0 .0299999999999996
5 16 251 1532 0 ?254 255 249 252 0 0 1 30 253 2289 0 256 252 257 0 +1 -.95757359
3128807 -3.91 0 0 1 16 256 1605 0 ?35 258 259 253 0 0 1 30 257 2288 0 259 253 26
0 0 +3.640502618224525 -3.59807621135333 -3.91 0 0 1 16 259 5830 0 ?44 256 255 2
57 0 0 1 30 260 2287 0 255 257 261 0 +3.59807621135333 -3.640502618224525 -3.91
 0 0 1 16 255 5827 0 ?47 259 251 260 0 0 1 30 261 2274 0 258 260 262 0 +.5794530
93271652 -.621879500142845 0 .707106781186548 -.707106781186548 0 16 258 2957 0
 ?263 264 256 261 0 0 1 30 262 2273 0 264 261 265 0 +.621879500142844 -.57945309
3271652 0 -.707106781186548 .707106781186548 0 16 264 1533 0 ?266 267 258 262 0
 0 1 31 265 549 0 267 262 268 0 +-3.619289414788965 -3.61928941478889 0 0 0 1 1
 -104744440165294e-28 0 .02999999999999965 16 267 454 0 ?269 270 264 265 0 0 1 3
0 268 545 0 271 265 272 0 +-1 -.957573593128797 -3.91 0 0 1 16 271 752 0 ?32 19
 273 268 0 0 1 30 272 543 0 273 268 274 0 +-3.59807621135337 -3.640502618224485
 -3.91 0 0 1 16 273 5986 0 ?36 271 270 272 0 0 1 30 274 542 0 270 272 15 0 +-3.6
4050261822456 -3.59807621135329 -3.91 0 0 1 16 270 5983 0 ?41 273 267 274 0 0 1
 30 15 408 0 19 274 6 0 +-.621879500142851 -.579453093271645 0 -.707106781186555
 -.70710678118654 0 16 19 5328 0 ?275 9 271 15 0 0 1 17 275 0 276 269 33 37 277
 19 0 278 +15 276 5379 0 33 12 0 17 269 0 276 18 275 29 278 267 0 0 +17 33 0 276
 275 266 52 28 34 0 32 +17 277 0 279 280 41 52 275 19 0 0 -17 278 0 281 282 36 3
7 269 267 0 0 -15 281 510 0 282 283 0 17 282 0 281 284 278 56 41 270 0 0 -17 36
 0 281 278 285 29 83 273 0 286 +17 285 0 281 36 284 81 80 207 0 0 -17 83 0 287 2
88 286 81 36 273 0 206 -17 286 0 287 83 51 29 18 9 0 269 -15 287 3016 0 83 289 0
 17 51 0 287 286 288 49 86 248 0 290 +17 18 0 276 247 269 49 286 9 0 0 +17 247 0
 276 263 18 48 290 245 0 291 +17 263 0 276 254 247 45 291 258 0 292 +17 290 0 29
3 86 54 49 247 245 0 18 -17 291 0 294 89 47 48 263 258 0 0 -15 294 2960 0 89 295
 0 17 89 0 294 296 291 87 54 249 0 200 -17 47 0 294 291 296 45 92 255 0 263 +17
 296 0 294 47 89 90 200 198 0 0 -17 92 0 297 298 292 90 47 255 0 197 -15 297 206
7 0 92 299 0 17 298 0 297 224 92 93 197 195 0 0 -17 292 0 297 92 44 45 254 251 0
 0 -17 197 0 300 200 95 90 298 195 0 296 +15 300 6564 0 183 301 0 17 200 0 300 2
03 197 87 296 198 0 302 +17 95 0 300 197 98 93 303 193 0 304 +17 98 0 300 95 101
 96 305 191 0 306 +17 303 0 307 74 304 96 95 193 0 0 -17 304 0 307 303 214 93 22
4 222 0 298 -15 307 6537 0 214 308 0 17 214 0 307 304 74 69 309 212 0 224 +17 22
4 0 297 44 298 69 304 222 0 310 +17 44 0 297 292 224 42 310 259 0 311 +17 310 0
 312 237 311 69 44 259 0 0 -15 312 5260 0 310 313 0 17 237 0 312 35 310 59 71 23
5 0 31 +17 311 0 312 310 35 42 266 264 0 254 -17 35 0 312 311 237 21 31 256 0 26
6 +17 266 0 276 33 254 21 311 264 0 0 +17 254 0 276 266 263 42 292 251 0 0 +17 3
1 0 30 243 28 59 35 256 0 0 -15 30 5759 0 243 314 0 17 243 0 30 32 31 62 61 241
 0 0 +17 32 0 30 28 243 52 280 271 0 277 +17 61 0 22 71 64 59 243 241 0 237 -15
 22 6664 0 309 315 0 17 71 0 22 309 61 69 237 235 0 214 -17 64 0 22 61 58 62 240
 238 0 280 -17 58 0 22 64 23 56 216 185 0 221 -17 240 0 279 41 280 56 64 238 0 2
82 +17 280 0 279 240 277 62 32 271 0 243 -15 279 5343 0 280 316 0 14 255 316 600
9 317 ?318 289 279 4 14 +0 0 318 289 17 81 255 1 317 6934 319 316 0 0 320 321 32
2 14 318 6514 321 ?323 316 324 4 325 -0 0 323 316 17 14 289 5997 320 ?316 283 28
7 4 326 +0 0 316 283 17 50 14 394 0 316 326 5 0 +-.621879500142851 -.57945309327
1645 -.604743139109283 -.70710678118654 .707106781186555 0 -.707106781186555 -.7
0710678118654 0 13 17 6376 0 0 0 0 0 0 8 12 14 12 5357 327 ?314 0 276 4 5 +0 0 3
14 0 17 81 1 327 6926 319 12 0 0 0 328 329 14 314 4933 328 ?299 12 30 4 330 -0 0
 299 12 17 81 1 328 6927 319 314 0 0 327 331 332 14 299 5835 331 ?313 314 297 4
 333 +0 0 313 314 17 50 330 4998 0 314 325 334 0 +1 -.957573593128816 2.00044994
938639 -993649607039515e-29 -1 0 1 -993649607039515e-29 0 51 255 325 6570 0 318
 335 330 0 --3.619289414788925 3.619289414788925 -2.42 0 0 1 .02999999999999965
 0 -1 0 50 334 3126 0 336 330 333 0 +3.55564980448214 -3.59807621135333 -11.4810
3573683654 -530811313162389e-29 -1 0 1 -530811313162389e-29 0 14 336 5811 337 ?2
95 313 293 4 334 +0 0 295 313 17 51 333 2208 0 299 334 338 0 +3.619289414788925
 -3.619289414788925 -3.91 0 0 1 .02999999999999965 0 1 0 50 338 2201 0 313 333 3
39 0 +.621879500142844 -.579453093271652 -.604743139109283 .707106781186548 .707
106781186547 0 -.707106781186548 .707106781186548 0 14 313 5844 340 ?336 299 312
 4 338 +0 0 336 299 17 50 339 2200 0 295 338 341 0 +.579453093271652 -.621879500
142845 -.604743139109283 -.707106781186548 -.707106781186548 0 .707106781186548
 -.707106781186548 0 14 295 5870 342 ?283 336 294 4 339 +0 0 283 336 17 51 341 5
22 0 283 339 326 0 +-3.619289414788965 -3.61928941478889 -3.91 0 0 1 .0299999999
9999965 1 -104744440165294e-28 0 14 283 5991 343 ?289 295 281 4 341 +0 0 289 295
 17 50 326 396 0 289 341 14 0 +-.579453093271659 -.621879500142838 -.60474313910
9283 .70710678118654 -.707106781186555 0 .707106781186555 .70710678118654 0 81 1
 343 6932 319 283 0 0 342 320 344 80 255 1 319 0 345 8001 0 0 0 0 3 5 0 0 0 FFFF
TFTFFFFFFF2 81 1 342 6931 319 295 0 0 337 343 346 81 1 320 6933 319 289 0 0 343
 317 347 83 255 3 344 .792156862745098 .819607843137255 .933333333333333 83 3 34
7 .792156862745098 .819607843137255 .933333333333333 81 1 337 6930 319 336 0 0 3
40 342 348 83 3 346 .792156862745098 .819607843137255 .933333333333333 81 1 340
 6929 319 313 0 0 331 337 349 83 3 348 .792156862745098 .819607843137255 .933333
333333333 81 1 331 6928 319 299 0 0 328 340 350 83 3 349 .792156862745098 .81960
7843137255 .933333333333333 83 3 350 .792156862745098 .819607843137255 .93333333
3333333 79 255 15 345 SDL/TYSA_COLOUR15 293 3116 0 86 336 0 17 86 0 293 302 290
 84 51 248 0 203 -17 302 0 293 54 86 87 203 201 0 0 -17 203 0 300 206 200 84 302
 201 0 288 +17 206 0 300 80 203 81 288 204 0 285 +17 288 0 287 51 83 84 206 204
 0 0 -17 80 0 300 77 206 78 285 207 0 284 +17 77 0 300 183 80 65 351 209 0 352 +
17 284 0 281 285 282 78 221 219 0 351 -17 221 0 353 216 351 56 284 219 0 240 +17
 351 0 353 221 352 78 77 209 0 0 -15 353 6561 0 216 354 0 17 352 0 353 351 216 6
5 218 211 0 355 -17 216 0 353 352 221 66 58 185 0 218 +17 218 0 324 123 355 66 3
52 211 0 151 +17 355 0 324 218 356 65 183 181 0 0 -15 324 6517 0 218 318 0 17 35
6 0 324 355 159 68 120 233 0 0 -17 183 0 300 107 77 68 355 181 0 356 +17 107 0 3
00 104 183 105 109 184 0 357 +17 104 0 300 101 107 102 358 187 0 359 +17 109 0 3
60 120 357 68 107 184 0 183 -17 357 0 360 109 361 105 117 231 0 358 -15 360 6521
 0 120 323 0 17 361 0 360 357 120 114 158 163 0 174 -17 117 0 362 363 358 114 35
7 231 0 361 +17 358 0 362 117 359 105 104 187 0 0 -15 362 6525 0 117 364 0 17 35
9 0 362 358 363 102 132 229 0 365 -17 363 0 362 359 117 124 174 170 0 0 -17 132
 0 366 367 365 124 359 229 0 368 +17 365 0 366 132 369 102 101 189 0 0 -15 366 6
529 0 132 370 0 17 369 0 366 365 367 99 130 227 0 305 -17 101 0 300 98 104 99 36
5 189 0 369 +17 367 0 366 369 132 128 368 175 0 371 -17 130 0 372 373 305 128 36
9 227 0 367 +17 305 0 372 130 306 99 98 191 0 0 -15 372 6533 0 130 374 0 17 306
 0 372 305 375 96 74 225 0 303 -17 375 0 372 306 373 72 127 172 0 0 -17 74 0 307
 214 303 72 306 225 0 309 +17 309 0 22 24 71 72 214 212 0 179 -17 24 0 22 20 309
 75 179 177 0 141 -17 179 0 376 127 141 72 24 177 0 375 +15 376 6733 0 141 377 0
 17 127 0 376 143 179 125 375 172 0 145 +17 141 0 376 179 143 75 136 142 0 25 -1
7 143 0 376 141 127 110 145 147 0 0 -16 142 6701 0 ?136 212 26 168 0 0 1 17 25 0
 134 136 135 75 20 26 0 0 +30 168 6831 0 142 378 165 0 +1 .957573593128804 -3.91
 0 0 1 30 378 6833 0 172 379 168 0 +3.640502618224535 3.59807621135332 -3.91 0 0
 1 16 172 6681 0 ?127 171 177 378 0 0 1 30 379 6834 0 147 380 378 0 +.6218795001
42847 .57945309327165 0 .70710678118655 .707106781186545 0 16 147 6693 0 ?145 16
7 137 379 0 0 1 30 380 6835 0 175 0 379 0 +.579453093271654 .621879500142843 0 -
.70710678118655 -.707106781186545 0 16 175 6695 0 ?368 170 167 380 0 0 1 17 368
 0 144 174 371 124 367 175 0 363 +16 167 6694 0 ?371 175 147 165 0 0 1 17 371 0
 144 368 145 128 373 167 0 0 +17 145 0 144 371 112 125 143 147 0 373 +17 373 0 3
72 375 130 125 371 167 0 0 -17 174 0 144 158 368 114 363 170 0 0 +17 158 0 144 1
54 174 118 361 163 0 159 +17 159 0 324 356 123 118 154 160 0 0 -17 123 0 324 159
 218 121 151 171 0 150 +17 151 0 149 27 150 66 123 171 0 0 -14 377 6723 381 ?152
 315 376 4 382 +0 0 152 315 17 81 1 381 6944 319 377 0 0 383 384 385 14 152 6748
 384 ?157 377 149 4 386 +0 0 157 377 17 14 315 6565 383 ?377 301 22 4 387 -0 0 3
77 301 17 50 382 6811 0 377 0 386 0 +.621879500142847 .57945309327165 -.60474313
9109283 .707106781186545 -.70710678118655 0 .70710678118655 .707106781186545 0 5
0 386 6807 0 152 382 388 0 +-.621879500142845 .579453093271652 -.604743139109283
 -.707106781186548 -.707106781186547 0 .707106781186548 -.707106781186548 0 50 3
88 6804 0 139 386 389 0 +-1 .957573593128807 2.00044994938639 177635683940025e-2
9 1 0 -1 177635683940025e-29 0 14 139 6792 390 ?0 157 134 4 388 -0 0 0 157 17 50
 389 6803 0 157 388 391 0 +-1110223024625156e-31 0 0 0 0 1 1 -104744440165294e-2
8 0 14 157 6772 392 ?139 152 144 4 389 +0 0 139 152 17 50 391 6583 0 301 389 387
 0 +-3.619289414788925 3.619289414788925 -2.42 0 0 -1 0 1 0 14 301 6562 393 ?315
 354 300 4 391 +0 0 315 354 17 50 387 6582 0 315 391 394 0 +-3.619289414788925 3
.619289414788925 -2.41 0 0 -1 0 1 0 50 394 6581 0 354 387 395 0 +-3.640502618224
56 -3.59807621135329 -2.42 1 -51838109362023e-28 0 51838109362023e-28 1 0 14 354
 6558 396 ?301 308 353 4 394 -0 0 301 308 17 50 395 6575 0 308 394 397 0 +3.6405
02618224525 -3.59807621135333 -2.42 -1 1727936978734095e-30 0 -1727936978734095e
-30 -1 0 14 308 6534 398 ?354 374 307 4 395 -0 0 354 374 17 51 397 6574 0 374 39
5 399 0 -3.61928941478894 3.619289414788915 -2.42 0 0 1 .0299999999999995 0 -1 0
 14 374 6530 400 ?308 370 372 4 397 -0 0 308 370 17 50 399 6573 0 370 397 401 0
 +3.55564980448215 3.59807621135332 -2.42 .70710678118654 -.707106781186555 0 .7
07106781186555 .70710678118654 0 14 370 6526 402 ?374 364 366 4 399 -0 0 374 364
 17 50 401 6572 0 364 399 335 0 +-3.55564980448214 3.59807621135333 -2.42 -18110
0330373051e-29 -1 0 1 -181100330373051e-29 0 14 364 6522 403 ?370 323 362 4 401
 -0 0 370 323 17 50 335 6571 0 323 401 325 0 +-3.59807621135333 3.64050261822452
5 -2.42 -.70710678118654 -.707106781186555 0 .707106781186555 -.70710678118654 0
 14 323 6518 404 ?364 318 360 4 335 -0 0 364 318 17 81 1 404 6936 319 323 0 0 32
1 403 405 81 1 321 6935 319 318 0 0 317 404 406 81 1 403 6937 319 364 0 0 404 40
2 407 83 3 405 .792156862745098 .819607843137255 .933333333333333 81 1 402 6938
 319 370 0 0 403 400 408 83 3 407 .792156862745098 .819607843137255 .93333333333
3333 81 1 400 6939 319 374 0 0 402 398 409 83 3 408 .792156862745098 .8196078431
37255 .933333333333333 81 1 398 6940 319 308 0 0 400 396 410 83 3 409 .792156862
745098 .819607843137255 .933333333333333 81 1 396 6941 319 354 0 0 398 393 411 8
3 3 410 .792156862745098 .819607843137255 .933333333333333 81 1 393 6942 319 301
 0 0 396 383 412 83 3 411 .792156862745098 .819607843137255 .933333333333333 81
 1 383 6943 319 315 0 0 393 381 413 83 3 412 .792156862745098 .819607843137255 .
933333333333333 83 3 413 .792156862745098 .819607843137255 .933333333333333 83 3
 406 .792156862745098 .819607843137255 .933333333333333 81 1 392 6946 319 157 0
 0 384 390 414 81 1 384 6945 319 152 0 0 381 392 415 81 1 390 6947 319 139 0 0 3
92 0 416 83 3 414 .792156862745098 .819607843137255 .933333333333333 83 3 416 .7
92156862745098 .819607843137255 .933333333333333 83 3 415 .792156862745098 .8196
07843137255 .933333333333333 83 3 385 .792156862745098 .819607843137255 .9333333
33333333 17 120 0 360 361 109 118 356 233 0 158 +17 54 0 293 290 302 48 89 249 0
 247 +83 3 332 .792156862745098 .819607843137255 .933333333333333 83 3 329 .7921
56862745098 .819607843137255 .933333333333333 83 3 322 .792156862745098 .8196078
43137255 .933333333333333 17 41 0 279 277 240 37 282 270 0 275 +17 23 0 22 58 20
 66 27 155 0 216 -19 13 30 0 1 0 8 4 S0 74 4 CI16 index_map_offset0 0 1 dCCZ20 1
1 1 0 0 390 0 0 0 0 0 0 0 0 0 0 0 0 0 0 0 0 0 0 0 1 0 
