**ABCDEFGHIJKLMNOPQRSTUVWXYZabcdefghijklmnopqrstuvwxyz**************************
**PARASOLID !"#$%&'()*+,-./:;<=>?@[\]^_`{|}~0123456789**************************
**PART1;
MC=AMD64;
MC_MODEL=Intel64 Family 6 Model 37 Stepping 2, GenuineIntel;
MC_ID=unknown;
OS=Windows_NT;
OS_RELEASE=unknown;
FRU=Parasolid Version 25.1, build 198,  6-19-2013;
APPL=SolidWorks 2014-2013262;
SITE=;
USER=unknown;
FORMAT=text;
GUISE=transmit;
KEY=Part1new12;
FILE=Part1new12.x_t;
DATE=Mon Aug 28 21:00:44 2017;
**PART2;
SCH=SCH_2501198_25001;
USFLD_SIZE=0;
**PART3;
**END_OF_HEADER*****************************************************************
T51 : TRANSMIT FILE created by modeller version 250119823 SCH_2501198_25001_1300
6189 0 12 29 CCCCCCCCCCCCCDI5 owner1040 0 CCCCCCCCCA16 index_map_offset0 0 1 dA9
 index_map82 0 A17 node_id_index_map82 0 A20 schema_embedding_map82 0 A5 child12
 0 A14 lowest_node_id0 0 1 dZ1 5957 0 2 0 0 0 0 1e3 1e-8 0 3 0 1 0 1 1 4 5 6 7 8
 9 10 0 0 0 0 0 0 70 11 CI9 list_type0 0 1 uI10 notransmit0 0 1 lCCCDCCDI12 fing
er_index0 0 1 dI12 finger_block1012 0 CZ2 0 4 T1 0 0 1 20 1 11 11 13 255 4 29 0
 1 0 12 0 0 13 0 50 255 5 123 0 14 15 0 0 +-1110223024625156e-31 0 0 0 0 1 1 -10
4744440165294e-28 0 30 255 6 406 0 9 16 0 0 +-.579453093271659 -.621879500142838
 0 .707106781186555 .70710678118654 0 29 255 7 5273 0 10 17 0 -1 .95757359312880
7 0 19 8 CCCCCCCA5 owner12 0 Z8 7 0 1 13 0 18 V0 16 255 9 350 0 ?19 0 20 6 0 0 1
 18 255 10 5271 0 21 0 22 7 ?1 17 255 21 0 23 24 25 10 26 27 0 28 -18 22 5243 0
 29 10 30 17 ?1 17 29 0 31 32 33 22 34 35 0 36 -18 30 2774 0 37 22 38 39 ?1 29 1
7 5245 0 22 39 7 1 -.957573593128807 0 29 39 2776 0 30 40 17 3.55564980448215 3.
59807621135332 0 29 40 562 0 38 41 39 -3.59807621135337 -3.5556498044821 -3.91 1
8 38 466 0 42 30 43 40 ?1 29 41 567 0 44 45 40 -3.59807621135337 -3.640502618224
485 0 18 44 469 0 46 47 48 41 ?1 29 45 568 0 48 49 41 -3.64050261822456 -3.59807
621135329 0 18 48 474 0 50 44 51 45 ?1 29 49 569 0 43 52 45 -3.59807621135337 -3
.640502618224485 -3.91 18 43 470 0 53 38 47 49 ?1 29 52 570 0 47 54 49 -3.640502
61822456 -3.59807621135329 -3.91 18 47 467 0 55 43 44 52 ?1 29 54 2467 0 51 56 5
2 3.59807621135333 -3.55564980448214 -3.91 18 51 1739 0 57 48 58 54 ?1 29 56 246
8 0 59 60 54 3.640502618224525 -3.59807621135333 0 18 59 1774 0 61 62 63 56 ?1 2
9 60 2469 0 63 64 56 3.59807621135333 -3.640502618224525 0 18 63 1733 0 65 59 66
 60 ?1 29 64 2470 0 58 67 60 3.640502618224525 -3.59807621135333 -3.91 18 58 177
5 0 68 51 62 64 ?1 29 67 2471 0 62 69 64 3.59807621135333 -3.640502618224525 -3.
91 18 62 1773 0 70 58 59 67 ?1 29 69 2494 0 66 71 67 3.598076211353345 3.5556498
04482125 -3.91 18 66 1784 0 72 63 73 69 ?1 29 71 2495 0 73 74 69 3.5556498044821
5 3.59807621135332 -3.91 18 73 1738 0 75 66 76 71 ?1 29 74 2496 0 77 78 71 3.598
076211353345 3.64050261822451 0 18 77 1826 0 79 80 81 74 ?1 29 78 2497 0 81 82 7
4 3.640502618224535 3.59807621135332 0 18 81 1735 0 83 77 84 78 ?1 29 82 2498 0
 76 85 78 3.598076211353345 3.64050261822451 -3.91 18 76 1827 0 86 73 80 82 ?1 2
9 85 2499 0 80 87 82 3.640502618224535 3.59807621135332 -3.91 18 80 1824 0 88 76
 77 85 ?1 29 87 2521 0 84 89 85 -3.55564980448214 3.59807621135333 -3.91 18 84 1
788 0 90 81 91 87 ?1 29 89 2522 0 91 92 87 -3.59807621135333 3.55564980448214 -3
.91 18 91 1741 0 93 84 94 89 ?1 29 92 2523 0 95 96 89 -3.640502618224525 3.59807
621135333 0 18 95 1817 0 97 98 99 92 ?1 29 96 2524 0 99 100 92 -3.59807621135333
 3.640502618224525 0 18 99 1737 0 101 95 102 96 ?1 29 100 2525 0 94 103 96 -3.64
0502618224525 3.59807621135333 -3.91 18 94 1818 0 104 91 98 100 ?1 29 103 2526 0
 98 105 100 -3.59807621135333 3.640502618224525 -3.91 18 98 1816 0 106 94 95 103
 ?1 29 105 2945 0 102 107 103 -3.55564980448214 3.59807621135333 0 18 102 2872 0
 108 99 109 105 ?1 29 107 3151 0 110 111 105 -3.555649804482175 -3.5980762113532
95 -3.91 18 110 3071 0 112 113 114 107 ?1 29 111 3152 0 114 115 107 3.5556498044
8214 -3.59807621135333 -3.91 18 114 3084 0 116 110 117 111 ?1 29 115 3155 0 113
 118 111 -3.555649804482175 -3.598076211353295 0 18 113 3072 0 119 109 110 115 ?
1 29 118 3156 0 109 120 115 3.55564980448214 -3.59807621135333 0 18 109 3083 0 1
21 102 113 118 ?1 29 120 4608 0 117 122 118 1 .957573593128803 -2.41 18 117 4477
 0 123 114 124 120 ?1 29 122 5046 0 124 125 120 -1 -.957573593128796 -2.41 18 12
4 4917 0 126 117 127 122 ?1 29 125 5664 0 128 129 122 -1 .957573593128807 -2.41
 18 128 5482 0 24 130 0 125 ?1 29 129 5665 0 127 131 125 -1 -.957573593128807 0
 18 127 5507 0 34 124 132 129 ?1 29 131 5667 0 132 133 129 1 .957573593128807 0
 18 132 5505 0 26 127 130 131 ?1 29 133 5669 0 130 0 131 1 -.957573593128807 -2.
41 18 130 5495 0 32 132 128 133 ?1 17 32 0 31 134 29 130 36 135 0 136 -15 255 31
 5759 0 134 137 0 17 134 0 31 33 32 124 136 138 0 139 +17 36 0 140 61 141 22 32
 135 0 142 +16 135 1605 0 ?36 143 144 145 0 0 1 17 136 0 146 147 148 130 134 138
 0 141 -15 146 4827 0 136 149 0 17 147 0 146 150 136 117 151 152 0 0 -17 148 0 1
46 136 150 124 153 154 0 0 -16 138 4863 0 ?134 35 0 155 0 0 1 17 141 0 140 36 57
 130 156 143 0 151 -15 140 5260 0 36 157 0 17 57 0 140 141 68 51 158 159 0 156 +
17 156 0 160 161 151 51 141 143 0 162 +16 143 1615 0 ?156 163 135 164 0 0 1 17 1
51 0 160 156 165 130 147 152 0 0 +15 160 483 0 151 166 0 17 165 0 160 151 161 11
7 72 167 0 147 +16 152 1229 0 ?151 154 168 169 0 0 1 16 154 438 0 ?153 170 152 1
71 0 0 1 16 168 437 0 ?139 152 172 173 0 0 1 30 169 538 0 152 173 171 0 +1 -1 -2
.41 -104744440165294e-28 -1 0 30 173 540 0 168 174 169 0 --1.01818274580195 -.97
5756338930736 -2.420497813183355 -.654653670707985 -.654653670707971 -.377964473
0092255 30 171 536 0 154 169 175 0 +-1 -.999999999999989 -2.41 104744440165294e-
28 1 0 30 175 532 0 170 171 176 0 -1.000000000000038 3.59807621135332 -3.91 -1 1
04744440165294e-28 0 16 170 1262 0 ?177 178 154 175 0 0 1 30 176 531 0 178 175 1
79 0 -3.59807621135332 -1.000000000000038 -3.91 104744440165294e-28 1 0 16 178 1
268 0 ?162 180 170 176 0 0 1 30 179 530 0 180 176 181 0 -.999999999999962 -3.598
07621135334 -3.91 1 -1058546631899192e-29 0 16 180 1256 0 ?182 183 178 179 0 0 1
 30 181 529 0 183 179 16 0 --3.59807621135334 -.999999999999962 -3.91 -104744440
165294e-28 -1 0 16 183 440 0 ?184 20 180 181 0 0 1 30 16 408 0 20 181 6 0 +-.621
879500142851 -.579453093271645 0 -.707106781186555 -.70710678118654 0 16 20 5328
 0 ?50 9 183 16 0 0 1 17 50 0 185 186 34 48 187 20 0 188 +15 185 5379 0 34 12 0
 17 186 0 185 19 50 44 189 190 0 0 +17 34 0 185 50 142 127 29 35 0 33 +17 187 0
 191 126 188 127 50 20 0 0 -17 188 0 191 187 55 48 192 193 0 189 +15 191 5343 0
 126 194 0 17 55 0 191 188 42 47 195 196 0 192 +17 192 0 197 198 189 47 188 193
 0 199 -16 193 445 0 ?188 200 201 174 0 0 1 17 189 0 197 192 202 48 186 190 0 0
 -15 197 510 0 189 203 0 17 202 0 197 189 198 44 53 200 0 186 +16 190 454 0 ?186
 196 204 205 0 0 1 16 196 444 0 ?55 206 190 207 0 0 1 16 204 1533 0 ?142 190 163
 208 0 0 1 31 255 205 549 0 190 209 210 0 +-3.619289414788965 -3.61928941478889
 0 0 0 1 1 -104744440165294e-28 0 .02999999999999965 30 209 550 0 201 211 205 0
 +-3.57686300791777 -3.61928941478889 -3.91 .707106781186555 .70710678118654 0 3
0 210 545 0 172 205 212 0 +-1 -.957573593128797 -3.91 0 0 1 16 172 752 0 ?33 168
 200 210 0 0 1 30 212 543 0 200 210 174 0 +-3.59807621135337 -3.640502618224485
 -3.91 0 0 1 16 200 452 0 ?202 172 193 212 0 0 1 30 174 542 0 193 212 173 0 +-3.
64050261822456 -3.59807621135329 -3.91 0 0 1 17 33 0 31 29 134 127 126 172 0 187
 +17 126 0 191 42 187 124 33 172 0 134 -17 42 0 191 55 126 38 139 168 0 195 -17
 139 0 213 153 214 124 42 168 0 148 +17 195 0 215 184 199 38 55 196 0 214 -15 21
5 2997 0 182 216 0 17 184 0 215 217 195 91 214 183 0 0 +17 199 0 215 195 218 47
 198 206 0 0 -17 214 0 213 139 219 38 184 183 0 0 -15 213 489 0 153 220 0 17 219
 0 213 214 153 91 221 222 0 184 +17 153 0 213 219 139 128 148 154 0 0 +17 221 0
 223 28 93 128 219 222 0 153 -16 222 1609 0 ?219 224 225 226 0 0 1 16 224 2743 0
 ?101 227 222 228 0 0 1 16 225 1684 0 ?28 222 229 230 0 0 1 30 226 2380 0 222 23
1 228 0 --.1610398886590815 .1186134817878886 -1.925626153877965 .65465367070797
8 -.654653670707978 .3779644730092255 30 231 2381 0 232 233 226 0 +-3.5980762113
5333 3.640502618224525 -3.91 0 0 1 30 228 2377 0 224 226 234 0 +-.57945309327165
2 .621879500142845 0 -.707106781186548 .707106781186548 0 30 234 2376 0 227 228
 235 0 +-.621879500142845 .579453093271652 0 .707106781186548 -.707106781186548
 0 16 227 1539 0 ?236 237 224 234 0 0 1 30 235 2341 0 238 234 239 0 +3.619289414
78894 3.57686300791772 -3.91 .707106781186543 .707106781186553 0 16 238 1688 0 ?
88 240 237 235 0 0 1 31 239 2340 0 240 235 241 0 +3.61928941478894 3.61928941478
8915 -3.91 0 0 1 -1 3491481338843135e-30 0 .02999999999999965 16 240 1705 0 ?242
 243 238 239 0 0 1 30 241 2339 0 243 239 244 0 +3.576863007917745 3.619289414788
915 -3.91 -.70710678118655 -.707106781186545 0 16 243 1698 0 ?75 245 240 241 0 0
 1 31 244 2338 0 237 241 246 0 +3.61928941478894 3.619289414788915 0 0 0 1 -1 34
91481338843135e-30 0 .02999999999999965 16 237 1535 0 ?247 238 227 244 0 0 1 30
 246 2337 0 248 244 249 0 +1 .957573593128804 -3.91 0 0 1 16 248 1703 0 ?25 167
 250 246 0 0 1 30 249 2335 0 250 246 251 0 +3.598076211353345 3.64050261822451 -
3.91 0 0 1 16 250 1706 0 ?252 248 245 249 0 0 1 30 251 2334 0 245 249 253 0 +3.6
40502618224535 3.59807621135332 -3.91 0 0 1 16 245 1689 0 ?254 250 243 251 0 0 1
 30 253 2332 0 167 251 255 0 -1.018182745801942 .975756338930743 -2.420497813183
355 .65465367070798 .654653670707975 -.3779644730092255 16 167 1613 0 ?165 256 2
48 253 0 0 1 30 255 2330 0 256 253 257 0 +.621879500142847 .57945309327165 0 .70
710678118655 .707106781186545 0 16 256 5300 0 ?83 258 167 255 0 0 1 30 257 2329
 0 258 255 259 0 +.579453093271654 .621879500142843 0 -.70710678118655 -.7071067
81186545 0 16 258 1536 0 ?260 261 256 257 0 0 1 30 259 2294 0 262 257 263 0 +3.5
76863007917735 -3.619289414788925 -3.91 .707106781186555 -.70710678118654 0 16 2
62 1591 0 ?70 264 261 259 0 0 1 31 263 2293 0 264 259 265 0 +3.619289414788925 -
3.619289414788925 -3.91 0 0 1 0 1 0 .02999999999999965 16 264 1633 0 ?266 159 26
2 263 0 0 1 30 265 2292 0 159 263 267 0 +3.619289414788925 -3.576863007917735 -3
.91 -.707106781186548 .707106781186548 0 16 159 1601 0 ?57 268 264 265 0 0 1 31
 267 2291 0 261 265 145 0 +3.619289414788925 -3.619289414788925 0 0 0 1 0 1 0 .0
2999999999999965 16 261 1532 0 ?269 262 258 267 0 0 1 30 145 2289 0 135 267 270
 0 +1 -.957573593128807 -3.91 0 0 1 30 270 2288 0 144 145 271 0 +3.6405026182245
25 -3.59807621135333 -3.91 0 0 1 16 144 1634 0 ?272 135 268 270 0 0 1 30 271 228
7 0 268 270 164 0 +3.59807621135333 -3.640502618224525 -3.91 0 0 1 16 268 1592 0
 ?273 144 159 271 0 0 1 30 164 2286 0 143 271 274 0 -.1610398886590815 -.1186134
817878886 -1.925626153877965 -.654653670707978 .654653670707978 .377964473009225
5 30 274 2274 0 163 164 208 0 +.579453093271652 -.621879500142845 0 .70710678118
6548 -.707106781186548 0 16 163 2957 0 ?65 204 143 274 0 0 1 30 208 2273 0 204 2
74 207 0 +.621879500142844 -.579453093271652 0 -.707106781186548 .70710678118654
8 0 30 207 552 0 196 208 211 0 +-3.619289414788965 -3.576863007917695 -3.91 -.70
7106781186548 -.707106781186548 0 31 211 551 0 206 207 209 0 +-3.619289414788965
 -3.61928941478889 -3.91 0 0 1 1 -104744440165294e-28 0 .02999999999999965 16 20
6 451 0 ?198 201 196 211 0 0 1 17 198 0 197 202 192 43 199 206 0 0 +16 201 448 0
 ?275 193 206 209 0 0 1 17 275 0 276 277 53 110 218 201 0 0 +15 276 3016 0 277 2
78 0 17 277 0 276 46 275 113 112 279 0 19 +17 53 0 276 275 46 43 202 200 0 218 -
17 218 0 215 199 182 43 275 201 0 198 -17 182 0 215 218 280 110 116 180 0 275 +1
7 280 0 215 182 281 114 70 262 0 0 -17 116 0 282 121 112 114 182 180 0 283 -15 2
82 3116 0 112 284 0 17 121 0 282 119 116 109 283 285 0 286 +17 112 0 282 116 119
 110 277 279 0 182 -17 283 0 287 70 288 114 121 285 0 280 -15 287 2960 0 283 289
 0 17 70 0 287 273 283 62 280 262 0 290 +17 288 0 287 283 273 109 65 163 0 0 -16
 285 3067 0 ?121 291 279 292 0 0 1 16 291 2847 0 ?293 294 285 295 0 0 1 16 279 3
042 0 ?277 285 296 297 0 0 1 30 292 3135 0 285 298 297 0 +3.55564980448214 -3.59
807621135333 -11.48103573683654 0 0 1 30 298 3143 0 296 299 292 0 +3.55564980448
214 -3.59807621135333 0 1 -530811313162389e-29 0 30 297 3134 0 279 292 295 0 +-3
.555649804482175 -3.598076211353295 -11.48103573683654 0 0 1 30 295 2932 0 291 2
97 300 0 +-3.55564980448214 3.59807621135333 0 -1 181100330373051e-29 0 30 300 2
924 0 301 295 302 0 +-3.55564980448214 3.59807621135333 -11.48103573683654 0 0 1
 16 301 2856 0 ?303 304 294 300 0 0 1 30 302 2923 0 294 300 305 0 +3.55564980448
215 3.59807621135332 -11.48103573683654 0 0 1 16 294 2831 0 ?37 301 291 302 0 0
 1 30 305 2388 0 306 302 307 0 +-3.576863007917735 3.619289414788925 -3.91 -.707
106781186555 .70710678118654 0 16 306 1670 0 ?106 308 304 305 0 0 1 31 307 2387
 0 308 305 309 0 +-3.619289414788925 3.619289414788925 -3.91 0 0 1 0 -1 0 .02999
999999999965 16 308 1663 0 ?310 311 306 307 0 0 1 30 309 2386 0 311 307 312 0 +-
3.619289414788925 3.576863007917735 -3.91 .707106781186548 -.707106781186548 0 1
6 311 1680 0 ?93 232 308 309 0 0 1 31 312 2385 0 304 309 230 0 +-3.6192894147889
25 3.619289414788925 0 0 0 1 0 -1 0 .02999999999999965 16 304 1538 0 ?313 306 30
1 312 0 0 1 30 230 2383 0 225 312 233 0 +-1 .957573593128807 -3.91 0 0 1 30 233
 2382 0 229 230 231 0 +-3.640502618224525 3.59807621135333 -3.91 0 0 1 16 229 16
64 0 ?314 225 232 233 0 0 1 17 314 0 315 316 310 95 104 229 0 313 +16 232 1671 0
 ?317 229 311 231 0 0 1 17 317 0 318 108 106 99 319 232 0 316 +15 318 2746 0 90
 320 0 17 108 0 318 90 317 102 101 224 0 303 -17 106 0 318 317 90 98 321 306 0 3
19 +17 319 0 315 310 316 98 317 232 0 322 -17 316 0 315 319 314 99 313 304 0 0 -
15 315 2112 0 316 323 0 17 313 0 324 236 101 95 316 304 0 0 +15 324 5356 0 26 14
 0 17 236 0 324 26 313 10 97 227 0 0 +17 101 0 324 313 293 99 108 224 0 317 +17
 293 0 324 101 260 102 325 291 0 0 +17 260 0 324 293 247 30 79 258 0 325 +17 325
 0 326 327 303 30 293 291 0 0 -15 326 2905 0 327 328 0 17 327 0 326 329 325 73 3
7 294 0 0 -17 303 0 326 325 329 102 90 301 0 293 +17 329 0 326 303 327 84 177 17
0 0 0 -17 90 0 318 106 108 84 303 301 0 321 -17 321 0 215 177 322 84 106 306 0 3
29 -17 177 0 215 330 321 73 329 170 0 327 +17 322 0 215 321 217 98 310 308 0 0 -
17 217 0 215 322 184 94 93 311 0 310 -17 310 0 315 314 319 94 322 308 0 0 +17 93
 0 223 221 104 91 217 311 0 219 +15 223 5288 0 28 331 0 17 104 0 223 93 97 94 31
4 229 0 217 -17 97 0 223 104 28 95 236 227 0 314 -17 28 0 223 97 221 10 24 225 0
 236 +17 24 0 23 332 21 128 28 225 0 150 -15 23 5757 0 332 333 0 17 332 0 23 25
 24 117 150 334 0 165 +17 150 0 146 148 147 128 332 334 0 221 -16 334 4423 0 ?33
2 27 35 335 0 0 1 16 27 4462 0 ?26 296 334 299 0 0 1 16 35 4901 0 ?34 334 138 33
6 0 0 1 30 335 4587 0 334 336 299 0 +-1 .957573593128807 -2.41 1 -17763568394002
5e-29 0 30 336 5022 0 35 155 335 0 +1 -.957573593128816 0 -1 993649607039515e-29
 0 30 299 4584 0 27 335 298 0 +-1 .957573593128807 0 1 -177635683940025e-29 0 30
 155 5025 0 138 0 336 0 +1 -.957573593128816 -2.41 -1 993649607039515e-29 0 17 2
6 0 324 83 236 132 21 27 0 25 +16 296 3058 0 ?286 279 27 298 0 0 1 17 286 0 185
 65 19 109 119 296 0 288 +17 65 0 185 269 286 63 288 163 0 273 +17 19 0 185 286
 186 113 46 9 0 0 +17 119 0 282 112 121 113 286 296 0 277 -17 46 0 276 53 277 44
 19 9 0 202 -17 269 0 185 142 65 59 337 261 0 0 +17 273 0 287 288 70 63 290 268
 0 337 +17 290 0 338 266 337 62 273 268 0 281 -17 337 0 338 290 272 63 269 261 0
 0 -15 338 2067 0 337 339 0 17 272 0 338 337 266 59 68 144 0 269 +17 266 0 338 2
72 290 58 281 264 0 0 +17 68 0 140 57 61 58 272 144 0 158 -17 61 0 140 68 36 59
 142 204 0 272 -17 158 0 215 281 162 58 57 159 0 266 -17 281 0 215 280 158 62 26
6 264 0 0 -17 162 0 215 158 340 51 161 178 0 0 +17 340 0 215 162 341 66 88 238 0
 161 -17 161 0 160 165 156 66 162 178 0 0 -17 341 0 215 340 330 80 242 240 0 0 -
17 88 0 342 254 72 80 340 238 0 343 +15 342 5316 0 123 344 0 17 254 0 342 345 88
 81 343 245 0 346 +17 72 0 342 88 123 66 165 167 0 340 -17 343 0 347 242 346 80
 254 245 0 341 -15 347 2163 0 346 348 0 17 242 0 347 252 343 76 341 240 0 0 +17
 346 0 347 343 252 81 247 237 0 0 -17 252 0 347 346 242 77 86 250 0 247 +17 247
 0 324 260 83 77 346 237 0 0 +17 83 0 324 247 26 81 345 256 0 254 +17 345 0 342
 123 254 132 83 256 0 0 -17 123 0 342 72 345 117 25 248 0 332 -17 25 0 23 21 332
 132 123 248 0 345 +17 86 0 349 75 79 76 252 250 0 330 -15 349 2781 0 37 350 0 1
7 75 0 349 37 86 73 330 243 0 177 +17 79 0 349 86 37 77 260 258 0 252 -17 330 0
 215 341 177 76 75 243 0 242 -17 37 0 349 79 75 30 327 294 0 260 +14 255 350 214
9 351 ?323 344 349 4 352 +0 0 323 344 18 81 255 1 351 5822 353 350 0 0 354 355 3
56 14 323 2110 355 ?331 350 315 4 357 +0 0 331 350 18 14 344 2140 354 ?350 348 3
42 4 358 +0 0 350 348 18 50 352 2219 0 350 359 358 0 +.579453093271654 .62187950
0142843 -.604743139109283 -.707106781186545 .70710678118655 0 -.70710678118655 -
.707106781186545 0 13 18 8 0 0 0 0 0 0 8 12 14 12 5357 360 ?149 0 185 4 5 +14 14
 149 0 18 81 1 360 5811 353 12 0 0 0 361 362 14 149 4829 361 ?14 12 146 4 363 -0
 0 14 12 18 14 14 113 364 ?194 149 324 4 5 +12 12 194 149 18 81 1 364 5813 353 1
4 0 0 361 365 366 14 194 368 365 ?278 14 191 4 15 +0 0 278 14 18 81 1 365 5814 3
53 194 0 0 364 367 368 14 278 376 367 ?166 194 276 4 369 +0 0 166 194 18 50 15 3
94 0 194 369 5 0 +-.621879500142851 -.579453093271645 -.604743139109283 -.707106
78118654 .707106781186555 0 -.707106781186555 -.70710678118654 0 50 369 396 0 27
8 370 15 0 +-.579453093271659 -.621879500142838 -.604743139109283 .7071067811865
4 -.707106781186555 0 .707106781186555 .70710678118654 0 50 370 516 0 166 371 36
9 0 -1 -1 -2.41 .5 -523722200826468e-29 .86602540378444 .86602540378444 -9071134
60883238e-29 -.5 14 166 481 372 ?220 278 160 4 370 -0 0 220 278 18 50 371 518 0
 220 363 370 0 --1 -.999999999999989 -2.41 -.5 523722200826468e-29 .866025403784
44 .86602540378444 -907113460883238e-29 .5 14 220 487 373 ?216 166 213 4 371 -0
 0 216 166 18 50 363 520 0 149 374 371 0 +-610622663543836e-29 -.57228 -2.41 0 0
 -1 -1 104744440165294e-28 0 50 374 521 0 216 375 363 0 +-610622663543836e-29 -.
57228 -3.91 0 0 -1 -1 104744440165294e-28 0 14 216 490 376 ?203 220 215 4 374 +0
 0 203 220 18 51 255 375 522 0 203 377 374 0 +-3.619289414788965 -3.619289414788
89 -3.91 0 0 1 .02999999999999965 1 -104744440165294e-28 0 14 203 508 378 ?348 2
16 197 4 375 +0 0 348 216 18 50 377 2200 0 289 379 375 0 +.579453093271652 -.621
879500142845 -.604743139109283 -.707106781186548 -.707106781186548 0 .7071067811
86548 -.707106781186548 0 14 289 2021 380 ?157 320 287 4 377 +0 0 157 320 18 50
 379 2201 0 157 381 377 0 +.621879500142844 -.579453093271652 -.604743139109283
 .707106781186548 .707106781186547 0 -.707106781186548 .707106781186548 0 14 157
 2030 382 ?339 289 140 4 379 +0 0 339 289 18 51 381 2208 0 339 358 379 0 +3.6192
89414788925 -3.619289414788925 -3.91 0 0 1 .02999999999999965 0 1 0 14 339 2065
 383 ?328 157 338 4 381 +0 0 328 157 18 50 358 2218 0 344 352 381 0 +.6218795001
42847 .57945309327165 -.604743139109283 .707106781186545 -.70710678118655 0 .707
10678118655 .707106781186545 0 81 1 383 5828 353 339 0 0 382 384 385 14 328 2902
 384 ?284 339 326 4 386 +0 0 284 339 18 81 1 384 5829 353 328 0 0 383 387 388 14
 284 3113 387 ?333 328 282 4 389 +0 0 333 328 18 50 386 2915 0 328 389 357 0 +-3
.55564980448214 3.59807621135333 -11.48103573683654 181100330373051e-29 1 0 -1 1
81100330373051e-29 0 50 389 3126 0 284 390 386 0 +3.55564980448214 -3.5980762113
5333 -11.48103573683654 -530811313162389e-29 -1 0 1 -530811313162389e-29 0 51 35
7 2232 0 323 386 391 0 +-3.619289414788925 3.619289414788925 -3.91 0 0 1 .029999
99999999965 0 -1 0 50 391 2231 0 331 357 392 0 +-.621879500142845 .5794530932716
52 -.604743139109283 -.707106781186548 -.707106781186547 0 .707106781186548 -.70
7106781186548 0 14 331 2128 393 ?320 323 223 4 391 +0 0 320 323 18 50 392 2230 0
 320 391 359 0 +-.579453093271652 .621879500142845 -.604743139109283 .7071067811
86548 .707106781186548 0 -.707106781186548 .707106781186548 0 14 320 2119 394 ?2
89 331 318 4 392 +0 0 289 331 18 51 359 2220 0 348 392 352 0 +3.61928941478894 3
.619289414788915 -3.91 0 0 1 .02999999999999965 -1 3491481338843135e-30 0 14 348
 2161 395 ?344 203 347 4 359 +0 0 344 203 18 81 1 395 5820 353 348 0 0 378 354 3
96 80 255 1 353 0 397 8001 0 0 0 0 3 5 0 0 0 FFFFTFTFFFFFFF2 81 1 378 5819 353 2
03 0 0 376 395 398 81 1 354 5821 353 344 0 0 395 351 399 83 255 3 396 .792156862
745098 .819607843137255 .933333333333333 83 3 399 .792156862745098 .819607843137
255 .933333333333333 81 1 376 5818 353 216 0 0 373 378 400 83 3 398 .79215686274
5098 .819607843137255 .933333333333333 81 1 373 5817 353 220 0 0 372 376 401 83
 3 400 .792156862745098 .819607843137255 .933333333333333 81 1 372 5816 353 166
 0 0 367 373 402 83 3 401 .792156862745098 .819607843137255 .933333333333333 81
 1 367 5815 353 278 0 0 365 372 403 83 3 402 .792156862745098 .819607843137255 .
933333333333333 83 3 403 .792156862745098 .819607843137255 .933333333333333 79 2
55 15 397 SDL/TYSA_COLOUR81 1 394 5825 353 320 0 0 393 380 404 81 1 393 5824 353
 331 0 0 355 394 405 81 1 380 5826 353 289 0 0 394 382 406 83 3 404 .79215686274
5098 .819607843137255 .933333333333333 81 1 382 5827 353 157 0 0 380 383 407 83
 3 406 .792156862745098 .819607843137255 .933333333333333 83 3 407 .792156862745
098 .819607843137255 .933333333333333 81 1 355 5823 353 323 0 0 351 393 408 83 3
 405 .792156862745098 .819607843137255 .933333333333333 83 3 408 .79215686274509
8 .819607843137255 .933333333333333 50 390 4560 0 333 409 389 0 +-1 .95757359312
8807 2.00044994938639 177635683940025e-29 1 0 -1 177635683940025e-29 0 14 333 44
90 410 ?137 284 23 4 390 -0 0 137 284 18 50 409 4998 0 137 0 390 0 +1 -.95757359
3128816 2.00044994938639 -993649607039515e-29 -1 0 1 -993649607039515e-29 0 14 1
37 4933 411 ?0 333 31 4 409 -0 0 0 333 18 81 1 411 5832 353 137 0 0 410 0 412 81
 1 410 5831 353 333 0 0 387 411 413 83 3 412 .792156862745098 .819607843137255 .
933333333333333 81 1 387 5830 353 284 0 0 384 410 414 83 3 413 .792156862745098
 .819607843137255 .933333333333333 83 3 414 .792156862745098 .819607843137255 .9
33333333333333 83 3 388 .792156862745098 .819607843137255 .933333333333333 83 3
 385 .792156862745098 .819607843137255 .933333333333333 83 3 368 .79215686274509
8 .819607843137255 .933333333333333 81 1 361 5812 353 149 0 0 360 364 415 83 3 3
66 .792156862745098 .819607843137255 .933333333333333 83 3 415 .792156862745098
 .819607843137255 .933333333333333 83 3 362 .792156862745098 .819607843137255 .9
33333333333333 83 3 356 .792156862745098 .819607843137255 .933333333333333 17 14
2 0 185 34 269 22 61 204 0 0 +19 13 30 0 1 0 8 4 S0 74 4 CI16 index_map_offset0
 0 1 dCCZ20 11 1 0 0 411 0 0 0 0 0 0 0 0 0 0 0 0 0 0 0 0 0 0 0 1 0 
