**ABCDEFGHIJKLMNOPQRSTUVWXYZabcdefghijklmnopqrstuvwxyz**************************
**PARASOLID !"#$%&'()*+,-./:;<=>?@[\]^_`{|}~0123456789**************************
**PART1;
MC=AMD64;
MC_MODEL=Intel64 Family 6 Model 37 Stepping 2, GenuineIntel;
MC_ID=unknown;
OS=Windows_NT;
OS_RELEASE=unknown;
FRU=Parasolid Version 25.1, build 198,  6-19-2013;
APPL=SolidWorks 2014-2013262;
SITE=;
USER=unknown;
FORMAT=text;
GUISE=transmit;
KEY=Part1new9-6-0;
FILE=Part1new9-6-0.x_t;
DATE=Sun Aug 27 00:48:51 2017;
**PART2;
SCH=SCH_2501198_25001;
USFLD_SIZE=0;
**PART3;
**END_OF_HEADER*****************************************************************
T51 : TRANSMIT FILE created by modeller version 250119823 SCH_2501198_25001_1300
6189 0 12 29 CCCCCCCCCCCCCDI5 owner1040 0 CCCCCCCCCA16 index_map_offset0 0 1 dA9
 index_map82 0 A17 node_id_index_map82 0 A20 schema_embedding_map82 0 A5 child12
 0 A14 lowest_node_id0 0 1 dZ1 1094 0 2 0 0 0 0 1e3 1e-8 0 3 0 1 0 3 1 4 5 6 7 8
 9 10 0 0 0 0 0 0 70 11 CI9 list_type0 0 1 uI10 notransmit0 0 1 lCCCDCCDI12 fing
er_index0 0 1 dI12 finger_block1012 0 CZ2 0 4 T1 0 0 1 20 1 11 11 13 255 4 805 0
 1 0 12 0 0 8 12 50 255 5 2 0 12 0 0 0 +0 0 0 0 0 1 0 -1 0 31 255 6 418 0 9 13 0
 0 +0 0 0 0 0 1 0 -1 0 2.65 29 255 7 803 0 10 14 0 -.990387383040406 -2.39875999
0694985 0 19 8 CCCCCCCA5 owner12 0 Z8 804 0 1 0 0 4 V0 16 255 9 417 0 ?15 0 16 6
 0 0 1 18 255 10 801 0 17 0 18 7 ?1 17 255 17 0 19 20 21 10 22 16 0 23 -18 18 79
5 0 21 10 24 14 ?1 17 21 0 19 17 25 18 26 27 0 22 -18 24 792 0 25 18 28 29 ?1 29
 14 797 0 18 29 7 -.4192341562174865 -.406911977826433 0 29 29 794 0 24 30 14 -.
438459390136241 -.4013992307100965 0 29 30 788 0 28 31 29 -1.009612616959172 -2.
393247243578645 0 18 28 786 0 20 24 32 30 ?1 29 31 785 0 32 33 30 1.582193398003
5 -2.05708062864804 0 18 32 783 0 34 28 35 31 ?1 29 33 779 0 35 36 31 .142779031
7932352 -.566523418331663 0 18 35 777 0 37 32 38 33 ?1 29 36 776 0 38 39 33 .128
392235786471 -.580416585740834 0 18 38 774 0 40 35 41 36 ?1 29 39 770 0 41 42 36
 1.567806601996725 -2.07097379605722 0 18 41 768 0 43 38 44 39 ?1 29 42 767 0 44
 45 39 2.57258078104393 .3416793620470705 0 18 44 765 0 46 41 47 42 ?1 29 45 761
 0 47 48 42 .562013188010753 -.159611440505112 0 18 47 759 0 49 44 50 45 ?1 29 4
8 758 0 50 51 45 .566851625922743 -.17901735503062 0 18 50 756 0 52 47 53 48 ?1
 29 51 752 0 53 54 48 2.577419218955925 .32227344752155 0 18 53 750 0 55 50 56 5
1 ?1 29 54 749 0 56 57 51 .990387383040452 2.398759990695225 0 18 56 747 0 58 53
 59 54 ?1 29 57 743 0 59 60 54 .419234156217547 .406911977826667 0 18 59 741 0 6
1 56 62 57 ?1 29 60 740 0 62 63 57 .438459390136302 .4013992307103305 0 18 62 73
8 0 64 59 65 60 ?1 29 63 734 0 65 66 60 1.00961261695922 2.393247243578885 0 18
 65 732 0 67 62 68 63 ?1 29 66 731 0 68 69 63 -1.58219339800345 2.05708062864826
 0 18 68 729 0 70 65 71 66 ?1 29 69 725 0 71 72 66 -.142779031793176 .5665234183
31893 0 18 71 723 0 73 68 74 69 ?1 29 72 722 0 74 75 69 -.1283922357864116 .5804
16585741065 0 18 74 720 0 76 71 77 72 ?1 29 75 716 0 77 78 72 -1.567806601996675
 2.07097379605744 0 18 77 714 0 79 74 80 75 ?1 29 78 713 0 80 81 75 -2.572580781
043865 -.341679362046857 0 18 80 711 0 82 77 83 78 ?1 29 81 707 0 83 84 78 -.562
013188010691 .1596114405053395 0 18 83 705 0 85 80 86 81 ?1 29 84 704 0 86 87 81
 -.566851625922681 .1790173550308475 0 18 86 702 0 88 83 89 84 ?1 29 87 698 0 89
 90 84 -2.57741921895586 -.322273447521337 0 18 89 696 0 91 86 92 87 ?1 29 90 69
5 0 92 93 87 -.5510583052034 -.1543992961977295 0 18 92 693 0 94 89 95 90 ?1 29
 93 692 0 95 96 90 -.549844483090181 -.1552805656669955 0 18 95 690 0 97 92 98 9
3 ?1 29 96 689 0 98 99 93 -.2974103565969735 .02036484715505845 0 18 98 687 0 10
0 95 101 96 ?1 29 99 686 0 101 102 96 -.297808110427004 .0218111499901163 0 18 1
01 684 0 103 98 104 99 ?1 29 102 683 0 104 105 99 -.488967136833859 -.2973475029
26269 0 18 104 681 0 106 101 107 102 ?1 29 105 680 0 107 108 102 -.4875605628799
49 -.297868607246132 0 18 107 678 0 109 104 110 105 ?1 29 108 677 0 110 111 105
 -.2918759438110305 -.0606306905387237 0 18 110 675 0 112 107 113 108 ?1 29 111
 674 0 113 114 108 -.2926491556850895 -.0593453332351638 0 18 113 672 0 115 110
 116 111 ?1 29 114 671 0 116 117 111 -.3906115128011585 -.4182428056370775 0 18
 116 669 0 118 113 119 114 ?1 29 117 668 0 119 120 114 -.3891165061620695 -.4183
65096884026 0 18 119 666 0 121 116 122 117 ?1 29 120 665 0 122 123 117 -.2646944
275162175 -.137129527282199 0 18 122 663 0 124 119 125 120 ?1 29 123 662 0 125 1
26 120 -.265785751846815 -.1361004445812238 0 18 125 660 0 127 122 128 123 ?1 29
 126 659 0 128 129 123 -.2632860197927625 -.508118952787303 0 18 128 657 0 130 1
25 131 126 ?1 29 129 656 0 131 132 126 -.2618134582717165 -.507833361178997 0 18
 131 654 0 133 128 134 129 ?1 29 132 653 0 134 135 129 -.2178817364289585 -.2034
58094312996 0 18 134 651 0 136 131 137 132 ?1 29 135 650 0 137 138 132 -.2192102
346829705 -.2027616085707965 0 18 137 648 0 139 134 140 135 ?1 29 138 647 0 140
 141 135 -.116433807149733 -.560310241698828 0 18 140 645 0 142 137 143 138 ?1 2
9 141 644 0 143 144 138 -.1150929038982254 -.55963794825836 0 18 143 642 0 145 1
40 146 141 ?1 29 144 641 0 146 147 141 -.154909753693383 -.2546971052474435 0 18
 146 639 0 148 143 149 144 ?1 29 147 638 0 149 150 144 -.156376897232785 -.25438
4871625309 0 18 149 636 0 151 146 152 147 ?1 29 150 635 0 152 153 147 .039053768
3203682 -.570945883232345 0 18 152 633 0 154 149 155 150 ?1 29 153 632 0 155 156
 150 .04016356464239755 -.569936748888657 0 18 155 630 0 157 152 158 153 ?1 29 1
56 629 0 158 159 153 -.0804488231913368 -.287046397047412 0 18 158 627 0 160 155
 161 156 ?1 29 159 626 0 161 162 156 -.0819458006915461 -.287141572484722 0 18 1
61 624 0 163 158 164 159 ?1 29 162 623 0 164 165 159 .191644904453251 -.53923708
0510135 0 18 164 621 0 166 161 167 162 ?1 29 165 620 0 167 168 162 .192441285329
5775 -.537965948141016 0 18 167 618 0 169 164 170 165 ?1 29 168 617 0 170 171 16
5 -213715020651595e-19 -.2981067707282605 0 18 170 615 0 172 167 173 168 ?1 29 1
71 614 0 173 174 168 -.00143715899010788 -.298602296498228 0 18 173 612 0 175 17
0 176 171 ?1 29 174 611 0 176 177 171 .330022614739938 -.467535530371984 0 18 17
6 609 0 178 173 179 174 ?1 29 177 608 0 179 180 174 .3304465162441645 -.46609667
4050208 0 18 179 606 0 181 176 182 177 ?1 29 180 605 0 182 183 177 .080407665213
7471 -.287057928971923 0 18 182 603 0 184 179 185 180 ?1 29 183 602 0 185 186 18
0 .0791780702190624 -.2879170541950695 0 18 185 600 0 187 182 188 183 ?1 29 186
 599 0 188 189 183 .4439240574443675 -.361159008778874 0 18 188 597 0 190 185 19
1 186 ?1 29 189 596 0 191 192 186 .443944040741146 -.3596591418954975 0 18 191 5
94 0 193 188 194 189 ?1 29 192 593 0 194 195 189 .154873233241249 -.254719313826
3795 0 18 194 591 0 196 191 197 192 ?1 29 195 590 0 197 198 192 .153921024175655
 -.2558783211151405 0 18 197 588 0 199 194 200 195 ?1 29 198 587 0 200 201 195 .
524901683625581 -.2279969756971595 0 18 200 585 0 202 197 203 198 ?1 29 201 584
 0 203 204 198 .524516266645207 -.2265473365174875 0 18 203 582 0 205 200 206 20
1 ?1 29 204 581 0 206 207 201 .217852562057147 -.2034893324376545 0 18 206 579 0
 208 203 209 204 ?1 29 207 578 0 209 210 204 .2172483599109725 -.204862263523528
 0 18 209 576 0 211 206 212 207 ?1 29 210 575 0 212 213 207 .566949753197707 -.0
779254499447452 0 18 212 573 0 214 209 215 210 ?1 29 213 572 0 215 216 210 .5661
87520554449 -.0766335515750766 0 18 215 570 0 217 212 218 213 ?1 29 216 569 0 21
8 219 213 .264674762954423 -.1371674781637794 0 18 218 567 0 220 215 221 216 ?1
 29 219 566 0 221 222 216 .264463378636809 -.1386525090288684 0 18 221 564 0 223
 218 224 219 ?1 29 222 563 0 224 225 219 .566949753197701 .0779254499448608 0 18
 224 561 0 226 221 227 222 ?1 29 225 560 0 227 228 222 .565867236199728 .0789637
933124896 0 18 227 558 0 229 224 230 225 ?1 29 228 557 0 230 231 225 .2918672474
898445 -.0606725395339526 0 18 230 555 0 232 227 233 228 ?1 29 231 554 0 233 234
 228 .2920643584086095 -.0621595322325573 0 18 233 552 0 235 230 236 231 ?1 29 2
34 551 0 236 237 231 .524901683625563 .227996975697272 0 18 236 549 0 238 233 23
9 234 ?1 29 237 548 0 239 240 234 .523579167606428 .228704754885389 0 18 239 546
 0 241 236 242 237 ?1 29 240 545 0 242 243 237 .2974132734827575 .02032220379471
05 0 18 242 543 0 244 239 245 240 ?1 29 243 542 0 245 246 240 .2980042608227785
 .01894353270850655 0 18 245 540 0 247 242 248 243 ?1 29 246 539 0 248 249 243 .
443924057444339 .36115900877898 0 18 248 537 0 250 245 251 246 ?1 29 249 536 0 2
51 252 246 .4424596273670735 .361483731043077 0 18 251 534 0 253 248 254 249 ?1
 29 252 533 0 254 255 249 .280901517556648 .0998097422358188 0 18 254 531 0 256
 251 257 252 ?1 29 255 530 0 257 258 252 .281842550490503 .0986416424894789 0 18
 257 528 0 259 254 260 255 ?1 29 258 527 0 260 261 255 .3300226147399015 .467535
530372082 0 18 260 525 0 262 257 263 258 ?1 29 261 524 0 263 264 258 .3285248806
840145 .467453112547336 0 18 263 522 0 265 260 266 261 ?1 29 264 521 0 266 267 2
61 .243556581112299 .1718948486944875 0 18 266 519 0 268 263 269 264 ?1 29 267 5
18 0 269 270 264 .244777867532224 .171023952902497 0 18 269 516 0 271 266 272 26
7 ?1 29 270 515 0 272 273 267 .191644904453209 .539237080510222 0 18 272 513 0 2
74 269 275 270 ?1 29 273 512 0 275 276 270 .190224946501948 .538753635149658 0 1
8 275 510 0 277 272 278 273 ?1 29 276 509 0 278 279 273 .188148167244071 .231231
3005920965 0 18 278 507 0 280 275 281 276 ?1 29 279 506 0 281 282 276 .189559129
9233135 .230722199111264 0 18 281 504 0 283 278 284 279 ?1 29 282 503 0 284 285
 279 .03905376832032395 .57094588323242 0 18 284 501 0 286 281 287 282 ?1 29 285
 500 0 287 288 282 .03781689825905865 .570097265266816 0 18 287 498 0 289 284 29
0 285 ?1 29 288 497 0 290 291 285 .1187856645319442 .2734183847376055 0 18 290 4
95 0 292 287 293 288 ?1 29 291 494 0 293 294 288 .120281658823309 .2733088352957
8 0 18 293 492 0 295 290 296 291 ?1 29 294 491 0 296 297 291 -.1164338071497766
 .56031024169889 0 18 296 489 0 298 293 299 294 ?1 29 297 488 0 299 300 294 -.11
7395856326906 .559159389240586 0 18 299 486 0 301 296 302 297 ?1 29 300 485 0 30
2 303 297 .0406133724897404 .2953272780930095 0 18 302 483 0 304 299 305 300 ?1
 29 303 482 0 305 306 300 .04208344734035565 .295625405471136 0 18 305 480 0 307
 302 308 303 ?1 29 306 479 0 308 309 303 -.2632860197928025 .508118952787354 0 1
8 308 477 0 310 305 311 306 ?1 29 309 476 0 311 312 306 -.2639018972994105 .5067
51219298382 0 18 311 474 0 313 308 314 309 ?1 29 312 473 0 314 315 309 -.0405710
275962101 .2953330982646575 0 18 314 471 0 316 311 317 312 ?1 29 315 470 0 317 3
18 312 -.03923590091286945 .296016791718942 0 18 317 468 0 319 314 320 315 ?1 29
 318 467 0 320 321 315 -.390611512801191 .4182428056371185 0 18 320 465 0 322 31
7 323 318 ?1 29 321 464 0 323 324 318 -.3908355418200645 .416759629653392 0 18 3
23 462 0 325 320 326 321 ?1 29 324 461 0 326 327 321 -.11874646016545 .273435413
597043 0 18 326 459 0 328 323 329 324 ?1 29 327 458 0 329 330 324 -.117645301887
6892 .274453966711671 0 18 329 456 0 331 326 332 327 ?1 29 330 455 0 332 333 327
 -.488967136833882 .2973475029263025 0 18 332 453 0 334 329 335 330 ?1 29 333 45
2 0 335 336 330 -.488782702157556 .2958588848254555 0 18 335 450 0 337 332 338 3
33 ?1 29 336 449 0 338 339 333 -.1881150110131265 .231258275186721 0 18 338 447
 0 340 335 341 336 ?1 29 339 446 0 341 342 336 -.187329489012943 .23253614653675
15 0 18 341 444 0 343 338 344 339 ?1 29 342 443 0 344 345 339 -.551058305203412
 .154399296197758 0 18 344 441 0 346 341 347 342 ?1 29 345 440 0 347 348 342 -.5
50479085508097 .153015639974356 0 18 347 438 0 349 344 350 345 ?1 29 348 437 0 3
50 351 345 -.243531932062871 .1719297684420165 0 18 350 435 0 352 347 353 348 ?1
 29 351 434 0 353 354 348 -.2431203049134945 .1733721841552895 0 18 353 432 0 35
5 350 356 351 ?1 29 354 431 0 356 357 351 -.572280000000008 955735057067697e-29
 0 18 356 429 0 358 353 359 354 ?1 29 357 428 0 359 360 354 -.571348953360751 -.
001176074893664112 0 18 359 426 0 361 356 362 357 ?1 29 360 425 0 362 363 357 -.
280887203795969 .0998500172983252 0 18 362 423 0 364 359 365 360 ?1 29 363 422 0
 365 0 360 -.28088 .10135 0 18 365 420 0 366 362 0 363 ?1 17 366 0 367 364 368 3
65 358 369 0 370 -15 255 367 3 0 366 12 371 17 364 0 367 361 366 362 370 372 0 3
73 -17 368 0 367 366 361 356 374 375 0 0 -17 358 0 0 0 0 356 366 369 0 368 +16 3
69 33 0 ?358 372 0 376 0 0 1 17 370 0 0 0 0 365 364 372 0 0 +16 372 36 0 ?370 37
7 369 378 0 0 1 16 377 39 0 ?373 375 372 379 0 0 1 30 255 378 37 0 372 376 379 0
 +-.28088 .10135 0 .00480253064605304 .999988467783201 0 134 255 376 34 0 369 0
 378 0 +380 381 134 379 40 0 377 378 382 0 +383 384 31 382 43 0 375 379 385 0 +-
.571814476680389 -.00058803744683511 0 0 0 1 0 -1 0 75e-5 136 255 383 3 17 3 15
 6 FFF1 386 387 388 135 255 384 2 0 45 255 51 386 -.571348953360744 -.0011760748
9367367 0 -.568574206632381 .00102056975040993 0 -.562961930666925 .005361360169
16017 0 -.551650351619354 .0137098873791138 0 -.537286452319928 .023582409371708
3 0 -.519750297581843 .0345223324217545 0 -.496010424113969 .0479217761904474 0
 -.465759484396113 .0624721087833653 0 -.428830235983814 .0765103119013078 0 -.3
91568495173481 .0872211397753373 0 -.360485996631788 .0934532875464961 0 -.33574
99309548835 .0968704647657341 0 -.3172984565843875 .0986609918615866 0 -.3020417
28319265 .099519435470326 0 -.289915719920981 .0998319188795238 0 -.283900718982
1685 .0998644899642615 0 -.280887203795969 .0998500172983252 0 127 255 15 387 4
 1 1 1 1 1 1 1 1 1 1 1 1 1 4 128 255 15 388 0 .03125 .0625 .125 .1875 .25 .375 .
5 .625 .75 .8125 .875 .9375 .96875 1 16 375 42 0 ?374 389 377 382 0 0 1 134 385
 46 0 389 382 390 0 +391 392 16 389 45 0 ?346 393 375 385 0 0 1 30 390 49 0 393
 385 394 0 +-.2431203049134945 .1733721841552895 0 .2744180995842805 .9616104755
15191 0 136 391 3 4 3 2 5 FFF1 395 396 397 135 392 2 0 45 12 395 -.2431203049134
945 .1733721841552895 0 -.33590113274271 .199849369147599 0 -.445919956598243 .1
984118198398335 0 -.551058305203408 .154399296197747 0 127 2 396 4 4 128 2 397 0
 1 16 393 48 0 ?398 399 389 390 0 0 1 134 394 52 0 399 390 400 0 +401 402 16 399
 51 0 ?403 404 393 394 0 0 1 31 400 55 0 404 394 405 0 +-.550768695355767 .15370
74680860525 0 0 0 1 0 -1 0 75e-5 136 401 3 17 3 15 6 FFF1 406 407 408 135 402 2
 0 45 51 406 -.550479085508093 .153015639974345 0 -.547214586282988 .15438220936
8202 0 -.540639297495235 .157047857568848 0 -.527494776797966 .162034971239484 0
 -.510999955292046 .1676660596836645 0 -.49116253282553 .1734691027839635 0 -.46
4687871599771 .179966717620374 0 -.4316330860341015 .1858158785504115 0 -.392285
81245507 .189370115033084 0 -.3535160912952955 .189630658996476 0 -.321904802769
505 .187245744076589 0 -.297164074128021 .1838624924441675 0 -.2789137520504855
 .180608473729982 0 -.263991179341773 .1773188678967005 0 -.252230529213699 .174
3482056605465 0 -.246429793252808 .17275674108931 0 -.243531932062871 .171929768
4420165 0 127 15 407 4 1 1 1 1 1 1 1 1 1 1 1 1 1 4 128 15 408 0 .03125 .0625 .12
5 .1875 .25 .375 .5 .625 .75 .8125 .875 .9375 .96875 1 16 404 54 0 ?409 410 399
 400 0 0 1 134 405 58 0 410 400 411 0 +412 413 16 410 57 0 ?334 414 404 405 0 0
 1 30 411 61 0 414 405 415 0 +-.187329489012943 .2325361465367515 0 .52368133345
5585 .851914233353441 0 136 412 3 4 3 2 5 FFF1 416 417 418 135 413 2 0 45 12 416
 -.187329489012943 .232536146536751 0 -.269526293043882 .28306345345975 0 -.3758
53166629661 .311361935822604 0 -.488967136833881 .2973475029262905 0 127 2 417 4
 4 128 2 418 0 1 16 414 60 0 ?419 420 410 411 0 0 1 134 415 64 0 420 411 421 0 +
422 423 16 420 63 0 ?424 425 414 415 0 0 1 31 421 67 0 425 415 426 0 +-.48887491
9495732 .2966031938758775 0 0 0 1 0 -1 0 .000749999999999989 136 422 3 17 3 15 6
 FFF1 427 428 429 135 423 2 0 45 51 427 -.488782702157555 .2958588848254435 0 -.
485270563409143 .296294026768771 0 -.478219920888537 .2970868338188 0 -.46421732
7509505 .298342662543694 0 -.4468149292493995 .2993146853700715 0 -.426147489928
623 .2995504633610295 0 -.3989015454545785 .298664350897351 0 -.3654944362709185
 .295378534656458 0 -.3266473448047125 .288185203043491 0 -.289245016154244 .277
9761397423895 0 -.2594494023022905 .2671510403608055 0 -.236538917358264 .257218
2801729545 0 -.2198432904725115 .2491610513306175 0 -.2063616122717865 .24196737
10710235 0 -.1958385540325275 .235933883617698 0 -.190682297099176 .232836415037
27 0 -.1881150110131265 .231258275186721 0 127 15 428 4 1 1 1 1 1 1 1 1 1 1 1 1
 1 4 128 15 429 0 .03125 .0625 .125 .1875 .25 .375 .5 .625 .75 .8125 .875 .9375
 .96875 1 16 425 66 0 ?430 431 420 421 0 0 1 134 426 70 0 431 421 432 0 +433 434
 16 431 69 0 ?322 435 425 426 0 0 1 30 432 73 0 435 426 436 0 +-.117645301887689
2 .274453966711671 0 .734105518507202 .679035409752151 0 136 433 3 4 3 2 5 FFF1
 437 438 439 135 434 2 0 45 12 437 -.117645301887689 .274453966711671 0 -.183161
9211907345 .3452840163579285 0 -.2779110667059835 .401219761411492 0 -.390611512
8011925 .4182428056371065 0 127 2 438 4 4 128 2 439 0 1 16 435 72 0 ?440 441 431
 432 0 0 1 134 436 76 0 441 432 442 0 +443 444 16 441 75 0 ?445 446 435 436 0 0
 1 31 442 79 0 446 436 447 0 +-.39072352731064 .417501217645257 0 0 0 1 0 -1 0 .
000750000000000013 136 443 3 17 3 15 6 FFF1 448 449 450 135 444 2 0 45 51 448 -.
3908355418200665 .41675962965338 0 -.3873362428123515 .4162310716588835 0 -.3803
33160460102 .4150922386862455 0 -.366511002692628 .4125236433939065 0 -.34949168
39466135 .4087645101161565 0 -.329527037198756 .403415536422797 0 -.303530516536
1625 .395211415566766 0 -.2722487361953095 .38303431611392 0 -.2367829379023585
 .3656269129037445 0 -.2035219613729335 .345705401859836 0 -.177751826568353 .32
7242966116152 0 -.158370751181588 .3114973647566505 0 -.144468057756324 .2992344
93590028 0 -.1334271484611602 .288670261260079 0 -.124922129200534 .280021424752
6265 0 -.1207927672831624 .275647677237641 0 -.11874646016545 .273435413597043 0
 127 15 449 4 1 1 1 1 1 1 1 1 1 1 1 1 1 4 128 15 450 0 .03125 .0625 .125 .1875 .
25 .375 .5 .625 .75 .8125 .875 .9375 .96875 1 16 446 78 0 ?451 452 441 442 0 0 1
 134 447 82 0 452 442 453 0 +454 455 16 452 81 0 ?310 456 446 447 0 0 1 30 453 8
5 0 456 447 457 0 +-.03923590091286945 .296016791718942 0 .890084455560431 .4557
95636189829 0 136 454 3 4 3 2 5 FFF1 458 459 460 135 455 2 0 45 12 458 -.0392359
0091286945 .296016791718942 0 -.0832132675529043 .381896443332112 0 -.1593575743
23256 .461320952754769 0 -.2632860197928075 .508118952787343 0 127 2 459 4 4 128
 2 460 0 1 16 456 84 0 ?461 462 452 453 0 0 1 134 457 88 0 462 453 463 0 +464 46
5 16 462 87 0 ?466 467 456 457 0 0 1 31 463 91 0 467 457 468 0 +-.26359395854611
8 .507435086042873 0 0 0 1 0 -1 0 .00075000000000002 136 464 3 17 3 15 6 FFF1 46
9 470 471 135 465 2 0 45 51 469 -.2639018972994155 .506751219298371 0 -.26067496
50315725 .50529816209451 0 -.254238829428776 .502312151130971 0 -.24162223348230
9 .49610963278369 0 -.2262482392635745 .487898141120134 0 -.208467071605743 .477
361124651367 0 -.1856480177659765 .462447457515519 0 -.158811592811188 .44228219
4610615 0 -.1293574237056496 .415951747265759 0 -.1027046137676124 .387795275818
321 0 -.0828712110183389 .363064778111623 0 -.0684569508877509 .3426741148019715
 0 -.0583782900937369 .32711508236659 0 -.0505970034377576 .3139637987500505 0 -
.0447408015264502 .3033410578264345 0 -.04194459050789655 .298015412221515 0 -.0
405710275962101 .2953330982646575 0 127 15 470 4 1 1 1 1 1 1 1 1 1 1 1 1 1 4 128
 15 471 0 .03125 .0625 .125 .1875 .25 .375 .5 .625 .75 .8125 .875 .9375 .96875 1
 16 467 90 0 ?472 473 462 463 0 0 1 134 468 94 0 473 463 474 0 +475 476 16 473 9
3 0 ?298 477 467 468 0 0 1 30 474 97 0 477 468 478 0 +.04208344734035565 .295625
405471136 0 .980049900410172 .198751585417604 0 136 475 3 4 3 2 5 FFF1 479 480 4
81 135 476 2 0 45 12 479 .0420834473403555 .295625405471136 0 .0229069334639571
 .3901853581643335 0 -.0289852596653648 .487208079435159 0 -.1164338071497844 .5
60310241698881 0 127 2 480 4 4 128 2 481 0 1 16 477 96 0 ?482 483 473 474 0 0 1
 134 478 100 0 483 474 484 0 +485 486 16 483 99 0 ?487 488 477 478 0 0 1 31 484
 103 0 488 478 489 0 +-.116914831738351 .559734815469746 0 0 0 1 0 -1 0 .0007500
00000000025 136 485 3 17 3 15 6 FFF1 490 491 492 135 486 2 0 45 51 490 -.1173958
56326914 .559159389240577 0 -.1146806176030156 .556889599432867 0 -.109288767483
9704 .552277869251503 0 -.0988134485627736 .542901440260464 0 -.0862249976911796
 .530846598982712 0 -.0719460569851256 .515903022046383 0 -.0539968548012569 .49
5385887096698 0 -.033596120102955 .468728026039452 0 -.01233806116352854 .435427
3433857025 0 .00572986519850893 .401124148214705 0 .01815558314234245 .371959736
4253995 0 .0265339882837198 .348436293382198 0 .03204112828219695 .3307350419359
515 0 .0359856898647356 .3159720775755415 0 .0387587467213034 .3041632723342605
 0 .0400144246616073 .298280707410716 0 .0406133724897404 .2953272780930095 0 12
7 15 491 4 1 1 1 1 1 1 1 1 1 1 1 1 1 4 128 15 492 0 .03125 .0625 .125 .1875 .25
 .375 .5 .625 .75 .8125 .875 .9375 .96875 1 16 488 102 0 ?493 494 483 484 0 0 1
 134 489 106 0 494 484 495 0 +496 497 16 494 105 0 ?286 498 488 489 0 0 1 30 495
 109 0 498 489 499 0 +.120281658823309 .27330883529578 0 .997329527576453 -.0730
329612170403 0 136 496 3 4 3 2 5 FFF1 500 501 502 135 497 2 0 45 12 500 .1202816
588233088 .27330883529578 0 .1273282320180456 .36953600996075 0 .103536759103167
2 .476961211692503 0 .03905376832031395 .570945883232413 0 127 2 501 4 4 128 2 5
02 0 1 16 498 108 0 ?503 504 494 495 0 0 1 134 499 112 0 504 495 505 0 +506 507
 16 504 111 0 ?508 509 498 499 0 0 1 31 505 115 0 509 499 510 0 +.03843533328968
42 .570521574249628 0 0 0 1 0 -1 0 .000750000000000033 136 506 3 17 3 15 6 FFF1
 511 512 513 135 507 2 0 45 51 511 .03781689825904865 .570097265266809 0 .039819
0666042414 .567179082781691 0 .04376674238227875 .561283664312791 0 .05132387779
52154 .549428731521952 0 .0601931575068536 .534424593060345 0 .0699108675507691
 .516182752395507 0 .0816590078648991 .491583811671554 0 .0941110231412927 .4604
10444064984 0 .1055963589322182 .422609285394282 0 .113739386275247 .38470347755
88825 0 .1178358607576234 .353268142691076 0 .1195570229291074 .328356546072247
 0 .1200842027518498 .3098258964570675 0 .1198994891735392 .2945461528833305 0 .
119383736034207 .2824270883874405 0 .119005753007773 .2764238870747065 0 .118785
6645319442 .2734183847376055 0 127 15 512 4 1 1 1 1 1 1 1 1 1 1 1 1 1 4 128 15 5
13 0 .03125 .0625 .125 .1875 .25 .375 .5 .625 .75 .8125 .875 .9375 .96875 1 16 5
09 114 0 ?514 515 504 505 0 0 1 134 510 118 0 515 505 516 0 +517 518 16 515 117
 0 ?274 519 509 510 0 0 1 30 516 121 0 519 510 520 0 +.1895591299233135 .2307221
99111264 0 .940641786161402 -.339400987221734 0 136 517 3 4 3 2 5 FFF1 521 522 5
23 135 518 2 0 45 12 521 .189559129923313 .2307221991112635 0 .222306178091259 .
3214798664131385 0 .2283799300981745 .4313403128309715 0 .1916449044531975 .5392
37080510218 0 127 2 522 4 4 128 2 523 0 1 16 519 120 0 ?524 525 515 516 0 0 1 13
4 520 124 0 525 516 526 0 +527 528 16 525 123 0 ?529 530 519 520 0 0 1 31 526 12
7 0 530 520 531 0 +.1909349254775745 .538995357829952 0 0 0 1 0 -1 0 .0007500000
00000015 136 527 3 17 3 15 6 FFF1 532 533 534 135 528 2 0 45 51 532 .19022494650
19365 .538753635149654 0 .1913655528015715 .535403488232253 0 .1935762731855585
 .52866161769391 0 .197654746928252 .515207407235658 0 .202147061577977 .4983667
59900529 0 .2065828228613625 .478179569378422 0 .21125859548282 .451323213781033
 0 .214838382328435 .41794632569185 0 .215699180157162 .378448230014008 0 .21331
33773950205 .3397511098738255 0 .208776791643706 .3083762669075755 0 .2037130601
208305 .2839240958713655 0 .1992211812520725 .2659383815971295 0 .19492089187400
8 .2512750874907535 0 .191154579789706 .239744579312884 0 .1891709690684475 .234
065971589508 0 .188148167244071 .2312313005920965 0 127 15 533 4 1 1 1 1 1 1 1 1
 1 1 1 1 1 4 128 15 534 0 .03125 .0625 .125 .1875 .25 .375 .5 .625 .75 .8125 .87
5 .9375 .96875 1 16 530 126 0 ?535 536 525 526 0 0 1 134 531 130 0 536 526 537 0
 +538 539 16 536 129 0 ?262 540 530 531 0 0 1 30 537 133 0 540 531 541 0 +.24477
7867532224 .171023952902497 0 .814190946616595 -.580597194660441 0 136 538 3 4 3
 2 5 FFF1 542 543 544 135 539 2 0 45 12 542 .2447778675322235 .1710239529024965
 0 .300796691918539 .2495810318461965 0 .336285206446462 .3537288762174005 0 .33
00226147398895 .467535530372081 0 127 2 543 4 4 128 2 544 0 1 16 540 132 0 ?545
 546 536 537 0 0 1 134 541 136 0 546 537 547 0 +548 549 16 546 135 0 ?550 551 54
0 541 0 0 1 31 547 139 0 551 541 552 0 +.329273747711957 .467494321459721 0 0 0
 1 0 -1 0 .000750000000000009 136 548 3 17 3 15 6 FFF1 553 554 555 135 549 2 0 4
5 51 553 .328524880684002 .467453112547335 0 .3287193313867615 .463919466268612
 0 .329029137359192 .456831157356649 0 .3293264676919215 .442775506471756 0 .329
108642853136 .425347344035115 0 .3279334752538595 .404711995226515 0 .3251900995
175485 .377590037790695 0 .31963216151848 .3444850403193705 0 .3098045799479395
 .3062194006990495 0 .297066891157175 .2696009566273365 0 .2842337029838455 .240
6135341350935 0 .272760631568632 .2184342943460195 0 .263582836115091 .202327433
561279 0 .2554859037279285 .189368098366027 0 .2487483628362185 .179281311549166
 0 .245306239752916 .174348453772088 0 .243556581112299 .1718948486944875 0 127
 15 554 4 1 1 1 1 1 1 1 1 1 1 1 1 1 4 128 15 555 0 .03125 .0625 .125 .1875 .25 .
375 .5 .625 .75 .8125 .875 .9375 .96875 1 16 551 138 0 ?556 557 546 547 0 0 1 13
4 552 142 0 557 547 558 0 +559 560 16 557 141 0 ?250 561 551 552 0 0 1 30 558 14
5 0 561 552 562 0 +.281842550490503 .0986416424894789 0 .62735528923693 -.778733
164226649 0 136 559 3 4 3 2 5 FFF1 563 564 565 135 560 2 0 45 12 563 .2818425504
90503 .0986416424894788 0 .356978491159524 .159171913904473 0 .41924974743507 .2
498829870567205 0 .443924057444327 .3611590087789825 0 127 2 564 4 4 128 2 565 0
 1 16 561 144 0 ?566 567 557 558 0 0 1 134 562 148 0 567 558 568 0 +569 570 16 5
67 147 0 ?571 572 561 562 0 0 1 31 568 151 0 572 562 573 0 +.443191842405709 .36
1321369911041 0 0 0 1 0 -1 0 .000749999999999987 136 569 3 17 3 15 6 FFF1 574 57
5 576 135 570 2 0 45 51 574 .4424596273670615 .3614837310430795 0 .4416935009538
75 .3580286597821705 0 .4400794156230405 .351119619941734 0 .4365735509152245 .3
37504971956007 0 .4316617416597385 .3207818614972425 0 .4249628019826045 .301228
7838228425 0 .4150037415167775 .2758527360569075 0 .4007202855085425 .2454748754
206035 0 .380933191305628 .2112796792947895 0 .358788312592802 .17945573377011 0
 .338610300856344 .1550055962694895 0 .3215787947698495 .136744220479437 0 .3083
95757834694 .1237107853646106 0 .2971026948725885 .1134165436869012 0 .287893617
7592095 .1055215690652754 0 .2832482688362865 .1017003087294992 0 .2809015175566
48 .0998097422358188 0 127 15 575 4 1 1 1 1 1 1 1 1 1 1 1 1 1 4 128 15 576 0 .03
125 .0625 .125 .1875 .25 .375 .5 .625 .75 .8125 .875 .9375 .96875 1 16 572 150 0
 ?577 578 567 568 0 0 1 134 573 154 0 578 568 579 0 +580 581 16 578 153 0 ?238 5
82 572 573 0 0 1 30 579 157 0 582 573 583 0 +.2980042608227785 .0189435327085065
5 0 .3939915600141085 -.919114057469283 0 136 580 3 4 3 2 5 FFF1 584 585 586 135
 581 2 0 45 12 584 .2980042608227785 .0189435327085065 0 .386684828779141 .05695
77432715109 0 .471120452596394 .127504419884647 0 .524901683625552 .227996975697
2775 0 127 2 585 4 4 128 2 586 0 1 16 582 156 0 ?587 588 578 579 0 0 1 134 583 1
60 0 588 579 589 0 +590 591 16 588 159 0 ?592 593 582 583 0 0 1 31 589 163 0 593
 583 594 0 +.524240425616001 .2283508652913415 0 0 0 1 0 -1 0 .00075000000000003
5 136 590 3 17 3 15 6 FFF1 595 596 597 135 591 2 0 45 51 595 .523579167606417 .2
287047548853945 0 .521909284168555 .225584505471823 0 .518491016859496 .21936714
65811225 0 .511441971058248 .2072032376527935 0 .502200463808508 .19242545577149
15 0 .490474581763761 .175404811553024 0 .474038454523498 .1536566988320795 0 .4
52088819095764 .1282589619847252 0 .423809730517572 .100670310617457 0 .39390004
62307365 .0760011000945127 0 .3678737217533815 .0579016024319994 0 .346546929888
0855 .0449124533430805 0 .330336377012415 .0359190741566373 0 .3166847382929405
 .02905340280868365 0 .3056871200786675 .02393577453287365 0 .3001830695946795 .
02150951703640085 0 .2974132734827575 .0203222037947105 0 127 15 596 4 1 1 1 1 1
 1 1 1 1 1 1 1 1 4 128 15 597 0 .03125 .0625 .125 .1875 .25 .375 .5 .625 .75 .81
25 .875 .9375 .96875 1 16 593 162 0 ?598 599 588 589 0 0 1 134 594 166 0 599 589
 600 0 +601 602 16 599 165 0 ?226 603 593 594 0 0 1 30 600 169 0 603 594 604 0 +
.2920643584086095 -.0621595322325573 0 .1314072791765618 -.991328465736465 0 136
 601 3 4 3 2 5 FFF1 605 606 607 135 602 2 0 45 12 605 .2920643584086095 -.062159
5322325573 0 .387712521613594 -.0494807226155589 0 .488050309021306 -.0043305668
16359675 0 .566949753197693 .0779254499448692 0 127 2 606 4 4 128 2 607 0 1 16 6
03 168 0 ?608 609 599 600 0 0 1 134 604 172 0 609 600 610 0 +611 612 16 609 171
 0 ?613 614 603 604 0 0 1 31 610 175 0 614 604 615 0 +.566408494698723 .07844462
16286843 0 0 0 1 0 -1 0 75e-5 136 611 3 17 3 15 6 FFF1 616 617 618 135 612 2 0 4
5 51 616 .565867236199719 .0789637933124981 0 .56341744335256 .0764097803710766
 0 .558448511314055 .071345215496512 0 .548379079899216 .0615341871046141 0 .535
493274970854 .0497977342790573 0 .51961010558741 .0365718668339395 0 .4979159039
39843 .0200646471875023 0 .469927993139384 .001530668084151255 0 .43525424081753
8 -.0174053144623431 0 .3997980154125455 -.03309018749319405 0 .369853631618267
 -.0434966883756638 0 .345813264563238 -.050250264996927 0 .327777458295496 -.05
45365904627009 0 .312779723410384 -.0574644960453774 0 .3008092071274145 -.05942
52268977463 0 .2948546653274035 -.060276537135792 0 .2918672474898445 -.06067253
95339526 0 127 15 617 4 1 1 1 1 1 1 1 1 1 1 1 1 1 4 128 15 618 0 .03125 .0625 .1
25 .1875 .25 .375 .5 .625 .75 .8125 .875 .9375 .96875 1 16 614 174 0 ?619 620 60
9 610 0 0 1 134 615 178 0 620 610 621 0 +622 623 16 620 177 0 ?214 624 614 615 0
 0 1 30 621 181 0 624 615 625 0 +.264463378636809 -.1386525090288684 0 -.1409228
7840935 -.990020576725971 0 136 622 3 4 3 2 5 FFF1 626 627 628 135 623 2 0 45 12
 626 .264463378636809 -.1386525090288682 0 .3599853503867335 -.152249429665474 0
 .468783706707708 -.1358443751876192 0 .566949753197701 -.0779254499447347 0 127
 2 627 4 4 128 2 628 0 1 16 624 180 0 ?629 630 620 621 0 0 1 134 625 184 0 630 6
21 631 0 +632 633 16 630 183 0 ?634 635 624 625 0 0 1 31 631 187 0 635 625 636 0
 +.566568636876089 -.0772795007599045 0 0 0 1 0 -1 0 .000749999999999971 136 632
 3 17 3 15 6 FFF1 637 638 639 135 633 2 0 45 51 637 .566187520554443 -.076633551
5750662 0 .563139508226404 -.0784319085883038 0 .556988434416398 -.0819680638388
292 0 .544645421051423 -.0886985726009371 0 .529070999647339 -.0965232573553761
 0 .510208524937705 -.1049734459430574 0 .484865208574665 -.115015507549316 0 .4
52914757709379 -.125311148465881 0 .414417935231727 -.134190066992484 0 .3760447
947454285 -.139727327252063 0 .344403189593807 -.1416690287906102 0 .31943221139
61545 -.141686151061776 0 .300908784978896 -.1409475256557182 0 .285677267314504
 -.1397205161103272 0 .273621651394077 -.1383789311016818 0 .267658239403134 -.1
375921562954296 0 .264674762954423 -.1371674781637794 0 127 15 638 4 1 1 1 1 1 1
 1 1 1 1 1 1 1 4 128 15 639 0 .03125 .0625 .125 .1875 .25 .375 .5 .625 .75 .8125
 .875 .9375 .96875 1 16 635 186 0 ?640 641 630 631 0 0 1 134 636 190 0 641 631 6
42 0 +643 644 16 641 189 0 ?202 645 635 636 0 0 1 30 642 193 0 645 636 646 0 +.2
172483599109725 -.204862263523528 0 -.40280143078293 -.915287390582447 0 136 643
 3 4 3 2 5 FFF1 647 648 649 135 644 2 0 45 12 647 .217248359910972 -.20486226352
3528 0 .305559712545088 -.243726493011894 0 .4147495614103605 -.2572832276978755
 0 .524901683625578 -.2279969756971475 0 127 2 648 4 4 128 2 649 0 1 16 645 192
 0 ?650 651 641 642 0 0 1 134 646 196 0 651 642 652 0 +653 654 16 651 195 0 ?655
 656 645 646 0 0 1 31 652 199 0 656 646 657 0 +.524708975135406 -.22727215610732
05 0 0 0 1 0 -1 0 75e-5 136 653 3 17 3 15 6 FFF1 658 659 660 135 654 2 0 45 51 6
58 .524516266645204 -.226547336517476 0 .521096091966926 -.227456661689794 0 .51
4219073390618 -.2292021468581825 0 .500517902911258 -.2323529649456435 0 .483409
948618757 -.235685560556279 0 .462967112042064 -.238733358456016 0 .435854278800
2405 -.241565488252135 0 .402310906647219 -.2428592103945555 0 .362846147225685
 -.2410225561324985 0 .3244020519425115 -.2360015303586325 0 .2934099385369315 -
.2293344254328365 0 .2693603324149515 -.2226138234733815 0 .2517230836465075 -.2
169050276628735 0 .237387435188446 -.2116141046742015 0 .226140829512607 -.20706
97030272895 0 .220610826317305 -.204703194664864 0 .217852562057147 -.2034893324
376545 0 127 15 659 4 1 1 1 1 1 1 1 1 1 1 1 1 1 4 128 15 660 0 .03125 .0625 .125
 .1875 .25 .375 .5 .625 .75 .8125 .875 .9375 .96875 1 16 656 198 0 ?661 662 651
 652 0 0 1 134 657 202 0 662 652 663 0 +664 665 16 662 201 0 ?190 666 656 657 0
 0 1 30 663 205 0 666 657 667 0 +.153921024175655 -.2558783211151405 0 -.6348060
43729174 -.772671525840647 0 136 664 3 4 3 2 5 FFF1 668 669 670 135 665 2 0 45 1
2 668 .153921024175655 -.2558783211151405 0 .228472108666646 -.317127477346134 0
 .3299553384962 -.359640560202227 0 .4439240574443675 -.361159008778862 0 127 2
 669 4 4 128 2 670 0 1 16 666 204 0 ?671 672 662 663 0 0 1 134 667 208 0 672 663
 673 0 +674 675 16 672 207 0 ?676 677 666 667 0 0 1 31 673 211 0 677 667 678 0 +
.4439340490927695 -.360409075337186 0 0 0 1 0 -1 0 75e-5 136 674 3 17 3 15 6 FFF
1 679 680 681 135 675 2 0 45 51 679 .443944040741146 -.359659141895485 0 .440405
3624222605 -.3596119947387385 0 .4333124360871875 -.359437355175114 0 .419269261
629212 -.358774800824415 0 .401896593154485 -.3573681439204165 0 .38138954637987
4 -.3547875099047335 0 .3545180310678535 -.350199661779866 0 .3218694960889685 -
.3423955156952235 0 .2843637203905865 -.3299795048889895 0 .248699892987658 -.31
4772579593662 0 .2206558145999265 -.2999911368758935 0 .199311229820059 -.287031
2469884425 0 .1838682327565405 -.276775676042746 0 .1714916629697165 -.267813243
164501 0 .1618881768316445 -.26040306236022 0 .1572017174708985 -.25663233354080
7 0 .154873233241249 -.2547193138263795 0 127 15 680 4 1 1 1 1 1 1 1 1 1 1 1 1 1
 4 128 15 681 0 .03125 .0625 .125 .1875 .25 .375 .5 .625 .75 .8125 .875 .9375 .9
6875 1 16 677 210 0 ?682 683 672 673 0 0 1 134 678 214 0 683 673 684 0 +685 686
 16 683 213 0 ?178 687 677 678 0 0 1 30 684 217 0 687 678 688 0 +.07917807021906
24 -.2879170541950695 0 -.819729996456437 -.572750148764302 0 136 685 3 4 3 2 5
 FFF1 689 690 691 135 686 2 0 45 12 689 .0791780702190623 -.2879170541950695 0 .
1344397736787498 -.367008567447283 0 .220689837571012 -.435324997602464 0 .33002
26147399415 -.467535530371973 0 127 2 690 4 4 128 2 691 0 1 16 687 216 0 ?692 69
3 683 684 0 0 1 134 688 220 0 693 684 694 0 +695 696 16 693 219 0 ?697 698 687 6
88 0 0 1 31 694 223 0 698 688 699 0 +.3302345654920635 -.4668161022111 0 0 0 1 0
 -1 0 .000749999999999988 136 695 3 17 3 15 6 FFF1 700 701 702 135 696 2 0 45 51
 700 .330446516244168 -.466096674050197 0 .32705178186721 -.465096551253317 0 .3
202689976716655 -.463014739175191 0 .3069253372413745 -.458587951011539 0 .29057
64059305225 -.452546366900449 0 .271526062803769 -.4445286947886735 0 .246888802
783241 -.432861128450233 0 .217556497460768 -.416537911952033 0 .184791337291579
5 -.39446338332365 0 .154552800696217 -.370198386588961 0 .1315366583272296 -.34
8398878064996 0 .1144801250976196 -.33016087599495 0 .1023767161842168 -.3161191
38694992 0 .0928771386306797 -.304149898573351 0 .0856290186642101 -.29442351782
2633 0 .0821336763896811 -.2895282262528315 0 .0804076652137471 -.28705792897192
3 0 127 15 701 4 1 1 1 1 1 1 1 1 1 1 1 1 1 4 128 15 702 0 .03125 .0625 .125 .187
5 .25 .375 .5 .625 .75 .8125 .875 .9375 .96875 1 16 698 222 0 ?703 704 693 694 0
 0 1 134 699 226 0 704 694 705 0 +706 707 16 704 225 0 ?166 708 698 699 0 0 1 30
 705 229 0 708 699 709 0 +-.00143715899010788 -.298602296498228 0 -.943858325361
777 -.3303505133116375 0 136 706 3 4 3 2 5 FFF1 710 711 712 135 707 2 0 45 12 71
0 -.00143715899010799 -.298602296498228 0 .03043665569814235 -.3896703110533425
 0 .0950567809820118 -.478723371409875 0 .1916449044532575 -.539237080510125 0 1
27 2 711 4 4 128 2 712 0 1 16 708 228 0 ?713 714 704 705 0 0 1 134 709 232 0 714
 705 715 0 +716 717 16 714 231 0 ?718 719 708 709 0 0 1 31 715 235 0 719 709 720
 0 +.192043094891425 -.538601514325582 0 0 0 1 0 -1 0 .000750000000000022 136 71
6 3 17 3 15 6 FFF1 721 722 723 135 717 2 0 45 51 721 .192441285329584 -.53796594
8141006 0 .189442266813416 -.536087024236581 0 .183472672832011 -.53225243812213
1 0 .1718181646803345 -.524389730772416 0 .157705495977299 -.514161296109346 0 .
1415247332985932 -.501301219963599 0 .120948961437316 -.483419265431343 0 .09710
83286706541 -.45978759681351 0 .071513826069774 -.429691717167096 0 .04894323420
91551 -.398168272795884 0 .0326620298465752 -.3709674682868295 0 .02115855320841
5 -.3488039832144155 0 .01329238691482382 -.3320174909790605 0 .0073743418040437
3 -.3179291473982155 0 .003019147909146925 -.30660792786611 0 .00097415626720998
 -.3009511349271835 0 -213715020651595e-19 -.2981067707282605 0 127 15 722 4 1 1
 1 1 1 1 1 1 1 1 1 1 1 4 128 15 723 0 .03125 .0625 .125 .1875 .25 .375 .5 .625 .
75 .8125 .875 .9375 .96875 1 16 719 234 0 ?724 725 714 715 0 0 1 134 720 238 0 7
25 715 726 0 +727 728 16 725 237 0 ?154 729 719 720 0 0 1 30 726 241 0 729 720 7
30 0 +-.0819458006915461 -.287141572484722 0 -.997985000139543 -.063450291539722
 0 136 727 3 4 3 2 5 FFF1 731 732 733 135 728 2 0 45 12 731 -.0819458006915462 -
.2871415724847215 0 -.0758238097971606 -.38343199031163 0 -.0376262021965863 -.4
86617022773512 0 .0390537683203772 -.570945883232337 0 127 2 732 4 4 128 2 733 0
 1 16 729 240 0 ?734 735 725 726 0 0 1 134 730 244 0 735 726 736 0 +737 738 16 7
35 243 0 ?739 740 729 730 0 0 1 31 736 247 0 740 730 741 0 +.0396086664813914 -.
57044131606051 0 0 0 1 0 -1 0 .000749999999999963 136 737 3 17 3 15 6 FFF1 742 7
43 744 135 738 2 0 45 51 742 .04016356464240655 -.569936748888649 0 .03778268547
077555 -.567318375067165 0 .0330690191800357 -.562015408626436 0 .02396802486075
62 -.551299923125293 0 .01313829084207806 -.537643234117227 0 .00102716175723616
 -.520894526954306 0 -.01396111107373276 -.498124406991393 0 -.03054192061591765
 -.468936939007622 0 -.0470675384776405 -.4330517820570635 0 -.0602962280588008
 -.3966078397081785 0 -.0686349919689551 -.36602309844907 0 -.0737322517783168 -
.341577894670912 0 -.0767777778834171 -.323291624836164 0 -.0786753762188285 -.3
081290457896225 0 -.0798146392346544 -.296052630537693 0 -.0802576125691311 -.29
0053874683816 0 -.0804488231913368 -.287046397047412 0 127 15 743 4 1 1 1 1 1 1
 1 1 1 1 1 1 1 4 128 15 744 0 .03125 .0625 .125 .1875 .25 .375 .5 .625 .75 .8125
 .875 .9375 .96875 1 16 740 246 0 ?745 746 735 736 0 0 1 134 741 250 0 746 736 7
47 0 +748 749 16 746 249 0 ?142 750 740 741 0 0 1 30 747 253 0 750 741 751 0 +-.
156376897232785 -.254384871625309 0 -.978095692934546 .2081557480899605 0 136 74
8 3 4 3 2 5 FFF1 752 753 754 135 749 2 0 45 12 752 -.156376897232785 -.254384871
6253085 0 -.176460770190656 -.348756272933139 0 -.1675186220866835 -.45842051568
2787 0 -.1164338071497222 -.560310241698823 0 127 2 753 4 4 128 2 754 0 1 16 750
 252 0 ?755 756 746 747 0 0 1 134 751 256 0 756 747 757 0 +758 759 16 756 255 0
 ?760 761 750 751 0 0 1 31 757 259 0 761 751 762 0 +-.1157633555239736 -.5599740
94978605 0 0 0 1 0 -1 0 75e-5 136 758 3 17 3 15 6 FFF1 763 764 765 135 759 2 0 4
5 51 763 -.1150929038982144 -.559637948258355 0 -.116679064808946 -.556474317327
888 0 -.119787212343825 -.550096267322331 0 -.125659713716325 -.537322722209296
 0 -.132403321221217 -.521250633004768 0 -.1395465896727014 -.501855469814709 0
 -.1478357518442748 -.475885940052421 0 -.1559270153703955 -.443307373679286 0 -
.162158119015828 -.4042943773519365 0 -.165063794928523 -.3656328175094535 0 -.1
64841670414342 -.333932469843598 0 -.1631546729532575 -.3090185362945555 0 -.161
153686131006 -.2905886978399395 0 -.158890101503446 -.2754764224514005 0 -.15672
8939714099 -.263540463952958 0 -.155537041435365 -.257644645463331 0 -.154909753
693383 -.2546971052474435 0 127 15 764 4 1 1 1 1 1 1 1 1 1 1 1 1 1 4 128 15 765
 0 .03125 .0625 .125 .1875 .25 .375 .5 .625 .75 .8125 .875 .9375 .96875 1 16 761
 258 0 ?766 767 756 757 0 0 1 134 762 262 0 767 757 768 0 +769 770 16 767 261 0
 ?130 771 761 762 0 0 1 30 768 265 0 771 762 772 0 +-.2192102346829705 -.2027616
085707965 0 -.885665502674643 .464323828132987 0 136 769 3 4 3 2 5 FFF1 773 774
 775 135 770 2 0 45 12 773 -.2192102346829705 -.2027616085707965 0 -.26401044251
34175 -.2882148982449815 0 -.2849869521233135 -.396225056078183 0 -.263286019792
7505 -.508118952787301 0 127 2 774 4 4 128 2 775 0 1 16 771 264 0 ?776 777 767 7
68 0 0 1 134 772 268 0 777 768 778 0 +779 780 16 777 267 0 ?781 782 771 772 0 0
 1 31 778 271 0 782 772 783 0 +-.262549739032237 -.507976156983162 0 0 0 1 0 -1
 0 75e-5 136 779 3 17 3 15 6 FFF1 784 785 786 135 780 2 0 45 51 784 -.2618134582
717045 -.507833361178994 0 -.2624872626229905 -.504359105173008 0 -.263759374318
1765 -.497379002393899 0 -.2659678461820045 -.483494753074925 0 -.26812518465442
45 -.466199257005319 0 -.269770808929783 -.445596088314961 0 -.270746091204089 -
.4183531899730735 0 -.2697477167134805 -.384799728441446 0 -.265222173690644 -.3
455523082023225 0 -.257589335245012 -.30754048189489 0 -.2488227962655605 -.2770
755975892235 0 -.240476658418218 -.253540686746967 0 -.233577562707316 -.2363341
36479761 0 -.2273206748334005 -.2223929730807325 0 -.222019371722138 -.211482706
7742305 0 -.2192809994729565 -.2061270915346535 0 -.2178817364289585 -.203458094
312996 0 127 15 785 4 1 1 1 1 1 1 1 1 1 1 1 1 1 4 128 15 786 0 .03125 .0625 .125
 .1875 .25 .375 .5 .625 .75 .8125 .875 .9375 .96875 1 16 782 270 0 ?787 788 777
 778 0 0 1 134 783 274 0 788 778 789 0 +790 791 16 788 273 0 ?118 792 782 783 0
 0 1 30 789 277 0 792 783 793 0 +-.265785751846815 -.1361004445812238 0 -.727549
553731469 .686055133983517 0 136 790 3 4 3 2 5 FFF1 794 795 796 135 791 2 0 45 1
2 794 -.265785751846815 -.1361004445812236 0 -.331979668082368 -.206297943049417
5 0 -.3813191036495125 -.304643396673277 0 -.390611512801146 -.4182428056370785
 0 127 2 795 4 4 128 2 796 0 1 16 792 276 0 ?797 798 788 789 0 0 1 134 793 280 0
 798 789 799 0 +800 801 16 798 279 0 ?802 803 792 793 0 0 1 31 799 283 0 803 793
 804 0 +-.389864009481615 -.4183039512605645 0 0 0 1 0 -1 0 75e-5 136 800 3 17 3
 15 6 FFF1 805 806 807 135 801 2 0 45 51 805 -.389116506162057 -.418365096884027
 0 -.388827980967613 -.414837885476823 0 -.3881697101181965 -.407773412215442 0
 -.3865503602182995 -.3938081899463025 0 -.3839614297329145 -.3765720148334715 0
 -.3799873614078745 -.3562888834113535 0 -.373576431560247 -.329793097631917 0 -
.3635624639216185 -.297753247686725 0 -.3486159130535345 -.261182205149963 0 -.3
31010652959176 -.226639275642269 0 -.3143498736063125 -.19966929579817 0 -.29996
3590235809 -.1792588843348165 0 -.288678060003872 -.16455175337361 0 -.278891913
633851 -.152815654276819 0 -.2708436426005885 -.143740244703063 0 -.266761888923
4605 -.1393220341955462 0 -.2646944275162175 -.137129527282199 0 127 15 806 4 1
 1 1 1 1 1 1 1 1 1 1 1 1 4 128 15 807 0 .03125 .0625 .125 .1875 .25 .375 .5 .625
 .75 .8125 .875 .9375 .96875 1 16 803 282 0 ?808 809 798 799 0 0 1 134 804 286 0
 809 799 810 0 +811 812 16 809 285 0 ?106 813 803 804 0 0 1 30 810 289 0 813 804
 814 0 +-.2926491556850895 -.0593453332351638 0 -.515474582705765 .8569048690399
17 0 136 811 3 4 3 2 5 FFF1 815 816 817 135 812 2 0 45 12 815 -.292649155685089
 -.0593453332351637 0 -.3753274803755745 -.1090808131681674 0 -.449370561676851
 -.190467730187917 0 -.488967136833848 -.2973475029262735 0 127 2 816 4 4 128 2
 817 0 1 16 813 288 0 ?818 819 809 810 0 0 1 134 814 292 0 819 810 820 0 +821 82
2 16 819 291 0 ?823 824 813 814 0 0 1 31 820 295 0 824 814 825 0 +-.488263849856
908 -.2976080550862125 0 0 0 1 0 -1 0 75e-5 136 821 3 17 3 15 6 FFF1 826 827 828
 135 822 2 0 45 51 826 -.487560562879937 -.297868607246136 0 -.486331106733519 -
.2945500375718675 0 -.483791274277013 -.287925133492197 0 -.478464202387434 -.27
49146749219535 0 -.471321012074776 -.2590161490237615 0 -.462021989616853 -.2405
5736193831 0 -.448700316986038 -.2167737599424305 0 -.4304134463682925 -.1886237
70681549 0 -.406154404956927 -.157441412770712 0 -.379882424816334 -.12892927112
09548 0 -.3565630588766665 -.1074544357640124 0 -.3372035948077255 -.09168227052
63796 0 -.3223686262041895 -.0805653194939172 0 -.3097790150456875 -.07190469748
02919 0 -.2995806795345715 -.0653372262501314 0 -.2944582694269495 -.06218409893
60494 0 -.2918759438110305 -.0606306905387237 0 127 15 827 4 1 1 1 1 1 1 1 1 1 1
 1 1 1 4 128 15 828 0 .03125 .0625 .125 .1875 .25 .375 .5 .625 .75 .8125 .875 .9
375 .96875 1 16 824 294 0 ?829 830 819 820 0 0 1 134 825 298 0 830 820 831 0 +83
2 833 16 830 297 0 ?94 834 824 825 0 0 1 30 831 301 0 834 825 835 0 +-.297808110
427004 .0218111499901163 0 -.2651692200200995 .96420189003856 0 136 832 3 4 3 2
 5 FFF1 836 837 838 135 833 2 0 45 12 836 -.2978081104270035 .02181114999011635
 0 -.390838970458296 -.0037736583857474 0 -.484094260878147 -.0621659434864038 0
 -.55105830520339 -.1543992961977365 0 127 2 837 4 4 128 2 838 0 1 16 834 300 0
 ?839 840 830 831 0 0 1 134 835 304 0 840 831 841 0 +842 843 16 840 303 0 ?844 8
45 834 835 0 0 1 31 841 307 0 845 835 846 0 +-.550451394146798 -.154839930932373
 0 0 0 1 0 -1 0 75e-5 136 842 3 17 3 15 6 FFF1 847 848 849 135 843 2 0 45 51 847
 -.549844483090171 -.155280565667003 0 -.547765279129773 -.152416760856964 0 -.5
43532252820516 -.1467227647876734 0 -.534892543493571 -.1356319961095938 0 -.523
724871101209 -.1222502403609934 0 -.509790560465909 -.1069848014070042 0 -.49054
6152568338 -.0876773041519768 0 -.465342632508328 -.0655049315012529 0 -.4335702
82677431 -.04202391105279285 0 -.4005800550713195 -.02165717237276575 0 -.372331
5932375925 -.00727017180056963 0 -.3494347513565525 .002693997868522315 0 -.3321
50586137277 .00939627557082956 0 -.317691224056281 .01433910178624798 0 -.306099
1879578905 .01791155537585365 0 -.30031602714399 .0195657464682133 0 -.297410356
5969735 .02036484715505845 0 127 15 848 4 1 1 1 1 1 1 1 1 1 1 1 1 1 4 128 15 849
 0 .03125 .0625 .125 .1875 .25 .375 .5 .625 .75 .8125 .875 .9375 .96875 1 16 845
 306 0 ?850 851 840 841 0 0 1 31 846 310 0 851 841 852 0 +-2.57499999999986 -.33
1976404784097 0 0 0 1 0 -1 0 .01000000000000016 16 851 309 0 ?853 854 845 846 0
 0 1 30 852 313 0 854 846 855 0 +-2.57741921895586 -.322273447521337 0 -.9702957
26275996 -.2419218955996685 0 16 854 312 0 ?856 857 851 852 0 0 1 31 855 319 0 8
57 852 858 0 +-.564432406966686 .1693143977680935 0 0 0 1 0 -1 0 .00999999999999
388 16 857 318 0 ?859 860 854 855 0 0 1 30 858 322 0 860 855 861 0 +-.6319893284
91875 .1421644291524912 0 .970295726275995 .241921895599674 0 16 860 321 0 ?862
 863 857 858 0 0 1 31 861 328 0 863 858 864 0 +-1.575000000000065 2.064027212352
85 0 0 0 1 0 -1 0 .01000000000000016 16 863 327 0 ?865 866 860 861 0 0 1 30 864
 331 0 866 861 867 0 +-1.567806601996675 2.07097379605744 0 -.694658370458996 .7
19339800338652 0 16 866 330 0 ?868 869 863 864 0 0 1 31 867 337 0 869 864 870 0
 +-.1355856337897938 .573470002036479 0 0 0 1 0 -1 0 .00999999999999387 16 869 3
36 0 ?871 872 866 867 0 0 1 30 870 340 0 872 867 873 0 +-.1928766570854495 .6184
01027970964 0 .694658370459 -.719339800338648 0 16 872 339 0 ?874 875 869 870 0
 0 1 31 873 346 0 875 870 876 0 +.999999999999835 2.396003617137055 0 0 0 1 0 -1
 0 .01000000000000022 16 875 345 0 ?877 878 872 873 0 0 1 30 876 349 0 878 873 8
79 0 +1.00961261695922 2.393247243578885 0 .275637355817003 .961261695938318 0 1
6 878 348 0 ?880 881 875 876 0 0 1 31 879 355 0 881 876 882 0 +.4288467731769245
 .404155604268499 0 0 0 1 0 -1 0 .00999999999999388 16 881 354 0 ?883 884 878 87
9 0 0 1 30 882 358 0 884 879 885 0 +.439112671406458 .476236598818585 0 -.275637
3558169995 -.961261695938319 0 16 884 357 0 ?886 887 881 882 0 0 1 31 885 364 0
 887 882 888 0 +2.574999999999925 .33197640478431 0 0 0 1 0 -1 0 .01000000000000
016 16 887 363 0 ?889 890 884 885 0 0 1 30 888 367 0 890 885 891 0 +2.5774192189
55925 .32227344752155 0 .970295726275998 .2419218955996615 0 16 890 366 0 ?892 8
93 887 888 0 0 1 31 891 373 0 893 888 894 0 +.564432406966748 -.169314397767866
 0 0 0 1 0 -1 0 .00999999999999389 16 893 372 0 ?895 896 890 891 0 0 1 30 894 37
6 0 896 891 897 0 +.631989328491937 -.1421644291522646 0 -.970295726275997 -.241
921895599667 0 16 896 375 0 ?898 899 893 894 0 0 1 31 897 382 0 899 894 900 0 +1
.575000000000115 -2.06402721235263 0 0 0 1 0 -1 0 .01000000000000024 16 899 381
 0 ?901 902 896 897 0 0 1 30 900 385 0 902 897 903 0 +1.567806601996725 -2.07097
379605722 0 .694658370458991 -.719339800338657 0 16 902 384 0 ?904 905 899 900 0
 0 1 31 903 391 0 905 900 906 0 +.1355856337898532 -.573470002036249 0 0 0 1 0 -
1 0 .00999999999999387 16 905 390 0 ?907 908 902 903 0 0 1 30 906 394 0 908 903
 909 0 +.1928766570855085 -.618401027970733 0 -.694658370458995 .719339800338653
 0 16 908 393 0 ?910 911 905 906 0 0 1 31 909 400 0 911 906 912 0 +-.99999999999
9789 -2.396003617136815 0 0 0 1 0 -1 0 .01 16 911 399 0 ?23 913 908 909 0 0 1 30
 912 403 0 913 909 914 0 +-1.009612616959172 -2.393247243578645 0 -.275637355817
01 -.961261695938316 0 16 913 402 0 ?915 27 911 912 0 0 1 31 914 409 0 27 912 13
 0 +-.428846773176864 -.404155604268265 0 0 0 1 0 -1 0 .00999999999999388 16 27
 408 0 ?26 16 913 914 0 0 1 30 13 412 0 16 914 6 0 +-.4391126714063975 -.4762365
98818351 0 .275637355817004 .961261695938317 0 16 16 411 0 ?22 9 27 13 0 0 1 17
 22 0 0 0 0 18 17 16 0 0 +17 26 0 0 0 0 24 21 27 0 0 +17 915 0 0 0 0 28 25 913 0
 0 +17 25 0 19 21 20 24 915 913 0 26 -15 19 31 0 20 12 916 17 20 0 19 25 17 28 2
3 911 0 915 -17 23 0 0 0 0 10 20 911 0 0 +14 255 12 1 917 ?0 0 367 4 5 +0 0 0 0
 4 15 916 32 0 15 12 0 17 15 0 916 15 15 0 918 9 0 0 +17 918 0 0 0 0 0 15 9 0 0
 -81 255 1 917 961 919 12 0 0 0 0 920 80 255 1 919 0 921 8001 0 0 0 0 3 5 0 0 0
 FFFFTFTFFFFFFF2 83 255 3 920 .792156862745098 .819607843137255 .933333333333333
 79 255 15 921 SDL/TYSA_COLOUR17 910 0 0 0 0 35 34 908 0 0 +17 34 0 922 43 37 32
 910 908 0 901 -15 922 30 0 43 12 19 17 43 0 922 40 34 41 901 899 0 904 -17 37 0
 922 34 40 35 907 905 0 910 -17 901 0 0 0 0 32 43 899 0 0 +17 40 0 922 37 43 38
 904 902 0 907 -17 907 0 0 0 0 38 37 905 0 0 +17 904 0 0 0 0 41 40 902 0 0 +17 8
98 0 0 0 0 47 46 896 0 0 +17 46 0 923 55 49 44 898 896 0 889 -15 923 29 0 55 12
 922 17 55 0 923 52 46 53 889 887 0 892 -17 49 0 923 46 52 47 895 893 0 898 -17
 889 0 0 0 0 44 55 887 0 0 +17 52 0 923 49 55 50 892 890 0 895 -17 895 0 0 0 0 5
0 49 893 0 0 +17 892 0 0 0 0 53 52 890 0 0 +17 886 0 0 0 0 59 58 884 0 0 +17 58
 0 924 67 61 56 886 884 0 877 -15 924 28 0 67 12 923 17 67 0 924 64 58 65 877 87
5 0 880 -17 61 0 924 58 64 59 883 881 0 886 -17 877 0 0 0 0 56 67 875 0 0 +17 64
 0 924 61 67 62 880 878 0 883 -17 883 0 0 0 0 62 61 881 0 0 +17 880 0 0 0 0 65 6
4 878 0 0 +17 874 0 0 0 0 71 70 872 0 0 +17 70 0 925 79 73 68 874 872 0 865 -15
 925 27 0 79 12 924 17 79 0 925 76 70 77 865 863 0 868 -17 73 0 925 70 76 71 871
 869 0 874 -17 865 0 0 0 0 68 79 863 0 0 +17 76 0 925 73 79 74 868 866 0 871 -17
 871 0 0 0 0 74 73 869 0 0 +17 868 0 0 0 0 77 76 866 0 0 +17 862 0 0 0 0 83 82 8
60 0 0 +17 82 0 926 91 85 80 862 860 0 853 -15 926 26 0 91 12 925 17 91 0 926 88
 82 89 853 851 0 856 -17 85 0 926 82 88 83 859 857 0 862 -17 853 0 0 0 0 80 91 8
51 0 0 +17 88 0 926 85 91 86 856 854 0 859 -17 859 0 0 0 0 86 85 857 0 0 +17 856
 0 0 0 0 89 88 854 0 0 +17 850 0 0 0 0 95 927 845 0 0 +17 927 0 928 103 97 92 85
0 845 0 0 -15 928 25 0 103 12 926 17 103 0 928 100 927 101 94 830 0 839 -17 97 0
 928 927 100 95 844 840 0 850 -17 100 0 928 97 103 98 839 834 0 844 -17 844 0 0
 0 0 98 97 840 0 0 +17 839 0 0 0 0 101 100 834 0 0 +17 94 0 0 0 0 92 103 830 0 9
27 +17 829 0 0 0 0 107 929 824 0 0 +17 929 0 930 115 109 104 829 824 0 0 -15 930
 24 0 115 12 928 17 115 0 930 112 929 113 106 809 0 818 -17 109 0 930 929 112 10
7 823 819 0 829 -17 112 0 930 109 115 110 818 813 0 823 -17 823 0 0 0 0 110 109
 819 0 0 +17 818 0 0 0 0 113 112 813 0 0 +17 106 0 0 0 0 104 115 809 0 929 +17 8
08 0 0 0 0 119 931 803 0 0 +17 931 0 932 127 121 116 808 803 0 0 -15 932 23 0 12
7 12 930 17 127 0 932 124 931 125 118 788 0 797 -17 121 0 932 931 124 119 802 79
8 0 808 -17 124 0 932 121 127 122 797 792 0 802 -17 802 0 0 0 0 122 121 798 0 0
 +17 797 0 0 0 0 125 124 792 0 0 +17 118 0 0 0 0 116 127 788 0 931 +17 787 0 0 0
 0 131 933 782 0 0 +17 933 0 934 139 133 128 787 782 0 0 -15 934 22 0 139 12 932
 17 139 0 934 136 933 137 130 767 0 776 -17 133 0 934 933 136 131 781 777 0 787
 -17 136 0 934 133 139 134 776 771 0 781 -17 781 0 0 0 0 134 133 777 0 0 +17 776
 0 0 0 0 137 136 771 0 0 +17 130 0 0 0 0 128 139 767 0 933 +17 766 0 0 0 0 143 9
35 761 0 0 +17 935 0 936 151 145 140 766 761 0 0 -15 936 21 0 151 12 934 17 151
 0 936 148 935 149 142 746 0 755 -17 145 0 936 935 148 143 760 756 0 766 -17 148
 0 936 145 151 146 755 750 0 760 -17 760 0 0 0 0 146 145 756 0 0 +17 755 0 0 0 0
 149 148 750 0 0 +17 142 0 0 0 0 140 151 746 0 935 +17 745 0 0 0 0 155 937 740 0
 0 +17 937 0 938 163 157 152 745 740 0 0 -15 938 20 0 163 12 936 17 163 0 938 16
0 937 161 154 725 0 734 -17 157 0 938 937 160 155 739 735 0 745 -17 160 0 938 15
7 163 158 734 729 0 739 -17 739 0 0 0 0 158 157 735 0 0 +17 734 0 0 0 0 161 160
 729 0 0 +17 154 0 0 0 0 152 163 725 0 937 +17 724 0 0 0 0 167 939 719 0 0 +17 9
39 0 940 175 169 164 724 719 0 0 -15 940 19 0 175 12 938 17 175 0 940 172 939 17
3 166 704 0 713 -17 169 0 940 939 172 167 718 714 0 724 -17 172 0 940 169 175 17
0 713 708 0 718 -17 718 0 0 0 0 170 169 714 0 0 +17 713 0 0 0 0 173 172 708 0 0
 +17 166 0 0 0 0 164 175 704 0 939 +17 703 0 0 0 0 179 941 698 0 0 +17 941 0 942
 187 181 176 703 698 0 0 -15 942 18 0 187 12 940 17 187 0 942 184 941 185 178 68
3 0 692 -17 181 0 942 941 184 179 697 693 0 703 -17 184 0 942 181 187 182 692 68
7 0 697 -17 697 0 0 0 0 182 181 693 0 0 +17 692 0 0 0 0 185 184 687 0 0 +17 178
 0 0 0 0 176 187 683 0 941 +17 682 0 0 0 0 191 943 677 0 0 +17 943 0 944 199 193
 188 682 677 0 0 -15 944 17 0 199 12 942 17 199 0 944 196 943 197 190 662 0 671
 -17 193 0 944 943 196 191 676 672 0 682 -17 196 0 944 193 199 194 671 666 0 676
 -17 676 0 0 0 0 194 193 672 0 0 +17 671 0 0 0 0 197 196 666 0 0 +17 190 0 0 0 0
 188 199 662 0 943 +17 661 0 0 0 0 203 945 656 0 0 +17 945 0 946 211 205 200 661
 656 0 0 -15 946 16 0 211 12 944 17 211 0 946 208 945 209 202 641 0 650 -17 205
 0 946 945 208 203 655 651 0 661 -17 208 0 946 205 211 206 650 645 0 655 -17 655
 0 0 0 0 206 205 651 0 0 +17 650 0 0 0 0 209 208 645 0 0 +17 202 0 0 0 0 200 211
 641 0 945 +17 640 0 0 0 0 215 947 635 0 0 +17 947 0 948 223 217 212 640 635 0 0
 -15 948 15 0 223 12 946 17 223 0 948 220 947 221 214 620 0 629 -17 217 0 948 94
7 220 215 634 630 0 640 -17 220 0 948 217 223 218 629 624 0 634 -17 634 0 0 0 0
 218 217 630 0 0 +17 629 0 0 0 0 221 220 624 0 0 +17 214 0 0 0 0 212 223 620 0 9
47 +17 619 0 0 0 0 227 949 614 0 0 +17 949 0 950 235 229 224 619 614 0 0 -15 950
 14 0 235 12 948 17 235 0 950 232 949 233 226 599 0 608 -17 229 0 950 949 232 22
7 613 609 0 619 -17 232 0 950 229 235 230 608 603 0 613 -17 613 0 0 0 0 230 229
 609 0 0 +17 608 0 0 0 0 233 232 603 0 0 +17 226 0 0 0 0 224 235 599 0 949 +17 5
98 0 0 0 0 239 951 593 0 0 +17 951 0 952 247 241 236 598 593 0 0 -15 952 13 0 24
7 12 950 17 247 0 952 244 951 245 238 578 0 587 -17 241 0 952 951 244 239 592 58
8 0 598 -17 244 0 952 241 247 242 587 582 0 592 -17 592 0 0 0 0 242 241 588 0 0
 +17 587 0 0 0 0 245 244 582 0 0 +17 238 0 0 0 0 236 247 578 0 951 +17 577 0 0 0
 0 251 953 572 0 0 +17 953 0 954 259 253 248 577 572 0 0 -15 954 12 0 259 12 952
 17 259 0 954 256 953 257 250 557 0 566 -17 253 0 954 953 256 251 571 567 0 577
 -17 256 0 954 253 259 254 566 561 0 571 -17 571 0 0 0 0 254 253 567 0 0 +17 566
 0 0 0 0 257 256 561 0 0 +17 250 0 0 0 0 248 259 557 0 953 +17 556 0 0 0 0 263 9
55 551 0 0 +17 955 0 956 271 265 260 556 551 0 0 -15 956 11 0 271 12 954 17 271
 0 956 268 955 269 262 536 0 545 -17 265 0 956 955 268 263 550 546 0 556 -17 268
 0 956 265 271 266 545 540 0 550 -17 550 0 0 0 0 266 265 546 0 0 +17 545 0 0 0 0
 269 268 540 0 0 +17 262 0 0 0 0 260 271 536 0 955 +17 535 0 0 0 0 275 957 530 0
 0 +17 957 0 958 283 277 272 535 530 0 0 -15 958 10 0 283 12 956 17 283 0 958 28
0 957 281 274 515 0 524 -17 277 0 958 957 280 275 529 525 0 535 -17 280 0 958 27
7 283 278 524 519 0 529 -17 529 0 0 0 0 278 277 525 0 0 +17 524 0 0 0 0 281 280
 519 0 0 +17 274 0 0 0 0 272 283 515 0 957 +17 514 0 0 0 0 287 959 509 0 0 +17 9
59 0 960 295 289 284 514 509 0 0 -15 960 9 0 295 12 958 17 295 0 960 292 959 293
 286 494 0 503 -17 289 0 960 959 292 287 508 504 0 514 -17 292 0 960 289 295 290
 503 498 0 508 -17 508 0 0 0 0 290 289 504 0 0 +17 503 0 0 0 0 293 292 498 0 0 +
17 286 0 0 0 0 284 295 494 0 959 +17 493 0 0 0 0 299 961 488 0 0 +17 961 0 962 3
07 301 296 493 488 0 0 -15 962 8 0 307 12 960 17 307 0 962 304 961 305 298 473 0
 482 -17 301 0 962 961 304 299 487 483 0 493 -17 304 0 962 301 307 302 482 477 0
 487 -17 487 0 0 0 0 302 301 483 0 0 +17 482 0 0 0 0 305 304 477 0 0 +17 298 0 0
 0 0 296 307 473 0 961 +17 472 0 0 0 0 311 963 467 0 0 +17 963 0 964 319 313 308
 472 467 0 0 -15 964 7 0 319 12 962 17 319 0 964 316 963 317 310 452 0 461 -17 3
13 0 964 963 316 311 466 462 0 472 -17 316 0 964 313 319 314 461 456 0 466 -17 4
66 0 0 0 0 314 313 462 0 0 +17 461 0 0 0 0 317 316 456 0 0 +17 310 0 0 0 0 308 3
19 452 0 963 +17 451 0 0 0 0 323 965 446 0 0 +17 965 0 966 331 325 320 451 446 0
 0 -15 966 6 0 331 12 964 17 331 0 966 328 965 329 322 431 0 440 -17 325 0 966 9
65 328 323 445 441 0 451 -17 328 0 966 325 331 326 440 435 0 445 -17 445 0 0 0 0
 326 325 441 0 0 +17 440 0 0 0 0 329 328 435 0 0 +17 322 0 0 0 0 320 331 431 0 9
65 +17 430 0 0 0 0 335 967 425 0 0 +17 967 0 968 343 337 332 430 425 0 0 -15 968
 5 0 343 12 966 17 343 0 968 340 967 341 334 410 0 419 -17 337 0 968 967 340 335
 424 420 0 430 -17 340 0 968 337 343 338 419 414 0 424 -17 424 0 0 0 0 338 337 4
20 0 0 +17 419 0 0 0 0 341 340 414 0 0 +17 334 0 0 0 0 332 343 410 0 967 +17 409
 0 0 0 0 347 969 404 0 0 +17 969 0 371 355 349 344 409 404 0 0 -15 371 4 0 355 1
2 968 17 355 0 371 352 969 353 346 389 0 398 -17 349 0 371 969 352 347 403 399 0
 409 -17 352 0 371 349 355 350 398 393 0 403 -17 403 0 0 0 0 350 349 399 0 0 +17
 398 0 0 0 0 353 352 393 0 0 +17 346 0 0 0 0 344 355 389 0 969 +17 374 0 0 0 0 3
59 368 375 0 0 +136 380 3 4 3 2 5 FFF1 970 971 972 135 381 2 0 45 12 970 -.28088
 .10135 0 -.3773637220714435 .1018133713758024 0 -.482914903333995 .070746406853
224 0 -.57228 0 0 127 2 971 4 4 128 2 972 0 1 17 373 0 0 0 0 362 361 377 0 0 +17
 361 0 367 368 364 359 373 377 0 374 -74 4 CI16 index_map_offset0 0 1 dCCZ20 11
 1 0 0 917 0 0 0 0 0 0 0 0 0 0 0 0 0 0 0 0 0 0 0 1 0 
