**ABCDEFGHIJKLMNOPQRSTUVWXYZabcdefghijklmnopqrstuvwxyz**************************
**PARASOLID !"#$%&'()*+,-./:;<=>?@[\]^_`{|}~0123456789**************************
**PART1;
MC=AMD64;
MC_MODEL=Intel64 Family 6 Model 37 Stepping 2, GenuineIntel;
MC_ID=unknown;
OS=Windows_NT;
OS_RELEASE=unknown;
FRU=Parasolid Version 25.1, build 198,  6-19-2013;
APPL=SolidWorks 2014-2013262;
SITE=;
USER=unknown;
FORMAT=text;
GUISE=transmit;
KEY=Part1new10;
FILE=Part1new10.x_t;
DATE=Sun Aug 27 23:55:03 2017;
**PART2;
SCH=SCH_2501198_25001;
USFLD_SIZE=0;
**PART3;
**END_OF_HEADER*****************************************************************
T51 : TRANSMIT FILE created by modeller version 250119823 SCH_2501198_25001_1300
6189 0 12 29 CCCCCCCCCCCCCDI5 owner1040 0 CCCCCCCCCA16 index_map_offset0 0 1 dA9
 index_map82 0 A17 node_id_index_map82 0 A20 schema_embedding_map82 0 A5 child12
 0 A14 lowest_node_id0 0 1 dZ1 990 0 2 0 0 0 0 1e3 1e-8 0 3 0 1 0 3 1 4 5 6 7 8
 9 10 0 0 0 0 0 0 70 11 CI9 list_type0 0 1 uI10 notransmit0 0 1 lCCCDCCDI12 fing
er_index0 0 1 dI12 finger_block1012 0 CZ2 0 4 T1 0 0 1 20 1 11 11 13 255 4 731 0
 1 0 12 0 0 8 12 50 255 5 2 0 12 0 0 0 +0 0 0 0 0 1 0 -1 0 31 255 6 380 0 9 13 0
 0 +0 0 0 0 0 1 0 -1 0 2.65 29 255 7 729 0 10 14 0 .341679362046957 -2.572580781
043795 0 19 8 CCCCCCCA5 owner12 0 Z8 730 0 1 0 0 4 V0 16 255 9 379 0 ?15 0 16 6
 0 0 1 18 255 10 727 0 17 0 18 7 ?1 17 255 17 0 19 20 21 10 22 16 0 23 -18 18 72
1 0 21 10 24 14 ?1 17 21 0 19 17 25 18 26 27 0 22 -18 24 718 0 25 18 28 29 ?1 29
 14 723 0 18 29 7 -.1596114405052185 -.562013188010617 0 29 29 720 0 24 30 14 -.
1790173550307265 -.566851625922607 0 29 30 714 0 28 31 29 .3222734475214365 -2.5
7741921895579 0 18 28 712 0 20 24 32 30 ?1 29 31 711 0 32 33 30 -2.5725807810438
65 -.341679362046857 0 18 32 709 0 34 28 35 31 ?1 29 33 705 0 35 36 31 -.5620131
88010691 .1596114405053395 0 18 35 703 0 37 32 38 33 ?1 29 36 702 0 38 39 33 -.5
66851625922681 .1790173550308475 0 18 38 700 0 40 35 41 36 ?1 29 39 696 0 41 42
 36 -2.57741921895586 -.322273447521337 0 18 41 694 0 43 38 44 39 ?1 29 42 693 0
 44 45 39 -.5510583052034 -.1543992961977295 0 18 44 691 0 46 41 47 42 ?1 29 45
 690 0 47 48 42 -.549844483090181 -.1552805656669955 0 18 47 688 0 49 44 50 45 ?
1 29 48 687 0 50 51 45 -.2974103565969735 .02036484715505845 0 18 50 685 0 52 47
 53 48 ?1 29 51 684 0 53 54 48 -.297808110427004 .0218111499901163 0 18 53 682 0
 55 50 56 51 ?1 29 54 681 0 56 57 51 -.488967136833859 -.297347502926269 0 18 56
 679 0 58 53 59 54 ?1 29 57 678 0 59 60 54 -.487560562879949 -.297868607246132 0
 18 59 676 0 61 56 62 57 ?1 29 60 675 0 62 63 57 -.2918759438110305 -.0606306905
387237 0 18 62 673 0 64 59 65 60 ?1 29 63 672 0 65 66 60 -.2926491556850895 -.05
93453332351638 0 18 65 670 0 67 62 68 63 ?1 29 66 669 0 68 69 63 -.3906115128011
585 -.4182428056370775 0 18 68 667 0 70 65 71 66 ?1 29 69 666 0 71 72 66 -.38911
65061620695 -.418365096884026 0 18 71 664 0 73 68 74 69 ?1 29 72 663 0 74 75 69
 -.2646944275162175 -.137129527282199 0 18 74 661 0 76 71 77 72 ?1 29 75 660 0 7
7 78 72 -.265785751846815 -.1361004445812238 0 18 77 658 0 79 74 80 75 ?1 29 78
 657 0 80 81 75 -.2632860197927625 -.508118952787303 0 18 80 655 0 82 77 83 78 ?
1 29 81 654 0 83 84 78 -.2618134582717165 -.507833361178997 0 18 83 652 0 85 80
 86 81 ?1 29 84 651 0 86 87 81 -.2178817364289585 -.203458094312996 0 18 86 649
 0 88 83 89 84 ?1 29 87 648 0 89 90 84 -.2192102346829705 -.2027616085707965 0 1
8 89 646 0 91 86 92 87 ?1 29 90 645 0 92 93 87 2.57258078104392 .341679362047038
5 0 18 92 643 0 94 89 95 90 ?1 29 93 639 0 95 96 90 .562013188010744 -.159611440
505144 0 18 95 637 0 97 92 98 93 ?1 29 96 636 0 98 99 93 .566851625922734 -.1790
17355030652 0 18 98 634 0 100 95 101 96 ?1 29 99 630 0 101 102 96 2.577419218955
915 .322273447521518 0 18 101 628 0 103 98 104 99 ?1 29 102 627 0 104 105 99 -.3
41679362046921 2.572580781043995 0 18 104 625 0 106 101 107 102 ?1 29 105 621 0
 107 108 102 .1596114405052685 .562013188010817 0 18 107 619 0 109 104 110 105 ?
1 29 108 618 0 110 111 105 .1790173550307765 .566851625922807 0 18 110 616 0 112
 107 113 108 ?1 29 111 612 0 113 114 108 -.3222734475214005 2.577419218955985 0
 18 113 610 0 115 110 116 111 ?1 29 114 609 0 116 117 111 -.116433807149733 -.56
0310241698828 0 18 116 607 0 118 113 119 114 ?1 29 117 606 0 119 120 114 -.11509
29038982254 -.55963794825836 0 18 119 604 0 121 116 122 117 ?1 29 120 603 0 122
 123 117 -.154909753693383 -.2546971052474435 0 18 122 601 0 124 119 125 120 ?1
 29 123 600 0 125 126 120 -.156376897232785 -.254384871625309 0 18 125 598 0 127
 122 128 123 ?1 29 126 597 0 128 129 123 .0390537683203682 -.570945883232345 0 1
8 128 595 0 130 125 131 126 ?1 29 129 594 0 131 132 126 .04016356464239755 -.569
936748888657 0 18 131 592 0 133 128 134 129 ?1 29 132 591 0 134 135 129 -.080448
8231913368 -.287046397047412 0 18 134 589 0 136 131 137 132 ?1 29 135 588 0 137
 138 132 -.0819458006915461 -.287141572484722 0 18 137 586 0 139 134 140 135 ?1
 29 138 585 0 140 141 135 .191644904453251 -.539237080510135 0 18 140 583 0 142
 137 143 138 ?1 29 141 582 0 143 144 138 .1924412853295775 -.537965948141016 0 1
8 143 580 0 145 140 146 141 ?1 29 144 579 0 146 147 141 -213715020651595e-19 -.2
981067707282605 0 18 146 577 0 148 143 149 144 ?1 29 147 576 0 149 150 144 -.001
43715899010788 -.298602296498228 0 18 149 574 0 151 146 152 147 ?1 29 150 573 0
 152 153 147 .330022614739938 -.467535530371984 0 18 152 571 0 154 149 155 150 ?
1 29 153 570 0 155 156 150 .3304465162441645 -.466096674050208 0 18 155 568 0 15
7 152 158 153 ?1 29 156 567 0 158 159 153 .0804076652137471 -.287057928971923 0
 18 158 565 0 160 155 161 156 ?1 29 159 564 0 161 162 156 .0791780702190624 -.28
79170541950695 0 18 161 562 0 163 158 164 159 ?1 29 162 561 0 164 165 159 .44392
40574443675 -.361159008778874 0 18 164 559 0 166 161 167 162 ?1 29 165 558 0 167
 168 162 .443944040741146 -.3596591418954975 0 18 167 556 0 169 164 170 165 ?1 2
9 168 555 0 170 171 165 .154873233241249 -.2547193138263795 0 18 170 553 0 172 1
67 173 168 ?1 29 171 552 0 173 174 168 .153921024175655 -.2558783211151405 0 18
 173 550 0 175 170 176 171 ?1 29 174 549 0 176 177 171 .524901683625581 -.227996
9756971595 0 18 176 547 0 178 173 179 174 ?1 29 177 546 0 179 180 174 .524516266
645207 -.2265473365174875 0 18 179 544 0 181 176 182 177 ?1 29 180 543 0 182 183
 177 .217852562057147 -.2034893324376545 0 18 182 541 0 184 179 185 180 ?1 29 18
3 540 0 185 186 180 .2172483599109725 -.204862263523528 0 18 185 538 0 187 182 1
88 183 ?1 29 186 537 0 188 189 183 .566949753197707 -.0779254499447452 0 18 188
 535 0 190 185 191 186 ?1 29 189 534 0 191 192 186 .566187520554449 -.0766335515
750766 0 18 191 532 0 193 188 194 189 ?1 29 192 531 0 194 195 189 .2646747629544
23 -.1371674781637794 0 18 194 529 0 196 191 197 192 ?1 29 195 528 0 197 198 192
 .264463378636809 -.1386525090288684 0 18 197 526 0 199 194 200 195 ?1 29 198 52
5 0 200 201 195 .566949753197701 .0779254499448608 0 18 200 523 0 202 197 203 19
8 ?1 29 201 522 0 203 204 198 .565867236199728 .0789637933124896 0 18 203 520 0
 205 200 206 201 ?1 29 204 519 0 206 207 201 .2918672474898445 -.060672539533952
6 0 18 206 517 0 208 203 209 204 ?1 29 207 516 0 209 210 204 .2920643584086095 -
.0621595322325573 0 18 209 514 0 211 206 212 207 ?1 29 210 513 0 212 213 207 .52
4901683625563 .227996975697272 0 18 212 511 0 214 209 215 210 ?1 29 213 510 0 21
5 216 210 .523579167606428 .228704754885389 0 18 215 508 0 217 212 218 213 ?1 29
 216 507 0 218 219 213 .2974132734827575 .0203222037947105 0 18 218 505 0 220 21
5 221 216 ?1 29 219 504 0 221 222 216 .2980042608227785 .01894353270850655 0 18
 221 502 0 223 218 224 219 ?1 29 222 501 0 224 225 219 .443924057444339 .3611590
0877898 0 18 224 499 0 226 221 227 222 ?1 29 225 498 0 227 228 222 .442459627367
0735 .361483731043077 0 18 227 496 0 229 224 230 225 ?1 29 228 495 0 230 231 225
 .280901517556648 .0998097422358188 0 18 230 493 0 232 227 233 228 ?1 29 231 492
 0 233 234 228 .281842550490503 .0986416424894789 0 18 233 490 0 235 230 236 231
 ?1 29 234 489 0 236 237 231 .3300226147399015 .467535530372082 0 18 236 487 0 2
38 233 239 234 ?1 29 237 486 0 239 240 234 .3285248806840145 .467453112547336 0
 18 239 484 0 241 236 242 237 ?1 29 240 483 0 242 243 237 .243556581112299 .1718
948486944875 0 18 242 481 0 244 239 245 240 ?1 29 243 480 0 245 246 240 .2447778
67532224 .171023952902497 0 18 245 478 0 247 242 248 243 ?1 29 246 477 0 248 249
 243 .191644904453209 .539237080510222 0 18 248 475 0 250 245 251 246 ?1 29 249
 474 0 251 252 246 .190224946501948 .538753635149658 0 18 251 472 0 253 248 254
 249 ?1 29 252 471 0 254 255 249 .188148167244071 .2312313005920965 0 18 254 469
 0 256 251 257 252 ?1 29 255 468 0 257 258 252 .1895591299233135 .23072219911126
4 0 18 257 466 0 259 254 260 255 ?1 29 258 465 0 260 261 255 .03905376832032395
 .57094588323242 0 18 260 463 0 262 257 263 258 ?1 29 261 462 0 263 264 258 .037
81689825905865 .570097265266816 0 18 263 460 0 265 260 266 261 ?1 29 264 459 0 2
66 267 261 .1187856645319442 .2734183847376055 0 18 266 457 0 268 263 269 264 ?1
 29 267 456 0 269 270 264 .120281658823309 .27330883529578 0 18 269 454 0 271 26
6 272 267 ?1 29 270 453 0 272 273 267 -.1164338071497766 .56031024169889 0 18 27
2 451 0 274 269 275 270 ?1 29 273 450 0 275 276 270 -.117395856326906 .559159389
240586 0 18 275 448 0 277 272 278 273 ?1 29 276 447 0 278 279 273 .0406133724897
404 .2953272780930095 0 18 278 445 0 280 275 281 276 ?1 29 279 444 0 281 282 276
 .04208344734035565 .295625405471136 0 18 281 442 0 283 278 284 279 ?1 29 282 44
1 0 284 285 279 -.2632860197928025 .508118952787354 0 18 284 439 0 286 281 287 2
82 ?1 29 285 438 0 287 288 282 -.2639018972994105 .506751219298382 0 18 287 436
 0 289 284 290 285 ?1 29 288 435 0 290 291 285 -.0405710275962101 .2953330982646
575 0 18 290 433 0 292 287 293 288 ?1 29 291 432 0 293 294 288 -.039235900912869
45 .296016791718942 0 18 293 430 0 295 290 296 291 ?1 29 294 429 0 296 297 291 -
.390611512801191 .4182428056371185 0 18 296 427 0 298 293 299 294 ?1 29 297 426
 0 299 300 294 -.3908355418200645 .416759629653392 0 18 299 424 0 301 296 302 29
7 ?1 29 300 423 0 302 303 297 -.11874646016545 .273435413597043 0 18 302 421 0 3
04 299 305 300 ?1 29 303 420 0 305 306 300 -.1176453018876892 .274453966711671 0
 18 305 418 0 307 302 308 303 ?1 29 306 417 0 308 309 303 -.488967136833882 .297
3475029263025 0 18 308 415 0 310 305 311 306 ?1 29 309 414 0 311 312 306 -.48878
2702157556 .2958588848254555 0 18 311 412 0 313 308 314 309 ?1 29 312 411 0 314
 315 309 -.1881150110131265 .231258275186721 0 18 314 409 0 316 311 317 312 ?1 2
9 315 408 0 317 318 312 -.187329489012943 .2325361465367515 0 18 317 406 0 319 3
14 320 315 ?1 29 318 405 0 320 321 315 -.551058305203412 .154399296197758 0 18 3
20 403 0 322 317 323 318 ?1 29 321 402 0 323 324 318 -.550479085508097 .15301563
9974356 0 18 323 400 0 325 320 326 321 ?1 29 324 399 0 326 327 321 -.24353193206
2871 .1719297684420165 0 18 326 397 0 328 323 329 324 ?1 29 327 396 0 329 330 32
4 -.2431203049134945 .1733721841552895 0 18 329 394 0 331 326 332 327 ?1 29 330
 393 0 332 333 327 -.572280000000008 955735057067697e-29 0 18 332 391 0 334 329
 335 330 ?1 29 333 390 0 335 336 330 -.571348953360751 -.001176074893664112 0 18
 335 388 0 337 332 338 333 ?1 29 336 387 0 338 339 333 -.280887203795969 .099850
0172983252 0 18 338 385 0 340 335 341 336 ?1 29 339 384 0 341 0 336 -.28088 .101
35 0 18 341 382 0 342 338 0 339 ?1 17 342 0 343 340 344 341 334 345 0 346 -15 25
5 343 3 0 342 12 347 17 340 0 343 337 342 338 346 348 0 349 -17 344 0 343 342 33
7 332 350 351 0 0 -17 334 0 0 0 0 332 342 345 0 344 +16 345 31 0 ?334 348 0 352
 0 0 1 17 346 0 0 0 0 341 340 348 0 0 +16 348 34 0 ?346 353 345 354 0 0 1 16 353
 37 0 ?349 351 348 355 0 0 1 30 255 354 35 0 348 352 355 0 +-.28088 .10135 0 .00
480253064605304 .999988467783201 0 134 255 352 32 0 345 0 354 0 +356 357 134 355
 38 0 353 354 358 0 +359 360 31 358 41 0 351 355 361 0 +-.571814476680389 -.0005
8803744683511 0 0 0 1 0 -1 0 75e-5 136 255 359 3 17 3 15 6 FFF1 362 363 364 135
 255 360 2 0 45 255 51 362 -.571348953360744 -.00117607489367367 0 -.56857420663
2381 .00102056975040993 0 -.562961930666925 .00536136016916017 0 -.5516503516193
54 .0137098873791138 0 -.537286452319928 .0235824093717083 0 -.519750297581843 .
0345223324217545 0 -.496010424113969 .0479217761904474 0 -.465759484396113 .0624
721087833653 0 -.428830235983814 .0765103119013078 0 -.391568495173481 .08722113
97753373 0 -.360485996631788 .0934532875464961 0 -.3357499309548835 .09687046476
57341 0 -.3172984565843875 .0986609918615866 0 -.302041728319265 .09951943547032
6 0 -.289915719920981 .0998319188795238 0 -.2839007189821685 .0998644899642615 0
 -.280887203795969 .0998500172983252 0 127 255 15 363 4 1 1 1 1 1 1 1 1 1 1 1 1
 1 4 128 255 15 364 0 .03125 .0625 .125 .1875 .25 .375 .5 .625 .75 .8125 .875 .9
375 .96875 1 16 351 40 0 ?350 365 353 358 0 0 1 134 361 44 0 365 358 366 0 +367
 368 16 365 43 0 ?322 369 351 361 0 0 1 30 366 47 0 369 361 370 0 +-.24312030491
34945 .1733721841552895 0 .2744180995842805 .961610475515191 0 136 367 3 4 3 2 5
 FFF1 371 372 373 135 368 2 0 45 12 371 -.2431203049134945 .1733721841552895 0 -
.33590113274271 .199849369147599 0 -.445919956598243 .1984118198398335 0 -.55105
8305203408 .154399296197747 0 127 2 372 4 4 128 2 373 0 1 16 369 46 0 ?374 375 3
65 366 0 0 1 134 370 50 0 375 366 376 0 +377 378 16 375 49 0 ?379 380 369 370 0
 0 1 31 376 53 0 380 370 381 0 +-.550768695355767 .1537074680860525 0 0 0 1 0 -1
 0 75e-5 136 377 3 17 3 15 6 FFF1 382 383 384 135 378 2 0 45 51 382 -.5504790855
08093 .153015639974345 0 -.547214586282988 .154382209368202 0 -.540639297495235
 .157047857568848 0 -.527494776797966 .162034971239484 0 -.510999955292046 .1676
660596836645 0 -.49116253282553 .1734691027839635 0 -.464687871599771 .179966717
620374 0 -.4316330860341015 .1858158785504115 0 -.39228581245507 .18937011503308
4 0 -.3535160912952955 .189630658996476 0 -.321904802769505 .187245744076589 0 -
.297164074128021 .1838624924441675 0 -.2789137520504855 .180608473729982 0 -.263
991179341773 .1773188678967005 0 -.252230529213699 .1743482056605465 0 -.2464297
93252808 .17275674108931 0 -.243531932062871 .1719297684420165 0 127 15 383 4 1
 1 1 1 1 1 1 1 1 1 1 1 1 4 128 15 384 0 .03125 .0625 .125 .1875 .25 .375 .5 .625
 .75 .8125 .875 .9375 .96875 1 16 380 52 0 ?385 386 375 376 0 0 1 134 381 56 0 3
86 376 387 0 +388 389 16 386 55 0 ?310 390 380 381 0 0 1 30 387 59 0 390 381 391
 0 +-.187329489012943 .2325361465367515 0 .523681333455585 .851914233353441 0 13
6 388 3 4 3 2 5 FFF1 392 393 394 135 389 2 0 45 12 392 -.187329489012943 .232536
146536751 0 -.269526293043882 .28306345345975 0 -.375853166629661 .3113619358226
04 0 -.488967136833881 .2973475029262905 0 127 2 393 4 4 128 2 394 0 1 16 390 58
 0 ?395 396 386 387 0 0 1 134 391 62 0 396 387 397 0 +398 399 16 396 61 0 ?400 4
01 390 391 0 0 1 31 397 65 0 401 391 402 0 +-.488874919495732 .2966031938758775
 0 0 0 1 0 -1 0 .000749999999999989 136 398 3 17 3 15 6 FFF1 403 404 405 135 399
 2 0 45 51 403 -.488782702157555 .2958588848254435 0 -.485270563409143 .29629402
6768771 0 -.478219920888537 .2970868338188 0 -.464217327509505 .298342662543694
 0 -.4468149292493995 .2993146853700715 0 -.426147489928623 .2995504633610295 0
 -.3989015454545785 .298664350897351 0 -.3654944362709185 .295378534656458 0 -.3
266473448047125 .288185203043491 0 -.289245016154244 .2779761397423895 0 -.25944
94023022905 .2671510403608055 0 -.236538917358264 .2572182801729545 0 -.21984329
04725115 .2491610513306175 0 -.2063616122717865 .2419673710710235 0 -.1958385540
325275 .235933883617698 0 -.190682297099176 .23283641503727 0 -.1881150110131265
 .231258275186721 0 127 15 404 4 1 1 1 1 1 1 1 1 1 1 1 1 1 4 128 15 405 0 .03125
 .0625 .125 .1875 .25 .375 .5 .625 .75 .8125 .875 .9375 .96875 1 16 401 64 0 ?40
6 407 396 397 0 0 1 134 402 68 0 407 397 408 0 +409 410 16 407 67 0 ?298 411 401
 402 0 0 1 30 408 71 0 411 402 412 0 +-.1176453018876892 .274453966711671 0 .734
105518507202 .679035409752151 0 136 409 3 4 3 2 5 FFF1 413 414 415 135 410 2 0 4
5 12 413 -.117645301887689 .274453966711671 0 -.1831619211907345 .34528401635792
85 0 -.2779110667059835 .401219761411492 0 -.3906115128011925 .4182428056371065
 0 127 2 414 4 4 128 2 415 0 1 16 411 70 0 ?416 417 407 408 0 0 1 134 412 74 0 4
17 408 418 0 +419 420 16 417 73 0 ?421 422 411 412 0 0 1 31 418 77 0 422 412 423
 0 +-.39072352731064 .417501217645257 0 0 0 1 0 -1 0 .000750000000000013 136 419
 3 17 3 15 6 FFF1 424 425 426 135 420 2 0 45 51 424 -.3908355418200665 .41675962
965338 0 -.3873362428123515 .4162310716588835 0 -.380333160460102 .4150922386862
455 0 -.366511002692628 .4125236433939065 0 -.3494916839466135 .4087645101161565
 0 -.329527037198756 .403415536422797 0 -.3035305165361625 .395211415566766 0 -.
2722487361953095 .38303431611392 0 -.2367829379023585 .3656269129037445 0 -.2035
219613729335 .345705401859836 0 -.177751826568353 .327242966116152 0 -.158370751
181588 .3114973647566505 0 -.144468057756324 .299234493590028 0 -.13342714846116
02 .288670261260079 0 -.124922129200534 .2800214247526265 0 -.1207927672831624 .
275647677237641 0 -.11874646016545 .273435413597043 0 127 15 425 4 1 1 1 1 1 1 1
 1 1 1 1 1 1 4 128 15 426 0 .03125 .0625 .125 .1875 .25 .375 .5 .625 .75 .8125 .
875 .9375 .96875 1 16 422 76 0 ?427 428 417 418 0 0 1 134 423 80 0 428 418 429 0
 +430 431 16 428 79 0 ?286 432 422 423 0 0 1 30 429 83 0 432 423 433 0 +-.039235
90091286945 .296016791718942 0 .890084455560431 .455795636189829 0 136 430 3 4 3
 2 5 FFF1 434 435 436 135 431 2 0 45 12 434 -.03923590091286945 .296016791718942
 0 -.0832132675529043 .381896443332112 0 -.159357574323256 .461320952754769 0 -.
2632860197928075 .508118952787343 0 127 2 435 4 4 128 2 436 0 1 16 432 82 0 ?437
 438 428 429 0 0 1 134 433 86 0 438 429 439 0 +440 441 16 438 85 0 ?442 443 432
 433 0 0 1 31 439 89 0 443 433 444 0 +-.263593958546118 .507435086042873 0 0 0 1
 0 -1 0 .00075000000000002 136 440 3 17 3 15 6 FFF1 445 446 447 135 441 2 0 45 5
1 445 -.2639018972994155 .506751219298371 0 -.2606749650315725 .50529816209451 0
 -.254238829428776 .502312151130971 0 -.241622233482309 .49610963278369 0 -.2262
482392635745 .487898141120134 0 -.208467071605743 .477361124651367 0 -.185648017
7659765 .462447457515519 0 -.158811592811188 .442282194610615 0 -.12935742370564
96 .415951747265759 0 -.1027046137676124 .387795275818321 0 -.0828712110183389 .
363064778111623 0 -.0684569508877509 .3426741148019715 0 -.0583782900937369 .327
11508236659 0 -.0505970034377576 .3139637987500505 0 -.0447408015264502 .3033410
578264345 0 -.04194459050789655 .298015412221515 0 -.0405710275962101 .295333098
2646575 0 127 15 446 4 1 1 1 1 1 1 1 1 1 1 1 1 1 4 128 15 447 0 .03125 .0625 .12
5 .1875 .25 .375 .5 .625 .75 .8125 .875 .9375 .96875 1 16 443 88 0 ?448 449 438
 439 0 0 1 134 444 92 0 449 439 450 0 +451 452 16 449 91 0 ?274 453 443 444 0 0
 1 30 450 95 0 453 444 454 0 +.04208344734035565 .295625405471136 0 .98004990041
0172 .198751585417604 0 136 451 3 4 3 2 5 FFF1 455 456 457 135 452 2 0 45 12 455
 .0420834473403555 .295625405471136 0 .0229069334639571 .3901853581643335 0 -.02
89852596653648 .487208079435159 0 -.1164338071497844 .560310241698881 0 127 2 45
6 4 4 128 2 457 0 1 16 453 94 0 ?458 459 449 450 0 0 1 134 454 98 0 459 450 460
 0 +461 462 16 459 97 0 ?463 464 453 454 0 0 1 31 460 101 0 464 454 465 0 +-.116
914831738351 .559734815469746 0 0 0 1 0 -1 0 .000750000000000025 136 461 3 17 3
 15 6 FFF1 466 467 468 135 462 2 0 45 51 466 -.117395856326914 .559159389240577
 0 -.1146806176030156 .556889599432867 0 -.1092887674839704 .552277869251503 0 -
.0988134485627736 .542901440260464 0 -.0862249976911796 .530846598982712 0 -.071
9460569851256 .515903022046383 0 -.0539968548012569 .495385887096698 0 -.0335961
20102955 .468728026039452 0 -.01233806116352854 .4354273433857025 0 .00572986519
850893 .401124148214705 0 .01815558314234245 .3719597364253995 0 .02653398828371
98 .348436293382198 0 .03204112828219695 .3307350419359515 0 .0359856898647356 .
3159720775755415 0 .0387587467213034 .3041632723342605 0 .0400144246616073 .2982
80707410716 0 .0406133724897404 .2953272780930095 0 127 15 467 4 1 1 1 1 1 1 1 1
 1 1 1 1 1 4 128 15 468 0 .03125 .0625 .125 .1875 .25 .375 .5 .625 .75 .8125 .87
5 .9375 .96875 1 16 464 100 0 ?469 470 459 460 0 0 1 134 465 104 0 470 460 471 0
 +472 473 16 470 103 0 ?262 474 464 465 0 0 1 30 471 107 0 474 465 475 0 +.12028
1658823309 .27330883529578 0 .997329527576453 -.0730329612170403 0 136 472 3 4 3
 2 5 FFF1 476 477 478 135 473 2 0 45 12 476 .1202816588233088 .27330883529578 0
 .1273282320180456 .36953600996075 0 .1035367591031672 .476961211692503 0 .03905
376832031395 .570945883232413 0 127 2 477 4 4 128 2 478 0 1 16 474 106 0 ?479 48
0 470 471 0 0 1 134 475 110 0 480 471 481 0 +482 483 16 480 109 0 ?484 485 474 4
75 0 0 1 31 481 113 0 485 475 486 0 +.0384353332896842 .570521574249628 0 0 0 1
 0 -1 0 .000750000000000033 136 482 3 17 3 15 6 FFF1 487 488 489 135 483 2 0 45
 51 487 .03781689825904865 .570097265266809 0 .0398190666042414 .567179082781691
 0 .04376674238227875 .561283664312791 0 .0513238777952154 .549428731521952 0 .0
601931575068536 .534424593060345 0 .0699108675507691 .516182752395507 0 .0816590
078648991 .491583811671554 0 .0941110231412927 .460410444064984 0 .1055963589322
182 .422609285394282 0 .113739386275247 .3847034775588825 0 .1178358607576234 .3
53268142691076 0 .1195570229291074 .328356546072247 0 .1200842027518498 .3098258
964570675 0 .1198994891735392 .2945461528833305 0 .119383736034207 .282427088387
4405 0 .119005753007773 .2764238870747065 0 .1187856645319442 .2734183847376055
 0 127 15 488 4 1 1 1 1 1 1 1 1 1 1 1 1 1 4 128 15 489 0 .03125 .0625 .125 .1875
 .25 .375 .5 .625 .75 .8125 .875 .9375 .96875 1 16 485 112 0 ?490 491 480 481 0
 0 1 134 486 116 0 491 481 492 0 +493 494 16 491 115 0 ?250 495 485 486 0 0 1 30
 492 119 0 495 486 496 0 +.1895591299233135 .230722199111264 0 .940641786161402
 -.339400987221734 0 136 493 3 4 3 2 5 FFF1 497 498 499 135 494 2 0 45 12 497 .1
89559129923313 .2307221991112635 0 .222306178091259 .3214798664131385 0 .2283799
300981745 .4313403128309715 0 .1916449044531975 .539237080510218 0 127 2 498 4 4
 128 2 499 0 1 16 495 118 0 ?500 501 491 492 0 0 1 134 496 122 0 501 492 502 0 +
503 504 16 501 121 0 ?505 506 495 496 0 0 1 31 502 125 0 506 496 507 0 +.1909349
254775745 .538995357829952 0 0 0 1 0 -1 0 .000750000000000015 136 503 3 17 3 15
 6 FFF1 508 509 510 135 504 2 0 45 51 508 .1902249465019365 .538753635149654 0 .
1913655528015715 .535403488232253 0 .1935762731855585 .52866161769391 0 .1976547
46928252 .515207407235658 0 .202147061577977 .498366759900529 0 .206582822861362
5 .478179569378422 0 .21125859548282 .451323213781033 0 .214838382328435 .417946
32569185 0 .215699180157162 .378448230014008 0 .2133133773950205 .33975110987382
55 0 .208776791643706 .3083762669075755 0 .2037130601208305 .2839240958713655 0
 .1992211812520725 .2659383815971295 0 .194920891874008 .2512750874907535 0 .191
154579789706 .239744579312884 0 .1891709690684475 .234065971589508 0 .1881481672
44071 .2312313005920965 0 127 15 509 4 1 1 1 1 1 1 1 1 1 1 1 1 1 4 128 15 510 0
 .03125 .0625 .125 .1875 .25 .375 .5 .625 .75 .8125 .875 .9375 .96875 1 16 506 1
24 0 ?511 512 501 502 0 0 1 134 507 128 0 512 502 513 0 +514 515 16 512 127 0 ?2
38 516 506 507 0 0 1 30 513 131 0 516 507 517 0 +.244777867532224 .1710239529024
97 0 .814190946616595 -.580597194660441 0 136 514 3 4 3 2 5 FFF1 518 519 520 135
 515 2 0 45 12 518 .2447778675322235 .1710239529024965 0 .300796691918539 .24958
10318461965 0 .336285206446462 .3537288762174005 0 .3300226147398895 .4675355303
72081 0 127 2 519 4 4 128 2 520 0 1 16 516 130 0 ?521 522 512 513 0 0 1 134 517
 134 0 522 513 523 0 +524 525 16 522 133 0 ?526 527 516 517 0 0 1 31 523 137 0 5
27 517 528 0 +.329273747711957 .467494321459721 0 0 0 1 0 -1 0 .0007500000000000
09 136 524 3 17 3 15 6 FFF1 529 530 531 135 525 2 0 45 51 529 .328524880684002 .
467453112547335 0 .3287193313867615 .463919466268612 0 .329029137359192 .4568311
57356649 0 .3293264676919215 .442775506471756 0 .329108642853136 .42534734403511
5 0 .3279334752538595 .404711995226515 0 .3251900995175485 .377590037790695 0 .3
1963216151848 .3444850403193705 0 .3098045799479395 .3062194006990495 0 .2970668
91157175 .2696009566273365 0 .2842337029838455 .2406135341350935 0 .272760631568
632 .2184342943460195 0 .263582836115091 .202327433561279 0 .2554859037279285 .1
89368098366027 0 .2487483628362185 .179281311549166 0 .245306239752916 .17434845
3772088 0 .243556581112299 .1718948486944875 0 127 15 530 4 1 1 1 1 1 1 1 1 1 1
 1 1 1 4 128 15 531 0 .03125 .0625 .125 .1875 .25 .375 .5 .625 .75 .8125 .875 .9
375 .96875 1 16 527 136 0 ?532 533 522 523 0 0 1 134 528 140 0 533 523 534 0 +53
5 536 16 533 139 0 ?226 537 527 528 0 0 1 30 534 143 0 537 528 538 0 +.281842550
490503 .0986416424894789 0 .62735528923693 -.778733164226649 0 136 535 3 4 3 2 5
 FFF1 539 540 541 135 536 2 0 45 12 539 .281842550490503 .0986416424894788 0 .35
6978491159524 .159171913904473 0 .41924974743507 .2498829870567205 0 .4439240574
44327 .3611590087789825 0 127 2 540 4 4 128 2 541 0 1 16 537 142 0 ?542 543 533
 534 0 0 1 134 538 146 0 543 534 544 0 +545 546 16 543 145 0 ?547 548 537 538 0
 0 1 31 544 149 0 548 538 549 0 +.443191842405709 .361321369911041 0 0 0 1 0 -1
 0 .000749999999999987 136 545 3 17 3 15 6 FFF1 550 551 552 135 546 2 0 45 51 55
0 .4424596273670615 .3614837310430795 0 .441693500953875 .3580286597821705 0 .44
00794156230405 .351119619941734 0 .4365735509152245 .337504971956007 0 .43166174
16597385 .3207818614972425 0 .4249628019826045 .3012287838228425 0 .415003741516
7775 .2758527360569075 0 .4007202855085425 .2454748754206035 0 .380933191305628
 .2112796792947895 0 .358788312592802 .17945573377011 0 .338610300856344 .155005
5962694895 0 .3215787947698495 .136744220479437 0 .308395757834694 .123710785364
6106 0 .2971026948725885 .1134165436869012 0 .2878936177592095 .1055215690652754
 0 .2832482688362865 .1017003087294992 0 .280901517556648 .0998097422358188 0 12
7 15 551 4 1 1 1 1 1 1 1 1 1 1 1 1 1 4 128 15 552 0 .03125 .0625 .125 .1875 .25
 .375 .5 .625 .75 .8125 .875 .9375 .96875 1 16 548 148 0 ?553 554 543 544 0 0 1
 134 549 152 0 554 544 555 0 +556 557 16 554 151 0 ?214 558 548 549 0 0 1 30 555
 155 0 558 549 559 0 +.2980042608227785 .01894353270850655 0 .3939915600141085 -
.919114057469283 0 136 556 3 4 3 2 5 FFF1 560 561 562 135 557 2 0 45 12 560 .298
0042608227785 .0189435327085065 0 .386684828779141 .0569577432715109 0 .47112045
2596394 .127504419884647 0 .524901683625552 .2279969756972775 0 127 2 561 4 4 12
8 2 562 0 1 16 558 154 0 ?563 564 554 555 0 0 1 134 559 158 0 564 555 565 0 +566
 567 16 564 157 0 ?568 569 558 559 0 0 1 31 565 161 0 569 559 570 0 +.5242404256
16001 .2283508652913415 0 0 0 1 0 -1 0 .000750000000000035 136 566 3 17 3 15 6 F
FF1 571 572 573 135 567 2 0 45 51 571 .523579167606417 .2287047548853945 0 .5219
09284168555 .225584505471823 0 .518491016859496 .2193671465811225 0 .51144197105
8248 .2072032376527935 0 .502200463808508 .1924254557714915 0 .490474581763761 .
175404811553024 0 .474038454523498 .1536566988320795 0 .452088819095764 .1282589
619847252 0 .423809730517572 .100670310617457 0 .3939000462307365 .0760011000945
127 0 .3678737217533815 .0579016024319994 0 .3465469298880855 .0449124533430805
 0 .330336377012415 .0359190741566373 0 .3166847382929405 .02905340280868365 0 .
3056871200786675 .02393577453287365 0 .3001830695946795 .02150951703640085 0 .29
74132734827575 .0203222037947105 0 127 15 572 4 1 1 1 1 1 1 1 1 1 1 1 1 1 4 128
 15 573 0 .03125 .0625 .125 .1875 .25 .375 .5 .625 .75 .8125 .875 .9375 .96875 1
 16 569 160 0 ?574 575 564 565 0 0 1 134 570 164 0 575 565 576 0 +577 578 16 575
 163 0 ?202 579 569 570 0 0 1 30 576 167 0 579 570 580 0 +.2920643584086095 -.06
21595322325573 0 .1314072791765618 -.991328465736465 0 136 577 3 4 3 2 5 FFF1 58
1 582 583 135 578 2 0 45 12 581 .2920643584086095 -.0621595322325573 0 .38771252
1613594 -.0494807226155589 0 .488050309021306 -.004330566816359675 0 .5669497531
97693 .0779254499448692 0 127 2 582 4 4 128 2 583 0 1 16 579 166 0 ?584 585 575
 576 0 0 1 134 580 170 0 585 576 586 0 +587 588 16 585 169 0 ?589 590 579 580 0
 0 1 31 586 173 0 590 580 591 0 +.566408494698723 .0784446216286843 0 0 0 1 0 -1
 0 75e-5 136 587 3 17 3 15 6 FFF1 592 593 594 135 588 2 0 45 51 592 .56586723619
9719 .0789637933124981 0 .56341744335256 .0764097803710766 0 .558448511314055 .0
71345215496512 0 .548379079899216 .0615341871046141 0 .535493274970854 .04979773
42790573 0 .51961010558741 .0365718668339395 0 .497915903939843 .020064647187502
3 0 .469927993139384 .001530668084151255 0 .435254240817538 -.0174053144623431 0
 .3997980154125455 -.03309018749319405 0 .369853631618267 -.0434966883756638 0 .
345813264563238 -.050250264996927 0 .327777458295496 -.0545365904627009 0 .31277
9723410384 -.0574644960453774 0 .3008092071274145 -.0594252268977463 0 .29485466
53274035 -.060276537135792 0 .2918672474898445 -.0606725395339526 0 127 15 593 4
 1 1 1 1 1 1 1 1 1 1 1 1 1 4 128 15 594 0 .03125 .0625 .125 .1875 .25 .375 .5 .6
25 .75 .8125 .875 .9375 .96875 1 16 590 172 0 ?595 596 585 586 0 0 1 134 591 176
 0 596 586 597 0 +598 599 16 596 175 0 ?190 600 590 591 0 0 1 30 597 179 0 600 5
91 601 0 +.264463378636809 -.1386525090288684 0 -.14092287840935 -.9900205767259
71 0 136 598 3 4 3 2 5 FFF1 602 603 604 135 599 2 0 45 12 602 .264463378636809 -
.1386525090288682 0 .3599853503867335 -.152249429665474 0 .468783706707708 -.135
8443751876192 0 .566949753197701 -.0779254499447347 0 127 2 603 4 4 128 2 604 0
 1 16 600 178 0 ?605 606 596 597 0 0 1 134 601 182 0 606 597 607 0 +608 609 16 6
06 181 0 ?610 611 600 601 0 0 1 31 607 185 0 611 601 612 0 +.566568636876089 -.0
772795007599045 0 0 0 1 0 -1 0 .000749999999999971 136 608 3 17 3 15 6 FFF1 613
 614 615 135 609 2 0 45 51 613 .566187520554443 -.0766335515750662 0 .5631395082
26404 -.0784319085883038 0 .556988434416398 -.0819680638388292 0 .54464542105142
3 -.0886985726009371 0 .529070999647339 -.0965232573553761 0 .510208524937705 -.
1049734459430574 0 .484865208574665 -.115015507549316 0 .452914757709379 -.12531
1148465881 0 .414417935231727 -.134190066992484 0 .3760447947454285 -.1397273272
52063 0 .344403189593807 -.1416690287906102 0 .3194322113961545 -.14168615106177
6 0 .300908784978896 -.1409475256557182 0 .285677267314504 -.1397205161103272 0
 .273621651394077 -.1383789311016818 0 .267658239403134 -.1375921562954296 0 .26
4674762954423 -.1371674781637794 0 127 15 614 4 1 1 1 1 1 1 1 1 1 1 1 1 1 4 128
 15 615 0 .03125 .0625 .125 .1875 .25 .375 .5 .625 .75 .8125 .875 .9375 .96875 1
 16 611 184 0 ?616 617 606 607 0 0 1 134 612 188 0 617 607 618 0 +619 620 16 617
 187 0 ?178 621 611 612 0 0 1 30 618 191 0 621 612 622 0 +.2172483599109725 -.20
4862263523528 0 -.40280143078293 -.915287390582447 0 136 619 3 4 3 2 5 FFF1 623
 624 625 135 620 2 0 45 12 623 .217248359910972 -.204862263523528 0 .30555971254
5088 -.243726493011894 0 .4147495614103605 -.2572832276978755 0 .524901683625578
 -.2279969756971475 0 127 2 624 4 4 128 2 625 0 1 16 621 190 0 ?626 627 617 618
 0 0 1 134 622 194 0 627 618 628 0 +629 630 16 627 193 0 ?631 632 621 622 0 0 1
 31 628 197 0 632 622 633 0 +.524708975135406 -.2272721561073205 0 0 0 1 0 -1 0
 75e-5 136 629 3 17 3 15 6 FFF1 634 635 636 135 630 2 0 45 51 634 .5245162666452
04 -.226547336517476 0 .521096091966926 -.227456661689794 0 .514219073390618 -.2
292021468581825 0 .500517902911258 -.2323529649456435 0 .483409948618757 -.23568
5560556279 0 .462967112042064 -.238733358456016 0 .4358542788002405 -.2415654882
52135 0 .402310906647219 -.2428592103945555 0 .362846147225685 -.241022556132498
5 0 .3244020519425115 -.2360015303586325 0 .2934099385369315 -.2293344254328365
 0 .2693603324149515 -.2226138234733815 0 .2517230836465075 -.2169050276628735 0
 .237387435188446 -.2116141046742015 0 .226140829512607 -.2070697030272895 0 .22
0610826317305 -.204703194664864 0 .217852562057147 -.2034893324376545 0 127 15 6
35 4 1 1 1 1 1 1 1 1 1 1 1 1 1 4 128 15 636 0 .03125 .0625 .125 .1875 .25 .375 .
5 .625 .75 .8125 .875 .9375 .96875 1 16 632 196 0 ?637 638 627 628 0 0 1 134 633
 200 0 638 628 639 0 +640 641 16 638 199 0 ?166 642 632 633 0 0 1 30 639 203 0 6
42 633 643 0 +.153921024175655 -.2558783211151405 0 -.634806043729174 -.77267152
5840647 0 136 640 3 4 3 2 5 FFF1 644 645 646 135 641 2 0 45 12 644 .153921024175
655 -.2558783211151405 0 .228472108666646 -.317127477346134 0 .3299553384962 -.3
59640560202227 0 .4439240574443675 -.361159008778862 0 127 2 645 4 4 128 2 646 0
 1 16 642 202 0 ?647 648 638 639 0 0 1 134 643 206 0 648 639 649 0 +650 651 16 6
48 205 0 ?652 653 642 643 0 0 1 31 649 209 0 653 643 654 0 +.4439340490927695 -.
360409075337186 0 0 0 1 0 -1 0 75e-5 136 650 3 17 3 15 6 FFF1 655 656 657 135 65
1 2 0 45 51 655 .443944040741146 -.359659141895485 0 .4404053624222605 -.3596119
947387385 0 .4333124360871875 -.359437355175114 0 .419269261629212 -.35877480082
4415 0 .401896593154485 -.3573681439204165 0 .381389546379874 -.3547875099047335
 0 .3545180310678535 -.350199661779866 0 .3218694960889685 -.3423955156952235 0
 .2843637203905865 -.3299795048889895 0 .248699892987658 -.314772579593662 0 .22
06558145999265 -.2999911368758935 0 .199311229820059 -.2870312469884425 0 .18386
82327565405 -.276775676042746 0 .1714916629697165 -.267813243164501 0 .161888176
8316445 -.26040306236022 0 .1572017174708985 -.256632333540807 0 .15487323324124
9 -.2547193138263795 0 127 15 656 4 1 1 1 1 1 1 1 1 1 1 1 1 1 4 128 15 657 0 .03
125 .0625 .125 .1875 .25 .375 .5 .625 .75 .8125 .875 .9375 .96875 1 16 653 208 0
 ?658 659 648 649 0 0 1 134 654 212 0 659 649 660 0 +661 662 16 659 211 0 ?154 6
63 653 654 0 0 1 30 660 215 0 663 654 664 0 +.0791780702190624 -.287917054195069
5 0 -.819729996456437 -.572750148764302 0 136 661 3 4 3 2 5 FFF1 665 666 667 135
 662 2 0 45 12 665 .0791780702190623 -.2879170541950695 0 .1344397736787498 -.36
7008567447283 0 .220689837571012 -.435324997602464 0 .3300226147399415 -.4675355
30371973 0 127 2 666 4 4 128 2 667 0 1 16 663 214 0 ?668 669 659 660 0 0 1 134 6
64 218 0 669 660 670 0 +671 672 16 669 217 0 ?673 674 663 664 0 0 1 31 670 221 0
 674 664 675 0 +.3302345654920635 -.4668161022111 0 0 0 1 0 -1 0 .00074999999999
9988 136 671 3 17 3 15 6 FFF1 676 677 678 135 672 2 0 45 51 676 .330446516244168
 -.466096674050197 0 .32705178186721 -.465096551253317 0 .3202689976716655 -.463
014739175191 0 .3069253372413745 -.458587951011539 0 .2905764059305225 -.4525463
66900449 0 .271526062803769 -.4445286947886735 0 .246888802783241 -.432861128450
233 0 .217556497460768 -.416537911952033 0 .1847913372915795 -.39446338332365 0
 .154552800696217 -.370198386588961 0 .1315366583272296 -.348398878064996 0 .114
4801250976196 -.33016087599495 0 .1023767161842168 -.316119138694992 0 .09287713
86306797 -.304149898573351 0 .0856290186642101 -.294423517822633 0 .082133676389
6811 -.2895282262528315 0 .0804076652137471 -.287057928971923 0 127 15 677 4 1 1
 1 1 1 1 1 1 1 1 1 1 1 4 128 15 678 0 .03125 .0625 .125 .1875 .25 .375 .5 .625 .
75 .8125 .875 .9375 .96875 1 16 674 220 0 ?679 680 669 670 0 0 1 134 675 224 0 6
80 670 681 0 +682 683 16 680 223 0 ?142 684 674 675 0 0 1 30 681 227 0 684 675 6
85 0 +-.00143715899010788 -.298602296498228 0 -.943858325361777 -.33035051331163
75 0 136 682 3 4 3 2 5 FFF1 686 687 688 135 683 2 0 45 12 686 -.0014371589901079
9 -.298602296498228 0 .03043665569814235 -.3896703110533425 0 .0950567809820118
 -.478723371409875 0 .1916449044532575 -.539237080510125 0 127 2 687 4 4 128 2 6
88 0 1 16 684 226 0 ?689 690 680 681 0 0 1 134 685 230 0 690 681 691 0 +692 693
 16 690 229 0 ?694 695 684 685 0 0 1 31 691 233 0 695 685 696 0 +.19204309489142
5 -.538601514325582 0 0 0 1 0 -1 0 .000750000000000022 136 692 3 17 3 15 6 FFF1
 697 698 699 135 693 2 0 45 51 697 .192441285329584 -.537965948141006 0 .1894422
66813416 -.536087024236581 0 .183472672832011 -.532252438122131 0 .1718181646803
345 -.524389730772416 0 .157705495977299 -.514161296109346 0 .1415247332985932 -
.501301219963599 0 .120948961437316 -.483419265431343 0 .0971083286706541 -.4597
8759681351 0 .071513826069774 -.429691717167096 0 .0489432342091551 -.3981682727
95884 0 .0326620298465752 -.3709674682868295 0 .021158553208415 -.34880398321441
55 0 .01329238691482382 -.3320174909790605 0 .00737434180404373 -.31792914739821
55 0 .003019147909146925 -.30660792786611 0 .00097415626720998 -.300951134927183
5 0 -213715020651595e-19 -.2981067707282605 0 127 15 698 4 1 1 1 1 1 1 1 1 1 1 1
 1 1 4 128 15 699 0 .03125 .0625 .125 .1875 .25 .375 .5 .625 .75 .8125 .875 .937
5 .96875 1 16 695 232 0 ?700 701 690 691 0 0 1 134 696 236 0 701 691 702 0 +703
 704 16 701 235 0 ?130 705 695 696 0 0 1 30 702 239 0 705 696 706 0 +-.081945800
6915461 -.287141572484722 0 -.997985000139543 -.063450291539722 0 136 703 3 4 3
 2 5 FFF1 707 708 709 135 704 2 0 45 12 707 -.0819458006915462 -.287141572484721
5 0 -.0758238097971606 -.38343199031163 0 -.0376262021965863 -.486617022773512 0
 .0390537683203772 -.570945883232337 0 127 2 708 4 4 128 2 709 0 1 16 705 238 0
 ?710 711 701 702 0 0 1 134 706 242 0 711 702 712 0 +713 714 16 711 241 0 ?715 7
16 705 706 0 0 1 31 712 245 0 716 706 717 0 +.0396086664813914 -.57044131606051
 0 0 0 1 0 -1 0 .000749999999999963 136 713 3 17 3 15 6 FFF1 718 719 720 135 714
 2 0 45 51 718 .04016356464240655 -.569936748888649 0 .03778268547077555 -.56731
8375067165 0 .0330690191800357 -.562015408626436 0 .0239680248607562 -.551299923
125293 0 .01313829084207806 -.537643234117227 0 .00102716175723616 -.52089452695
4306 0 -.01396111107373276 -.498124406991393 0 -.03054192061591765 -.46893693900
7622 0 -.0470675384776405 -.4330517820570635 0 -.0602962280588008 -.396607839708
1785 0 -.0686349919689551 -.36602309844907 0 -.0737322517783168 -.34157789467091
2 0 -.0767777778834171 -.323291624836164 0 -.0786753762188285 -.3081290457896225
 0 -.0798146392346544 -.296052630537693 0 -.0802576125691311 -.290053874683816 0
 -.0804488231913368 -.287046397047412 0 127 15 719 4 1 1 1 1 1 1 1 1 1 1 1 1 1 4
 128 15 720 0 .03125 .0625 .125 .1875 .25 .375 .5 .625 .75 .8125 .875 .9375 .968
75 1 16 716 244 0 ?721 722 711 712 0 0 1 134 717 248 0 722 712 723 0 +724 725 16
 722 247 0 ?118 726 716 717 0 0 1 30 723 251 0 726 717 727 0 +-.156376897232785
 -.254384871625309 0 -.978095692934546 .2081557480899605 0 136 724 3 4 3 2 5 FFF
1 728 729 730 135 725 2 0 45 12 728 -.156376897232785 -.2543848716253085 0 -.176
460770190656 -.348756272933139 0 -.1675186220866835 -.458420515682787 0 -.116433
8071497222 -.560310241698823 0 127 2 729 4 4 128 2 730 0 1 16 726 250 0 ?731 732
 722 723 0 0 1 134 727 254 0 732 723 733 0 +734 735 16 732 253 0 ?736 737 726 72
7 0 0 1 31 733 257 0 737 727 738 0 +-.1157633555239736 -.559974094978605 0 0 0 1
 0 -1 0 75e-5 136 734 3 17 3 15 6 FFF1 739 740 741 135 735 2 0 45 51 739 -.11509
29038982144 -.559637948258355 0 -.116679064808946 -.556474317327888 0 -.11978721
2343825 -.550096267322331 0 -.125659713716325 -.537322722209296 0 -.132403321221
217 -.521250633004768 0 -.1395465896727014 -.501855469814709 0 -.147835751844274
8 -.475885940052421 0 -.1559270153703955 -.443307373679286 0 -.162158119015828 -
.4042943773519365 0 -.165063794928523 -.3656328175094535 0 -.164841670414342 -.3
33932469843598 0 -.1631546729532575 -.3090185362945555 0 -.161153686131006 -.290
5886978399395 0 -.158890101503446 -.2754764224514005 0 -.156728939714099 -.26354
0463952958 0 -.155537041435365 -.257644645463331 0 -.154909753693383 -.254697105
2474435 0 127 15 740 4 1 1 1 1 1 1 1 1 1 1 1 1 1 4 128 15 741 0 .03125 .0625 .12
5 .1875 .25 .375 .5 .625 .75 .8125 .875 .9375 .96875 1 16 737 256 0 ?742 743 732
 733 0 0 1 31 738 260 0 743 733 744 0 +-.3319764047841605 2.575 0 0 0 1 0 -1 0 .
01000000000000016 16 743 259 0 ?745 746 737 738 0 0 1 30 744 263 0 746 738 747 0
 +-.3222734475214005 2.577419218955985 0 -.241921895599665 .970295726275997 0 16
 746 262 0 ?748 749 743 744 0 0 1 31 747 269 0 749 744 750 0 +.1693143977680225
 .564432406966812 0 0 0 1 0 -1 0 .00999999999999386 16 749 268 0 ?751 752 746 74
7 0 0 1 30 750 272 0 752 747 753 0 +.142164429152421 .631989328492001 0 .2419218
9559967 -.970295726275996 0 16 752 271 0 ?754 755 749 750 0 0 1 31 753 278 0 755
 750 756 0 +2.57499999999992 .331976404784278 0 0 0 1 0 -1 0 .01000000000000016
 16 755 277 0 ?757 758 752 753 0 0 1 30 756 281 0 758 753 759 0 +2.5774192189559
15 .322273447521518 0 .970295726275998 .2419218955996615 0 16 758 280 0 ?760 761
 755 756 0 0 1 31 759 287 0 761 756 762 0 +.564432406966739 -.169314397767898 0
 0 0 1 0 -1 0 .00999999999999389 16 761 286 0 ?763 764 758 759 0 0 1 30 762 290
 0 764 759 765 0 +.631989328491928 -.1421644291522964 0 -.970295726275997 -.2419
21895599667 0 16 764 289 0 ?766 767 761 762 0 0 1 134 765 296 0 767 762 768 0 +7
69 770 16 767 295 0 ?82 771 764 765 0 0 1 30 768 299 0 771 765 772 0 +-.21921023
46829705 -.2027616085707965 0 -.885665502674643 .464323828132987 0 136 769 3 4 3
 2 5 FFF1 773 774 775 135 770 2 0 45 12 773 -.2192102346829705 -.202761608570796
5 0 -.2640104425134175 -.2882148982449815 0 -.2849869521233135 -.396225056078183
 0 -.2632860197927505 -.508118952787301 0 127 2 774 4 4 128 2 775 0 1 16 771 298
 0 ?776 777 767 768 0 0 1 134 772 302 0 777 768 778 0 +779 780 16 777 301 0 ?781
 782 771 772 0 0 1 31 778 305 0 782 772 783 0 +-.262549739032237 -.5079761569831
62 0 0 0 1 0 -1 0 75e-5 136 779 3 17 3 15 6 FFF1 784 785 786 135 780 2 0 45 51 7
84 -.2618134582717045 -.507833361178994 0 -.2624872626229905 -.504359105173008 0
 -.2637593743181765 -.497379002393899 0 -.2659678461820045 -.483494753074925 0 -
.2681251846544245 -.466199257005319 0 -.269770808929783 -.445596088314961 0 -.27
0746091204089 -.4183531899730735 0 -.2697477167134805 -.384799728441446 0 -.2652
22173690644 -.3455523082023225 0 -.257589335245012 -.30754048189489 0 -.24882279
62655605 -.2770755975892235 0 -.240476658418218 -.253540686746967 0 -.2335775627
07316 -.236334136479761 0 -.2273206748334005 -.2223929730807325 0 -.222019371722
138 -.2114827067742305 0 -.2192809994729565 -.2061270915346535 0 -.2178817364289
585 -.203458094312996 0 127 15 785 4 1 1 1 1 1 1 1 1 1 1 1 1 1 4 128 15 786 0 .0
3125 .0625 .125 .1875 .25 .375 .5 .625 .75 .8125 .875 .9375 .96875 1 16 782 304
 0 ?787 788 777 778 0 0 1 134 783 308 0 788 778 789 0 +790 791 16 788 307 0 ?70
 792 782 783 0 0 1 30 789 311 0 792 783 793 0 +-.265785751846815 -.1361004445812
238 0 -.727549553731469 .686055133983517 0 136 790 3 4 3 2 5 FFF1 794 795 796 13
5 791 2 0 45 12 794 -.265785751846815 -.1361004445812236 0 -.331979668082368 -.2
062979430494175 0 -.3813191036495125 -.304643396673277 0 -.390611512801146 -.418
2428056370785 0 127 2 795 4 4 128 2 796 0 1 16 792 310 0 ?797 798 788 789 0 0 1
 134 793 314 0 798 789 799 0 +800 801 16 798 313 0 ?802 803 792 793 0 0 1 31 799
 317 0 803 793 804 0 +-.389864009481615 -.4183039512605645 0 0 0 1 0 -1 0 75e-5
 136 800 3 17 3 15 6 FFF1 805 806 807 135 801 2 0 45 51 805 -.389116506162057 -.
418365096884027 0 -.388827980967613 -.414837885476823 0 -.3881697101181965 -.407
773412215442 0 -.3865503602182995 -.3938081899463025 0 -.3839614297329145 -.3765
720148334715 0 -.3799873614078745 -.3562888834113535 0 -.373576431560247 -.32979
3097631917 0 -.3635624639216185 -.297753247686725 0 -.3486159130535345 -.2611822
05149963 0 -.331010652959176 -.226639275642269 0 -.3143498736063125 -.1996692957
9817 0 -.299963590235809 -.1792588843348165 0 -.288678060003872 -.16455175337361
 0 -.278891913633851 -.152815654276819 0 -.2708436426005885 -.143740244703063 0
 -.2667618889234605 -.1393220341955462 0 -.2646944275162175 -.137129527282199 0
 127 15 806 4 1 1 1 1 1 1 1 1 1 1 1 1 1 4 128 15 807 0 .03125 .0625 .125 .1875 .
25 .375 .5 .625 .75 .8125 .875 .9375 .96875 1 16 803 316 0 ?808 809 798 799 0 0
 1 134 804 320 0 809 799 810 0 +811 812 16 809 319 0 ?58 813 803 804 0 0 1 30 81
0 323 0 813 804 814 0 +-.2926491556850895 -.0593453332351638 0 -.515474582705765
 .856904869039917 0 136 811 3 4 3 2 5 FFF1 815 816 817 135 812 2 0 45 12 815 -.2
92649155685089 -.0593453332351637 0 -.3753274803755745 -.1090808131681674 0 -.44
9370561676851 -.190467730187917 0 -.488967136833848 -.2973475029262735 0 127 2 8
16 4 4 128 2 817 0 1 16 813 322 0 ?818 819 809 810 0 0 1 134 814 326 0 819 810 8
20 0 +821 822 16 819 325 0 ?823 824 813 814 0 0 1 31 820 329 0 824 814 825 0 +-.
488263849856908 -.2976080550862125 0 0 0 1 0 -1 0 75e-5 136 821 3 17 3 15 6 FFF1
 826 827 828 135 822 2 0 45 51 826 -.487560562879937 -.297868607246136 0 -.48633
1106733519 -.2945500375718675 0 -.483791274277013 -.287925133492197 0 -.47846420
2387434 -.2749146749219535 0 -.471321012074776 -.2590161490237615 0 -.4620219896
16853 -.24055736193831 0 -.448700316986038 -.2167737599424305 0 -.43041344636829
25 -.188623770681549 0 -.406154404956927 -.157441412770712 0 -.379882424816334 -
.1289292711209548 0 -.3565630588766665 -.1074544357640124 0 -.3372035948077255 -
.0916822705263796 0 -.3223686262041895 -.0805653194939172 0 -.3097790150456875 -
.0719046974802919 0 -.2995806795345715 -.0653372262501314 0 -.2944582694269495 -
.0621840989360494 0 -.2918759438110305 -.0606306905387237 0 127 15 827 4 1 1 1 1
 1 1 1 1 1 1 1 1 1 4 128 15 828 0 .03125 .0625 .125 .1875 .25 .375 .5 .625 .75 .
8125 .875 .9375 .96875 1 16 824 328 0 ?829 830 819 820 0 0 1 134 825 332 0 830 8
20 831 0 +832 833 16 830 331 0 ?46 834 824 825 0 0 1 30 831 335 0 834 825 835 0
 +-.297808110427004 .0218111499901163 0 -.2651692200200995 .96420189003856 0 136
 832 3 4 3 2 5 FFF1 836 837 838 135 833 2 0 45 12 836 -.2978081104270035 .021811
14999011635 0 -.390838970458296 -.0037736583857474 0 -.484094260878147 -.0621659
434864038 0 -.55105830520339 -.1543992961977365 0 127 2 837 4 4 128 2 838 0 1 16
 834 334 0 ?839 840 830 831 0 0 1 134 835 338 0 840 831 841 0 +842 843 16 840 33
7 0 ?844 845 834 835 0 0 1 31 841 341 0 845 835 846 0 +-.550451394146798 -.15483
9930932373 0 0 0 1 0 -1 0 75e-5 136 842 3 17 3 15 6 FFF1 847 848 849 135 843 2 0
 45 51 847 -.549844483090171 -.155280565667003 0 -.547765279129773 -.15241676085
6964 0 -.543532252820516 -.1467227647876734 0 -.534892543493571 -.13563199610959
38 0 -.523724871101209 -.1222502403609934 0 -.509790560465909 -.1069848014070042
 0 -.490546152568338 -.0876773041519768 0 -.465342632508328 -.0655049315012529 0
 -.433570282677431 -.04202391105279285 0 -.4005800550713195 -.02165717237276575
 0 -.3723315932375925 -.00727017180056963 0 -.3494347513565525 .0026939978685223
15 0 -.332150586137277 .00939627557082956 0 -.317691224056281 .01433910178624798
 0 -.3060991879578905 .01791155537585365 0 -.30031602714399 .0195657464682133 0
 -.2974103565969735 .02036484715505845 0 127 15 848 4 1 1 1 1 1 1 1 1 1 1 1 1 1
 4 128 15 849 0 .03125 .0625 .125 .1875 .25 .375 .5 .625 .75 .8125 .875 .9375 .9
6875 1 16 845 340 0 ?850 851 840 841 0 0 1 31 846 344 0 851 841 852 0 +-2.574999
99999986 -.331976404784097 0 0 0 1 0 -1 0 .01000000000000016 16 851 343 0 ?853 8
54 845 846 0 0 1 30 852 347 0 854 846 855 0 +-2.57741921895586 -.322273447521337
 0 -.970295726275996 -.2419218955996685 0 16 854 346 0 ?856 857 851 852 0 0 1 31
 855 353 0 857 852 858 0 +-.564432406966686 .1693143977680935 0 0 0 1 0 -1 0 .00
999999999999388 16 857 352 0 ?859 860 854 855 0 0 1 30 858 356 0 860 855 861 0 +
-.631989328491875 .1421644291524912 0 .970295726275995 .241921895599674 0 16 860
 355 0 ?862 863 857 858 0 0 1 31 861 362 0 863 858 864 0 +.331976404784197 -2.57
4999999999795 0 0 0 1 0 -1 0 .01000000000000016 16 863 361 0 ?23 865 860 861 0 0
 1 30 864 365 0 865 861 866 0 +.3222734475214365 -2.57741921895579 0 .2419218955
99658 -.970295726275999 0 16 865 364 0 ?867 27 863 864 0 0 1 31 866 371 0 27 864
 13 0 +-.1693143977679725 -.564432406966612 0 0 0 1 0 -1 0 .00999999999999387 16
 27 370 0 ?26 16 865 866 0 0 1 30 13 374 0 16 866 6 0 +-.142164429152371 -.63198
9328491801 0 -.241921895599664 .970295726275997 0 16 16 373 0 ?22 9 27 13 0 0 1
 17 22 0 0 0 0 18 17 16 0 0 +17 26 0 0 0 0 24 21 27 0 0 +17 867 0 0 0 0 28 25 86
5 0 0 +17 25 0 19 21 20 24 867 865 0 26 -15 19 29 0 20 12 868 17 20 0 19 25 17 2
8 23 863 0 867 -17 23 0 0 0 0 10 20 863 0 0 +14 255 12 1 869 ?0 0 343 4 5 +0 0 0
 0 4 15 868 30 0 15 12 0 17 15 0 868 15 15 0 870 9 0 0 +17 870 0 0 0 0 0 15 9 0
 0 -81 255 1 869 869 871 12 0 0 0 0 872 80 255 1 871 0 873 8001 0 0 0 0 3 5 0 0
 0 FFFFTFTFFFFFFF2 83 255 3 872 .792156862745098 .819607843137255 .9333333333333
33 79 255 15 873 SDL/TYSA_COLOUR17 862 0 0 0 0 35 34 860 0 0 +17 34 0 874 43 37
 32 862 860 0 853 -15 874 28 0 43 12 19 17 43 0 874 40 34 41 853 851 0 856 -17 3
7 0 874 34 40 35 859 857 0 862 -17 853 0 0 0 0 32 43 851 0 0 +17 40 0 874 37 43
 38 856 854 0 859 -17 859 0 0 0 0 38 37 857 0 0 +17 856 0 0 0 0 41 40 854 0 0 +1
7 850 0 0 0 0 47 875 845 0 0 +17 875 0 876 55 49 44 850 845 0 0 -15 876 27 0 55
 12 874 17 55 0 876 52 875 53 46 830 0 839 -17 49 0 876 875 52 47 844 840 0 850
 -17 52 0 876 49 55 50 839 834 0 844 -17 844 0 0 0 0 50 49 840 0 0 +17 839 0 0 0
 0 53 52 834 0 0 +17 46 0 0 0 0 44 55 830 0 875 +17 829 0 0 0 0 59 877 824 0 0 +
17 877 0 878 67 61 56 829 824 0 0 -15 878 26 0 67 12 876 17 67 0 878 64 877 65 5
8 809 0 818 -17 61 0 878 877 64 59 823 819 0 829 -17 64 0 878 61 67 62 818 813 0
 823 -17 823 0 0 0 0 62 61 819 0 0 +17 818 0 0 0 0 65 64 813 0 0 +17 58 0 0 0 0
 56 67 809 0 877 +17 808 0 0 0 0 71 879 803 0 0 +17 879 0 880 79 73 68 808 803 0
 0 -15 880 25 0 79 12 878 17 79 0 880 76 879 77 70 788 0 797 -17 73 0 880 879 76
 71 802 798 0 808 -17 76 0 880 73 79 74 797 792 0 802 -17 802 0 0 0 0 74 73 798
 0 0 +17 797 0 0 0 0 77 76 792 0 0 +17 70 0 0 0 0 68 79 788 0 879 +17 787 0 0 0
 0 83 881 782 0 0 +17 881 0 882 91 85 80 787 782 0 0 -15 882 24 0 91 12 880 17 9
1 0 882 88 881 89 82 767 0 776 -17 85 0 882 881 88 83 781 777 0 787 -17 88 0 882
 85 91 86 776 771 0 781 -17 781 0 0 0 0 86 85 777 0 0 +17 776 0 0 0 0 89 88 771
 0 0 +17 82 0 0 0 0 80 91 767 0 881 +17 766 0 0 0 0 95 94 764 0 0 +17 94 0 883 1
03 97 92 766 764 0 757 -15 883 23 0 103 12 882 17 103 0 883 100 94 101 757 755 0
 760 -17 97 0 883 94 100 95 763 761 0 766 -17 757 0 0 0 0 92 103 755 0 0 +17 100
 0 883 97 103 98 760 758 0 763 -17 763 0 0 0 0 98 97 761 0 0 +17 760 0 0 0 0 101
 100 758 0 0 +17 754 0 0 0 0 107 106 752 0 0 +17 106 0 884 115 109 104 754 752 0
 745 -15 884 22 0 115 12 883 17 115 0 884 112 106 113 745 743 0 748 -17 109 0 88
4 106 112 107 751 749 0 754 -17 745 0 0 0 0 104 115 743 0 0 +17 112 0 884 109 11
5 110 748 746 0 751 -17 751 0 0 0 0 110 109 749 0 0 +17 748 0 0 0 0 113 112 746
 0 0 +17 742 0 0 0 0 119 885 737 0 0 +17 885 0 886 127 121 116 742 737 0 0 -15 8
86 21 0 127 12 884 17 127 0 886 124 885 125 118 722 0 731 -17 121 0 886 885 124
 119 736 732 0 742 -17 124 0 886 121 127 122 731 726 0 736 -17 736 0 0 0 0 122 1
21 732 0 0 +17 731 0 0 0 0 125 124 726 0 0 +17 118 0 0 0 0 116 127 722 0 885 +17
 721 0 0 0 0 131 887 716 0 0 +17 887 0 888 139 133 128 721 716 0 0 -15 888 20 0
 139 12 886 17 139 0 888 136 887 137 130 701 0 710 -17 133 0 888 887 136 131 715
 711 0 721 -17 136 0 888 133 139 134 710 705 0 715 -17 715 0 0 0 0 134 133 711 0
 0 +17 710 0 0 0 0 137 136 705 0 0 +17 130 0 0 0 0 128 139 701 0 887 +17 700 0 0
 0 0 143 889 695 0 0 +17 889 0 890 151 145 140 700 695 0 0 -15 890 19 0 151 12 8
88 17 151 0 890 148 889 149 142 680 0 689 -17 145 0 890 889 148 143 694 690 0 70
0 -17 148 0 890 145 151 146 689 684 0 694 -17 694 0 0 0 0 146 145 690 0 0 +17 68
9 0 0 0 0 149 148 684 0 0 +17 142 0 0 0 0 140 151 680 0 889 +17 679 0 0 0 0 155
 891 674 0 0 +17 891 0 892 163 157 152 679 674 0 0 -15 892 18 0 163 12 890 17 16
3 0 892 160 891 161 154 659 0 668 -17 157 0 892 891 160 155 673 669 0 679 -17 16
0 0 892 157 163 158 668 663 0 673 -17 673 0 0 0 0 158 157 669 0 0 +17 668 0 0 0
 0 161 160 663 0 0 +17 154 0 0 0 0 152 163 659 0 891 +17 658 0 0 0 0 167 893 653
 0 0 +17 893 0 894 175 169 164 658 653 0 0 -15 894 17 0 175 12 892 17 175 0 894
 172 893 173 166 638 0 647 -17 169 0 894 893 172 167 652 648 0 658 -17 172 0 894
 169 175 170 647 642 0 652 -17 652 0 0 0 0 170 169 648 0 0 +17 647 0 0 0 0 173 1
72 642 0 0 +17 166 0 0 0 0 164 175 638 0 893 +17 637 0 0 0 0 179 895 632 0 0 +17
 895 0 896 187 181 176 637 632 0 0 -15 896 16 0 187 12 894 17 187 0 896 184 895
 185 178 617 0 626 -17 181 0 896 895 184 179 631 627 0 637 -17 184 0 896 181 187
 182 626 621 0 631 -17 631 0 0 0 0 182 181 627 0 0 +17 626 0 0 0 0 185 184 621 0
 0 +17 178 0 0 0 0 176 187 617 0 895 +17 616 0 0 0 0 191 897 611 0 0 +17 897 0 8
98 199 193 188 616 611 0 0 -15 898 15 0 199 12 896 17 199 0 898 196 897 197 190
 596 0 605 -17 193 0 898 897 196 191 610 606 0 616 -17 196 0 898 193 199 194 605
 600 0 610 -17 610 0 0 0 0 194 193 606 0 0 +17 605 0 0 0 0 197 196 600 0 0 +17 1
90 0 0 0 0 188 199 596 0 897 +17 595 0 0 0 0 203 899 590 0 0 +17 899 0 900 211 2
05 200 595 590 0 0 -15 900 14 0 211 12 898 17 211 0 900 208 899 209 202 575 0 58
4 -17 205 0 900 899 208 203 589 585 0 595 -17 208 0 900 205 211 206 584 579 0 58
9 -17 589 0 0 0 0 206 205 585 0 0 +17 584 0 0 0 0 209 208 579 0 0 +17 202 0 0 0
 0 200 211 575 0 899 +17 574 0 0 0 0 215 901 569 0 0 +17 901 0 902 223 217 212 5
74 569 0 0 -15 902 13 0 223 12 900 17 223 0 902 220 901 221 214 554 0 563 -17 21
7 0 902 901 220 215 568 564 0 574 -17 220 0 902 217 223 218 563 558 0 568 -17 56
8 0 0 0 0 218 217 564 0 0 +17 563 0 0 0 0 221 220 558 0 0 +17 214 0 0 0 0 212 22
3 554 0 901 +17 553 0 0 0 0 227 903 548 0 0 +17 903 0 904 235 229 224 553 548 0
 0 -15 904 12 0 235 12 902 17 235 0 904 232 903 233 226 533 0 542 -17 229 0 904
 903 232 227 547 543 0 553 -17 232 0 904 229 235 230 542 537 0 547 -17 547 0 0 0
 0 230 229 543 0 0 +17 542 0 0 0 0 233 232 537 0 0 +17 226 0 0 0 0 224 235 533 0
 903 +17 532 0 0 0 0 239 905 527 0 0 +17 905 0 906 247 241 236 532 527 0 0 -15 9
06 11 0 247 12 904 17 247 0 906 244 905 245 238 512 0 521 -17 241 0 906 905 244
 239 526 522 0 532 -17 244 0 906 241 247 242 521 516 0 526 -17 526 0 0 0 0 242 2
41 522 0 0 +17 521 0 0 0 0 245 244 516 0 0 +17 238 0 0 0 0 236 247 512 0 905 +17
 511 0 0 0 0 251 907 506 0 0 +17 907 0 908 259 253 248 511 506 0 0 -15 908 10 0
 259 12 906 17 259 0 908 256 907 257 250 491 0 500 -17 253 0 908 907 256 251 505
 501 0 511 -17 256 0 908 253 259 254 500 495 0 505 -17 505 0 0 0 0 254 253 501 0
 0 +17 500 0 0 0 0 257 256 495 0 0 +17 250 0 0 0 0 248 259 491 0 907 +17 490 0 0
 0 0 263 909 485 0 0 +17 909 0 910 271 265 260 490 485 0 0 -15 910 9 0 271 12 90
8 17 271 0 910 268 909 269 262 470 0 479 -17 265 0 910 909 268 263 484 480 0 490
 -17 268 0 910 265 271 266 479 474 0 484 -17 484 0 0 0 0 266 265 480 0 0 +17 479
 0 0 0 0 269 268 474 0 0 +17 262 0 0 0 0 260 271 470 0 909 +17 469 0 0 0 0 275 9
11 464 0 0 +17 911 0 912 283 277 272 469 464 0 0 -15 912 8 0 283 12 910 17 283 0
 912 280 911 281 274 449 0 458 -17 277 0 912 911 280 275 463 459 0 469 -17 280 0
 912 277 283 278 458 453 0 463 -17 463 0 0 0 0 278 277 459 0 0 +17 458 0 0 0 0 2
81 280 453 0 0 +17 274 0 0 0 0 272 283 449 0 911 +17 448 0 0 0 0 287 913 443 0 0
 +17 913 0 914 295 289 284 448 443 0 0 -15 914 7 0 295 12 912 17 295 0 914 292 9
13 293 286 428 0 437 -17 289 0 914 913 292 287 442 438 0 448 -17 292 0 914 289 2
95 290 437 432 0 442 -17 442 0 0 0 0 290 289 438 0 0 +17 437 0 0 0 0 293 292 432
 0 0 +17 286 0 0 0 0 284 295 428 0 913 +17 427 0 0 0 0 299 915 422 0 0 +17 915 0
 916 307 301 296 427 422 0 0 -15 916 6 0 307 12 914 17 307 0 916 304 915 305 298
 407 0 416 -17 301 0 916 915 304 299 421 417 0 427 -17 304 0 916 301 307 302 416
 411 0 421 -17 421 0 0 0 0 302 301 417 0 0 +17 416 0 0 0 0 305 304 411 0 0 +17 2
98 0 0 0 0 296 307 407 0 915 +17 406 0 0 0 0 311 917 401 0 0 +17 917 0 918 319 3
13 308 406 401 0 0 -15 918 5 0 319 12 916 17 319 0 918 316 917 317 310 386 0 395
 -17 313 0 918 917 316 311 400 396 0 406 -17 316 0 918 313 319 314 395 390 0 400
 -17 400 0 0 0 0 314 313 396 0 0 +17 395 0 0 0 0 317 316 390 0 0 +17 310 0 0 0 0
 308 319 386 0 917 +17 385 0 0 0 0 323 919 380 0 0 +17 919 0 347 331 325 320 385
 380 0 0 -15 347 4 0 331 12 918 17 331 0 347 328 919 329 322 365 0 374 -17 325 0
 347 919 328 323 379 375 0 385 -17 328 0 347 325 331 326 374 369 0 379 -17 379 0
 0 0 0 326 325 375 0 0 +17 374 0 0 0 0 329 328 369 0 0 +17 322 0 0 0 0 320 331 3
65 0 919 +17 350 0 0 0 0 335 344 351 0 0 +136 356 3 4 3 2 5 FFF1 920 921 922 135
 357 2 0 45 12 920 -.28088 .10135 0 -.3773637220714435 .1018133713758024 0 -.482
914903333995 .070746406853224 0 -.57228 0 0 127 2 921 4 4 128 2 922 0 1 17 349 0
 0 0 0 338 337 353 0 0 +17 337 0 343 344 340 335 349 353 0 350 -74 4 CI16 index_
map_offset0 0 1 dCCZ20 11 1 0 0 869 0 0 0 0 0 0 0 0 0 0 0 0 0 0 0 0 0 0 0 1 0 
