**ABCDEFGHIJKLMNOPQRSTUVWXYZabcdefghijklmnopqrstuvwxyz**************************
**PARASOLID !"#$%&'()*+,-./:;<=>?@[\]^_`{|}~0123456789**************************
**PART1;
MC=AMD64;
MC_MODEL=Intel64 Family 6 Model 37 Stepping 2, GenuineIntel;
MC_ID=unknown;
OS=Windows_NT;
OS_RELEASE=unknown;
FRU=Parasolid Version 25.1, build 198,  6-19-2013;
APPL=SolidWorks 2014-2013262;
SITE=;
USER=unknown;
FORMAT=text;
GUISE=transmit;
KEY=Part1new4;
FILE=Part1new4.x_t;
DATE=Thu Aug 24 22:29:45 2017;
**PART2;
SCH=SCH_2501198_25001;
USFLD_SIZE=0;
**PART3;
**END_OF_HEADER*****************************************************************
T51 : TRANSMIT FILE created by modeller version 250119823 SCH_2501198_25001_1300
6189 0 12 29 CCCCCCCCCCCCCDI5 owner1040 0 CCCCCCCCCA16 index_map_offset0 0 1 dA9
 index_map82 0 A17 node_id_index_map82 0 A20 schema_embedding_map82 0 A5 child12
 0 A14 lowest_node_id0 0 1 dZ1 5473 0 2 0 0 0 0 1e3 1e-8 0 3 0 1 0 1 1 4 5 6 7 8
 9 10 0 0 0 0 0 0 70 11 CI9 list_type0 0 1 uI10 notransmit0 0 1 lCCCDCCDI12 fing
er_index0 0 1 dI12 finger_block1012 0 CZ2 0 4 T1 0 0 1 20 1 11 11 13 255 4 29 0
 1 0 12 0 0 13 0 51 255 5 28 0 14 15 0 0 --1110223024625156e-31 0 -2.22 0 0 1 .8
5 1 -104744440165294e-28 0 30 255 6 4633 0 9 16 0 0 +.55192355515018 -.957573593
128812 -2.29816874315916 -.970238134889749 964076741467951e-29 .2421527650175845
 29 255 7 2776 0 10 17 0 3.55564980448215 3.59807621135332 0 19 8 CCCCCCCA5 owne
r12 0 Z8 7 0 1 13 0 18 V0 16 255 9 4631 0 ?19 0 20 6 0 0 1 18 255 10 2774 0 21 0
 22 7 ?1 17 255 21 0 23 24 25 10 26 27 0 28 +18 22 1473 0 29 10 30 17 ?1 17 29 0
 31 32 19 22 33 34 0 35 +18 30 1464 0 36 22 37 38 ?1 29 17 1475 0 22 38 7 .57693
526835959 -.619361675230783 -2.22 29 38 1466 0 30 39 17 -.576935268359591 .61936
1675230783 -2.22 29 39 1462 0 37 40 38 -.619361675230783 .57693526835959 -2.22 1
8 37 1460 0 41 30 42 39 ?1 29 40 1448 0 42 43 39 .619361675230785 .5769352683595
88 -2.22 18 42 1446 0 44 37 45 40 ?1 29 43 1445 0 45 46 40 .579453093271652 -.62
1879500142845 -2.22 18 45 1443 0 47 42 48 43 ?1 29 46 1442 0 48 49 43 .621879500
142844 -.579453093271652 -2.22 18 48 1440 0 50 45 51 46 ?1 29 49 1439 0 51 52 46
 .621879500142847 .57945309327165 -2.22 18 51 1437 0 53 48 54 49 ?1 29 52 1436 0
 54 55 49 .579453093271654 .621879500142843 -2.22 18 54 1434 0 56 51 57 52 ?1 29
 55 1433 0 57 58 52 -.579453093271652 .621879500142845 -2.22 18 57 1431 0 59 54
 60 55 ?1 29 58 1421 0 60 61 55 .579453093271652 -.621879500142845 -2.21 18 60 1
419 0 62 57 63 58 ?1 29 61 1418 0 63 64 58 .621879500142844 -.579453093271652 -2
.21 18 63 1416 0 65 60 66 61 ?1 29 64 1415 0 66 67 61 .621879500142847 .57945309
327165 -2.21 18 66 1413 0 68 63 69 64 ?1 29 67 1412 0 69 70 64 .579453093271654
 .621879500142843 -2.21 18 69 1410 0 71 66 72 67 ?1 29 70 1409 0 72 73 67 -.5794
53093271652 .621879500142845 -2.21 18 72 1407 0 74 69 75 70 ?1 29 73 1406 0 75 7
6 70 -.621879500142845 .579453093271652 -2.21 18 75 1404 0 77 72 78 73 ?1 29 76
 1355 0 78 79 73 -.621879500142842 .579453093271655 -.00999999999999979 18 78 13
53 0 80 75 81 76 ?1 29 79 1349 0 81 82 76 .579453093271639 .621879500142857 -.00
999999999999979 18 81 1347 0 83 78 84 79 ?1 29 82 1343 0 84 85 79 .6218795001428
33 -.579453093271664 -.00999999999999979 18 84 1341 0 86 81 87 82 ?1 29 85 779 0
 87 88 82 -.621879500142851 -.579453093271645 -2.21 18 87 777 0 89 84 90 85 ?1 2
9 88 776 0 90 91 85 -.579453093271659 -.621879500142838 -2.21 18 90 775 0 92 87
 93 88 ?1 29 91 769 0 93 94 88 -.576935268359597 -.619361675230777 -2.22 18 93 7
67 0 95 90 96 91 ?1 29 94 763 0 96 97 91 -.621879500142851 -.579453093271645 -2.
22 18 96 761 0 98 93 99 94 ?1 29 97 760 0 99 100 94 -.579453093271659 -.62187950
0142838 -2.22 18 99 759 0 101 96 102 97 ?1 29 100 326 0 102 103 97 -.57945309327
1659 -.621879500142838 0 18 102 324 0 104 99 105 100 ?1 29 103 412 0 106 107 100
 -.621879500142851 -.579453093271645 -.00999999999999979 18 106 364 0 108 105 10
9 103 ?1 29 107 413 0 105 110 103 -.579453093271659 -.621879500142838 -.00999999
999999979 18 105 365 0 111 102 106 107 ?1 29 110 416 0 109 112 107 -.62187950014
2851 -.579453093271645 0 18 109 361 0 113 106 114 110 ?1 29 112 562 0 114 115 11
0 -3.59807621135337 -3.5556498044821 -3.91 18 114 466 0 116 109 117 112 ?1 29 11
5 567 0 118 119 112 -3.59807621135337 -3.640502618224485 0 18 118 469 0 120 121
 122 115 ?1 29 119 568 0 122 123 115 -3.64050261822456 -3.59807621135329 0 18 12
2 474 0 124 118 125 119 ?1 29 123 569 0 117 126 119 -3.59807621135337 -3.6405026
18224485 -3.91 18 117 470 0 127 114 121 123 ?1 29 126 570 0 121 128 123 -3.64050
261822456 -3.59807621135329 -3.91 18 121 467 0 129 117 118 126 ?1 29 128 965 0 1
25 130 126 -.619361675230789 -.576935268359584 -2.22 18 125 847 0 131 122 132 12
8 ?1 29 130 2443 0 132 133 128 -.621879500142845 .579453093271652 -2.22 18 132 1
752 0 134 125 135 130 ?1 29 133 2454 0 135 136 130 .619361675230783 -.5769352683
59591 -2.22 18 135 1760 0 137 132 138 133 ?1 29 136 2459 0 138 139 133 .62187950
0142844 -.579453093271652 0 18 138 1769 0 140 135 141 136 ?1 29 139 2460 0 141 1
42 136 .579453093271652 -.621879500142845 -.00999999999999979 18 141 1768 0 143
 138 144 139 ?1 29 142 2462 0 144 145 139 .579453093271652 -.621879500142845 0 1
8 144 1732 0 146 141 147 142 ?1 29 145 2467 0 147 148 142 3.59807621135333 -3.55
564980448214 -3.91 18 147 1739 0 149 144 150 145 ?1 29 148 2468 0 151 152 145 3.
640502618224525 -3.59807621135333 0 18 151 1774 0 153 154 155 148 ?1 29 152 2469
 0 155 156 148 3.59807621135333 -3.640502618224525 0 18 155 1733 0 157 151 158 1
52 ?1 29 156 2470 0 150 159 152 3.640502618224525 -3.59807621135333 -3.91 18 150
 1775 0 160 147 154 156 ?1 29 159 2471 0 154 161 156 3.59807621135333 -3.6405026
18224525 -3.91 18 154 1773 0 162 150 151 159 ?1 29 161 2488 0 158 163 159 .57693
5268359593 .619361675230781 -2.22 18 158 1756 0 164 155 165 161 ?1 29 163 2491 0
 165 166 161 .579453093271654 .621879500142843 0 18 165 1770 0 167 158 168 163 ?
1 29 166 2492 0 168 169 163 .621879500142847 .579453093271649 -.0099999999999997
9 18 168 1822 0 170 165 171 166 ?1 29 169 2493 0 171 172 166 .621879500142847 .5
79453093271649 0 18 171 1734 0 173 168 174 169 ?1 29 172 2494 0 174 175 169 3.59
8076211353345 3.555649804482125 -3.91 18 174 1784 0 176 171 177 172 ?1 29 175 24
95 0 177 178 172 3.55564980448215 3.59807621135332 -3.91 18 177 1738 0 25 174 17
9 175 ?1 29 178 2496 0 180 181 175 3.598076211353345 3.64050261822451 0 18 180 1
826 0 24 182 183 178 ?1 29 181 2497 0 183 184 178 3.640502618224535 3.5980762113
5332 0 18 183 1735 0 185 180 186 181 ?1 29 184 2498 0 179 187 181 3.598076211353
345 3.64050261822451 -3.91 18 179 1827 0 188 177 182 184 ?1 29 187 2499 0 182 18
9 184 3.640502618224535 3.59807621135332 -3.91 18 182 1824 0 190 179 180 187 ?1
 29 189 2518 0 186 191 187 -.621879500142845 .579453093271652 0 18 186 1771 0 19
2 183 193 189 ?1 29 191 2519 0 193 194 189 -.579453093271652 .621879500142845 -.
00999999999999979 18 193 1814 0 195 186 196 191 ?1 29 194 2520 0 196 197 191 -.5
79453093271652 .621879500142845 0 18 196 1736 0 198 193 199 194 ?1 29 197 2521 0
 199 200 194 -3.55564980448214 3.59807621135333 -3.91 18 199 1788 0 201 196 202
 197 ?1 29 200 2522 0 202 203 197 -3.59807621135333 3.55564980448214 -3.91 18 20
2 1741 0 204 199 205 200 ?1 29 203 2523 0 206 207 200 -3.640502618224525 3.59807
621135333 0 18 206 1817 0 208 209 210 203 ?1 29 207 2524 0 210 211 203 -3.598076
21135333 3.640502618224525 0 18 210 1737 0 212 206 213 207 ?1 29 211 2525 0 205
 214 207 -3.640502618224525 3.59807621135333 -3.91 18 205 1818 0 215 202 209 211
 ?1 29 214 2526 0 209 216 211 -3.59807621135333 3.640502618224525 -3.91 18 209 1
816 0 217 205 206 214 ?1 29 216 2945 0 213 218 214 -3.55564980448214 3.598076211
35333 0 18 213 2872 0 219 210 220 216 ?1 29 218 3151 0 221 222 216 -3.5556498044
82175 -3.598076211353295 -3.91 18 221 3071 0 223 224 225 218 ?1 29 222 3152 0 22
5 226 218 3.55564980448214 -3.59807621135333 -3.91 18 225 3084 0 227 221 228 222
 ?1 29 226 3155 0 224 229 222 -3.555649804482175 -3.598076211353295 0 18 224 307
2 0 230 220 221 226 ?1 29 229 3156 0 220 231 226 3.55564980448214 -3.59807621135
333 0 18 220 3083 0 232 213 224 229 ?1 29 231 4590 0 228 233 229 .91514718625761
7 .957573593128804 -2.21 18 228 4475 0 234 225 235 231 ?1 29 233 4591 0 235 236
 231 .915147186257617 .957573593128803 -2.38882237078882 18 235 4476 0 237 228 2
38 233 ?1 29 236 4592 0 238 239 233 .915147186257617 .957573593128804 -.27633897
9065758 18 238 4473 0 240 235 241 236 ?1 29 239 4593 0 241 242 236 -.91514718625
7614 .957573593128807 -2.21 18 241 4470 0 243 238 244 239 ?1 29 242 4594 0 244 2
45 239 -.915147186257614 .957573593128807 -2.38882237078882 18 244 4471 0 246 24
1 247 242 ?1 29 245 4595 0 247 248 242 -.915147186257614 .957573593128807 -.2763
389790657575 18 247 4468 0 249 244 250 245 ?1 29 248 4596 0 250 251 245 -1 .9575
73593128807 -2.21 18 250 4487 0 252 247 253 248 ?1 29 251 4597 0 253 254 248 -1
 .957573593128807 -.31 18 253 4469 0 255 250 256 251 ?1 29 254 4602 0 256 257 25
1 1 .957573593128803 -2.21 18 256 4466 0 258 253 259 254 ?1 29 257 4603 0 259 26
0 254 1 .957573593128803 -.31 18 259 4474 0 261 256 262 257 ?1 29 260 4604 0 262
 263 257 .915147186257617 .957573593128804 0 18 262 4467 0 264 259 265 260 ?1 29
 263 4605 0 265 266 260 -.915147186257614 .957573593128807 0 18 265 4478 0 267 2
62 268 263 ?1 29 266 4607 0 269 270 263 -1 .957573593128807 -2.41 18 269 4472 0
 271 268 272 266 ?1 29 270 4608 0 268 273 266 1 .957573593128803 -2.41 18 268 44
77 0 274 265 269 270 ?1 29 273 5029 0 272 275 270 -.915147186257624 -.9575735931
28797 -.2763389790657575 18 272 4905 0 276 269 277 273 ?1 29 275 5030 0 277 278
 273 -.915147186257624 -.957573593128797 -2.21 18 277 4915 0 279 272 280 275 ?1
 29 278 5031 0 280 281 275 -.915147186257624 -.957573593128797 -2.38882237078882
 18 280 4916 0 282 277 283 278 ?1 29 281 5032 0 283 284 278 .915147186257622 -.9
57573593128815 -.2763389790657645 18 283 4908 0 285 280 286 281 ?1 29 284 5033 0
 286 287 281 .915147186257622 -.957573593128815 -2.21 18 286 4910 0 288 283 289
 284 ?1 29 287 5034 0 289 290 284 .915147186257622 -.957573593128815 -2.38882237
0788825 18 289 4911 0 291 286 292 287 ?1 29 290 5037 0 292 293 287 -1 -.95757359
3128796 -2.21 18 292 4913 0 294 289 295 290 ?1 29 293 5038 0 295 296 290 -1 -.95
7573593128796 -.31 18 295 4906 0 297 292 298 293 ?1 29 296 5039 0 298 299 293 1
 -.957573593128816 -2.21 18 298 4924 0 300 295 301 296 ?1 29 299 5040 0 301 302
 296 1 -.957573593128816 -.31 18 301 4909 0 303 298 304 299 ?1 29 302 5043 0 304
 305 299 -.915147186257625 -.957573593128797 0 18 304 4907 0 306 301 307 302 ?1
 29 305 5044 0 307 308 302 .915147186257622 -.957573593128815 0 18 307 4914 0 30
9 304 310 305 ?1 29 308 5046 0 310 311 305 -1 -.957573593128796 -2.41 18 310 491
7 0 312 307 313 308 ?1 29 311 5049 0 313 0 308 1 -.957573593128816 -2.41 18 313
 4912 0 314 310 0 311 ?1 17 314 0 315 312 291 313 19 9 0 316 -15 255 315 4936 0
 306 317 0 17 312 0 315 282 314 310 316 318 0 319 +17 291 0 315 314 288 289 320
 321 0 19 -17 19 0 31 29 322 289 314 9 0 33 +17 316 0 323 324 325 313 312 318 0
 326 -15 323 4827 0 316 327 0 17 324 0 323 328 316 268 329 330 0 0 -17 325 0 323
 316 328 310 331 332 0 0 -16 318 4863 0 ?312 333 0 334 0 0 1 17 326 0 335 336 14
9 313 337 338 0 322 -15 335 4649 0 339 340 0 17 336 0 335 341 326 135 322 342 0
 0 +17 149 0 335 326 160 147 343 344 0 337 +17 337 0 345 346 329 147 326 338 0 3
47 +16 338 1615 0 ?337 348 349 350 0 0 1 17 322 0 31 19 32 313 336 342 0 329 -15
 31 2082 0 322 351 0 17 32 0 31 322 29 135 35 352 0 336 +16 342 1602 0 ?336 353
 352 354 0 0 1 17 329 0 345 337 355 313 324 330 0 0 +15 345 483 0 329 356 0 17 3
55 0 345 329 346 268 176 357 0 324 +16 330 1229 0 ?329 332 358 359 0 0 1 16 332
 438 0 ?331 360 330 361 0 0 1 16 358 437 0 ?362 330 363 364 0 0 1 30 359 538 0 3
30 364 361 0 +1 -1 -2.41 -104744440165294e-28 -1 0 30 364 540 0 358 365 359 0 --
1.01818274580195 -.975756338930736 -2.420497813183355 -.654653670707985 -.654653
670707971 -.3779644730092255 30 361 536 0 332 359 366 0 +-1 -.999999999999989 -2
.41 104744440165294e-28 1 0 30 366 532 0 360 361 367 0 -1.000000000000038 3.5980
7621135332 -3.91 -1 104744440165294e-28 0 16 360 1262 0 ?368 369 332 366 0 0 1 3
0 367 531 0 369 366 370 0 -3.59807621135332 -1.000000000000038 -3.91 10474444016
5294e-28 1 0 16 369 1268 0 ?347 371 360 367 0 0 1 30 370 530 0 371 367 372 0 -.9
99999999999962 -3.59807621135334 -3.91 1 -1058546631899192e-29 0 16 371 1256 0 ?
373 374 369 370 0 0 1 30 372 529 0 374 370 375 0 --3.59807621135334 -.9999999999
99962 -3.91 -104744440165294e-28 -1 0 16 374 440 0 ?376 377 371 372 0 0 1 30 375
 408 0 377 372 378 0 +-.621879500142851 -.579453093271645 0 -.707106781186555 -.
70710678118654 0 16 377 344 0 ?124 379 374 375 0 0 1 30 378 406 0 380 375 381 0
 +-.579453093271659 -.621879500142838 0 .707106781186555 .70710678118654 0 16 38
0 350 0 ?382 383 379 378 379 379 1 30 381 404 0 384 378 385 0 +-.621879500142851
 -.579453093271645 -.604743139109283 0 0 1 16 384 341 0 ?386 387 383 381 0 0 1 3
0 385 403 0 383 381 388 0 +-.579453093271659 -.621879500142838 -.604743139109283
 0 0 1 16 383 342 0 ?389 384 380 385 0 0 1 31 255 388 126 0 390 385 391 0 +-1110
223024625156e-31 0 0 0 0 1 1 -104744440165294e-28 0 .85 16 390 325 0 ?392 393 39
4 388 395 394 1 31 391 125 0 396 388 397 0 +-1110223024625156e-31 0 -.0099999999
9999979 0 0 1 1 -104744440165294e-28 0 .85 16 396 330 0 ?398 395 399 391 387 399
 1 31 397 5 0 400 391 401 0 +-1110223024625156e-31 0 -2.22 0 0 -1 -1 10474444016
5294e-28 0 .85 16 400 762 0 ?134 20 402 397 403 402 1 31 401 23 0 404 397 16 0 +
-1110223024625156e-31 0 -2.21 0 0 -1 -1 104744440165294e-28 0 .85 16 404 778 0 ?
77 403 405 401 393 405 1 30 16 4197 0 20 401 6 0 +-.159199291214586 .95757359312
8806 .0235447466229881 .929531006008487 -165117875995777e-29 .3687439611286525 1
6 20 4195 0 ?406 9 400 16 0 0 1 17 406 0 407 195 408 247 255 20 0 409 +15 407 21
39 0 408 410 0 17 195 0 407 411 406 193 409 412 0 413 +17 408 0 407 406 411 253
 80 414 0 0 -17 255 0 415 252 249 253 406 20 0 416 -17 409 0 417 418 413 247 195
 412 0 0 -15 417 2766 0 409 419 0 17 418 0 417 198 409 265 249 420 0 421 +17 413
 0 417 409 198 193 422 423 0 424 -16 412 4193 0 ?195 425 426 427 0 0 1 16 425 16
86 0 ?411 414 412 428 0 0 1 16 426 1682 0 ?429 412 430 431 0 0 1 30 427 2395 0 4
12 432 428 0 +-.579453093271652 .621879500142845 -.00999999999999979 .6166873627
64462 -.616687362764462 .48927844139429 30 432 2401 0 414 431 427 0 +-.621879500
142845 .579453093271652 -.00999999999999979 .616687362764462 -.616687362764462 .
48927844139429 30 428 2393 0 425 427 433 0 +-.1458921259184722 1.055440467496024
 -.00999999999999979 -.707106781186548 -.707106781186548 0 30 433 2388 0 434 428
 435 0 +-3.576863007917735 3.619289414788925 -3.91 -.707106781186555 .7071067811
8654 0 16 434 1670 0 ?217 436 437 433 0 0 1 31 435 2387 0 436 433 438 0 +-3.6192
89414788925 3.619289414788925 -3.91 0 0 1 0 -1 0 .02999999999999965 16 436 1663
 0 ?439 440 434 435 0 0 1 30 438 2386 0 440 435 441 0 +-3.619289414788925 3.5768
63007917735 -3.91 .707106781186548 -.707106781186548 0 16 440 1680 0 ?204 442 43
6 438 0 0 1 31 441 2385 0 437 438 443 0 +-3.619289414788925 3.619289414788925 0
 0 0 1 0 -1 0 .02999999999999965 16 437 1538 0 ?444 434 414 441 0 0 1 30 443 238
3 0 445 441 446 0 +-1 .957573593128807 -3.91 0 0 1 16 445 1684 0 ?416 447 448 44
3 0 0 1 30 446 2382 0 448 443 449 0 +-3.640502618224525 3.59807621135333 -3.91 0
 0 1 16 448 1664 0 ?450 445 442 446 0 0 1 30 449 2381 0 442 446 451 0 +-3.598076
21135333 3.640502618224525 -3.91 0 0 1 16 442 1671 0 ?452 448 440 449 0 0 1 30 4
51 2380 0 447 449 453 0 --.1610398886590815 .1186134817878886 -1.925626153877965
 .654653670707978 -.654653670707978 .3779644730092255 16 447 1609 0 ?454 455 445
 451 0 0 1 30 453 2377 0 456 451 457 0 +-.579453093271652 .621879500142845 0 -.7
07106781186548 .707106781186548 0 16 456 1537 0 ?421 458 455 453 455 455 1 30 45
7 2376 0 458 453 459 0 +-.621879500142845 .579453093271652 0 .707106781186548 -.
707106781186548 0 16 458 1539 0 ?192 460 456 457 0 0 1 30 459 2375 0 423 457 461
 0 +-.579453093271652 .621879500142845 -.604743139109283 0 0 1 16 423 1559 0 ?42
2 462 460 459 0 0 1 30 461 2374 0 460 459 463 0 +-.621879500142845 .579453093271
652 -.604743139109283 0 0 1 16 460 1679 0 ?464 423 458 461 0 0 1 30 463 2373 0 4
65 461 466 0 +.576935268359593 .619361675230781 -2.21 .70710678118655 .707106781
186545 -1031223313913366e-31 16 465 1701 0 ?467 468 469 463 0 0 1 30 466 2372 0
 469 463 470 0 +.95757359312881 1 -2.41 -.666790818292944 -.666790818292939 .332
836310039122 16 469 4270 0 ?164 465 471 466 0 0 1 30 470 2368 0 472 466 473 0 +1
 .957573593128803 -2.41 -.666790818292944 -.666790818292939 .332836310039122 16
 472 1715 0 ?474 471 462 470 0 0 1 30 473 2365 0 462 470 475 0 +.619361675230785
 .576935268359588 -2.21 .70710678118655 .707106781186545 -1031223313913366e-31 1
6 462 1523 0 ?476 472 423 473 0 0 1 30 475 2362 0 471 473 477 0 +1.0529226425839
62 .143374301006407 -2.22 -.707106781186545 .70710678118655 0 16 471 1716 0 ?478
 469 472 475 0 0 1 30 477 2358 0 468 475 479 0 +.02121320343559605 -.02121320343
55964 -2.22 -.70710678118655 -.707106781186545 0 16 468 1687 0 ?480 481 465 477
 0 0 1 30 479 2357 0 481 477 482 0 +.621879500142847 .57945309327165 -2.22 0 0 1
 16 481 1552 0 ?68 483 468 479 0 0 1 30 482 2356 0 483 479 484 0 +-.021213203435
5962 .0212132034355963 -2.22 -.70710678118655 -.707106781186545 0 16 483 1567 0
 ?485 486 481 482 0 0 1 30 484 2355 0 486 482 487 0 +.579453093271654 .621879500
142842 -2.22 0 0 1 16 486 1700 0 ?488 489 483 484 0 0 1 30 487 2354 0 490 484 49
1 0 +.579453093271654 .621879500142842 -.00999999999999979 -.616687362764464 -.6
1668736276446 .48927844139429 16 490 4236 0 ?83 492 493 487 0 0 1 30 491 2348 0
 489 487 494 0 +.621879500142847 .57945309327165 -.00999999999999979 -.616687362
764464 -.61668736276446 .48927844139429 16 489 1707 0 ?495 493 486 491 0 0 1 30
 494 2346 0 493 491 496 0 +1.055440467496024 .1458921259184684 -.009999999999999
79 -.707106781186545 .70710678118655 0 16 493 1708 0 ?497 490 489 494 0 0 1 30 4
96 2341 0 498 494 499 0 +3.61928941478894 3.57686300791772 -3.91 .70710678118654
3 .707106781186553 0 16 498 1688 0 ?190 500 492 496 0 0 1 31 499 2340 0 500 496
 501 0 +3.61928941478894 3.619289414788915 -3.91 0 0 1 -1 3491481338843135e-30 0
 .02999999999999965 16 500 1705 0 ?502 503 498 499 0 0 1 30 501 2339 0 503 499 5
04 0 +3.576863007917745 3.619289414788915 -3.91 -.70710678118655 -.7071067811865
45 0 16 503 1698 0 ?25 505 500 501 0 0 1 31 504 2338 0 492 501 506 0 +3.61928941
478894 3.619289414788915 0 0 0 1 -1 3491481338843135e-30 0 .02999999999999965 16
 492 1535 0 ?507 498 490 504 0 0 1 30 506 2337 0 508 504 509 0 +1 .9575735931288
04 -3.91 0 0 1 16 508 1703 0 ?261 357 510 506 0 0 1 30 509 2335 0 510 506 511 0
 +3.598076211353345 3.64050261822451 -3.91 0 0 1 16 510 1706 0 ?512 508 505 509
 0 0 1 30 511 2334 0 505 509 513 0 +3.640502618224535 3.59807621135332 -3.91 0 0
 1 16 505 1689 0 ?514 510 503 511 0 0 1 30 513 2332 0 357 511 515 0 -1.018182745
801942 .975756338930743 -2.420497813183355 .65465367070798 .654653670707975 -.37
79644730092255 16 357 1613 0 ?355 516 508 513 0 0 1 30 515 2330 0 516 513 517 0
 +.621879500142847 .57945309327165 0 .70710678118655 .707106781186545 0 16 516 1
534 0 ?185 518 357 515 0 0 1 30 517 2329 0 519 515 520 0 +.579453093271654 .6218
79500142843 0 -.70710678118655 -.707106781186545 0 16 519 1536 0 ?28 521 518 517
 518 518 1 30 520 2328 0 522 517 523 0 +.621879500142847 .579453093271649 -.6047
43139109283 0 0 1 16 522 1557 0 ?524 525 521 520 0 0 1 30 523 2327 0 521 520 526
 0 +.579453093271654 .621879500142843 -.604743139109283 0 0 1 16 521 1697 0 ?527
 522 519 523 0 0 1 30 526 2326 0 353 523 354 0 +.619361675230783 -.5769352683595
91 -2.21 .707106781186548 -.707106781186548 -1031223313913366e-31 16 353 1604 0
 ?528 529 342 526 0 0 1 30 354 2325 0 342 526 530 0 +1 -.957573593128807 -2.41 -
.666790818292942 .666790818292942 .332836310039122 30 530 2321 0 34 354 531 0 +.
957573593128807 -1 -2.41 -.666790818292942 .666790818292942 .332836310039122 16
 34 4629 0 ?29 352 525 530 0 0 1 30 531 2318 0 525 530 532 0 +.57693526835959 -.
619361675230783 -2.21 .707106781186548 -.707106781186548 -1031223313913366e-31 1
6 525 1526 0 ?533 34 522 531 0 0 1 30 532 2315 0 352 531 534 0 +.143374301006410
6 -1.052922642583962 -2.22 .707106781186548 .707106781186548 0 16 352 1644 0 ?32
 342 34 532 0 0 1 30 534 2311 0 529 532 535 0 +-.0212132034355964 -.021213203435
5963 -2.22 -.707106781186548 .707106781186548 0 16 529 1590 0 ?536 537 353 534 0
 0 1 30 535 2310 0 537 534 538 0 +.579453093271652 -.621879500142845 -2.22 0 0 1
 16 537 1560 0 ?62 539 529 535 0 0 1 30 538 2309 0 539 535 540 0 +.0212132034355
9605 .0212132034355962 -2.22 -.707106781186548 .707106781186548 0 16 539 1569 0
 ?137 541 537 538 0 0 1 30 540 2308 0 541 538 542 0 +.621879500142844 -.57945309
3271652 -2.22 0 0 1 16 541 1603 0 ?543 544 539 540 0 0 1 30 542 2307 0 545 540 5
46 0 +.621879500142844 -.579453093271652 -.00999999999999979 -.616687362764462 .
616687362764462 .48927844139429 16 545 1599 0 ?86 547 548 542 0 0 1 30 546 2301
 0 544 542 549 0 +.579453093271652 -.621879500142845 -.00999999999999979 -.61668
7362764462 .616687362764462 .48927844139429 16 544 4638 0 ?143 548 541 546 0 0 1
 30 549 2299 0 548 546 550 0 +.145892125918472 -1.055440467496024 -.009999999999
99979 .707106781186548 .707106781186548 0 16 548 1636 0 ?551 545 544 549 0 0 1 3
0 550 2294 0 552 549 553 0 +3.576863007917735 -3.619289414788925 -3.91 .70710678
1186555 -.70710678118654 0 16 552 1591 0 ?162 554 547 550 0 0 1 31 553 2293 0 55
4 550 555 0 +3.619289414788925 -3.619289414788925 -3.91 0 0 1 0 1 0 .02999999999
999965 16 554 1633 0 ?556 344 552 553 0 0 1 30 555 2292 0 344 553 557 0 +3.61928
9414788925 -3.576863007917735 -3.91 -.707106781186548 .707106781186548 0 16 344
 1601 0 ?149 558 554 555 0 0 1 31 557 2291 0 547 555 559 0 +3.619289414788925 -3
.619289414788925 0 0 0 1 0 1 0 .02999999999999965 16 547 1532 0 ?560 552 545 557
 0 0 1 30 559 2289 0 349 557 561 0 +1 -.957573593128807 -3.91 0 0 1 16 349 1605
 0 ?562 338 563 559 0 0 1 30 561 2288 0 563 559 564 0 +3.640502618224525 -3.5980
7621135333 -3.91 0 0 1 16 563 1634 0 ?565 349 558 561 0 0 1 30 564 2287 0 558 56
1 350 0 +3.59807621135333 -3.640502618224525 -3.91 0 0 1 16 558 1592 0 ?566 563
 344 564 0 0 1 30 350 2286 0 338 564 567 0 -.1610398886590815 -.1186134817878886
 -1.925626153877965 -.654653670707978 .654653670707978 .3779644730092255 30 567
 2274 0 568 350 569 0 +.579453093271652 -.621879500142845 0 .707106781186548 -.7
07106781186548 0 16 568 1531 0 ?570 571 348 567 348 348 1 30 569 2273 0 571 567
 572 0 +.621879500142844 -.579453093271652 0 -.707106781186548 .707106781186548
 0 16 571 1533 0 ?140 573 568 569 0 0 1 30 572 2272 0 574 569 575 0 +.5794530932
71652 -.621879500142845 -.604743139109283 0 0 1 16 574 1575 0 ?576 577 573 572 0
 0 1 30 575 2271 0 573 572 578 0 +.621879500142844 -.579453093271652 -.604743139
109283 0 0 1 16 573 1600 0 ?339 574 571 575 0 0 1 30 578 947 0 579 575 580 0 +-.
576935268359597 -.619361675230777 -2.21 -.707106781186555 -.70710678118654 -1031
223313913366e-31 16 579 802 0 ?581 582 583 578 0 0 1 30 580 945 0 583 578 584 0
 +-.957573593128818 -1 -2.41 .666790818292949 .666790818292935 .332836310039122
 16 583 4672 0 ?95 579 585 580 0 0 1 30 584 940 0 586 580 587 0 +-1 -.9575735931
28796 -2.41 .666790818292949 .666790818292935 .332836310039122 16 586 821 0 ?588
 585 577 584 0 0 1 30 587 936 0 577 584 589 0 +-.619361675230789 -.5769352683595
84 -2.21 -.707106781186555 -.70710678118654 -1031223313913366e-31 16 577 799 0 ?
590 586 574 587 0 0 1 30 589 931 0 585 587 591 0 +-1.052922642583964 -.143374301
0063996 -2.22 .70710678118654 -.707106781186555 0 16 585 822 0 ?592 583 586 589
 0 0 1 30 591 926 0 582 589 593 0 +-.0212132034355962 .0212132034355965 -2.22 .7
07106781186555 .70710678118654 0 16 582 814 0 ?594 595 579 591 0 0 1 30 593 925
 0 595 591 596 0 +-.621879500142851 -.579453093271645 -2.22 0 0 1 16 595 842 0 ?
89 597 582 593 0 0 1 30 596 924 0 597 593 598 0 +.02121320343559585 -.0212132034
355964 -2.22 .707106781186555 .70710678118654 0 16 597 835 0 ?599 600 595 596 0
 0 1 30 598 923 0 600 596 601 0 +-.579453093271659 -.621879500142838 -2.22 0 0 1
 16 600 801 0 ?602 603 597 598 0 0 1 30 601 726 0 604 598 605 0 +-.5794530932716
59 -.621879500142838 -.00999999999999979 .616687362764468 .616687362764456 .4892
7844139429 16 604 4679 0 ?111 606 607 601 0 0 1 30 605 716 0 603 601 608 0 +-.62
1879500142851 -.579453093271645 -.00999999999999979 .616687362764469 .6166873627
64456 .48927844139429 16 603 625 0 ?609 607 600 605 0 0 1 30 608 714 0 607 605 6
10 0 +-1.055440467496026 -.145892125918461 -.00999999999999979 .70710678118654 -
.707106781186555 0 16 607 626 0 ?611 604 603 608 0 0 1 30 610 552 0 612 608 613
 0 +-3.619289414788965 -3.576863007917695 -3.91 -.707106781186548 -.707106781186
548 0 16 612 444 0 ?129 614 606 610 0 0 1 31 613 551 0 614 610 615 0 +-3.6192894
14788965 -3.61928941478889 -3.91 0 0 1 1 -104744440165294e-28 0 .029999999999999
65 16 614 451 0 ?616 617 612 613 0 0 1 30 615 550 0 617 613 618 0 +-3.5768630079
1777 -3.61928941478889 -3.91 .707106781186555 .70710678118654 0 16 617 448 0 ?61
9 620 614 615 0 0 1 31 618 549 0 606 615 621 0 +-3.619289414788965 -3.6192894147
8889 0 0 0 1 1 -104744440165294e-28 0 .02999999999999965 16 606 454 0 ?622 612 6
04 618 0 0 1 30 621 545 0 363 618 623 0 +-1 -.957573593128797 -3.91 0 0 1 16 363
 752 0 ?297 358 624 621 0 0 1 30 623 543 0 624 621 365 0 +-3.59807621135337 -3.6
40502618224485 -3.91 0 0 1 16 624 452 0 ?625 363 620 623 0 0 1 30 365 542 0 620
 623 364 0 +-3.64050261822456 -3.59807621135329 -3.91 0 0 1 16 620 445 0 ?626 62
4 617 365 0 0 1 17 626 0 627 628 129 122 629 620 0 630 +15 627 4689 0 631 632 0
 17 628 0 627 633 626 109 124 377 0 386 -17 129 0 627 626 116 121 634 612 0 629
 +17 629 0 635 616 630 121 626 620 0 636 -17 630 0 635 629 625 122 622 606 0 0 -
15 635 510 0 630 637 0 17 625 0 635 630 616 118 127 624 0 622 +17 622 0 638 382
 124 118 630 606 0 0 +15 638 4718 0 140 639 640 17 382 0 638 641 622 224 120 380
 0 0 +17 124 0 638 622 113 122 628 377 0 626 +17 113 0 638 124 192 109 642 395 0
 628 +17 192 0 638 113 444 186 208 458 0 464 +17 642 0 643 644 386 186 113 395 0
 0 -16 395 1329 0 ?113 645 396 388 645 390 1 16 645 1323 0 ?646 394 395 388 394
 395 1 17 646 0 640 421 167 196 647 645 0 0 +16 394 1317 0 ?648 390 645 388 390
 645 1 17 648 0 638 185 140 171 649 394 0 0 +17 185 0 638 507 648 183 173 516 0
 514 +17 140 0 638 648 560 138 153 571 0 339 +17 649 0 650 651 524 138 648 394 0
 0 -15 650 1357 0 649 652 0 17 651 0 650 653 649 84 339 573 0 654 -17 524 0 650
 649 653 171 170 522 0 648 +17 653 0 650 524 651 168 654 399 0 0 +17 170 0 655 6
56 173 168 524 522 0 495 -15 655 4247 0 657 658 0 17 656 0 655 659 170 259 495 4
89 0 0 -17 173 0 655 170 514 171 185 516 0 524 -17 495 0 660 497 661 168 656 489
 0 662 +15 660 2166 0 663 664 0 17 497 0 660 663 495 81 662 493 0 665 +17 661 0
 660 495 663 259 240 666 0 656 +17 662 0 667 654 668 168 497 493 0 653 -15 667 1
06 0 654 669 0 17 654 0 667 670 662 84 653 399 0 0 -17 668 0 667 662 424 81 671
 672 0 0 -17 424 0 667 668 673 193 411 425 0 671 -17 671 0 674 422 665 193 668 6
72 0 0 +16 672 1348 0 ?671 399 387 391 399 387 1 16 399 1342 0 ?653 396 672 391
 396 672 1 16 387 1354 0 ?108 672 384 391 672 396 1 17 108 0 643 386 644 106 673
 387 0 675 +15 643 111 0 642 676 0 17 386 0 643 642 108 109 633 384 0 0 +17 644
 0 643 108 642 78 464 460 0 673 -17 673 0 667 424 675 78 108 387 0 0 -17 675 0 6
67 673 677 106 611 607 0 633 -17 677 0 667 675 670 105 398 396 0 611 -17 611 0 6
78 679 609 105 675 607 0 0 +17 633 0 627 680 628 106 386 384 0 609 -17 680 0 627
 681 633 295 609 603 0 0 -17 609 0 678 611 682 106 680 603 0 0 +15 678 672 0 679
 683 0 17 682 0 678 609 679 295 276 684 0 680 +17 679 0 678 682 611 272 111 604
 0 0 -17 276 0 315 306 297 272 682 684 0 685 -16 684 4860 0 ?682 686 687 688 0 0
 1 16 686 4859 0 ?685 689 684 690 0 0 1 16 687 4866 0 ?294 684 691 692 693 693 1
 30 688 5004 0 684 694 690 0 +-.945074426669684 -.957573593128797 -.288211083496
765 -.929531006008488 923628118851379e-29 -.368743961128652 30 694 5005 0 691 69
5 688 0 +-.915147186257624 -.957573593128797 -.604743139109283 0 0 -1 30 690 500
3 0 686 688 696 0 +-.915147186257624 -.957573593128797 -.604743139109283 0 0 -1
 30 696 4587 0 689 690 697 0 +-1 .957573593128807 -2.41 1 -177635683940025e-29 0
 16 689 4423 0 ?274 698 686 696 0 0 1 30 697 4584 0 698 696 699 0 +-1 .957573593
128807 0 1 -177635683940025e-29 0 16 698 4462 0 ?700 420 689 697 0 0 1 30 699 45
71 0 420 697 701 0 +-.915147186257614 .957573593128807 -.604743139109283 0 0 1 1
6 420 4431 0 ?418 702 698 699 0 0 1 30 701 4570 0 702 699 703 0 +-.5519235551501
76 .957573593128806 -2.29816874315916 .970238134889749 -1723489146758345e-30 .24
21527650175825 16 702 4450 0 ?704 705 420 701 0 0 1 30 703 4569 0 705 701 706 0
 +-.915147186257614 .957573593128807 -.604743139109283 0 0 1 16 705 4451 0 ?707
 708 702 703 0 0 1 30 706 4568 0 708 703 709 0 +155431223447522e-29 .95757359312
8805 -2.21 1 -177635683940025e-29 0 16 708 4422 0 ?243 666 705 706 710 710 1 30
 709 4567 0 666 706 711 0 +.945074426669676 .957573593128803 -.2882110834967645
 .929531006008487 -165117875995777e-29 -.3687439611286525 16 666 4427 0 ?661 712
 708 709 0 0 1 30 711 4566 0 712 709 713 0 +.915147186257617 .957573593128804 -.
604743139109283 0 0 -1 16 712 4426 0 ?714 715 666 711 0 0 1 30 713 4565 0 715 71
1 716 0 +1.408137835995812 .957573593128803 -2.511863348739545 .970238134889749
 -1723489146758345e-30 -.2421527650175825 16 715 4429 0 ?717 718 712 713 0 0 1 3
0 716 4564 0 718 713 719 0 +.915147186257617 .957573593128804 -.604743139109283
 0 0 -1 16 718 4428 0 ?720 710 715 716 0 0 1 30 719 3143 0 721 716 722 0 +3.5556
4980448214 -3.59807621135333 0 1 -530811313162389e-29 0 16 721 3058 0 ?641 723 7
10 719 0 0 1 30 722 3135 0 724 719 725 0 +3.55564980448214 -3.59807621135333 -11
.48103573683654 0 0 1 16 724 3067 0 ?232 726 723 722 0 0 1 30 725 3134 0 723 722
 727 0 +-3.555649804482175 -3.598076211353295 -11.48103573683654 0 0 1 16 723 30
42 0 ?728 724 721 725 0 0 1 30 727 2932 0 726 725 729 0 +-3.55564980448214 3.598
07621135333 0 -1 181100330373051e-29 0 16 726 2847 0 ?730 27 724 727 0 0 1 30 72
9 2924 0 731 727 732 0 +-3.55564980448214 3.59807621135333 -11.48103573683654 0
 0 1 16 731 2856 0 ?733 734 27 729 0 0 1 30 732 2923 0 27 729 735 0 +3.555649804
48215 3.59807621135332 -11.48103573683654 0 0 1 16 27 2831 0 ?21 731 726 732 0 0
 1 30 735 2420 0 736 732 737 0 +-.619361675230783 .576935268359591 -2.21 -.70710
6781186548 .707106781186548 -1031223313913366e-31 16 736 1683 0 ?738 739 740 735
 0 0 1 30 737 2419 0 740 735 741 0 +-1 .957573593128807 -2.41 .666790818292942 -
.666790818292942 .332836310039122 16 740 1681 0 ?742 736 743 737 0 0 1 30 741 24
15 0 744 737 745 0 +-.957573593128807 1 -2.41 .666790818292942 -.666790818292942
 .332836310039122 16 744 4228 0 ?36 743 734 741 0 0 1 30 745 2412 0 734 741 746
 0 +-.576935268359591 .619361675230783 -2.21 -.707106781186548 .707106781186548
 -1031223313913366e-31 16 734 1529 0 ?747 744 731 745 0 0 1 30 746 2409 0 743 74
5 748 0 +-.143374301006411 1.052922642583962 -2.22 -.707106781186548 -.707106781
186548 0 16 743 1668 0 ?749 740 744 746 0 0 1 30 748 2405 0 739 746 750 0 +.0212
132034355962 .0212132034355963 -2.22 .707106781186548 -.707106781186548 0 16 739
 1669 0 ?751 752 736 748 0 0 1 30 750 2404 0 752 748 753 0 +-.579453093271652 .6
21879500142845 -2.22 0 0 1 16 752 1555 0 ?74 430 739 750 0 0 1 30 753 2403 0 430
 750 431 0 +-.0212132034355963 -.0212132034355962 -2.22 .707106781186548 -.70710
6781186548 0 16 430 1565 0 ?41 426 752 753 0 0 1 30 431 2402 0 426 753 432 0 +-.
621879500142845 .579453093271652 -2.22 0 0 1 17 41 0 754 755 134 37 756 430 0 74
9 +15 754 1483 0 47 757 0 17 755 0 754 59 41 30 749 743 0 751 -17 134 0 754 41 9
8 132 758 400 0 759 +17 756 0 760 429 742 132 41 430 0 0 -17 749 0 761 762 36 37
 755 743 0 742 +15 761 2118 0 762 763 0 17 762 0 761 704 749 269 742 740 0 331 -
17 36 0 761 749 704 30 764 744 0 755 +17 742 0 760 756 765 37 762 740 0 0 +15 76
0 4217 0 416 766 0 17 765 0 760 742 204 269 454 447 0 762 -17 204 0 760 765 215
 202 767 440 0 454 +17 454 0 768 769 331 202 765 447 0 376 +15 768 489 0 331 770
 0 17 769 0 768 362 454 114 376 374 0 0 -17 331 0 768 454 362 269 325 332 0 0 +1
7 376 0 771 767 634 202 769 374 0 0 +15 771 2997 0 373 772 0 17 767 0 771 773 37
6 205 204 440 0 439 -17 634 0 771 376 636 114 129 612 0 769 -17 636 0 771 634 77
4 121 616 614 0 0 -17 774 0 771 636 373 117 619 617 0 616 -17 616 0 635 625 629
 117 636 614 0 0 +17 373 0 771 774 775 221 227 371 0 619 +17 619 0 776 728 127 2
21 774 617 0 0 +15 776 3016 0 728 777 0 17 728 0 776 120 619 224 223 723 0 382 +
17 127 0 776 619 120 117 625 624 0 774 -17 120 0 776 127 728 118 382 380 0 625 -
17 223 0 778 227 230 221 728 723 0 373 -15 778 3116 0 223 779 0 17 227 0 778 232
 223 225 373 371 0 780 -17 230 0 778 223 232 224 641 721 0 728 -17 232 0 778 230
 227 220 780 724 0 641 +17 641 0 638 157 382 220 230 721 0 781 +17 157 0 638 560
 641 155 781 348 0 566 +17 781 0 782 780 566 220 157 348 0 0 -15 782 2960 0 780
 783 0 17 780 0 782 162 781 225 232 724 0 775 -17 566 0 782 781 162 155 784 558
 0 785 +16 348 2957 0 ?157 568 338 567 568 568 1 17 162 0 782 566 780 154 775 55
2 0 784 +17 784 0 786 556 785 154 566 558 0 787 -17 785 0 786 784 565 155 560 54
7 0 0 -15 786 2067 0 785 788 0 17 565 0 786 785 556 151 160 563 0 560 +17 560 0
 638 140 157 151 785 547 0 0 +17 556 0 786 565 784 150 787 554 0 0 +17 160 0 335
 149 153 150 565 563 0 343 -17 153 0 335 160 339 151 140 571 0 565 -17 343 0 771
 787 347 150 149 344 0 556 -17 787 0 771 775 343 154 556 554 0 0 -17 347 0 771 3
43 789 147 346 369 0 0 +17 789 0 771 347 790 174 190 498 0 346 -17 346 0 345 355
 337 174 347 369 0 0 -17 790 0 771 789 791 182 502 500 0 0 -17 190 0 655 514 176
 182 789 498 0 792 +17 514 0 655 173 190 183 792 505 0 793 +17 176 0 655 190 657
 174 355 357 0 789 -17 792 0 794 502 793 182 514 505 0 790 -15 794 2163 0 793 79
5 0 17 502 0 794 512 792 179 790 500 0 0 +17 793 0 794 792 512 183 507 492 0 0 -
17 512 0 794 793 502 180 188 510 0 507 +17 507 0 638 28 185 180 793 492 0 0 +17
 28 0 638 730 507 10 24 519 0 796 +17 730 0 638 212 28 213 796 726 0 0 +17 24 0
 23 188 21 180 28 519 0 512 -17 796 0 797 26 733 10 730 726 0 0 -15 797 2905 0 2
6 798 0 17 26 0 797 799 796 177 21 27 0 0 -17 733 0 797 796 799 213 201 731 0 73
0 +17 799 0 797 733 26 199 368 360 0 0 -17 201 0 800 217 219 199 733 731 0 801 -
15 800 2746 0 201 802 0 17 217 0 800 452 201 209 801 434 0 803 +17 219 0 800 201
 452 213 212 455 0 733 -17 801 0 771 368 773 199 217 434 0 799 -17 368 0 771 791
 801 177 799 360 0 26 +17 773 0 771 801 767 209 439 436 0 0 -17 439 0 804 450 80
3 205 773 436 0 0 +15 804 2112 0 805 806 0 17 450 0 804 805 439 206 215 448 0 44
4 +17 803 0 804 439 805 209 452 442 0 773 -17 805 0 804 803 450 210 444 437 0 0
 -17 452 0 800 219 217 210 803 442 0 805 +17 444 0 638 192 212 206 805 437 0 0 +
17 212 0 638 444 730 210 219 455 0 452 +16 455 2743 0 ?212 456 447 453 456 456 1
 17 215 0 760 204 208 205 450 448 0 767 -17 208 0 760 215 464 206 192 458 0 450
 -17 464 0 760 208 80 186 644 460 0 642 +17 80 0 760 464 416 78 408 414 0 411 +1
7 416 0 760 80 738 253 252 445 0 408 +16 414 1678 0 ?80 437 425 432 0 0 1 17 411
 0 407 408 195 78 424 425 0 644 +17 738 0 760 416 429 250 807 736 0 0 +17 252 0
 415 243 255 250 416 445 0 808 -15 415 4493 0 234 809 0 17 243 0 415 246 252 241
 808 708 0 707 +17 808 0 810 807 747 250 243 708 0 738 -15 810 4846 0 811 12 0 1
7 807 0 810 812 808 75 738 736 0 0 -17 747 0 810 808 813 241 814 734 0 0 +17 813
 0 810 747 815 72 71 405 0 814 -17 814 0 816 817 707 72 747 734 0 0 -15 816 2756
 0 764 818 0 17 817 0 816 751 814 57 74 752 0 0 -17 707 0 816 814 764 241 246 70
5 0 747 +17 764 0 816 707 751 244 36 744 0 0 -17 246 0 415 271 243 244 707 705 0
 704 -17 271 0 415 274 246 269 704 702 0 328 -17 704 0 761 36 762 244 271 702 0
 764 +17 274 0 415 237 271 268 328 689 0 717 +17 328 0 323 325 324 269 274 689 0
 765 -17 237 0 415 234 274 235 717 715 0 720 -17 717 0 819 474 820 268 237 715 0
 657 +15 819 2178 0 820 821 0 17 474 0 819 478 717 42 657 472 0 0 +17 820 0 819
 717 478 235 164 469 0 0 -17 657 0 655 176 480 268 474 472 0 355 -17 480 0 655 6
57 822 42 53 468 0 474 +17 822 0 655 480 823 51 68 481 0 0 -17 53 0 754 824 44 5
1 480 468 0 825 -17 824 0 754 137 53 48 825 826 0 341 +17 44 0 754 53 485 42 478
 471 0 480 -17 825 0 827 68 50 51 824 826 0 822 -15 827 1488 0 65 828 0 17 68 0
 827 65 825 66 822 481 0 829 +17 50 0 827 825 65 48 543 541 0 824 -16 826 1438 0
 ?824 402 403 397 402 403 1 16 402 1432 0 ?830 400 826 397 400 826 1 16 403 1444
 0 ?101 826 404 397 826 400 1 17 101 0 754 599 47 99 831 403 0 832 +17 599 0 754
 131 101 93 833 597 0 592 +17 47 0 754 101 35 45 536 529 0 831 -17 831 0 834 62
 832 45 101 403 0 835 -17 832 0 834 831 92 99 602 600 0 833 -15 834 1508 0 831 8
36 0 17 92 0 834 832 62 90 837 393 0 602 +17 602 0 838 581 833 90 832 600 0 839
 +17 833 0 838 602 95 99 599 597 0 0 -15 838 3034 0 581 840 0 17 95 0 838 833 84
1 93 842 583 0 599 +17 841 0 838 95 581 280 279 691 0 842 +17 842 0 843 319 592
 280 95 583 0 0 -15 843 890 0 842 844 0 17 319 0 843 588 842 310 282 845 0 631 +
17 592 0 843 842 588 93 131 585 0 0 +17 588 0 843 592 319 125 631 586 0 0 +17 13
1 0 754 98 599 125 592 585 0 594 -17 98 0 754 134 131 96 594 582 0 758 -17 594 0
 627 631 846 125 98 582 0 588 +17 631 0 627 116 594 310 588 586 0 362 -17 846 0
 627 594 847 96 89 595 0 0 -17 847 0 627 846 681 87 590 577 0 0 -17 89 0 848 77
 758 87 846 595 0 812 +15 848 782 0 77 14 0 17 77 0 848 759 89 75 812 404 0 429
 +17 758 0 848 89 759 96 134 400 0 846 -17 812 0 810 590 807 87 77 404 0 847 -17
 590 0 810 849 812 292 847 577 0 681 +17 849 0 810 839 590 277 294 687 0 581 -17
 681 0 627 847 680 292 297 363 0 0 -17 297 0 315 276 294 295 681 363 0 682 +17 2
94 0 315 297 279 292 849 687 0 590 +17 279 0 315 294 282 277 841 691 0 849 -17 2
82 0 315 279 312 280 319 845 0 841 -16 691 4870 0 ?841 687 845 694 0 0 1 16 845
 4871 0 ?319 691 850 695 0 0 1 16 850 4868 0 ?851 845 852 853 0 0 1 30 695 5006
 0 845 853 694 0 +-1.40813783599582 -.957573593128792 -2.511863348739545 -.97023
8134889749 964076741467951e-29 -.2421527650175825 30 853 5007 0 850 854 695 0 +.
915147186257622 -.957573593128815 -.604743139109283 0 0 1 30 854 5008 0 852 692
 853 0 +.159199291214586 -.957573593128808 .0235447466229868 -.929531006008487 9
23628118851378e-29 .368743961128655 16 852 4867 0 ?855 850 693 854 0 0 1 30 692
 5009 0 693 856 854 0 +-965894031423886e-29 -.957573593128806 -2.21 -1 993649607
039515e-29 0 16 693 4862 0 ?288 852 321 692 687 687 1 30 856 5010 0 321 857 692
 0 +.915147186257622 -.957573593128815 -.604743139109283 0 0 1 16 321 4886 0 ?32
0 693 333 856 0 0 1 30 857 5022 0 333 334 856 0 +1 -.957573593128816 0 -1 993649
607039515e-29 0 16 333 4901 0 ?858 321 318 857 0 0 1 30 334 5025 0 318 0 857 0 +
1 -.957573593128816 -2.41 -1 993649607039515e-29 0 17 858 0 859 104 570 304 309
 333 0 860 +15 859 5063 0 858 639 638 17 104 0 859 392 858 102 860 379 0 389 +17
 570 0 859 858 392 307 146 568 0 0 +17 309 0 315 285 306 307 858 333 0 851 -17 8
60 0 861 685 389 304 104 379 0 0 -15 861 3025 0 860 862 0 17 685 0 861 111 860 2
72 306 686 0 679 +17 389 0 861 860 111 102 863 383 0 864 +16 379 4710 0 ?104 380
 377 378 380 380 1 17 111 0 861 389 685 105 679 604 0 863 +17 863 0 865 398 864
 105 389 383 0 677 -17 864 0 865 863 576 102 392 390 0 0 -15 865 1377 0 398 866
 0 17 576 0 865 864 398 144 867 574 0 392 +17 392 0 859 570 104 144 864 390 0 0
 +17 398 0 865 576 863 141 677 396 0 0 +17 867 0 868 869 146 141 576 574 0 670 -
15 868 2980 0 869 870 0 17 869 0 868 851 867 283 143 544 0 0 -17 146 0 868 867 8
51 144 570 568 0 576 -17 670 0 667 677 654 141 551 548 0 398 -17 551 0 871 872 1
43 84 670 548 0 651 +15 871 2070 0 872 873 0 17 872 0 871 855 551 301 86 545 0 0
 -17 143 0 871 551 855 141 869 544 0 867 +17 855 0 871 143 872 283 303 852 0 869
 +17 303 0 315 300 285 301 855 852 0 562 -17 300 0 315 288 303 298 562 349 0 811
 -17 285 0 315 303 309 283 851 850 0 855 -17 562 0 335 86 528 301 300 349 0 872
 +17 86 0 335 339 562 84 872 545 0 551 +17 528 0 335 562 543 298 874 353 0 0 +17
 543 0 335 528 341 63 50 541 0 874 +17 874 0 810 829 811 63 528 353 0 0 -17 829
 0 810 476 874 66 65 875 0 823 -17 811 0 810 874 533 298 288 693 0 528 -17 533 0
 810 811 837 286 876 525 0 0 +17 288 0 315 291 300 286 811 693 0 320 +17 320 0 8
77 876 33 286 291 321 0 533 +15 877 2970 0 33 878 0 17 876 0 877 835 320 60 533
 525 0 0 -17 33 0 877 320 536 289 29 34 0 0 -17 536 0 877 33 835 22 47 529 0 0 +
17 835 0 877 536 876 45 62 537 0 0 -17 62 0 834 92 831 60 835 537 0 837 +17 837
 0 810 533 839 60 92 393 0 876 -17 839 0 810 837 849 90 581 579 0 0 -16 393 1420
 0 ?92 875 390 401 875 404 1 16 875 1414 0 ?65 405 393 401 405 393 1 17 65 0 827
 50 68 63 829 875 0 543 +16 405 1408 0 ?71 404 875 401 404 875 1 17 71 0 879 56
 74 69 813 405 0 488 +15 879 1498 0 880 881 0 17 56 0 879 880 71 54 488 486 0 83
0 -17 74 0 879 71 880 72 817 752 0 813 +17 488 0 882 467 883 69 56 486 0 815 +15
 882 2801 0 467 884 0 17 467 0 882 720 488 228 815 465 0 0 +17 883 0 882 488 164
 54 485 483 0 0 -17 815 0 810 813 885 69 467 465 0 0 -17 885 0 810 815 476 228 2
58 710 0 467 -17 476 0 810 885 829 256 823 462 0 659 +17 258 0 415 261 234 256 8
85 710 0 476 +16 710 4420 0 ?258 721 718 706 708 708 1 17 261 0 415 240 258 259
 659 508 0 661 +17 234 0 415 258 237 228 720 718 0 885 -17 720 0 882 164 467 235
 234 718 0 820 +17 164 0 882 883 720 158 820 469 0 485 +17 485 0 754 44 830 158
 883 483 0 478 +17 830 0 754 485 59 54 880 402 0 883 +17 478 0 819 820 474 158 4
4 471 0 0 +17 59 0 754 830 755 57 751 739 0 880 -17 880 0 879 74 56 57 830 402 0
 817 -17 751 0 816 764 817 30 59 739 0 0 +17 240 0 415 264 261 238 661 666 0 714
 -17 659 0 655 823 656 256 261 508 0 0 -17 823 0 655 822 659 66 476 462 0 0 -17
 264 0 415 267 240 262 714 712 0 700 -17 714 0 886 83 887 238 264 712 0 663 +15
 886 2791 0 887 888 0 17 83 0 886 527 714 81 663 490 0 497 +17 887 0 886 714 527
 262 167 518 0 0 -17 663 0 660 661 497 238 83 490 0 0 -17 527 0 886 887 83 165 6
65 521 0 647 +17 167 0 640 646 700 165 887 518 0 527 +16 518 4284 0 ?167 519 516
 517 519 519 1 15 640 4627 0 700 639 0 17 700 0 640 167 421 262 267 698 0 887 +1
7 421 0 640 700 646 265 198 456 0 0 +17 267 0 415 249 264 265 700 698 0 418 -17
 249 0 415 255 267 247 418 420 0 406 -17 198 0 417 413 418 196 421 456 0 422 -17
 422 0 674 647 671 196 413 423 0 646 +15 674 1367 0 671 889 0 17 647 0 674 665 4
22 165 646 645 0 0 -17 665 0 674 671 647 81 527 521 0 668 -14 255 889 1369 890 ?
652 866 674 4 891 -652 866 652 866 18 81 255 1 890 5240 892 889 0 0 893 894 895
 14 652 1359 894 ?14 889 650 4 891 -676 889 14 889 18 14 866 1379 893 ?889 828 8
65 4 891 -889 676 889 828 18 51 891 121 0 676 896 897 0 --1110223024625156e-31 0
 0 0 0 -1 .85 -1 104744440165294e-28 0 13 18 8 0 0 0 0 0 0 8 12 14 12 4847 898 ?
327 0 810 4 15 -0 0 327 0 18 81 1 898 5218 892 12 0 0 0 899 900 14 327 4829 899
 ?840 12 323 4 901 -0 0 840 12 18 50 255 15 22 0 12 897 5 0 +-1110223024625156e-
31 0 -2.21 0 0 -1 -1 104744440165294e-28 0 50 897 2 0 757 891 15 0 +-11102230246
25156e-31 0 -2.22 0 0 -1 -1 104744440165294e-28 0 14 757 773 902 ?669 14 754 4 8
97 +0 0 669 14 18 81 1 902 5243 892 757 0 0 903 904 905 14 669 246 904 ?676 757
 667 4 896 -0 0 676 757 18 14 14 783 903 ?757 652 848 4 5 -836 828 757 652 18 81
 1 903 5242 892 14 0 0 894 902 906 14 836 1510 907 ?881 410 834 4 5 -881 14 881
 410 18 14 828 1490 908 ?866 881 827 4 5 -14 881 866 881 18 81 1 908 5238 892 82
8 0 0 909 893 910 14 881 1500 909 ?828 836 879 4 5 -828 836 828 836 18 81 1 909
 5237 892 881 0 0 907 908 911 80 255 1 892 0 912 8001 0 0 0 0 3 5 0 0 0 FFFFTFTF
FFFFFF2 81 1 907 5236 892 836 0 0 913 909 914 83 255 3 911 .792156862745098 .819
607843137255 .933333333333333 81 1 913 5235 892 410 0 0 915 907 916 83 3 914 .79
2156862745098 .819607843137255 .933333333333333 14 410 4198 913 ?836 763 407 4 9
17 +0 0 836 763 18 81 1 915 5234 892 763 0 0 918 913 919 83 3 916 .7921568627450
98 .819607843137255 .933333333333333 14 763 4232 915 ?410 664 761 4 920 +0 0 410
 664 18 81 1 918 5233 892 664 0 0 921 915 922 83 3 919 .792156862745098 .8196078
43137255 .933333333333333 14 664 4240 918 ?763 821 660 4 923 +0 0 763 821 18 81
 1 921 5232 892 821 0 0 924 918 925 83 3 922 .792156862745098 .819607843137255 .
933333333333333 14 821 4274 921 ?664 818 819 4 926 +0 0 664 818 18 81 1 924 5231
 892 818 0 0 927 921 928 83 3 925 .792156862745098 .819607843137255 .93333333333
3333 14 818 4381 924 ?821 419 816 4 929 +802 419 821 419 18 81 1 927 5230 892 41
9 0 0 930 924 931 83 3 928 .792156862745098 .819607843137255 .933333333333333 14
 419 4391 927 ?818 888 417 4 929 +818 802 818 888 18 81 1 930 5229 892 888 0 0 9
32 927 933 83 3 931 .792156862745098 .819607843137255 .933333333333333 14 888 44
01 930 ?419 884 886 4 934 +935 884 419 884 18 81 1 932 5228 892 884 0 0 936 930
 937 83 3 933 .792156862745098 .819607843137255 .933333333333333 14 884 4411 932
 ?888 351 882 4 934 +888 935 888 351 18 81 1 936 5227 892 351 0 0 938 932 939 83
 3 937 .792156862745098 .819607843137255 .933333333333333 14 351 4634 936 ?884 8
73 31 4 940 +0 0 884 873 18 81 1 938 5226 892 873 0 0 941 936 942 83 3 939 .7921
56862745098 .819607843137255 .933333333333333 14 873 4642 938 ?351 844 871 4 943
 +0 0 351 844 18 81 1 941 5225 892 844 0 0 944 938 945 83 3 942 .792156862745098
 .819607843137255 .933333333333333 14 844 4676 941 ?873 683 843 4 946 +0 0 873 6
83 18 81 1 944 5224 892 683 0 0 947 941 948 83 3 945 .792156862745098 .819607843
137255 .933333333333333 14 683 4683 944 ?844 878 678 4 949 +0 0 844 878 18 81 1
 947 5223 892 878 0 0 950 944 951 83 3 948 .792156862745098 .819607843137255 .93
3333333333333 14 878 4787 947 ?683 870 877 4 952 +783 870 683 870 18 81 1 950 52
22 892 870 0 0 953 947 954 83 3 951 .792156862745098 .819607843137255 .933333333
333333 14 870 4797 950 ?878 862 868 4 952 +878 783 878 862 18 81 1 953 5221 892
 862 0 0 955 950 956 83 3 954 .792156862745098 .819607843137255 .933333333333333
 14 862 4807 953 ?870 840 861 4 957 +777 840 870 840 18 81 1 955 5220 892 840 0
 0 899 953 958 83 3 956 .792156862745098 .819607843137255 .933333333333333 14 84
0 4819 955 ?862 327 838 4 957 +862 777 862 327 18 81 1 899 5219 892 327 0 0 898
 955 959 83 3 958 .792156862745098 .819607843137255 .933333333333333 83 3 959 .7
92156862745098 .819607843137255 .933333333333333 50 957 396 0 777 960 961 0 +-.5
79453093271659 -.621879500142838 -.604743139109283 .70710678118654 -.70710678118
6555 0 .707106781186555 .70710678118654 0 14 777 376 962 ?356 632 776 4 957 +840
 862 356 632 18 81 1 962 5248 892 777 0 0 963 964 965 14 356 481 964 ?770 777 34
5 4 960 -0 0 770 777 18 14 632 368 963 ?777 639 627 4 961 +0 0 777 639 18 81 1 9
63 5247 892 632 0 0 966 962 967 14 639 113 966 ?632 676 859 4 968 +0 0 632 676 1
8 50 961 394 0 632 957 968 0 +-.621879500142851 -.579453093271645 -.604743139109
283 -.70710678118654 .707106781186555 0 -.707106781186555 -.70710678118654 0 50
 968 123 0 639 961 896 0 +-1110223024625156e-31 0 0 0 0 1 1 -104744440165294e-28
 0 50 896 122 0 669 968 891 0 +-1110223024625156e-31 0 -.00999999999999979 0 0 1
 1 -104744440165294e-28 0 81 1 966 5246 892 639 0 0 969 963 970 14 676 108 969 ?
639 669 643 4 891 -866 652 639 669 18 81 1 969 5245 892 676 0 0 904 966 971 81 1
 904 5244 892 669 0 0 902 969 972 83 3 971 .792156862745098 .819607843137255 .93
3333333333333 83 3 972 .792156862745098 .819607843137255 .933333333333333 83 3 9
70 .792156862745098 .819607843137255 .933333333333333 83 3 967 .792156862745098
 .819607843137255 .933333333333333 81 1 964 5249 892 356 0 0 962 973 974 14 770
 487 973 ?772 356 768 4 975 -0 0 772 356 18 50 960 516 0 356 975 957 0 -1 -1 -2.
41 .5 -523722200826468e-29 .86602540378444 .86602540378444 -907113460883238e-29
 -.5 50 975 518 0 770 901 960 0 --1 -.999999999999989 -2.41 -.5 523722200826468e
-29 .86602540378444 .86602540378444 -907113460883238e-29 .5 50 901 520 0 327 976
 975 0 +-610622663543836e-29 -.57228 -2.41 0 0 -1 -1 104744440165294e-28 0 50 97
6 521 0 772 977 901 0 +-610622663543836e-29 -.57228 -3.91 0 0 -1 -1 104744440165
294e-28 0 14 772 490 978 ?637 770 771 4 976 +0 0 637 770 18 51 977 522 0 637 949
 976 0 +-3.619289414788965 -3.61928941478889 -3.91 0 0 1 .02999999999999965 1 -1
04744440165294e-28 0 14 637 508 979 ?795 772 635 4 977 +0 0 795 772 18 50 949 70
6 0 683 946 977 0 +-1.055440467496026 -.145892125918461 -.00999999999999979 .345
972103798291 .3459721037982835 -.872127632165599 -.929531006008488 9736320484064
16e-29 -.368743961128652 50 946 920 0 844 952 949 0 +-1.433560967353184 -.524012
625775612 -2.41 .235350811853774 .235350811853769 -.942984618495732 -.9702381348
89749 1016270502660458e-29 -.242152765017582 50 952 2200 0 783 980 946 0 +.57945
3093271652 -.621879500142845 -.604743139109283 -.707106781186548 -.7071067811865
48 0 .707106781186548 -.707106781186548 0 14 783 2021 981 ?340 802 782 4 952 +87
0 878 340 802 18 50 980 2201 0 340 982 952 0 +.621879500142844 -.579453093271652
 -.604743139109283 .707106781186548 .707106781186547 0 -.707106781186548 .707106
781186548 0 14 340 2030 983 ?788 783 335 4 980 +0 0 788 783 18 51 982 2208 0 788
 943 980 0 +3.619289414788925 -3.619289414788925 -3.91 0 0 1 .02999999999999965
 0 1 0 14 788 2065 984 ?798 340 786 4 982 +0 0 798 340 18 50 943 2213 0 873 940
 982 0 +.145892125918472 -1.055440467496024 -.00999999999999979 -.34597210379828
7 .345972103798287 -.872127632165599 0 -.929531006008488 -.368743961128652 50 94
0 2217 0 351 985 943 0 +.524012625775627 -1.43356096735318 -2.41 -.2353508118537
715 .2353508118537715 -.942984618495732 0 -.970238134889749 -.242152765017582 50
 985 2218 0 658 934 940 0 +.621879500142847 .57945309327165 -.604743139109283 .7
07106781186545 -.70710678118655 0 .70710678118655 .707106781186545 0 14 658 2140
 986 ?935 795 655 4 985 +0 0 935 795 18 50 934 2219 0 935 987 985 0 +.5794530932
71654 .621879500142843 -.604743139109283 -.707106781186545 .70710678118655 0 -.7
0710678118655 -.707106781186545 0 14 935 2149 988 ?806 658 23 4 934 +884 888 806
 658 18 51 987 2220 0 795 923 934 0 +3.61928941478894 3.619289414788915 -3.91 0
 0 1 .02999999999999965 -1 3491481338843135e-30 0 14 795 2161 989 ?658 637 794 4
 987 +0 0 658 637 18 50 923 2225 0 664 926 987 0 +1.055440467496024 .14589212591
84684 -.00999999999999979 -.3459721037982885 -.345972103798286 -.872127632165599
 .929531006008488 -324544016135472e-29 -.368743961128652 50 926 2229 0 821 929 9
23 0 +1.43356096735318 .524012625775622 -2.41 -.235350811853772 -.23535081185377
05 -.942984618495732 .970238134889749 -3387568342201525e-30 -.242152765017582 50
 929 2230 0 802 990 926 0 +-.579453093271652 .621879500142845 -.604743139109283
 .707106781186548 .707106781186548 0 -.707106781186548 .707106781186548 0 14 802
 2119 991 ?783 766 800 4 929 +419 818 783 766 18 50 990 2231 0 766 992 929 0 +-.
621879500142845 .579453093271652 -.604743139109283 -.707106781186548 -.707106781
186547 0 .707106781186548 -.707106781186548 0 14 766 2128 993 ?802 806 760 4 990
 +0 0 802 806 18 51 992 2232 0 806 917 990 0 +-3.619289414788925 3.6192894147889
25 -3.91 0 0 1 .02999999999999965 0 -1 0 14 806 2110 994 ?766 935 804 4 992 +0 0
 766 935 18 50 917 2237 0 410 920 992 0 +-.1458921259184722 1.055440467496024 -.
00999999999999979 .345972103798287 -.345972103798287 -.872127632165599 0 .929531
006008488 -.368743961128652 50 920 2241 0 763 995 917 0 +-.524012625775627 1.433
56096735318 -2.41 .2353508118537715 -.2353508118537715 -.942984618495732 0 .9702
38134889749 -.242152765017582 50 995 2915 0 798 996 920 0 +-3.55564980448214 3.5
9807621135333 -11.48103573683654 181100330373051e-29 1 0 -1 181100330373051e-29
 0 14 798 2902 997 ?779 788 797 4 995 +0 0 779 788 18 50 996 3126 0 779 998 995
 0 +3.55564980448214 -3.59807621135333 -11.48103573683654 -530811313162389e-29 -
1 0 1 -530811313162389e-29 0 14 779 3113 999 ?809 798 778 4 996 +0 0 809 798 18
 50 998 4560 0 809 1000 996 0 +-1 .957573593128807 2.00044994938639 177635683940
025e-29 1 0 -1 177635683940025e-29 0 14 809 4490 1001 ?317 779 415 4 998 -0 0 31
7 779 18 50 1000 4998 0 317 0 998 0 +1 -.957573593128816 2.00044994938639 -99364
9607039515e-29 -1 0 1 -993649607039515e-29 0 14 317 4933 1002 ?0 809 315 4 1000
 -0 0 0 809 18 81 1 1002 5265 892 317 0 0 1001 0 1003 81 1 1001 5264 892 809 0 0
 999 1002 1004 83 3 1003 .792156862745098 .819607843137255 .933333333333333 81 1
 999 5263 892 779 0 0 997 1001 1005 83 3 1004 .792156862745098 .819607843137255
 .933333333333333 81 1 997 5262 892 798 0 0 984 999 1006 83 3 1005 .792156862745
098 .819607843137255 .933333333333333 81 1 984 5261 892 788 0 0 983 997 1007 83
 3 1006 .792156862745098 .819607843137255 .933333333333333 81 1 983 5260 892 340
 0 0 981 984 1008 83 3 1007 .792156862745098 .819607843137255 .933333333333333 8
1 1 981 5259 892 783 0 0 991 983 1009 83 3 1008 .792156862745098 .81960784313725
5 .933333333333333 81 1 991 5258 892 802 0 0 993 981 1010 83 3 1009 .79215686274
5098 .819607843137255 .933333333333333 81 1 993 5257 892 766 0 0 994 991 1011 83
 3 1010 .792156862745098 .819607843137255 .933333333333333 81 1 994 5256 892 806
 0 0 988 993 1012 83 3 1011 .792156862745098 .819607843137255 .933333333333333 8
1 1 988 5255 892 935 0 0 986 994 1013 83 3 1012 .792156862745098 .81960784313725
5 .933333333333333 81 1 986 5254 892 658 0 0 989 988 1014 83 3 1013 .79215686274
5098 .819607843137255 .933333333333333 81 1 989 5253 892 795 0 0 979 986 1015 83
 3 1014 .792156862745098 .819607843137255 .933333333333333 81 1 979 5252 892 637
 0 0 978 989 1016 83 3 1015 .792156862745098 .819607843137255 .933333333333333 8
1 1 978 5251 892 772 0 0 973 979 1017 83 3 1016 .792156862745098 .81960784313725
5 .933333333333333 81 1 973 5250 892 770 0 0 964 978 1018 83 3 1017 .79215686274
5098 .819607843137255 .933333333333333 83 3 1018 .792156862745098 .8196078431372
55 .933333333333333 15 23 2781 0 21 935 0 83 3 974 .792156862745098 .81960784313
7255 .933333333333333 83 3 965 .792156862745098 .819607843137255 .93333333333333
3 79 255 15 912 SDL/TYSA_COLOUR81 1 893 5239 892 866 0 0 908 890 1019 83 3 910 .
792156862745098 .819607843137255 .933333333333333 83 3 1019 .792156862745098 .81
9607843137255 .933333333333333 81 1 894 5241 892 652 0 0 890 903 1020 83 3 906 .
792156862745098 .819607843137255 .933333333333333 83 3 1020 .792156862745098 .81
9607843137255 .933333333333333 83 3 905 .792156862745098 .819607843137255 .93333
3333333333 83 3 900 .792156862745098 .819607843137255 .933333333333333 83 3 895
 .792156862745098 .819607843137255 .933333333333333 17 581 0 838 841 602 277 839
 579 0 0 +17 341 0 335 543 336 48 137 539 0 0 -17 137 0 754 35 824 135 341 539 0
 32 +17 35 0 754 47 137 22 32 352 0 536 -17 339 0 335 153 86 138 651 573 0 649 +
17 851 0 868 146 869 307 285 850 0 570 +17 306 0 315 309 276 304 685 686 0 858 -
17 759 0 848 758 77 132 429 426 0 756 -17 429 0 760 738 756 75 759 426 0 807 +17
 116 0 627 129 631 114 362 358 0 634 -17 362 0 768 331 769 310 116 358 0 325 +17
 791 0 771 790 368 179 25 503 0 502 -17 25 0 23 21 188 177 791 503 0 368 +17 188
 0 23 25 24 179 512 510 0 791 -17 775 0 771 373 787 225 162 552 0 0 -19 13 30 0
 1 0 8 4 S0 74 4 CI16 index_map_offset0 0 1 dCCZ20 11 1 0 0 1002 0 0 0 0 0 0 0 0
 0 0 0 0 0 0 0 0 0 0 0 1 0 
