**ABCDEFGHIJKLMNOPQRSTUVWXYZabcdefghijklmnopqrstuvwxyz**************************
**PARASOLID !"#$%&'()*+,-./:;<=>?@[\]^_`{|}~0123456789**************************
**PART1;
MC=AMD64;
MC_MODEL=Intel64 Family 6 Model 37 Stepping 2, GenuineIntel;
MC_ID=unknown;
OS=Windows_NT;
OS_RELEASE=unknown;
FRU=Parasolid Version 25.1, build 198,  6-19-2013;
APPL=SolidWorks 2014-2013262;
SITE=;
USER=unknown;
FORMAT=text;
GUISE=transmit;
KEY=Part1new11;
FILE=Part1new11.x_t;
DATE=Sun Aug 27 23:57:34 2017;
**PART2;
SCH=SCH_2501198_25001;
USFLD_SIZE=0;
**PART3;
**END_OF_HEADER*****************************************************************
T51 : TRANSMIT FILE created by modeller version 250119823 SCH_2501198_25001_1300
6189 0 12 29 CCCCCCCCCCCCCDI5 owner1040 0 CCCCCCCCCA16 index_map_offset0 0 1 dA9
 index_map82 0 A17 node_id_index_map82 0 A20 schema_embedding_map82 0 A5 child12
 0 A14 lowest_node_id0 0 1 dZ1 786 0 2 0 0 0 0 1e3 1e-8 0 3 0 1 0 3 1 4 5 6 7 8
 9 10 0 0 0 0 0 0 70 11 CI9 list_type0 0 1 uI10 notransmit0 0 1 lCCCDCCDI12 fing
er_index0 0 1 dI12 finger_block1012 0 CZ2 0 4 T1 0 0 1 20 1 11 11 13 255 4 583 0
 1 0 12 0 0 8 12 50 255 5 2 0 12 0 0 0 +0 0 0 0 0 1 0 -1 0 31 255 6 304 0 9 13 0
 0 +0 0 0 0 0 1 0 -1 0 .65 29 255 7 581 0 10 14 0 -.5510583052034 -.154399296197
7295 0 19 8 CCCCCCCA5 owner12 0 Z8 582 0 1 0 0 4 V0 16 255 9 303 0 ?15 0 16 6 0
 0 1 18 255 10 579 0 17 0 18 7 ?1 17 255 17 0 0 0 0 10 19 20 0 21 +18 18 576 0 2
2 10 23 14 ?1 17 22 0 24 21 25 18 26 27 0 28 -18 23 573 0 25 18 29 30 ?1 29 14 5
78 0 18 30 7 -.549844483090181 -.1552805656669955 0 29 30 575 0 23 31 14 -.29741
03565969735 .02036484715505845 0 29 31 572 0 29 32 30 -.297808110427004 .0218111
499901163 0 18 29 570 0 19 23 33 31 ?1 29 32 569 0 33 34 31 -.488967136833859 -.
297347502926269 0 18 33 567 0 35 29 36 32 ?1 29 34 566 0 36 37 32 -.487560562879
949 -.297868607246132 0 18 36 564 0 38 33 39 34 ?1 29 37 563 0 39 40 34 -.291875
9438110305 -.0606306905387237 0 18 39 561 0 41 36 42 37 ?1 29 40 560 0 42 43 37
 -.2926491556850895 -.0593453332351638 0 18 42 558 0 44 39 45 40 ?1 29 43 557 0
 45 46 40 -.3906115128011585 -.4182428056370775 0 18 45 555 0 47 42 48 43 ?1 29
 46 554 0 48 49 43 -.3891165061620695 -.418365096884026 0 18 48 552 0 50 45 51 4
6 ?1 29 49 551 0 51 52 46 -.2646944275162175 -.137129527282199 0 18 51 549 0 53
 48 54 49 ?1 29 52 548 0 54 55 49 -.265785751846815 -.1361004445812238 0 18 54 5
46 0 56 51 57 52 ?1 29 55 545 0 57 58 52 -.2632860197927625 -.508118952787303 0
 18 57 543 0 59 54 60 55 ?1 29 58 542 0 60 61 55 -.2618134582717165 -.5078333611
78997 0 18 60 540 0 62 57 63 58 ?1 29 61 539 0 63 64 58 -.2178817364289585 -.203
458094312996 0 18 63 537 0 65 60 66 61 ?1 29 64 536 0 66 67 61 -.219210234682970
5 -.2027616085707965 0 18 66 534 0 68 63 69 64 ?1 29 67 533 0 69 70 64 -.1164338
07149733 -.560310241698828 0 18 69 531 0 71 66 72 67 ?1 29 70 530 0 72 73 67 -.1
150929038982254 -.55963794825836 0 18 72 528 0 74 69 75 70 ?1 29 73 527 0 75 76
 70 -.154909753693383 -.2546971052474435 0 18 75 525 0 77 72 78 73 ?1 29 76 524
 0 78 79 73 -.156376897232785 -.254384871625309 0 18 78 522 0 80 75 81 76 ?1 29
 79 521 0 81 82 76 .0390537683203682 -.570945883232345 0 18 81 519 0 83 78 84 79
 ?1 29 82 518 0 84 85 79 .04016356464239755 -.569936748888657 0 18 84 516 0 86 8
1 87 82 ?1 29 85 515 0 87 88 82 -.0804488231913368 -.287046397047412 0 18 87 513
 0 89 84 90 85 ?1 29 88 512 0 90 91 85 -.0819458006915461 -.287141572484722 0 18
 90 510 0 92 87 93 88 ?1 29 91 509 0 93 94 88 .191644904453251 -.539237080510135
 0 18 93 507 0 95 90 96 91 ?1 29 94 506 0 96 97 91 .1924412853295775 -.537965948
141016 0 18 96 504 0 98 93 99 94 ?1 29 97 503 0 99 100 94 -213715020651595e-19 -
.2981067707282605 0 18 99 501 0 101 96 102 97 ?1 29 100 500 0 102 103 97 -.00143
715899010788 -.298602296498228 0 18 102 498 0 104 99 105 100 ?1 29 103 497 0 105
 106 100 .330022614739938 -.467535530371984 0 18 105 495 0 107 102 108 103 ?1 29
 106 494 0 108 109 103 .3304465162441645 -.466096674050208 0 18 108 492 0 110 10
5 111 106 ?1 29 109 491 0 111 112 106 .0804076652137471 -.287057928971923 0 18 1
11 489 0 113 108 114 109 ?1 29 112 488 0 114 115 109 .0791780702190624 -.2879170
541950695 0 18 114 486 0 116 111 117 112 ?1 29 115 485 0 117 118 112 .4439240574
443675 -.361159008778874 0 18 117 483 0 119 114 120 115 ?1 29 118 482 0 120 121
 115 .443944040741146 -.3596591418954975 0 18 120 480 0 122 117 123 118 ?1 29 12
1 479 0 123 124 118 .154873233241249 -.2547193138263795 0 18 123 477 0 125 120 1
26 121 ?1 29 124 476 0 126 127 121 .153921024175655 -.2558783211151405 0 18 126
 474 0 128 123 129 124 ?1 29 127 473 0 129 130 124 .524901683625581 -.2279969756
971595 0 18 129 471 0 131 126 132 127 ?1 29 130 470 0 132 133 127 .5245162666452
07 -.2265473365174875 0 18 132 468 0 134 129 135 130 ?1 29 133 467 0 135 136 130
 .217852562057147 -.2034893324376545 0 18 135 465 0 137 132 138 133 ?1 29 136 46
4 0 138 139 133 .2172483599109725 -.204862263523528 0 18 138 462 0 140 135 141 1
36 ?1 29 139 461 0 141 142 136 .566949753197707 -.0779254499447452 0 18 141 459
 0 143 138 144 139 ?1 29 142 458 0 144 145 139 .566187520554449 -.07663355157507
66 0 18 144 456 0 146 141 147 142 ?1 29 145 455 0 147 148 142 .264674762954423 -
.1371674781637794 0 18 147 453 0 149 144 150 145 ?1 29 148 452 0 150 151 145 .26
4463378636809 -.1386525090288684 0 18 150 450 0 152 147 153 148 ?1 29 151 449 0
 153 154 148 .566949753197701 .0779254499448608 0 18 153 447 0 155 150 156 151 ?
1 29 154 446 0 156 157 151 .565867236199728 .0789637933124896 0 18 156 444 0 158
 153 159 154 ?1 29 157 443 0 159 160 154 .2918672474898445 -.0606725395339526 0
 18 159 441 0 161 156 162 157 ?1 29 160 440 0 162 163 157 .2920643584086095 -.06
21595322325573 0 18 162 438 0 164 159 165 160 ?1 29 163 437 0 165 166 160 .52490
1683625563 .227996975697272 0 18 165 435 0 167 162 168 163 ?1 29 166 434 0 168 1
69 163 .523579167606428 .228704754885389 0 18 168 432 0 170 165 171 166 ?1 29 16
9 431 0 171 172 166 .2974132734827575 .0203222037947105 0 18 171 429 0 173 168 1
74 169 ?1 29 172 428 0 174 175 169 .2980042608227785 .01894353270850655 0 18 174
 426 0 176 171 177 172 ?1 29 175 425 0 177 178 172 .443924057444339 .36115900877
898 0 18 177 423 0 179 174 180 175 ?1 29 178 422 0 180 181 175 .4424596273670735
 .361483731043077 0 18 180 420 0 182 177 183 178 ?1 29 181 419 0 183 184 178 .28
0901517556648 .0998097422358188 0 18 183 417 0 185 180 186 181 ?1 29 184 416 0 1
86 187 181 .281842550490503 .0986416424894789 0 18 186 414 0 188 183 189 184 ?1
 29 187 413 0 189 190 184 .3300226147399015 .467535530372082 0 18 189 411 0 191
 186 192 187 ?1 29 190 410 0 192 193 187 .3285248806840145 .467453112547336 0 18
 192 408 0 194 189 195 190 ?1 29 193 407 0 195 196 190 .243556581112299 .1718948
486944875 0 18 195 405 0 197 192 198 193 ?1 29 196 404 0 198 199 193 .2447778675
32224 .171023952902497 0 18 198 402 0 200 195 201 196 ?1 29 199 401 0 201 202 19
6 .191644904453209 .539237080510222 0 18 201 399 0 203 198 204 199 ?1 29 202 398
 0 204 205 199 .190224946501948 .538753635149658 0 18 204 396 0 206 201 207 202
 ?1 29 205 395 0 207 208 202 .188148167244071 .2312313005920965 0 18 207 393 0 2
09 204 210 205 ?1 29 208 392 0 210 211 205 .1895591299233135 .230722199111264 0
 18 210 390 0 212 207 213 208 ?1 29 211 389 0 213 214 208 .03905376832032395 .57
094588323242 0 18 213 387 0 215 210 216 211 ?1 29 214 386 0 216 217 211 .0378168
9825905865 .570097265266816 0 18 216 384 0 218 213 219 214 ?1 29 217 383 0 219 2
20 214 .1187856645319442 .2734183847376055 0 18 219 381 0 221 216 222 217 ?1 29
 220 380 0 222 223 217 .120281658823309 .27330883529578 0 18 222 378 0 224 219 2
25 220 ?1 29 223 377 0 225 226 220 -.1164338071497766 .56031024169889 0 18 225 3
75 0 227 222 228 223 ?1 29 226 374 0 228 229 223 -.117395856326906 .559159389240
586 0 18 228 372 0 230 225 231 226 ?1 29 229 371 0 231 232 226 .0406133724897404
 .2953272780930095 0 18 231 369 0 233 228 234 229 ?1 29 232 368 0 234 235 229 .0
4208344734035565 .295625405471136 0 18 234 366 0 236 231 237 232 ?1 29 235 365 0
 237 238 232 -.2632860197928025 .508118952787354 0 18 237 363 0 239 234 240 235
 ?1 29 238 362 0 240 241 235 -.2639018972994105 .506751219298382 0 18 240 360 0
 242 237 243 238 ?1 29 241 359 0 243 244 238 -.0405710275962101 .295333098264657
5 0 18 243 357 0 245 240 246 241 ?1 29 244 356 0 246 247 241 -.03923590091286945
 .296016791718942 0 18 246 354 0 248 243 249 244 ?1 29 247 353 0 249 250 244 -.3
90611512801191 .4182428056371185 0 18 249 351 0 251 246 252 247 ?1 29 250 350 0
 252 253 247 -.3908355418200645 .416759629653392 0 18 252 348 0 254 249 255 250
 ?1 29 253 347 0 255 256 250 -.11874646016545 .273435413597043 0 18 255 345 0 25
7 252 258 253 ?1 29 256 344 0 258 259 253 -.1176453018876892 .274453966711671 0
 18 258 342 0 260 255 261 256 ?1 29 259 341 0 261 262 256 -.488967136833882 .297
3475029263025 0 18 261 339 0 263 258 264 259 ?1 29 262 338 0 264 265 259 -.48878
2702157556 .2958588848254555 0 18 264 336 0 266 261 267 262 ?1 29 265 335 0 267
 268 262 -.1881150110131265 .231258275186721 0 18 267 333 0 269 264 270 265 ?1 2
9 268 332 0 270 271 265 -.187329489012943 .2325361465367515 0 18 270 330 0 272 2
67 273 268 ?1 29 271 329 0 273 274 268 -.551058305203412 .154399296197758 0 18 2
73 327 0 275 270 276 271 ?1 29 274 326 0 276 277 271 -.550479085508097 .15301563
9974356 0 18 276 324 0 278 273 279 274 ?1 29 277 323 0 279 280 274 -.24353193206
2871 .1719297684420165 0 18 279 321 0 281 276 282 277 ?1 29 280 320 0 282 283 27
7 -.2431203049134945 .1733721841552895 0 18 282 318 0 284 279 285 280 ?1 29 283
 317 0 285 286 280 -.572280000000008 955735057067697e-29 0 18 285 315 0 287 282
 288 283 ?1 29 286 314 0 288 289 283 -.571348953360751 -.001176074893664112 0 18
 288 312 0 290 285 291 286 ?1 29 289 311 0 291 292 286 -.280887203795969 .099850
0172983252 0 18 291 309 0 293 288 294 289 ?1 29 292 308 0 294 0 289 -.28088 .101
35 0 18 294 306 0 295 291 0 292 ?1 17 295 0 296 293 297 294 287 298 0 299 -15 25
5 296 3 0 295 12 300 17 293 0 296 290 295 291 299 301 0 302 -17 297 0 296 295 29
0 285 303 304 0 0 -17 287 0 0 0 0 285 295 298 0 297 +16 298 27 0 ?287 301 0 305
 0 0 1 17 299 0 0 0 0 294 293 301 0 0 +16 301 30 0 ?299 306 298 307 0 0 1 16 306
 33 0 ?302 304 301 308 0 0 1 30 255 307 31 0 301 305 308 0 +-.28088 .10135 0 .00
480253064605304 .999988467783201 0 134 255 305 28 0 298 0 307 0 +309 310 134 308
 34 0 306 307 311 0 +312 313 31 311 37 0 304 308 314 0 +-.571814476680389 -.0005
8803744683511 0 0 0 1 0 -1 0 75e-5 136 255 312 3 17 3 15 6 FFF1 315 316 317 135
 255 313 2 0 45 255 51 315 -.571348953360744 -.00117607489367367 0 -.56857420663
2381 .00102056975040993 0 -.562961930666925 .00536136016916017 0 -.5516503516193
54 .0137098873791138 0 -.537286452319928 .0235824093717083 0 -.519750297581843 .
0345223324217545 0 -.496010424113969 .0479217761904474 0 -.465759484396113 .0624
721087833653 0 -.428830235983814 .0765103119013078 0 -.391568495173481 .08722113
97753373 0 -.360485996631788 .0934532875464961 0 -.3357499309548835 .09687046476
57341 0 -.3172984565843875 .0986609918615866 0 -.302041728319265 .09951943547032
6 0 -.289915719920981 .0998319188795238 0 -.2839007189821685 .0998644899642615 0
 -.280887203795969 .0998500172983252 0 127 255 15 316 4 1 1 1 1 1 1 1 1 1 1 1 1
 1 4 128 255 15 317 0 .03125 .0625 .125 .1875 .25 .375 .5 .625 .75 .8125 .875 .9
375 .96875 1 16 304 36 0 ?303 318 306 311 0 0 1 134 314 40 0 318 311 319 0 +320
 321 16 318 39 0 ?275 322 304 314 0 0 1 30 319 43 0 322 314 323 0 +-.24312030491
34945 .1733721841552895 0 .2744180995842805 .961610475515191 0 136 320 3 4 3 2 5
 FFF1 324 325 326 135 321 2 0 45 12 324 -.2431203049134945 .1733721841552895 0 -
.33590113274271 .199849369147599 0 -.445919956598243 .1984118198398335 0 -.55105
8305203408 .154399296197747 0 127 2 325 4 4 128 2 326 0 1 16 322 42 0 ?327 328 3
18 319 0 0 1 134 323 46 0 328 319 329 0 +330 331 16 328 45 0 ?332 333 322 323 0
 0 1 31 329 49 0 333 323 334 0 +-.550768695355767 .1537074680860525 0 0 0 1 0 -1
 0 75e-5 136 330 3 17 3 15 6 FFF1 335 336 337 135 331 2 0 45 51 335 -.5504790855
08093 .153015639974345 0 -.547214586282988 .154382209368202 0 -.540639297495235
 .157047857568848 0 -.527494776797966 .162034971239484 0 -.510999955292046 .1676
660596836645 0 -.49116253282553 .1734691027839635 0 -.464687871599771 .179966717
620374 0 -.4316330860341015 .1858158785504115 0 -.39228581245507 .18937011503308
4 0 -.3535160912952955 .189630658996476 0 -.321904802769505 .187245744076589 0 -
.297164074128021 .1838624924441675 0 -.2789137520504855 .180608473729982 0 -.263
991179341773 .1773188678967005 0 -.252230529213699 .1743482056605465 0 -.2464297
93252808 .17275674108931 0 -.243531932062871 .1719297684420165 0 127 15 336 4 1
 1 1 1 1 1 1 1 1 1 1 1 1 4 128 15 337 0 .03125 .0625 .125 .1875 .25 .375 .5 .625
 .75 .8125 .875 .9375 .96875 1 16 333 48 0 ?338 339 328 329 0 0 1 134 334 52 0 3
39 329 340 0 +341 342 16 339 51 0 ?263 343 333 334 0 0 1 30 340 55 0 343 334 344
 0 +-.187329489012943 .2325361465367515 0 .523681333455585 .851914233353441 0 13
6 341 3 4 3 2 5 FFF1 345 346 347 135 342 2 0 45 12 345 -.187329489012943 .232536
146536751 0 -.269526293043882 .28306345345975 0 -.375853166629661 .3113619358226
04 0 -.488967136833881 .2973475029262905 0 127 2 346 4 4 128 2 347 0 1 16 343 54
 0 ?348 349 339 340 0 0 1 134 344 58 0 349 340 350 0 +351 352 16 349 57 0 ?353 3
54 343 344 0 0 1 31 350 61 0 354 344 355 0 +-.488874919495732 .2966031938758775
 0 0 0 1 0 -1 0 .000749999999999989 136 351 3 17 3 15 6 FFF1 356 357 358 135 352
 2 0 45 51 356 -.488782702157555 .2958588848254435 0 -.485270563409143 .29629402
6768771 0 -.478219920888537 .2970868338188 0 -.464217327509505 .298342662543694
 0 -.4468149292493995 .2993146853700715 0 -.426147489928623 .2995504633610295 0
 -.3989015454545785 .298664350897351 0 -.3654944362709185 .295378534656458 0 -.3
266473448047125 .288185203043491 0 -.289245016154244 .2779761397423895 0 -.25944
94023022905 .2671510403608055 0 -.236538917358264 .2572182801729545 0 -.21984329
04725115 .2491610513306175 0 -.2063616122717865 .2419673710710235 0 -.1958385540
325275 .235933883617698 0 -.190682297099176 .23283641503727 0 -.1881150110131265
 .231258275186721 0 127 15 357 4 1 1 1 1 1 1 1 1 1 1 1 1 1 4 128 15 358 0 .03125
 .0625 .125 .1875 .25 .375 .5 .625 .75 .8125 .875 .9375 .96875 1 16 354 60 0 ?35
9 360 349 350 0 0 1 134 355 64 0 360 350 361 0 +362 363 16 360 63 0 ?251 364 354
 355 0 0 1 30 361 67 0 364 355 365 0 +-.1176453018876892 .274453966711671 0 .734
105518507202 .679035409752151 0 136 362 3 4 3 2 5 FFF1 366 367 368 135 363 2 0 4
5 12 366 -.117645301887689 .274453966711671 0 -.1831619211907345 .34528401635792
85 0 -.2779110667059835 .401219761411492 0 -.3906115128011925 .4182428056371065
 0 127 2 367 4 4 128 2 368 0 1 16 364 66 0 ?369 370 360 361 0 0 1 134 365 70 0 3
70 361 371 0 +372 373 16 370 69 0 ?374 375 364 365 0 0 1 31 371 73 0 375 365 376
 0 +-.39072352731064 .417501217645257 0 0 0 1 0 -1 0 .000750000000000013 136 372
 3 17 3 15 6 FFF1 377 378 379 135 373 2 0 45 51 377 -.3908355418200665 .41675962
965338 0 -.3873362428123515 .4162310716588835 0 -.380333160460102 .4150922386862
455 0 -.366511002692628 .4125236433939065 0 -.3494916839466135 .4087645101161565
 0 -.329527037198756 .403415536422797 0 -.3035305165361625 .395211415566766 0 -.
2722487361953095 .38303431611392 0 -.2367829379023585 .3656269129037445 0 -.2035
219613729335 .345705401859836 0 -.177751826568353 .327242966116152 0 -.158370751
181588 .3114973647566505 0 -.144468057756324 .299234493590028 0 -.13342714846116
02 .288670261260079 0 -.124922129200534 .2800214247526265 0 -.1207927672831624 .
275647677237641 0 -.11874646016545 .273435413597043 0 127 15 378 4 1 1 1 1 1 1 1
 1 1 1 1 1 1 4 128 15 379 0 .03125 .0625 .125 .1875 .25 .375 .5 .625 .75 .8125 .
875 .9375 .96875 1 16 375 72 0 ?380 381 370 371 0 0 1 134 376 76 0 381 371 382 0
 +383 384 16 381 75 0 ?239 385 375 376 0 0 1 30 382 79 0 385 376 386 0 +-.039235
90091286945 .296016791718942 0 .890084455560431 .455795636189829 0 136 383 3 4 3
 2 5 FFF1 387 388 389 135 384 2 0 45 12 387 -.03923590091286945 .296016791718942
 0 -.0832132675529043 .381896443332112 0 -.159357574323256 .461320952754769 0 -.
2632860197928075 .508118952787343 0 127 2 388 4 4 128 2 389 0 1 16 385 78 0 ?390
 391 381 382 0 0 1 134 386 82 0 391 382 392 0 +393 394 16 391 81 0 ?395 396 385
 386 0 0 1 31 392 85 0 396 386 397 0 +-.263593958546118 .507435086042873 0 0 0 1
 0 -1 0 .00075000000000002 136 393 3 17 3 15 6 FFF1 398 399 400 135 394 2 0 45 5
1 398 -.2639018972994155 .506751219298371 0 -.2606749650315725 .50529816209451 0
 -.254238829428776 .502312151130971 0 -.241622233482309 .49610963278369 0 -.2262
482392635745 .487898141120134 0 -.208467071605743 .477361124651367 0 -.185648017
7659765 .462447457515519 0 -.158811592811188 .442282194610615 0 -.12935742370564
96 .415951747265759 0 -.1027046137676124 .387795275818321 0 -.0828712110183389 .
363064778111623 0 -.0684569508877509 .3426741148019715 0 -.0583782900937369 .327
11508236659 0 -.0505970034377576 .3139637987500505 0 -.0447408015264502 .3033410
578264345 0 -.04194459050789655 .298015412221515 0 -.0405710275962101 .295333098
2646575 0 127 15 399 4 1 1 1 1 1 1 1 1 1 1 1 1 1 4 128 15 400 0 .03125 .0625 .12
5 .1875 .25 .375 .5 .625 .75 .8125 .875 .9375 .96875 1 16 396 84 0 ?401 402 391
 392 0 0 1 134 397 88 0 402 392 403 0 +404 405 16 402 87 0 ?227 406 396 397 0 0
 1 30 403 91 0 406 397 407 0 +.04208344734035565 .295625405471136 0 .98004990041
0172 .198751585417604 0 136 404 3 4 3 2 5 FFF1 408 409 410 135 405 2 0 45 12 408
 .0420834473403555 .295625405471136 0 .0229069334639571 .3901853581643335 0 -.02
89852596653648 .487208079435159 0 -.1164338071497844 .560310241698881 0 127 2 40
9 4 4 128 2 410 0 1 16 406 90 0 ?411 412 402 403 0 0 1 134 407 94 0 412 403 413
 0 +414 415 16 412 93 0 ?416 417 406 407 0 0 1 31 413 97 0 417 407 418 0 +-.1169
14831738351 .559734815469746 0 0 0 1 0 -1 0 .000750000000000025 136 414 3 17 3 1
5 6 FFF1 419 420 421 135 415 2 0 45 51 419 -.117395856326914 .559159389240577 0
 -.1146806176030156 .556889599432867 0 -.1092887674839704 .552277869251503 0 -.0
988134485627736 .542901440260464 0 -.0862249976911796 .530846598982712 0 -.07194
60569851256 .515903022046383 0 -.0539968548012569 .495385887096698 0 -.033596120
102955 .468728026039452 0 -.01233806116352854 .4354273433857025 0 .0057298651985
0893 .401124148214705 0 .01815558314234245 .3719597364253995 0 .0265339882837198
 .348436293382198 0 .03204112828219695 .3307350419359515 0 .0359856898647356 .31
59720775755415 0 .0387587467213034 .3041632723342605 0 .0400144246616073 .298280
707410716 0 .0406133724897404 .2953272780930095 0 127 15 420 4 1 1 1 1 1 1 1 1 1
 1 1 1 1 4 128 15 421 0 .03125 .0625 .125 .1875 .25 .375 .5 .625 .75 .8125 .875
 .9375 .96875 1 16 417 96 0 ?422 423 412 413 0 0 1 134 418 100 0 423 413 424 0 +
425 426 16 423 99 0 ?215 427 417 418 0 0 1 30 424 103 0 427 418 428 0 +.12028165
8823309 .27330883529578 0 .997329527576453 -.0730329612170403 0 136 425 3 4 3 2
 5 FFF1 429 430 431 135 426 2 0 45 12 429 .1202816588233088 .27330883529578 0 .1
273282320180456 .36953600996075 0 .1035367591031672 .476961211692503 0 .03905376
832031395 .570945883232413 0 127 2 430 4 4 128 2 431 0 1 16 427 102 0 ?432 433 4
23 424 0 0 1 134 428 106 0 433 424 434 0 +435 436 16 433 105 0 ?437 438 427 428
 0 0 1 31 434 109 0 438 428 439 0 +.0384353332896842 .570521574249628 0 0 0 1 0
 -1 0 .000750000000000033 136 435 3 17 3 15 6 FFF1 440 441 442 135 436 2 0 45 51
 440 .03781689825904865 .570097265266809 0 .0398190666042414 .567179082781691 0
 .04376674238227875 .561283664312791 0 .0513238777952154 .549428731521952 0 .060
1931575068536 .534424593060345 0 .0699108675507691 .516182752395507 0 .081659007
8648991 .491583811671554 0 .0941110231412927 .460410444064984 0 .105596358932218
2 .422609285394282 0 .113739386275247 .3847034775588825 0 .1178358607576234 .353
268142691076 0 .1195570229291074 .328356546072247 0 .1200842027518498 .309825896
4570675 0 .1198994891735392 .2945461528833305 0 .119383736034207 .28242708838744
05 0 .119005753007773 .2764238870747065 0 .1187856645319442 .2734183847376055 0
 127 15 441 4 1 1 1 1 1 1 1 1 1 1 1 1 1 4 128 15 442 0 .03125 .0625 .125 .1875 .
25 .375 .5 .625 .75 .8125 .875 .9375 .96875 1 16 438 108 0 ?443 444 433 434 0 0
 1 134 439 112 0 444 434 445 0 +446 447 16 444 111 0 ?203 448 438 439 0 0 1 30 4
45 115 0 448 439 449 0 +.1895591299233135 .230722199111264 0 .940641786161402 -.
339400987221734 0 136 446 3 4 3 2 5 FFF1 450 451 452 135 447 2 0 45 12 450 .1895
59129923313 .2307221991112635 0 .222306178091259 .3214798664131385 0 .2283799300
981745 .4313403128309715 0 .1916449044531975 .539237080510218 0 127 2 451 4 4 12
8 2 452 0 1 16 448 114 0 ?453 454 444 445 0 0 1 134 449 118 0 454 445 455 0 +456
 457 16 454 117 0 ?458 459 448 449 0 0 1 31 455 121 0 459 449 460 0 +.1909349254
775745 .538995357829952 0 0 0 1 0 -1 0 .000750000000000015 136 456 3 17 3 15 6 F
FF1 461 462 463 135 457 2 0 45 51 461 .1902249465019365 .538753635149654 0 .1913
655528015715 .535403488232253 0 .1935762731855585 .52866161769391 0 .19765474692
8252 .515207407235658 0 .202147061577977 .498366759900529 0 .2065828228613625 .4
78179569378422 0 .21125859548282 .451323213781033 0 .214838382328435 .4179463256
9185 0 .215699180157162 .378448230014008 0 .2133133773950205 .3397511098738255 0
 .208776791643706 .3083762669075755 0 .2037130601208305 .2839240958713655 0 .199
2211812520725 .2659383815971295 0 .194920891874008 .2512750874907535 0 .19115457
9789706 .239744579312884 0 .1891709690684475 .234065971589508 0 .188148167244071
 .2312313005920965 0 127 15 462 4 1 1 1 1 1 1 1 1 1 1 1 1 1 4 128 15 463 0 .0312
5 .0625 .125 .1875 .25 .375 .5 .625 .75 .8125 .875 .9375 .96875 1 16 459 120 0 ?
464 465 454 455 0 0 1 134 460 124 0 465 455 466 0 +467 468 16 465 123 0 ?191 469
 459 460 0 0 1 30 466 127 0 469 460 470 0 +.244777867532224 .171023952902497 0 .
814190946616595 -.580597194660441 0 136 467 3 4 3 2 5 FFF1 471 472 473 135 468 2
 0 45 12 471 .2447778675322235 .1710239529024965 0 .300796691918539 .24958103184
61965 0 .336285206446462 .3537288762174005 0 .3300226147398895 .467535530372081
 0 127 2 472 4 4 128 2 473 0 1 16 469 126 0 ?474 475 465 466 0 0 1 134 470 130 0
 475 466 476 0 +477 478 16 475 129 0 ?479 480 469 470 0 0 1 31 476 133 0 480 470
 481 0 +.329273747711957 .467494321459721 0 0 0 1 0 -1 0 .000750000000000009 136
 477 3 17 3 15 6 FFF1 482 483 484 135 478 2 0 45 51 482 .328524880684002 .467453
112547335 0 .3287193313867615 .463919466268612 0 .329029137359192 .4568311573566
49 0 .3293264676919215 .442775506471756 0 .329108642853136 .425347344035115 0 .3
279334752538595 .404711995226515 0 .3251900995175485 .377590037790695 0 .3196321
6151848 .3444850403193705 0 .3098045799479395 .3062194006990495 0 .2970668911571
75 .2696009566273365 0 .2842337029838455 .2406135341350935 0 .272760631568632 .2
184342943460195 0 .263582836115091 .202327433561279 0 .2554859037279285 .1893680
98366027 0 .2487483628362185 .179281311549166 0 .245306239752916 .17434845377208
8 0 .243556581112299 .1718948486944875 0 127 15 483 4 1 1 1 1 1 1 1 1 1 1 1 1 1
 4 128 15 484 0 .03125 .0625 .125 .1875 .25 .375 .5 .625 .75 .8125 .875 .9375 .9
6875 1 16 480 132 0 ?485 486 475 476 0 0 1 134 481 136 0 486 476 487 0 +488 489
 16 486 135 0 ?179 490 480 481 0 0 1 30 487 139 0 490 481 491 0 +.28184255049050
3 .0986416424894789 0 .62735528923693 -.778733164226649 0 136 488 3 4 3 2 5 FFF1
 492 493 494 135 489 2 0 45 12 492 .281842550490503 .0986416424894788 0 .3569784
91159524 .159171913904473 0 .41924974743507 .2498829870567205 0 .443924057444327
 .3611590087789825 0 127 2 493 4 4 128 2 494 0 1 16 490 138 0 ?495 496 486 487 0
 0 1 134 491 142 0 496 487 497 0 +498 499 16 496 141 0 ?500 501 490 491 0 0 1 31
 497 145 0 501 491 502 0 +.443191842405709 .361321369911041 0 0 0 1 0 -1 0 .0007
49999999999987 136 498 3 17 3 15 6 FFF1 503 504 505 135 499 2 0 45 51 503 .44245
96273670615 .3614837310430795 0 .441693500953875 .3580286597821705 0 .4400794156
230405 .351119619941734 0 .4365735509152245 .337504971956007 0 .4316617416597385
 .3207818614972425 0 .4249628019826045 .3012287838228425 0 .4150037415167775 .27
58527360569075 0 .4007202855085425 .2454748754206035 0 .380933191305628 .2112796
792947895 0 .358788312592802 .17945573377011 0 .338610300856344 .155005596269489
5 0 .3215787947698495 .136744220479437 0 .308395757834694 .1237107853646106 0 .2
971026948725885 .1134165436869012 0 .2878936177592095 .1055215690652754 0 .28324
82688362865 .1017003087294992 0 .280901517556648 .0998097422358188 0 127 15 504
 4 1 1 1 1 1 1 1 1 1 1 1 1 1 4 128 15 505 0 .03125 .0625 .125 .1875 .25 .375 .5
 .625 .75 .8125 .875 .9375 .96875 1 16 501 144 0 ?506 507 496 497 0 0 1 134 502
 148 0 507 497 508 0 +509 510 16 507 147 0 ?167 511 501 502 0 0 1 30 508 151 0 5
11 502 512 0 +.2980042608227785 .01894353270850655 0 .3939915600141085 -.9191140
57469283 0 136 509 3 4 3 2 5 FFF1 513 514 515 135 510 2 0 45 12 513 .29800426082
27785 .0189435327085065 0 .386684828779141 .0569577432715109 0 .471120452596394
 .127504419884647 0 .524901683625552 .2279969756972775 0 127 2 514 4 4 128 2 515
 0 1 16 511 150 0 ?516 517 507 508 0 0 1 134 512 154 0 517 508 518 0 +519 520 16
 517 153 0 ?521 522 511 512 0 0 1 31 518 157 0 522 512 523 0 +.524240425616001 .
2283508652913415 0 0 0 1 0 -1 0 .000750000000000035 136 519 3 17 3 15 6 FFF1 524
 525 526 135 520 2 0 45 51 524 .523579167606417 .2287047548853945 0 .52190928416
8555 .225584505471823 0 .518491016859496 .2193671465811225 0 .511441971058248 .2
072032376527935 0 .502200463808508 .1924254557714915 0 .490474581763761 .1754048
11553024 0 .474038454523498 .1536566988320795 0 .452088819095764 .12825896198472
52 0 .423809730517572 .100670310617457 0 .3939000462307365 .0760011000945127 0 .
3678737217533815 .0579016024319994 0 .3465469298880855 .0449124533430805 0 .3303
36377012415 .0359190741566373 0 .3166847382929405 .02905340280868365 0 .30568712
00786675 .02393577453287365 0 .3001830695946795 .02150951703640085 0 .2974132734
827575 .0203222037947105 0 127 15 525 4 1 1 1 1 1 1 1 1 1 1 1 1 1 4 128 15 526 0
 .03125 .0625 .125 .1875 .25 .375 .5 .625 .75 .8125 .875 .9375 .96875 1 16 522 1
56 0 ?527 528 517 518 0 0 1 134 523 160 0 528 518 529 0 +530 531 16 528 159 0 ?1
55 532 522 523 0 0 1 30 529 163 0 532 523 533 0 +.2920643584086095 -.06215953223
25573 0 .1314072791765618 -.991328465736465 0 136 530 3 4 3 2 5 FFF1 534 535 536
 135 531 2 0 45 12 534 .2920643584086095 -.0621595322325573 0 .387712521613594 -
.0494807226155589 0 .488050309021306 -.004330566816359675 0 .566949753197693 .07
79254499448692 0 127 2 535 4 4 128 2 536 0 1 16 532 162 0 ?537 538 528 529 0 0 1
 134 533 166 0 538 529 539 0 +540 541 16 538 165 0 ?542 543 532 533 0 0 1 31 539
 169 0 543 533 544 0 +.566408494698723 .0784446216286843 0 0 0 1 0 -1 0 75e-5 13
6 540 3 17 3 15 6 FFF1 545 546 547 135 541 2 0 45 51 545 .565867236199719 .07896
37933124981 0 .56341744335256 .0764097803710766 0 .558448511314055 .071345215496
512 0 .548379079899216 .0615341871046141 0 .535493274970854 .0497977342790573 0
 .51961010558741 .0365718668339395 0 .497915903939843 .0200646471875023 0 .46992
7993139384 .001530668084151255 0 .435254240817538 -.0174053144623431 0 .39979801
54125455 -.03309018749319405 0 .369853631618267 -.0434966883756638 0 .3458132645
63238 -.050250264996927 0 .327777458295496 -.0545365904627009 0 .312779723410384
 -.0574644960453774 0 .3008092071274145 -.0594252268977463 0 .2948546653274035 -
.060276537135792 0 .2918672474898445 -.0606725395339526 0 127 15 546 4 1 1 1 1 1
 1 1 1 1 1 1 1 1 4 128 15 547 0 .03125 .0625 .125 .1875 .25 .375 .5 .625 .75 .81
25 .875 .9375 .96875 1 16 543 168 0 ?548 549 538 539 0 0 1 134 544 172 0 549 539
 550 0 +551 552 16 549 171 0 ?143 553 543 544 0 0 1 30 550 175 0 553 544 554 0 +
.264463378636809 -.1386525090288684 0 -.14092287840935 -.990020576725971 0 136 5
51 3 4 3 2 5 FFF1 555 556 557 135 552 2 0 45 12 555 .264463378636809 -.138652509
0288682 0 .3599853503867335 -.152249429665474 0 .468783706707708 -.1358443751876
192 0 .566949753197701 -.0779254499447347 0 127 2 556 4 4 128 2 557 0 1 16 553 1
74 0 ?558 559 549 550 0 0 1 134 554 178 0 559 550 560 0 +561 562 16 559 177 0 ?5
63 564 553 554 0 0 1 31 560 181 0 564 554 565 0 +.566568636876089 -.077279500759
9045 0 0 0 1 0 -1 0 .000749999999999971 136 561 3 17 3 15 6 FFF1 566 567 568 135
 562 2 0 45 51 566 .566187520554443 -.0766335515750662 0 .563139508226404 -.0784
319085883038 0 .556988434416398 -.0819680638388292 0 .544645421051423 -.08869857
26009371 0 .529070999647339 -.0965232573553761 0 .510208524937705 -.104973445943
0574 0 .484865208574665 -.115015507549316 0 .452914757709379 -.125311148465881 0
 .414417935231727 -.134190066992484 0 .3760447947454285 -.139727327252063 0 .344
403189593807 -.1416690287906102 0 .3194322113961545 -.141686151061776 0 .3009087
84978896 -.1409475256557182 0 .285677267314504 -.1397205161103272 0 .27362165139
4077 -.1383789311016818 0 .267658239403134 -.1375921562954296 0 .264674762954423
 -.1371674781637794 0 127 15 567 4 1 1 1 1 1 1 1 1 1 1 1 1 1 4 128 15 568 0 .031
25 .0625 .125 .1875 .25 .375 .5 .625 .75 .8125 .875 .9375 .96875 1 16 564 180 0
 ?569 570 559 560 0 0 1 134 565 184 0 570 560 571 0 +572 573 16 570 183 0 ?131 5
74 564 565 0 0 1 30 571 187 0 574 565 575 0 +.2172483599109725 -.204862263523528
 0 -.40280143078293 -.915287390582447 0 136 572 3 4 3 2 5 FFF1 576 577 578 135 5
73 2 0 45 12 576 .217248359910972 -.204862263523528 0 .305559712545088 -.2437264
93011894 0 .4147495614103605 -.2572832276978755 0 .524901683625578 -.22799697569
71475 0 127 2 577 4 4 128 2 578 0 1 16 574 186 0 ?579 580 570 571 0 0 1 134 575
 190 0 580 571 581 0 +582 583 16 580 189 0 ?584 585 574 575 0 0 1 31 581 193 0 5
85 575 586 0 +.524708975135406 -.2272721561073205 0 0 0 1 0 -1 0 75e-5 136 582 3
 17 3 15 6 FFF1 587 588 589 135 583 2 0 45 51 587 .524516266645204 -.22654733651
7476 0 .521096091966926 -.227456661689794 0 .514219073390618 -.2292021468581825
 0 .500517902911258 -.2323529649456435 0 .483409948618757 -.235685560556279 0 .4
62967112042064 -.238733358456016 0 .4358542788002405 -.241565488252135 0 .402310
906647219 -.2428592103945555 0 .362846147225685 -.2410225561324985 0 .3244020519
425115 -.2360015303586325 0 .2934099385369315 -.2293344254328365 0 .269360332414
9515 -.2226138234733815 0 .2517230836465075 -.2169050276628735 0 .23738743518844
6 -.2116141046742015 0 .226140829512607 -.2070697030272895 0 .220610826317305 -.
204703194664864 0 .217852562057147 -.2034893324376545 0 127 15 588 4 1 1 1 1 1 1
 1 1 1 1 1 1 1 4 128 15 589 0 .03125 .0625 .125 .1875 .25 .375 .5 .625 .75 .8125
 .875 .9375 .96875 1 16 585 192 0 ?590 591 580 581 0 0 1 134 586 196 0 591 581 5
92 0 +593 594 16 591 195 0 ?119 595 585 586 0 0 1 30 592 199 0 595 586 596 0 +.1
53921024175655 -.2558783211151405 0 -.634806043729174 -.772671525840647 0 136 59
3 3 4 3 2 5 FFF1 597 598 599 135 594 2 0 45 12 597 .153921024175655 -.2558783211
151405 0 .228472108666646 -.317127477346134 0 .3299553384962 -.359640560202227 0
 .4439240574443675 -.361159008778862 0 127 2 598 4 4 128 2 599 0 1 16 595 198 0
 ?600 601 591 592 0 0 1 134 596 202 0 601 592 602 0 +603 604 16 601 201 0 ?605 6
06 595 596 0 0 1 31 602 205 0 606 596 607 0 +.4439340490927695 -.360409075337186
 0 0 0 1 0 -1 0 75e-5 136 603 3 17 3 15 6 FFF1 608 609 610 135 604 2 0 45 51 608
 .443944040741146 -.359659141895485 0 .4404053624222605 -.3596119947387385 0 .43
33124360871875 -.359437355175114 0 .419269261629212 -.358774800824415 0 .4018965
93154485 -.3573681439204165 0 .381389546379874 -.3547875099047335 0 .35451803106
78535 -.350199661779866 0 .3218694960889685 -.3423955156952235 0 .28436372039058
65 -.3299795048889895 0 .248699892987658 -.314772579593662 0 .2206558145999265 -
.2999911368758935 0 .199311229820059 -.2870312469884425 0 .1838682327565405 -.27
6775676042746 0 .1714916629697165 -.267813243164501 0 .1618881768316445 -.260403
06236022 0 .1572017174708985 -.256632333540807 0 .154873233241249 -.254719313826
3795 0 127 15 609 4 1 1 1 1 1 1 1 1 1 1 1 1 1 4 128 15 610 0 .03125 .0625 .125 .
1875 .25 .375 .5 .625 .75 .8125 .875 .9375 .96875 1 16 606 204 0 ?611 612 601 60
2 0 0 1 134 607 208 0 612 602 613 0 +614 615 16 612 207 0 ?107 616 606 607 0 0 1
 30 613 211 0 616 607 617 0 +.0791780702190624 -.2879170541950695 0 -.8197299964
56437 -.572750148764302 0 136 614 3 4 3 2 5 FFF1 618 619 620 135 615 2 0 45 12 6
18 .0791780702190623 -.2879170541950695 0 .1344397736787498 -.367008567447283 0
 .220689837571012 -.435324997602464 0 .3300226147399415 -.467535530371973 0 127
 2 619 4 4 128 2 620 0 1 16 616 210 0 ?621 622 612 613 0 0 1 134 617 214 0 622 6
13 623 0 +624 625 16 622 213 0 ?626 627 616 617 0 0 1 31 623 217 0 627 617 628 0
 +.3302345654920635 -.4668161022111 0 0 0 1 0 -1 0 .000749999999999988 136 624 3
 17 3 15 6 FFF1 629 630 631 135 625 2 0 45 51 629 .330446516244168 -.46609667405
0197 0 .32705178186721 -.465096551253317 0 .3202689976716655 -.463014739175191 0
 .3069253372413745 -.458587951011539 0 .2905764059305225 -.452546366900449 0 .27
1526062803769 -.4445286947886735 0 .246888802783241 -.432861128450233 0 .2175564
97460768 -.416537911952033 0 .1847913372915795 -.39446338332365 0 .1545528006962
17 -.370198386588961 0 .1315366583272296 -.348398878064996 0 .1144801250976196 -
.33016087599495 0 .1023767161842168 -.316119138694992 0 .0928771386306797 -.3041
49898573351 0 .0856290186642101 -.294423517822633 0 .0821336763896811 -.28952822
62528315 0 .0804076652137471 -.287057928971923 0 127 15 630 4 1 1 1 1 1 1 1 1 1
 1 1 1 1 4 128 15 631 0 .03125 .0625 .125 .1875 .25 .375 .5 .625 .75 .8125 .875
 .9375 .96875 1 16 627 216 0 ?632 633 622 623 0 0 1 134 628 220 0 633 623 634 0
 +635 636 16 633 219 0 ?95 637 627 628 0 0 1 30 634 223 0 637 628 638 0 +-.00143
715899010788 -.298602296498228 0 -.943858325361777 -.3303505133116375 0 136 635
 3 4 3 2 5 FFF1 639 640 641 135 636 2 0 45 12 639 -.00143715899010799 -.29860229
6498228 0 .03043665569814235 -.3896703110533425 0 .0950567809820118 -.4787233714
09875 0 .1916449044532575 -.539237080510125 0 127 2 640 4 4 128 2 641 0 1 16 637
 222 0 ?642 643 633 634 0 0 1 134 638 226 0 643 634 644 0 +645 646 16 643 225 0
 ?647 648 637 638 0 0 1 31 644 229 0 648 638 649 0 +.192043094891425 -.538601514
325582 0 0 0 1 0 -1 0 .000750000000000022 136 645 3 17 3 15 6 FFF1 650 651 652 1
35 646 2 0 45 51 650 .192441285329584 -.537965948141006 0 .189442266813416 -.536
087024236581 0 .183472672832011 -.532252438122131 0 .1718181646803345 -.52438973
0772416 0 .157705495977299 -.514161296109346 0 .1415247332985932 -.5013012199635
99 0 .120948961437316 -.483419265431343 0 .0971083286706541 -.45978759681351 0 .
071513826069774 -.429691717167096 0 .0489432342091551 -.398168272795884 0 .03266
20298465752 -.3709674682868295 0 .021158553208415 -.3488039832144155 0 .01329238
691482382 -.3320174909790605 0 .00737434180404373 -.3179291473982155 0 .00301914
7909146925 -.30660792786611 0 .00097415626720998 -.3009511349271835 0 -213715020
651595e-19 -.2981067707282605 0 127 15 651 4 1 1 1 1 1 1 1 1 1 1 1 1 1 4 128 15
 652 0 .03125 .0625 .125 .1875 .25 .375 .5 .625 .75 .8125 .875 .9375 .96875 1 16
 648 228 0 ?653 654 643 644 0 0 1 134 649 232 0 654 644 655 0 +656 657 16 654 23
1 0 ?83 658 648 649 0 0 1 30 655 235 0 658 649 659 0 +-.0819458006915461 -.28714
1572484722 0 -.997985000139543 -.063450291539722 0 136 656 3 4 3 2 5 FFF1 660 66
1 662 135 657 2 0 45 12 660 -.0819458006915462 -.2871415724847215 0 -.0758238097
971606 -.38343199031163 0 -.0376262021965863 -.486617022773512 0 .03905376832037
72 -.570945883232337 0 127 2 661 4 4 128 2 662 0 1 16 658 234 0 ?663 664 654 655
 0 0 1 134 659 238 0 664 655 665 0 +666 667 16 664 237 0 ?668 669 658 659 0 0 1
 31 665 241 0 669 659 670 0 +.0396086664813914 -.57044131606051 0 0 0 1 0 -1 0 .
000749999999999963 136 666 3 17 3 15 6 FFF1 671 672 673 135 667 2 0 45 51 671 .0
4016356464240655 -.569936748888649 0 .03778268547077555 -.567318375067165 0 .033
0690191800357 -.562015408626436 0 .0239680248607562 -.551299923125293 0 .0131382
9084207806 -.537643234117227 0 .00102716175723616 -.520894526954306 0 -.01396111
107373276 -.498124406991393 0 -.03054192061591765 -.468936939007622 0 -.04706753
84776405 -.4330517820570635 0 -.0602962280588008 -.3966078397081785 0 -.06863499
19689551 -.36602309844907 0 -.0737322517783168 -.341577894670912 0 -.07677777788
34171 -.323291624836164 0 -.0786753762188285 -.3081290457896225 0 -.079814639234
6544 -.296052630537693 0 -.0802576125691311 -.290053874683816 0 -.08044882319133
68 -.287046397047412 0 127 15 672 4 1 1 1 1 1 1 1 1 1 1 1 1 1 4 128 15 673 0 .03
125 .0625 .125 .1875 .25 .375 .5 .625 .75 .8125 .875 .9375 .96875 1 16 669 240 0
 ?674 675 664 665 0 0 1 134 670 244 0 675 665 676 0 +677 678 16 675 243 0 ?71 67
9 669 670 0 0 1 30 676 247 0 679 670 680 0 +-.156376897232785 -.254384871625309
 0 -.978095692934546 .2081557480899605 0 136 677 3 4 3 2 5 FFF1 681 682 683 135
 678 2 0 45 12 681 -.156376897232785 -.2543848716253085 0 -.176460770190656 -.34
8756272933139 0 -.1675186220866835 -.458420515682787 0 -.1164338071497222 -.5603
10241698823 0 127 2 682 4 4 128 2 683 0 1 16 679 246 0 ?684 685 675 676 0 0 1 13
4 680 250 0 685 676 686 0 +687 688 16 685 249 0 ?689 690 679 680 0 0 1 31 686 25
3 0 690 680 691 0 +-.1157633555239736 -.559974094978605 0 0 0 1 0 -1 0 75e-5 136
 687 3 17 3 15 6 FFF1 692 693 694 135 688 2 0 45 51 692 -.1150929038982144 -.559
637948258355 0 -.116679064808946 -.556474317327888 0 -.119787212343825 -.5500962
67322331 0 -.125659713716325 -.537322722209296 0 -.132403321221217 -.52125063300
4768 0 -.1395465896727014 -.501855469814709 0 -.1478357518442748 -.4758859400524
21 0 -.1559270153703955 -.443307373679286 0 -.162158119015828 -.4042943773519365
 0 -.165063794928523 -.3656328175094535 0 -.164841670414342 -.333932469843598 0
 -.1631546729532575 -.3090185362945555 0 -.161153686131006 -.2905886978399395 0
 -.158890101503446 -.2754764224514005 0 -.156728939714099 -.263540463952958 0 -.
155537041435365 -.257644645463331 0 -.154909753693383 -.2546971052474435 0 127 1
5 693 4 1 1 1 1 1 1 1 1 1 1 1 1 1 4 128 15 694 0 .03125 .0625 .125 .1875 .25 .37
5 .5 .625 .75 .8125 .875 .9375 .96875 1 16 690 252 0 ?695 696 685 686 0 0 1 134
 691 256 0 696 686 697 0 +698 699 16 696 255 0 ?59 700 690 691 0 0 1 30 697 259
 0 700 691 701 0 +-.2192102346829705 -.2027616085707965 0 -.885665502674643 .464
323828132987 0 136 698 3 4 3 2 5 FFF1 702 703 704 135 699 2 0 45 12 702 -.219210
2346829705 -.2027616085707965 0 -.2640104425134175 -.2882148982449815 0 -.284986
9521233135 -.396225056078183 0 -.2632860197927505 -.508118952787301 0 127 2 703
 4 4 128 2 704 0 1 16 700 258 0 ?705 706 696 697 0 0 1 134 701 262 0 706 697 707
 0 +708 709 16 706 261 0 ?710 711 700 701 0 0 1 31 707 265 0 711 701 712 0 +-.26
2549739032237 -.507976156983162 0 0 0 1 0 -1 0 75e-5 136 708 3 17 3 15 6 FFF1 71
3 714 715 135 709 2 0 45 51 713 -.2618134582717045 -.507833361178994 0 -.2624872
626229905 -.504359105173008 0 -.2637593743181765 -.497379002393899 0 -.265967846
1820045 -.483494753074925 0 -.2681251846544245 -.466199257005319 0 -.26977080892
9783 -.445596088314961 0 -.270746091204089 -.4183531899730735 0 -.26974771671348
05 -.384799728441446 0 -.265222173690644 -.3455523082023225 0 -.257589335245012
 -.30754048189489 0 -.2488227962655605 -.2770755975892235 0 -.240476658418218 -.
253540686746967 0 -.233577562707316 -.236334136479761 0 -.2273206748334005 -.222
3929730807325 0 -.222019371722138 -.2114827067742305 0 -.2192809994729565 -.2061
270915346535 0 -.2178817364289585 -.203458094312996 0 127 15 714 4 1 1 1 1 1 1 1
 1 1 1 1 1 1 4 128 15 715 0 .03125 .0625 .125 .1875 .25 .375 .5 .625 .75 .8125 .
875 .9375 .96875 1 16 711 264 0 ?716 717 706 707 0 0 1 134 712 268 0 717 707 718
 0 +719 720 16 717 267 0 ?47 721 711 712 0 0 1 30 718 271 0 721 712 722 0 +-.265
785751846815 -.1361004445812238 0 -.727549553731469 .686055133983517 0 136 719 3
 4 3 2 5 FFF1 723 724 725 135 720 2 0 45 12 723 -.265785751846815 -.136100444581
2236 0 -.331979668082368 -.2062979430494175 0 -.3813191036495125 -.3046433966732
77 0 -.390611512801146 -.4182428056370785 0 127 2 724 4 4 128 2 725 0 1 16 721 2
70 0 ?726 727 717 718 0 0 1 134 722 274 0 727 718 728 0 +729 730 16 727 273 0 ?7
31 732 721 722 0 0 1 31 728 277 0 732 722 733 0 +-.389864009481615 -.41830395126
05645 0 0 0 1 0 -1 0 75e-5 136 729 3 17 3 15 6 FFF1 734 735 736 135 730 2 0 45 5
1 734 -.389116506162057 -.418365096884027 0 -.388827980967613 -.414837885476823
 0 -.3881697101181965 -.407773412215442 0 -.3865503602182995 -.3938081899463025
 0 -.3839614297329145 -.3765720148334715 0 -.3799873614078745 -.3562888834113535
 0 -.373576431560247 -.329793097631917 0 -.3635624639216185 -.297753247686725 0
 -.3486159130535345 -.261182205149963 0 -.331010652959176 -.226639275642269 0 -.
3143498736063125 -.19966929579817 0 -.299963590235809 -.1792588843348165 0 -.288
678060003872 -.16455175337361 0 -.278891913633851 -.152815654276819 0 -.27084364
26005885 -.143740244703063 0 -.2667618889234605 -.1393220341955462 0 -.264694427
5162175 -.137129527282199 0 127 15 735 4 1 1 1 1 1 1 1 1 1 1 1 1 1 4 128 15 736
 0 .03125 .0625 .125 .1875 .25 .375 .5 .625 .75 .8125 .875 .9375 .96875 1 16 732
 276 0 ?737 738 727 728 0 0 1 134 733 280 0 738 728 739 0 +740 741 16 738 279 0
 ?35 742 732 733 0 0 1 30 739 283 0 742 733 743 0 +-.2926491556850895 -.05934533
32351638 0 -.515474582705765 .856904869039917 0 136 740 3 4 3 2 5 FFF1 744 745 7
46 135 741 2 0 45 12 744 -.292649155685089 -.0593453332351637 0 -.37532748037557
45 -.1090808131681674 0 -.449370561676851 -.190467730187917 0 -.488967136833848
 -.2973475029262735 0 127 2 745 4 4 128 2 746 0 1 16 742 282 0 ?747 748 738 739
 0 0 1 134 743 286 0 748 739 749 0 +750 751 16 748 285 0 ?752 753 742 743 0 0 1
 31 749 289 0 753 743 754 0 +-.488263849856908 -.2976080550862125 0 0 0 1 0 -1 0
 75e-5 136 750 3 17 3 15 6 FFF1 755 756 757 135 751 2 0 45 51 755 -.487560562879
937 -.297868607246136 0 -.486331106733519 -.2945500375718675 0 -.483791274277013
 -.287925133492197 0 -.478464202387434 -.2749146749219535 0 -.471321012074776 -.
2590161490237615 0 -.462021989616853 -.24055736193831 0 -.448700316986038 -.2167
737599424305 0 -.4304134463682925 -.188623770681549 0 -.406154404956927 -.157441
412770712 0 -.379882424816334 -.1289292711209548 0 -.3565630588766665 -.10745443
57640124 0 -.3372035948077255 -.0916822705263796 0 -.3223686262041895 -.08056531
94939172 0 -.3097790150456875 -.0719046974802919 0 -.2995806795345715 -.06533722
62501314 0 -.2944582694269495 -.0621840989360494 0 -.2918759438110305 -.06063069
05387237 0 127 15 756 4 1 1 1 1 1 1 1 1 1 1 1 1 1 4 128 15 757 0 .03125 .0625 .1
25 .1875 .25 .375 .5 .625 .75 .8125 .875 .9375 .96875 1 16 753 288 0 ?758 20 748
 749 0 0 1 134 754 292 0 20 749 759 0 +760 761 16 20 291 0 ?17 762 753 754 0 0 1
 30 759 295 0 762 754 763 0 +-.297808110427004 .0218111499901163 0 -.26516922002
00995 .96420189003856 0 136 760 3 4 3 2 5 FFF1 764 765 766 135 761 2 0 45 12 764
 -.2978081104270035 .02181114999011635 0 -.390838970458296 -.0037736583857474 0
 -.484094260878147 -.0621659434864038 0 -.55105830520339 -.1543992961977365 0 12
7 2 765 4 4 128 2 766 0 1 16 762 294 0 ?767 27 20 759 0 0 1 134 763 298 0 27 759
 13 0 +768 769 16 27 297 0 ?26 16 762 763 0 0 1 31 13 301 0 16 763 6 0 +-.550451
394146798 -.154839930932373 0 0 0 1 0 -1 0 75e-5 136 768 3 17 3 15 6 FFF1 770 77
1 772 135 769 2 0 45 51 770 -.549844483090171 -.155280565667003 0 -.547765279129
773 -.152416760856964 0 -.543532252820516 -.1467227647876734 0 -.534892543493571
 -.1356319961095938 0 -.523724871101209 -.1222502403609934 0 -.509790560465909 -
.1069848014070042 0 -.490546152568338 -.0876773041519768 0 -.465342632508328 -.0
655049315012529 0 -.433570282677431 -.04202391105279285 0 -.4005800550713195 -.0
2165717237276575 0 -.3723315932375925 -.00727017180056963 0 -.3494347513565525 .
002693997868522315 0 -.332150586137277 .00939627557082956 0 -.317691224056281 .0
1433910178624798 0 -.3060991879578905 .01791155537585365 0 -.30031602714399 .019
5657464682133 0 -.2974103565969735 .02036484715505845 0 127 15 771 4 1 1 1 1 1 1
 1 1 1 1 1 1 1 4 128 15 772 0 .03125 .0625 .125 .1875 .25 .375 .5 .625 .75 .8125
 .875 .9375 .96875 1 16 16 300 0 ?28 9 27 13 0 0 1 17 28 0 0 0 0 18 21 16 0 0 +1
7 21 0 24 19 22 10 28 16 0 0 -15 24 25 0 19 12 773 17 19 0 24 25 21 29 17 20 0 7
67 -17 25 0 24 22 19 23 767 762 0 26 -17 767 0 0 0 0 29 25 762 0 0 +17 26 0 0 0
 0 23 22 27 0 0 +14 255 12 1 774 ?0 0 296 4 5 +0 0 0 0 4 15 773 26 0 15 12 0 17
 15 0 773 15 15 0 775 9 0 0 +17 775 0 0 0 0 0 15 9 0 0 -81 255 1 774 689 776 12
 0 0 0 0 777 80 255 1 776 0 778 8001 0 0 0 0 3 5 0 0 0 FFFFTFTFFFFFFF2 83 255 3
 777 .792156862745098 .819607843137255 .933333333333333 79 255 15 778 SDL/TYSA_C
OLOUR17 758 0 0 0 0 36 779 753 0 0 +17 779 0 780 44 38 33 758 753 0 0 -15 780 24
 0 44 12 24 17 44 0 780 41 779 42 35 738 0 747 -17 38 0 780 779 41 36 752 748 0
 758 -17 41 0 780 38 44 39 747 742 0 752 -17 752 0 0 0 0 39 38 748 0 0 +17 747 0
 0 0 0 42 41 742 0 0 +17 35 0 0 0 0 33 44 738 0 779 +17 737 0 0 0 0 48 781 732 0
 0 +17 781 0 782 56 50 45 737 732 0 0 -15 782 23 0 56 12 780 17 56 0 782 53 781
 54 47 717 0 726 -17 50 0 782 781 53 48 731 727 0 737 -17 53 0 782 50 56 51 726
 721 0 731 -17 731 0 0 0 0 51 50 727 0 0 +17 726 0 0 0 0 54 53 721 0 0 +17 47 0
 0 0 0 45 56 717 0 781 +17 716 0 0 0 0 60 783 711 0 0 +17 783 0 784 68 62 57 716
 711 0 0 -15 784 22 0 68 12 782 17 68 0 784 65 783 66 59 696 0 705 -17 62 0 784
 783 65 60 710 706 0 716 -17 65 0 784 62 68 63 705 700 0 710 -17 710 0 0 0 0 63
 62 706 0 0 +17 705 0 0 0 0 66 65 700 0 0 +17 59 0 0 0 0 57 68 696 0 783 +17 695
 0 0 0 0 72 785 690 0 0 +17 785 0 786 80 74 69 695 690 0 0 -15 786 21 0 80 12 78
4 17 80 0 786 77 785 78 71 675 0 684 -17 74 0 786 785 77 72 689 685 0 695 -17 77
 0 786 74 80 75 684 679 0 689 -17 689 0 0 0 0 75 74 685 0 0 +17 684 0 0 0 0 78 7
7 679 0 0 +17 71 0 0 0 0 69 80 675 0 785 +17 674 0 0 0 0 84 787 669 0 0 +17 787
 0 788 92 86 81 674 669 0 0 -15 788 20 0 92 12 786 17 92 0 788 89 787 90 83 654
 0 663 -17 86 0 788 787 89 84 668 664 0 674 -17 89 0 788 86 92 87 663 658 0 668
 -17 668 0 0 0 0 87 86 664 0 0 +17 663 0 0 0 0 90 89 658 0 0 +17 83 0 0 0 0 81 9
2 654 0 787 +17 653 0 0 0 0 96 789 648 0 0 +17 789 0 790 104 98 93 653 648 0 0 -
15 790 19 0 104 12 788 17 104 0 790 101 789 102 95 633 0 642 -17 98 0 790 789 10
1 96 647 643 0 653 -17 101 0 790 98 104 99 642 637 0 647 -17 647 0 0 0 0 99 98 6
43 0 0 +17 642 0 0 0 0 102 101 637 0 0 +17 95 0 0 0 0 93 104 633 0 789 +17 632 0
 0 0 0 108 791 627 0 0 +17 791 0 792 116 110 105 632 627 0 0 -15 792 18 0 116 12
 790 17 116 0 792 113 791 114 107 612 0 621 -17 110 0 792 791 113 108 626 622 0
 632 -17 113 0 792 110 116 111 621 616 0 626 -17 626 0 0 0 0 111 110 622 0 0 +17
 621 0 0 0 0 114 113 616 0 0 +17 107 0 0 0 0 105 116 612 0 791 +17 611 0 0 0 0 1
20 793 606 0 0 +17 793 0 794 128 122 117 611 606 0 0 -15 794 17 0 128 12 792 17
 128 0 794 125 793 126 119 591 0 600 -17 122 0 794 793 125 120 605 601 0 611 -17
 125 0 794 122 128 123 600 595 0 605 -17 605 0 0 0 0 123 122 601 0 0 +17 600 0 0
 0 0 126 125 595 0 0 +17 119 0 0 0 0 117 128 591 0 793 +17 590 0 0 0 0 132 795 5
85 0 0 +17 795 0 796 140 134 129 590 585 0 0 -15 796 16 0 140 12 794 17 140 0 79
6 137 795 138 131 570 0 579 -17 134 0 796 795 137 132 584 580 0 590 -17 137 0 79
6 134 140 135 579 574 0 584 -17 584 0 0 0 0 135 134 580 0 0 +17 579 0 0 0 0 138
 137 574 0 0 +17 131 0 0 0 0 129 140 570 0 795 +17 569 0 0 0 0 144 797 564 0 0 +
17 797 0 798 152 146 141 569 564 0 0 -15 798 15 0 152 12 796 17 152 0 798 149 79
7 150 143 549 0 558 -17 146 0 798 797 149 144 563 559 0 569 -17 149 0 798 146 15
2 147 558 553 0 563 -17 563 0 0 0 0 147 146 559 0 0 +17 558 0 0 0 0 150 149 553
 0 0 +17 143 0 0 0 0 141 152 549 0 797 +17 548 0 0 0 0 156 799 543 0 0 +17 799 0
 800 164 158 153 548 543 0 0 -15 800 14 0 164 12 798 17 164 0 800 161 799 162 15
5 528 0 537 -17 158 0 800 799 161 156 542 538 0 548 -17 161 0 800 158 164 159 53
7 532 0 542 -17 542 0 0 0 0 159 158 538 0 0 +17 537 0 0 0 0 162 161 532 0 0 +17
 155 0 0 0 0 153 164 528 0 799 +17 527 0 0 0 0 168 801 522 0 0 +17 801 0 802 176
 170 165 527 522 0 0 -15 802 13 0 176 12 800 17 176 0 802 173 801 174 167 507 0
 516 -17 170 0 802 801 173 168 521 517 0 527 -17 173 0 802 170 176 171 516 511 0
 521 -17 521 0 0 0 0 171 170 517 0 0 +17 516 0 0 0 0 174 173 511 0 0 +17 167 0 0
 0 0 165 176 507 0 801 +17 506 0 0 0 0 180 803 501 0 0 +17 803 0 804 188 182 177
 506 501 0 0 -15 804 12 0 188 12 802 17 188 0 804 185 803 186 179 486 0 495 -17
 182 0 804 803 185 180 500 496 0 506 -17 185 0 804 182 188 183 495 490 0 500 -17
 500 0 0 0 0 183 182 496 0 0 +17 495 0 0 0 0 186 185 490 0 0 +17 179 0 0 0 0 177
 188 486 0 803 +17 485 0 0 0 0 192 805 480 0 0 +17 805 0 806 200 194 189 485 480
 0 0 -15 806 11 0 200 12 804 17 200 0 806 197 805 198 191 465 0 474 -17 194 0 80
6 805 197 192 479 475 0 485 -17 197 0 806 194 200 195 474 469 0 479 -17 479 0 0
 0 0 195 194 475 0 0 +17 474 0 0 0 0 198 197 469 0 0 +17 191 0 0 0 0 189 200 465
 0 805 +17 464 0 0 0 0 204 807 459 0 0 +17 807 0 808 212 206 201 464 459 0 0 -15
 808 10 0 212 12 806 17 212 0 808 209 807 210 203 444 0 453 -17 206 0 808 807 20
9 204 458 454 0 464 -17 209 0 808 206 212 207 453 448 0 458 -17 458 0 0 0 0 207
 206 454 0 0 +17 453 0 0 0 0 210 209 448 0 0 +17 203 0 0 0 0 201 212 444 0 807 +
17 443 0 0 0 0 216 809 438 0 0 +17 809 0 810 224 218 213 443 438 0 0 -15 810 9 0
 224 12 808 17 224 0 810 221 809 222 215 423 0 432 -17 218 0 810 809 221 216 437
 433 0 443 -17 221 0 810 218 224 219 432 427 0 437 -17 437 0 0 0 0 219 218 433 0
 0 +17 432 0 0 0 0 222 221 427 0 0 +17 215 0 0 0 0 213 224 423 0 809 +17 422 0 0
 0 0 228 811 417 0 0 +17 811 0 812 236 230 225 422 417 0 0 -15 812 8 0 236 12 81
0 17 236 0 812 233 811 234 227 402 0 411 -17 230 0 812 811 233 228 416 412 0 422
 -17 233 0 812 230 236 231 411 406 0 416 -17 416 0 0 0 0 231 230 412 0 0 +17 411
 0 0 0 0 234 233 406 0 0 +17 227 0 0 0 0 225 236 402 0 811 +17 401 0 0 0 0 240 8
13 396 0 0 +17 813 0 814 248 242 237 401 396 0 0 -15 814 7 0 248 12 812 17 248 0
 814 245 813 246 239 381 0 390 -17 242 0 814 813 245 240 395 391 0 401 -17 245 0
 814 242 248 243 390 385 0 395 -17 395 0 0 0 0 243 242 391 0 0 +17 390 0 0 0 0 2
46 245 385 0 0 +17 239 0 0 0 0 237 248 381 0 813 +17 380 0 0 0 0 252 815 375 0 0
 +17 815 0 816 260 254 249 380 375 0 0 -15 816 6 0 260 12 814 17 260 0 816 257 8
15 258 251 360 0 369 -17 254 0 816 815 257 252 374 370 0 380 -17 257 0 816 254 2
60 255 369 364 0 374 -17 374 0 0 0 0 255 254 370 0 0 +17 369 0 0 0 0 258 257 364
 0 0 +17 251 0 0 0 0 249 260 360 0 815 +17 359 0 0 0 0 264 817 354 0 0 +17 817 0
 818 272 266 261 359 354 0 0 -15 818 5 0 272 12 816 17 272 0 818 269 817 270 263
 339 0 348 -17 266 0 818 817 269 264 353 349 0 359 -17 269 0 818 266 272 267 348
 343 0 353 -17 353 0 0 0 0 267 266 349 0 0 +17 348 0 0 0 0 270 269 343 0 0 +17 2
63 0 0 0 0 261 272 339 0 817 +17 338 0 0 0 0 276 819 333 0 0 +17 819 0 300 284 2
78 273 338 333 0 0 -15 300 4 0 284 12 818 17 284 0 300 281 819 282 275 318 0 327
 -17 278 0 300 819 281 276 332 328 0 338 -17 281 0 300 278 284 279 327 322 0 332
 -17 332 0 0 0 0 279 278 328 0 0 +17 327 0 0 0 0 282 281 322 0 0 +17 275 0 0 0 0
 273 284 318 0 819 +17 303 0 0 0 0 288 297 304 0 0 +136 309 3 4 3 2 5 FFF1 820 8
21 822 135 310 2 0 45 12 820 -.28088 .10135 0 -.3773637220714435 .10181337137580
24 0 -.482914903333995 .070746406853224 0 -.57228 0 0 127 2 821 4 4 128 2 822 0
 1 17 302 0 0 0 0 291 290 306 0 0 +17 290 0 296 297 293 288 302 306 0 303 -74 4
 CI16 index_map_offset0 0 1 dCCZ20 11 1 0 0 774 0 0 0 0 0 0 0 0 0 0 0 0 0 0 0 0
 0 0 0 1 0 
