**ABCDEFGHIJKLMNOPQRSTUVWXYZabcdefghijklmnopqrstuvwxyz**************************
**PARASOLID !"#$%&'()*+,-./:;<=>?@[\]^_`{|}~0123456789**************************
**PART1;
MC=AMD64;
MC_MODEL=Intel64 Family 6 Model 37 Stepping 2, GenuineIntel;
MC_ID=unknown;
OS=Windows_NT;
OS_RELEASE=unknown;
FRU=Parasolid Version 25.1, build 198,  6-19-2013;
APPL=SolidWorks 2014-2013262;
SITE=;
USER=unknown;
FORMAT=text;
GUISE=transmit;
KEY=Part1new2;
FILE=Part1new2.x_t;
DATE=Mon Aug 21 22:30:19 2017;
**PART2;
SCH=SCH_2501198_25001;
USFLD_SIZE=0;
**PART3;
**END_OF_HEADER*****************************************************************
T51 : TRANSMIT FILE created by modeller version 250119823 SCH_2501198_25001_1300
6189 0 12 29 CCCCCCCCCCCCCDI5 owner1040 0 CCCCCCCCCA16 index_map_offset0 0 1 dA9
 index_map82 0 A17 node_id_index_map82 0 A20 schema_embedding_map82 0 A5 child12
 0 A14 lowest_node_id0 0 1 dZ1 860 0 2 0 0 0 0 1e3 1e-8 0 3 0 1 0 3 1 4 5 6 7 8
 9 10 0 0 0 0 0 0 70 11 CI9 list_type0 0 1 uI10 notransmit0 0 1 lCCCDCCDI12 fing
er_index0 0 1 dI12 finger_block1012 0 CZ2 0 4 T1 0 0 1 20 1 11 11 13 255 4 640 0
 1 0 12 0 0 8 12 50 255 5 2 0 12 0 0 0 +0 0 0 0 0 1 0 -1 0 31 255 6 334 0 9 13 0
 0 +0 0 0 0 0 1 0 -1 0 .65 29 255 7 638 0 10 14 0 .2890861779183205 .04455488662
63194 0 19 8 CCCCCCCA5 owner12 0 Z8 639 0 1 0 0 4 V0 16 255 9 333 0 ?15 0 16 6 0
 0 1 18 255 10 636 0 17 0 18 7 ?1 17 255 17 0 0 0 0 10 19 20 0 21 +18 18 633 0 2
2 10 23 14 ?1 17 22 0 24 21 19 18 25 26 0 27 -18 23 630 0 19 18 28 29 ?1 29 14 6
35 0 18 29 7 -.0741252761297129 .282951231883519 0 29 29 632 0 23 30 14 -.073784
3585607038 .282477997616218 0 29 30 629 0 28 31 29 -.2454731182900335 -.15905629
31250265 0 18 28 627 0 32 23 33 30 ?1 29 31 626 0 33 34 30 .289015491156279 -.04
50111325940826 0 18 33 624 0 35 28 36 31 ?1 29 34 623 0 36 37 31 -.5527800318687
 -.1481169631312652 0 18 36 621 0 38 33 39 34 ?1 29 37 620 0 39 40 34 -.55157631
9293413 -.1490119916425966 0 18 39 618 0 41 36 42 37 ?1 29 40 617 0 42 43 37 -.2
9715929055126 .02374875259587455 0 18 42 615 0 44 39 45 40 ?1 29 43 614 0 45 46
 40 -.297540556309204 .0251994891060029 0 18 45 612 0 47 42 48 43 ?1 29 46 611 0
 48 49 43 -.495609018077743 -.2861399999999955 0 18 48 609 0 50 45 51 46 ?1 29 4
9 608 0 51 52 46 -.494214670589202 -.2866929874150415 0 18 51 606 0 53 48 54 49
 ?1 29 52 605 0 54 55 49 -.2931804627344295 -.0539709503493172 0 18 54 603 0 56
 51 57 52 ?1 29 55 602 0 57 58 52 -.293924215414954 -.0526683253264451 0 18 57 6
00 0 59 54 60 55 ?1 29 58 599 0 60 61 55 -.4046630687374135 -.404663068737431 0
 18 60 597 0 62 57 63 58 ?1 29 61 596 0 63 64 58 -.4031731088126945 -.4048363298
77712 0 18 63 594 0 65 60 66 61 ?1 29 64 593 0 66 67 61 -.26922187088587 -.12801
2622219413 0 18 66 591 0 68 63 69 64 ?1 29 67 590 0 69 70 64 -.2702774249729065
 -.1269468804264162 0 18 69 588 0 71 66 72 67 ?1 29 70 587 0 72 73 67 -.28613999
99999685 -.495609018077748 0 18 72 585 0 74 69 75 70 ?1 29 73 584 0 75 76 70 -.2
84655965945666 -.495390745482881 0 18 75 582 0 77 72 78 73 ?1 29 76 581 0 78 79
 73 -.2269162534466145 -.193330445436114 0 18 78 579 0 80 75 81 76 ?1 29 79 578
 0 81 82 76 -.228211674673518 -.1925742154149635 0 18 81 576 0 83 78 84 79 ?1 29
 82 575 0 84 85 79 -.1481169631312326 -.552780031868692 0 18 84 573 0 86 81 87 8
2 ?1 29 85 572 0 87 88 82 -.146739989415665 -.552185100455305 0 18 87 570 0 89 8
4 90 85 ?1 29 88 569 0 90 91 85 -.169146668331811 -.2454731182900085 0 18 90 567
 0 92 87 93 88 ?1 29 91 566 0 93 94 88 -.170593675882752 -.245077935866917 0 18
 93 564 0 95 90 96 91 ?1 29 94 563 0 96 97 91 425215418431435e-28 -.572279999999
977 0 18 96 561 0 98 93 99 94 ?1 29 97 560 0 99 100 94 .001176074893716184 -.571
348953360721 0 18 99 558 0 101 96 102 97 ?1 29 100 557 0 102 103 97 -.0998500172
982796 -.280887203795945 0 18 102 555 0 104 99 105 100 ?1 29 103 554 0 105 106 1
00 -.1013499999999544 -.280879999999976 0 18 105 552 0 107 102 108 103 ?1 29 106
 551 0 108 109 103 .1481169631313156 -.552780031868677 0 18 108 549 0 110 105 11
1 106 ?1 29 109 548 0 111 112 106 .149011991642647 -.55157631929339 0 18 111 546
 0 113 108 114 109 ?1 29 112 545 0 114 115 109 -.023748752595825 -.2971592905512
375 0 18 114 543 0 116 111 117 112 ?1 29 115 542 0 117 118 112 -.025199489105953
4 -.297540556309181 0 18 117 540 0 119 114 120 115 ?1 29 118 539 0 120 121 115 .
2861400000000455 -.495609018077719 0 18 120 537 0 122 117 123 118 ?1 29 121 536
 0 123 124 118 .286692987415092 -.494214670589178 0 18 123 534 0 125 120 126 121
 ?1 29 124 533 0 126 127 121 .0539709503493667 -.2931804627344065 0 18 126 531 0
 128 123 129 124 ?1 29 127 530 0 129 130 124 .0526683253264945 -.293924215414931
 0 18 129 528 0 131 126 132 127 ?1 29 130 527 0 132 133 127 .404663068737481 -.4
04663068737389 0 18 132 525 0 134 129 135 130 ?1 29 133 524 0 135 136 130 .40483
6329877762 -.40317310881267 0 18 135 522 0 137 132 138 133 ?1 29 136 521 0 138 1
39 133 .1280126222194622 -.2692218708858465 0 18 138 519 0 140 135 141 136 ?1 29
 139 518 0 141 142 136 .1269468804264656 -.270277424972883 0 18 141 516 0 143 13
8 144 139 ?1 29 142 515 0 144 145 139 .495609018077798 -.2861399999999435 0 18 1
44 513 0 146 141 147 142 ?1 29 145 512 0 147 148 142 .495390745482931 -.28465596
5945641 0 18 147 510 0 149 144 150 145 ?1 29 148 509 0 150 151 145 .193330445436
163 -.226916253446591 0 18 150 507 0 152 147 153 148 ?1 29 151 506 0 153 154 148
 .192574215415013 -.228211674673494 0 18 153 504 0 155 150 156 151 ?1 29 154 503
 0 156 157 151 .552780031868741 -.1481169631312076 0 18 156 501 0 158 153 159 15
4 ?1 29 157 500 0 159 160 154 .552185100455354 -.14673998941564 0 18 159 498 0 1
61 156 162 157 ?1 29 160 497 0 162 163 157 .245473118290058 -.169146668331787 0
 18 162 495 0 164 159 165 160 ?1 29 163 494 0 165 166 160 .2450779358669665 -.17
0593675882728 0 18 165 492 0 167 162 168 163 ?1 29 166 491 0 168 169 163 .572280
000000026 675293154728251e-28 0 18 168 489 0 170 165 171 166 ?1 29 169 488 0 171
 172 166 .571348953360769 .001176074893741204 0 18 171 486 0 173 168 174 169 ?1
 29 172 485 0 174 175 169 .280887203795994 -.0998500172982556 0 18 174 483 0 176
 171 177 172 ?1 29 175 482 0 177 178 172 .280880000000025 -.1013499999999304 0 1
8 177 480 0 179 174 180 175 ?1 29 178 479 0 180 181 175 .552780031868725 .148116
9631313406 0 18 180 477 0 182 177 183 178 ?1 29 181 476 0 183 184 178 .551576319
293438 .149011991642672 0 18 183 474 0 185 180 186 181 ?1 29 184 473 0 186 187 1
81 .297159290551286 -.0237487525958009 0 18 186 471 0 188 183 189 184 ?1 29 187
 470 0 189 190 184 .29754055630923 -.0251994891059293 0 18 189 468 0 191 186 192
 187 ?1 29 190 467 0 192 193 187 .495609018077766 .2861400000000705 0 18 192 465
 0 194 189 195 190 ?1 29 193 464 0 195 196 190 .494214670589225 .286692987415116
5 0 18 195 462 0 197 192 198 193 ?1 29 196 461 0 198 199 193 .293180462734455 .0
539709503493907 0 18 198 459 0 200 195 201 196 ?1 29 199 458 0 201 202 196 .2939
242154149795 .0526683253265186 0 18 201 456 0 203 198 204 199 ?1 29 202 455 0 20
4 205 199 .404663068737436 .4046630687375055 0 18 204 453 0 206 201 207 202 ?1 2
9 205 452 0 207 208 202 .403173108812717 .4048363298777865 0 18 207 450 0 209 20
4 210 205 ?1 29 208 449 0 210 211 205 .2692218708858945 .1280126222194864 0 18 2
10 447 0 212 207 213 208 ?1 29 211 446 0 213 214 208 .2702774249729315 .12694688
04264896 0 18 213 444 0 215 210 216 211 ?1 29 214 443 0 216 217 211 .28613999999
99905 .495609018077822 0 18 216 441 0 218 213 219 214 ?1 29 217 440 0 219 220 21
4 .284655965945688 .495390745482955 0 18 219 438 0 221 216 222 217 ?1 29 220 437
 0 222 223 217 .226916253446639 .193330445436187 0 18 222 435 0 224 219 225 220
 ?1 29 223 434 0 225 226 220 .228211674673542 .1925742154150365 0 18 225 432 0 2
27 222 228 223 ?1 29 226 431 0 228 229 223 .1481169631312542 .552780031868765 0
 18 228 429 0 230 225 231 226 ?1 29 229 428 0 231 232 226 .1467399894156866 .552
185100455377 0 18 231 426 0 233 228 234 229 ?1 29 232 425 0 234 235 229 .1691466
68331835 .2454731182900815 0 18 234 423 0 236 231 237 232 ?1 29 235 422 0 237 23
8 232 .1705936758827755 .2450779358669895 0 18 237 420 0 239 234 240 235 ?1 29 2
38 419 0 240 241 235 -2098321516541545e-29 .572280000000049 0 18 240 417 0 242 2
37 243 238 ?1 29 241 416 0 243 244 238 -.001176074893694644 .571348953360792 0 1
8 243 414 0 245 240 246 241 ?1 29 244 413 0 246 247 241 .0998500172983032 .28088
72037960175 0 18 246 411 0 248 243 249 244 ?1 29 247 410 0 249 250 244 .10134999
9999978 .280880000000048 0 18 249 408 0 251 246 252 247 ?1 29 250 407 0 252 253
 247 -.148116963131294 .552780031868747 0 18 252 405 0 254 249 255 250 ?1 29 253
 404 0 255 256 250 -.1490119916426254 .55157631929346 0 18 255 402 0 257 252 258
 253 ?1 29 256 401 0 258 259 253 .0237487525958483 .297159290551309 0 18 258 399
 0 260 255 261 256 ?1 29 259 398 0 261 262 256 .0251994891059767 .29754055630925
25 0 18 261 396 0 263 258 264 259 ?1 29 262 395 0 264 265 259 -.2861400000000235
 .495609018077788 0 18 264 393 0 266 261 267 262 ?1 29 265 392 0 267 268 262 -.2
8669298741507 .494214670589247 0 18 267 390 0 269 264 270 265 ?1 29 268 389 0 27
0 271 265 -.0539709503493432 .293180462734478 0 18 270 387 0 272 267 273 268 ?1
 29 271 386 0 273 274 268 -.052668325326471 .2939242154150025 0 18 273 384 0 275
 270 276 271 ?1 29 274 383 0 276 277 271 -.4046630687374585 .4046630687374575 0
 18 276 381 0 278 273 279 274 ?1 29 277 380 0 279 280 274 -.404836329877739 .403
1731088127385 0 18 279 378 0 281 276 282 277 ?1 29 280 377 0 282 283 277 -.12801
26222194388 .269221870885917 0 18 282 375 0 284 279 285 280 ?1 29 283 374 0 285
 286 280 -.126946880426442 .2702774249729535 0 18 285 372 0 287 282 288 283 ?1 2
9 286 371 0 288 289 283 -.495609018077774 .2861400000000115 0 18 288 369 0 290 2
85 291 286 ?1 29 289 368 0 291 292 286 -.495390745482907 .284655965945709 0 18 2
91 366 0 293 288 294 289 ?1 29 292 365 0 294 295 289 -.1933304454361395 .2269162
53446661 0 18 294 363 0 296 291 297 292 ?1 29 295 362 0 297 298 292 -.1925742154
14989 .2282116746735645 0 18 297 360 0 299 294 300 295 ?1 29 298 359 0 300 301 2
95 -.552780031868717 .1481169631312754 0 18 300 357 0 302 297 303 298 ?1 29 301
 356 0 303 304 298 -.552185100455329 .1467399894157076 0 18 303 354 0 305 300 30
6 301 ?1 29 304 353 0 306 307 301 -.2454731182900335 .169146668331857 0 18 306 3
51 0 308 303 309 304 ?1 29 307 350 0 309 310 304 -.2450779358669415 .17059367588
2798 0 18 309 348 0 311 306 312 307 ?1 29 310 347 0 312 313 307 -.57228 0 0 18 3
12 345 0 314 309 315 310 ?1 29 313 344 0 315 316 310 -.571348953360744 -.0011760
7489367367 0 18 315 342 0 317 312 318 313 ?1 29 316 341 0 318 319 313 -.28088720
3795969 .0998500172983252 0 18 318 339 0 320 315 321 316 ?1 29 319 338 0 321 0 3
16 -.28088 .10135 0 18 321 336 0 322 318 0 319 ?1 17 322 0 323 320 324 321 314 3
25 0 326 -15 255 323 3 0 322 12 327 17 320 0 323 317 322 318 326 328 0 329 -17 3
24 0 323 322 317 312 330 331 0 0 -17 314 0 0 0 0 312 322 325 0 324 +16 325 30 0
 ?314 328 0 332 0 0 1 17 326 0 0 0 0 321 320 328 0 0 +16 328 33 0 ?326 333 325 3
34 0 0 1 16 333 36 0 ?329 331 328 335 0 0 1 30 255 334 34 0 328 332 335 0 +-.280
88 .10135 0 .00480253064605304 .999988467783201 0 134 255 332 31 0 325 0 334 0 +
336 337 134 335 37 0 333 334 338 0 +339 340 30 338 40 0 331 335 341 0 +-.57228 0
 0 .620697759504207 -.784049929115779 0 136 255 339 3 17 3 15 6 FFF1 342 343 344
 135 255 340 2 0 45 255 51 342 -.571348953360744 -.00117607489367367 0 -.5685742
06632381 .00102056975040993 0 -.562961930666925 .00536136016916017 0 -.551650351
619354 .0137098873791138 0 -.537286452319928 .0235824093717083 0 -.5197502975818
43 .0345223324217545 0 -.496010424113969 .0479217761904474 0 -.465759484396113 .
0624721087833653 0 -.428830235983814 .0765103119013078 0 -.391568495173481 .0872
211397753373 0 -.360485996631788 .0934532875464961 0 -.3357499309548835 .0968704
647657341 0 -.3172984565843875 .0986609918615866 0 -.302041728319265 .0995194354
70326 0 -.289915719920981 .0998319188795238 0 -.2839007189821685 .09986448996426
15 0 -.280887203795969 .0998500172983252 0 127 255 15 343 4 1 1 1 1 1 1 1 1 1 1
 1 1 1 4 128 255 15 344 0 .03125 .0625 .125 .1875 .25 .375 .5 .625 .75 .8125 .87
5 .9375 .96875 1 16 331 39 0 ?330 345 333 338 0 0 1 134 341 43 0 345 338 346 0 +
347 348 16 345 42 0 ?302 349 331 341 0 0 1 30 346 46 0 349 341 350 0 +-.24507793
58669415 .170593675882798 0 .263454948727776 .964671700627133 0 136 347 3 4 3 2
 5 FFF1 351 352 353 135 348 2 0 45 12 351 -.2450779358669415 .1705936758827975 0
 -.3381541254952325 .1960130830763165 0 -.4481494595640175 .1933233556433685 0 -
.552780031868717 .1481169631312754 0 127 2 352 4 4 128 2 353 0 1 16 349 45 0 ?35
4 355 345 346 0 0 1 134 350 49 0 355 346 356 0 +357 358 16 355 48 0 ?359 360 349
 350 0 0 1 30 356 52 0 360 350 361 0 +-.552780031868717 .1481169631312754 0 .396
620942258427 -.917982477045198 0 136 357 3 17 3 15 6 FFF1 362 363 364 135 358 2
 0 45 51 362 -.552185100455329 .1467399894157076 0 -.548936367459781 .1481436279
099714 0 -.542391845929314 .150883945575719 0 -.529304941750663 .156020351531596
5 0 -.512875283736255 .161838824794224 0 -.493105198543629 .1678672881817975 0 -
.466706210407057 .1746658255940765 0 -.433720143276443 .180890848295442 0 -.3944
15874163618 .184892718431329 0 -.355651630139814 .185594535520403 0 -.3240152435
177315 .1835695854138535 0 -.2992376082947975 .1804681602448325 0 -.280951430154
0455 .1774220836320815 0 -.2659923807430015 .174302544643208 0 -.254198679403722
 .17146593852389 0 -.24838020463472 .169940602976554 0 -.2454731182900335 .16914
6668331857 0 127 15 363 4 1 1 1 1 1 1 1 1 1 1 1 1 1 4 128 15 364 0 .03125 .0625
 .125 .1875 .25 .375 .5 .625 .75 .8125 .875 .9375 .96875 1 16 360 51 0 ?365 366
 355 356 0 0 1 134 361 55 0 366 356 367 0 +368 369 16 366 54 0 ?290 370 360 361
 0 0 1 30 367 58 0 370 361 371 0 +-.192574215414989 .2282116746735645 0 .5041533
47433515 .863614151268714 0 136 368 3 4 3 2 5 FFF1 372 373 374 135 369 2 0 45 12
 372 -.192574215414989 .228211674673564 0 -.275899884092635 .2768548270921175 0
 -.3828433707267495 .3027256372283705 0 -.495609018077774 .2861400000000115 0 12
7 2 373 4 4 128 2 374 0 1 16 370 57 0 ?375 376 366 367 0 0 1 134 371 61 0 376 36
7 377 0 +378 379 16 376 60 0 ?380 381 370 371 0 0 1 30 377 64 0 381 371 382 0 +-
.495609018077774 .2861400000000115 0 .145515063244838 -.989356036201756 0 136 37
8 3 17 3 15 6 FFF1 383 384 385 135 379 2 0 45 51 383 -.495390745482907 .28465596
5945709 0 -.491889422005036 .285170942646391 0 -.484858653236526 .28612403943880
45 0 -.470888274819438 .287698286563025 0 -.453512512132435 .289066191758319 0 -
.432855795119536 .2897723656660635 0 -.405596739729383 .289506687632396 0 -.3721
23491148909 .2869821754324475 0 -.3331227223222205 .280674991749922 0 -.29549769
4254226 .2713199703792275 0 -.265463387018448 .261175919398343 0 -.2423327371429
495 .2517672488409845 0 -.225458028052896 .244092153606909 0 -.211816091992294 .
2372072234472325 0 -.201158418968278 .231414837818717 0 -.19593298980911 .228435
544736122 0 -.1933304454361395 .226916253446661 0 127 15 384 4 1 1 1 1 1 1 1 1 1
 1 1 1 1 4 128 15 385 0 .03125 .0625 .125 .1875 .25 .375 .5 .625 .75 .8125 .875
 .9375 .96875 1 16 381 63 0 ?386 387 376 377 0 0 1 134 382 67 0 387 377 388 0 +3
89 390 16 387 66 0 ?278 391 381 382 0 0 1 30 388 70 0 391 382 392 0 +-.126946880
426442 .2702774249729535 0 .710494528664534 .703702724691159 0 136 389 3 4 3 2 5
 FFF1 393 394 395 135 390 2 0 45 12 393 -.126946880426442 .2702774249729535 0 -.
19484352153524 .3388293721658275 0 -.2914471388530375 .391497666914031 0 -.40466
30687374585 .4046630687374575 0 127 2 394 4 4 128 2 395 0 1 16 391 69 0 ?396 397
 387 388 0 0 1 134 392 73 0 397 388 398 0 +399 400 16 397 72 0 ?401 402 391 392
 0 0 1 30 398 76 0 402 392 403 0 +-.4046630687374585 .4046630687374575 0 -.11550
74268538838 -.99330661647932 0 136 399 3 17 3 15 6 FFF1 404 405 406 135 400 2 0
 45 51 404 -.404836329877739 .4031731088127385 0 -.40132102532635 .4027643289087
27 0 -.3942831445924775 .40186525285647 0 -.3803813501389345 .399770058809084 0
 -.363243612291652 .3965941754585555 0 -.343107984586069 .391929935301666 0 -.31
68465215194545 .3846181473409925 0 -.285167238062721 .3735161415742025 0 -.24912
7807465891 .3573297282181145 0 -.2152060788382405 .338555397634161 0 -.188820639
3928455 .320983546089452 0 -.1689132904285915 .305908815493676 0 -.1546000339269
48 .294127746694784 0 -.1432048866149536 .2839466219768015 0 -.1344095447101502
 .275593198347302 0 -.1301332655225836 .2713629816295125 0 -.1280126222194388 .2
69221870885917 0 127 15 405 4 1 1 1 1 1 1 1 1 1 1 1 1 1 4 128 15 406 0 .03125 .0
625 .125 .1875 .25 .375 .5 .625 .75 .8125 .875 .9375 .96875 1 16 402 75 0 ?407 4
08 397 398 0 0 1 134 403 79 0 408 398 409 0 +410 411 16 408 78 0 ?266 412 402 40
3 0 0 1 30 409 82 0 412 403 413 0 +-.052668325326471 .2939242154150025 0 .868416
681914754 .495835120349667 0 136 410 3 4 3 2 5 FFF1 414 415 416 135 411 2 0 45 1
2 414 -.052668325326471 .293924215415002 0 -.1005088949793612 .377713255468451 0
 -.1801892661056595 .453589777579988 0 -.2861400000000235 .495609018077788 0 127
 2 415 4 4 128 2 416 0 1 16 412 81 0 ?417 418 408 409 0 0 1 134 413 85 0 418 409
 419 0 +420 421 16 418 84 0 ?422 423 412 413 0 0 1 30 419 88 0 423 413 424 0 +-.
2861400000000235 .495609018077788 0 -.3686582766975505 -.929564992360616 0 136 4
20 3 17 3 15 6 FFF1 425 426 427 135 421 2 0 45 51 425 -.28669298741507 .49421467
0589247 0 -.283403263986025 .492909991755459 0 -.276837891228155 .4902200134057
 0 -.2639520650563645 .484598162198565 0 -.2482202605616435 .477094921504158 0 -
.2299779319158145 .467378127541304 0 -.2065037364816085 .453518515919844 0 -.178
7773089637005 .434595599932288 0 -.1481552442339272 .409633034223542 0 -.1202485
247942886 .382718834029577 0 -.0993100772334802 .3589166745649575 0 -.0839826821
139345 .3392032019086965 0 -.0732063029775138 .3241190199144955 0 -.064834504872
0679 .3113355274626335 0 -.0585008821022995 .300990337847815 0 -.055465174246081
6 .295797479773385 0 -.0539709503493432 .293180462734478 0 127 15 426 4 1 1 1 1
 1 1 1 1 1 1 1 1 1 4 128 15 427 0 .03125 .0625 .125 .1875 .25 .375 .5 .625 .75 .
8125 .875 .9375 .96875 1 16 423 87 0 ?428 429 418 419 0 0 1 134 424 91 0 429 419
 430 0 +431 432 16 429 90 0 ?254 433 423 424 0 0 1 30 430 94 0 433 424 434 0 +.0
251994891059767 .2975405563092525 0 .96715767341892 .254177171962594 0 136 431 3
 4 3 2 5 FFF1 435 436 437 135 432 2 0 45 12 435 .0251994891059767 .2975405563092
525 0 .000675246670559515 .3908566046115695 0 -.0566517926500215 .48477049449641
9 0 -.148116963131294 .552780031868747 0 127 2 436 4 4 128 2 437 0 1 16 433 93 0
 ?438 439 429 430 0 0 1 134 434 97 0 439 430 440 0 +441 442 16 439 96 0 ?443 444
 433 434 0 0 1 30 440 100 0 444 434 445 0 +-.148116963131294 .552780031868747 0
 -.596685674220897 -.802475050191315 0 136 441 3 17 3 15 6 FFF1 446 447 448 135
 442 2 0 45 51 446 -.1490119916426254 .55157631929346 0 -.1461720385510894 .5494
64653236335 0 -.140526593072879 .54516709016821 0 -.129534882941614 .53640170167
0544 0 -.116281108277734 .52508243708589 0 -.101175263241998 .51097527276788 0 -
.0820880630660998 .491512347113544 0 -.0602040017022755 .466058086358176 0 -.037
08614594553815 .434020525897233 0 -.01709623250568835 .4008006143586565 0 -.0030
31697428314775 .3723902248067125 0 .0066712071988434 .349381450673437 0 .0131763
1654070306 .3320221175590425 0 .0179542412337649 .3175074312581745 0 .0213945189
4354485 .305875483234053 0 .02298277699475735 .300073868499151 0 .02374875259584
83 .297159290551309 0 127 15 447 4 1 1 1 1 1 1 1 1 1 1 1 1 1 4 128 15 448 0 .031
25 .0625 .125 .1875 .25 .375 .5 .625 .75 .8125 .875 .9375 .96875 1 16 444 99 0 ?
449 450 439 440 0 0 1 134 445 103 0 450 440 451 0 +452 453 16 450 102 0 ?242 454
 444 445 0 0 1 30 451 106 0 454 445 455 0 +.101349999999978 .280880000000048 0 .
999988467783201 -.0048025306460533 0 136 452 3 4 3 2 5 FFF1 456 457 458 135 453
 2 0 45 12 456 .101349999999978 .280880000000048 0 .1018133713757806 .3773637220
714915 0 .0707464068532027 .482914903334043 0 -2098321516541545e-29 .57228000000
0049 0 127 2 457 4 4 128 2 458 0 1 16 454 105 0 ?459 460 450 451 0 0 1 134 455 1
09 0 460 451 461 0 +462 463 16 460 108 0 ?464 465 454 455 0 0 1 30 461 112 0 465
 455 466 0 +-2098321516541545e-29 .572280000000049 0 -.784049929115761 -.6206977
5950423 0 136 462 3 17 3 15 6 FFF1 467 468 469 135 463 2 0 45 51 467 -.001176074
893694644 .571348953360792 0 .00102056975038889 .56857420663243 0 .0053613601691
3913 .562961930666973 0 .01370988737909272 .551650351619403 0 .0235824093716872
 .537286452319976 0 .0345223324217333 .519750297581891 0 .0479217761904262 .4960
10424114017 0 .062472108783344 .465759484396161 0 .0765103119012863 .42883023598
38625 0 .0872211397753157 .391568495173529 0 .0934532875464744 .3604859966318365
 0 .0968704647657123 .335749930954932 0 .0986609918615647 .3172984565844355 0 .0
995194354703041 .302041728319313 0 .0998319188795018 .2899157199210295 0 .099864
4899642395 .2839007189822165 0 .0998500172983032 .2808872037960175 0 127 15 468
 4 1 1 1 1 1 1 1 1 1 1 1 1 1 4 128 15 469 0 .03125 .0625 .125 .1875 .25 .375 .5
 .625 .75 .8125 .875 .9375 .96875 1 16 465 111 0 ?470 471 460 461 0 0 1 134 466
 115 0 471 461 472 0 +473 474 16 471 114 0 ?230 475 465 466 0 0 1 30 472 118 0 4
75 466 476 0 +.1705936758827755 .2450779358669895 0 .964671700627134 -.263454948
7277715 0 136 473 3 4 3 2 5 FFF1 477 478 479 135 474 2 0 45 12 477 .170593675882
7755 .2450779358669895 0 .1960130830762945 .3381541254952805 0 .193323355643347
 .448149459564065 0 .1481169631312542 .552780031868765 0 127 2 478 4 4 128 2 479
 0 1 16 475 117 0 ?480 481 471 472 0 0 1 134 476 121 0 481 472 482 0 +483 484 16
 481 120 0 ?485 486 475 476 0 0 1 30 482 124 0 486 476 487 0 +.1481169631312542
 .552780031868765 0 -.9179824770452 -.3966209422584225 0 136 483 3 17 3 15 6 FFF
1 488 489 490 135 484 2 0 45 51 488 .1467399894156866 .552185100455377 0 .148143
6279099502 .548936367459829 0 .150883945575698 .542391845929362 0 .1560203515315
755 .529304941750711 0 .161838824794203 .512875283736303 0 .167867288181776 .493
105198543677 0 .174665825594055 .466706210407105 0 .1808908482954205 .4337201432
76491 0 .1848927184313075 .394415874163666 0 .1855945355203815 .355651630139862
 0 .183569585413832 .3240152435177795 0 .1804681602448105 .2992376082948455 0 .1
774220836320595 .2809514301540935 0 .174302544643186 .265992380743049 0 .1714659
38523868 .2541986794037695 0 .169940602976532 .248380204634768 0 .16914666833183
5 .2454731182900815 0 127 15 489 4 1 1 1 1 1 1 1 1 1 1 1 1 1 4 128 15 490 0 .031
25 .0625 .125 .1875 .25 .375 .5 .625 .75 .8125 .875 .9375 .96875 1 16 486 123 0
 ?491 492 481 482 0 0 1 134 487 127 0 492 482 493 0 +494 495 16 492 126 0 ?218 4
96 486 487 0 0 1 30 493 130 0 496 487 497 0 +.228211674673542 .1925742154150365
 0 .863614151268698 -.504153347433543 0 136 494 3 4 3 2 5 FFF1 498 499 500 135 4
95 2 0 45 12 498 .2282116746735415 .1925742154150365 0 .2768548270920955 .275899
884092683 0 .302725637228349 .3828433707267975 0 .2861399999999905 .495609018077
822 0 127 2 499 4 4 128 2 500 0 1 16 496 129 0 ?501 502 492 493 0 0 1 134 497 13
3 0 502 493 503 0 +504 505 16 502 132 0 ?506 507 496 497 0 0 1 30 503 136 0 507
 497 508 0 +.2861399999999905 .495609018077822 0 -.989356036201759 -.14551506324
482 0 136 504 3 17 3 15 6 FFF1 509 510 511 135 505 2 0 45 51 509 .28465596594568
8 .495390745482955 0 .28517094264637 .491889422005083 0 .2861240394387835 .48485
8653236574 0 .2876982865630035 .470888274819485 0 .2890661917582975 .45351251213
2483 0 .289772365666042 .4328557951195835 0 .289506687632374 .4055967397294305 0
 .2869821754324255 .3721234911489565 0 .2806749917499 .333122722322268 0 .271319
9703792055 .2954976942542735 0 .261175919398321 .2654633870184955 0 .25176724884
0962 .242332737142997 0 .2440921536068865 .2254580280529435 0 .23720722344721 .2
118160919923415 0 .2314148378186945 .2011584189683255 0 .2284355447361 .19593298
9809158 0 .226916253446639 .193330445436187 0 127 15 510 4 1 1 1 1 1 1 1 1 1 1 1
 1 1 4 128 15 511 0 .03125 .0625 .125 .1875 .25 .375 .5 .625 .75 .8125 .875 .937
5 .96875 1 16 507 135 0 ?512 513 502 503 0 0 1 134 508 139 0 513 503 514 0 +515
 516 16 513 138 0 ?206 517 507 508 0 0 1 30 514 142 0 517 508 518 0 +.2702774249
729315 .1269468804264896 0 .703702724691196 -.710494528664497 0 136 515 3 4 3 2
 5 FFF1 519 520 521 135 516 2 0 45 12 519 .2702774249729315 .1269468804264896 0
 .338829372165805 .1948435215352875 0 .391497666914009 .291447138853085 0 .40466
3068737436 .4046630687375055 0 127 2 520 4 4 128 2 521 0 1 16 517 141 0 ?522 523
 513 514 0 0 1 134 518 145 0 523 514 524 0 +525 526 16 523 144 0 ?527 528 517 51
8 0 0 1 30 524 148 0 528 518 529 0 +.404663068737436 .4046630687375055 0 -.99330
661647932 .1155074268538796 0 136 525 3 17 3 15 6 FFF1 530 531 532 135 526 2 0 4
5 51 530 .403173108812717 .4048363298777865 0 .4027643289087055 .401321025326397
5 0 .4018652528564485 .394283144592525 0 .3997700588090625 .3803813501389815 0 .
396594175458534 .3632436122916995 0 .391929935301644 .3431079845861165 0 .384618
1473409705 .316846521519502 0 .373516141574181 .2851672380627685 0 .357329728218
093 .249127807465938 0 .3385553976341385 .215206078838288 0 .3209835460894295 .1
88820639392893 0 .305908815493654 .168913290428639 0 .2941277466947615 .15460003
39269955 0 .283946621976779 .1432048866150012 0 .2755931983472795 .1344095447101
976 0 .2713629816294905 .1301332655226312 0 .2692218708858945 .1280126222194864
 0 127 15 531 4 1 1 1 1 1 1 1 1 1 1 1 1 1 4 128 15 532 0 .03125 .0625 .125 .1875
 .25 .375 .5 .625 .75 .8125 .875 .9375 .96875 1 16 528 147 0 ?533 534 523 524 0
 0 1 134 529 151 0 534 524 535 0 +536 537 16 534 150 0 ?194 538 528 529 0 0 1 30
 535 154 0 538 529 539 0 +.2939242154149795 .0526683253265186 0 .495835120349612
 -.868416681914786 0 136 536 3 4 3 2 5 FFF1 540 541 542 135 537 2 0 45 12 540 .2
93924215414979 .0526683253265185 0 .3777132554684285 .1005088949794084 0 .453589
777579965 .1801892661057065 0 .495609018077766 .2861400000000705 0 127 2 541 4 4
 128 2 542 0 1 16 538 153 0 ?543 544 534 535 0 0 1 134 539 157 0 544 535 545 0 +
546 547 16 544 156 0 ?548 549 538 539 0 0 1 30 545 160 0 549 539 550 0 +.4956090
18077766 .2861400000000705 0 -.929564992360616 .3686582766975505 0 136 546 3 17
 3 15 6 FFF1 551 552 553 135 547 2 0 45 51 551 .494214670589225 .286692987415116
5 0 .492909991755437 .283403263986072 0 .490220013405678 .276837891228202 0 .484
598162198543 .263952065056411 0 .477094921504136 .2482202605616905 0 .4673781275
41282 .229977931915861 0 .453518515919822 .2065037364816555 0 .4345955999322655
 .1787773089637475 0 .4096330342235195 .1481552442339742 0 .382718834029554 .120
248524794336 0 .3589166745649345 .0993100772335275 0 .339203201908674 .083982682
1139819 0 .324119019914473 .0732063029775612 0 .3113355274626105 .06483450487211
53 0 .300990337847792 .058500882102347 0 .295797479773362 .055465174246129 0 .29
3180462734455 .0539709503493907 0 127 15 552 4 1 1 1 1 1 1 1 1 1 1 1 1 1 4 128 1
5 553 0 .03125 .0625 .125 .1875 .25 .375 .5 .625 .75 .8125 .875 .9375 .96875 1 1
6 549 159 0 ?554 555 544 545 0 0 1 134 550 163 0 555 545 556 0 +557 558 16 555 1
62 0 ?182 559 549 550 0 0 1 30 556 166 0 559 550 560 0 +.29754055630923 -.025199
4891059293 0 .2541771719626285 -.967157673418911 0 136 557 3 4 3 2 5 FFF1 561 56
2 563 135 558 2 0 45 12 561 .29754055630923 -.02519948910592935 0 .3908566046115
475 -.000675246670512539 0 .484770494496397 .0566517926500682 0 .552780031868725
 .1481169631313406 0 127 2 562 4 4 128 2 563 0 1 16 559 165 0 ?564 565 555 556 0
 0 1 134 560 169 0 565 556 566 0 +567 568 16 565 168 0 ?569 570 559 560 0 0 1 30
 566 172 0 570 560 571 0 +.552780031868725 .1481169631313406 0 -.802475050191333
 .596685674220874 0 136 567 3 17 3 15 6 FFF1 572 573 574 135 568 2 0 45 51 572 .
551576319293438 .149011991642672 0 .549464653236313 .146172038551136 0 .54516709
0168188 .1405265930729256 0 .536401701670522 .1295348829416606 0 .52508243708586
7 .1162811082777806 0 .510975272767858 .1011752632420448 0 .491512347113522 .082
0880630661466 0 .466058086358154 .0602040017023223 0 .4340205258972105 .03708614
59455852 0 .400800614358634 .0170962325057354 0 .37239022480669 .003031697428362
015 0 .3493814506734145 -.00667120719879613 0 .33202211755902 -.0131763165406557
4 0 .317507431258152 -.01795424123371755 0 .3058754832340305 -.0213945189434974
 0 .300073868499128 -.02298277699471 0 .297159290551286 -.0237487525958009 0 127
 15 573 4 1 1 1 1 1 1 1 1 1 1 1 1 1 4 128 15 574 0 .03125 .0625 .125 .1875 .25 .
375 .5 .625 .75 .8125 .875 .9375 .96875 1 16 570 171 0 ?575 576 565 566 0 0 1 13
4 571 175 0 576 566 577 0 +578 579 16 576 174 0 ?170 580 570 571 0 0 1 30 577 17
8 0 580 571 581 0 +.280880000000025 -.1013499999999304 0 -.00480253064605304 -.9
99988467783201 0 136 578 3 4 3 2 5 FFF1 582 583 584 135 579 2 0 45 12 582 .28088
00000000245 -.1013499999999304 0 .3773637220714685 -.1018133713757334 0 .4829149
0333402 -.0707464068531558 0 .572280000000026 675293154728251e-28 0 127 2 583 4
 4 128 2 584 0 1 16 580 177 0 ?585 586 576 577 0 0 1 134 581 181 0 586 577 587 0
 +588 589 16 586 180 0 ?590 591 580 581 0 0 1 30 587 184 0 591 581 592 0 +.57228
0000000026 675293154728251e-28 0 -.62069775950418 .7840499291158 0 136 588 3 17
 3 15 6 FFF1 593 594 595 135 589 2 0 45 51 593 .571348953360769 .001176074893741
204 0 .568574206632407 -.001020569750342374 0 .56296193066695 -.0053613601690925
7 0 .55165035161938 -.01370988737904612 0 .537286452319953 -.02358240937164055 0
 .519750297581868 -.0345223324216866 0 .496010424113994 -.0479217761903793 0 .46
5759484396138 -.0624721087832971 0 .428830235983839 -.0765103119012393 0 .391568
495173506 -.0872211397752685 0 .360485996631813 -.0934532875464271 0 .3357499309
549085 -.0968704647656649 0 .3172984565844125 -.0986609918615172 0 .302041728319
2895 -.0995194354702566 0 .289915719921006 -.0998319188794543 0 .283900718982193
5 -.0998644899641919 0 .280887203795994 -.0998500172982556 0 127 15 594 4 1 1 1
 1 1 1 1 1 1 1 1 1 1 4 128 15 595 0 .03125 .0625 .125 .1875 .25 .375 .5 .625 .75
 .8125 .875 .9375 .96875 1 16 591 183 0 ?596 597 586 587 0 0 1 134 592 187 0 597
 587 598 0 +599 600 16 597 186 0 ?158 601 591 592 0 0 1 30 598 190 0 601 592 602
 0 +.2450779358669665 -.170593675882728 0 -.2634549487277715 -.964671700627134 0
 136 599 3 4 3 2 5 FFF1 603 604 605 135 600 2 0 45 12 603 .245077935866966 -.170
593675882728 0 .338154125495257 -.1960130830762475 0 .4481494595640415 -.1933233
556433 0 .552780031868741 -.1481169631312076 0 127 2 604 4 4 128 2 605 0 1 16 60
1 189 0 ?606 607 597 598 0 0 1 134 602 193 0 607 598 608 0 +609 610 16 607 192 0
 ?611 612 601 602 0 0 1 30 608 196 0 612 602 613 0 +.552780031868741 -.148116963
1312076 0 -.396620942258478 .917982477045176 0 136 609 3 17 3 15 6 FFF1 614 615
 616 135 610 2 0 45 51 614 .552185100455354 -.14673998941564 0 .548936367459806
 -.1481436279099036 0 .542391845929339 -.1508839455756515 0 .529304941750688 -.1
560203515315285 0 .512875283736279 -.161838824794156 0 .493105198543654 -.167867
2881817295 0 .466706210407082 -.174665825594008 0 .4337201432764675 -.1808908482
953735 0 .3944158741636425 -.1848927184312605 0 .3556516301398385 -.185594535520
334 0 .324015243517756 -.1835695854137845 0 .299237608294822 -.180468160244763 0
 .28095143015407 -.177422083632012 0 .2659923807430255 -.1743025446431385 0 .254
1986794037465 -.1714659385238205 0 .2483802046347445 -.1699406029764845 0 .24547
3118290058 -.169146668331787 0 127 15 615 4 1 1 1 1 1 1 1 1 1 1 1 1 1 4 128 15 6
16 0 .03125 .0625 .125 .1875 .25 .375 .5 .625 .75 .8125 .875 .9375 .96875 1 16 6
12 195 0 ?617 618 607 608 0 0 1 134 613 199 0 618 608 619 0 +620 621 16 618 198
 0 ?146 622 612 613 0 0 1 30 619 202 0 622 613 623 0 +.192574215415013 -.2282116
74673494 0 -.504153347433551 -.863614151268693 0 136 620 3 4 3 2 5 FFF1 624 625
 626 135 621 2 0 45 12 624 .1925742154150125 -.228211674673494 0 .27589988409265
85 -.276854827092048 0 .382843370726773 -.3027256372283015 0 .495609018077798 -.
2861399999999435 0 127 2 625 4 4 128 2 626 0 1 16 622 201 0 ?627 628 618 619 0 0
 1 134 623 205 0 628 619 629 0 +630 631 16 628 204 0 ?632 633 622 623 0 0 1 30 6
29 208 0 633 623 634 0 +.495609018077798 -.2861399999999435 0 -.1455150632447838
 .989356036201764 0 136 630 3 17 3 15 6 FFF1 635 636 637 135 631 2 0 45 51 635 .
495390745482931 -.284655965945641 0 .491889422005059 -.285170942646323 0 .484858
65323655 -.2861240394387365 0 .470888274819461 -.287698286562957 0 .453512512132
459 -.2890661917582505 0 .4328557951195595 -.289772365665995 0 .4055967397294065
 -.289506687632327 0 .3721234911489325 -.2869821754323785 0 .333122722322244 -.2
80674991749853 0 .2954976942542495 -.271319970379158 0 .2654633870184715 -.26117
59193982735 0 .242332737142973 -.2517672488409145 0 .2254580280529195 -.24409215
3606839 0 .2118160919923175 -.2372072234471625 0 .2011584189683015 -.23141483781
8647 0 .195932989809134 -.228435544736052 0 .193330445436163 -.226916253446591 0
 127 15 636 4 1 1 1 1 1 1 1 1 1 1 1 1 1 4 128 15 637 0 .03125 .0625 .125 .1875 .
25 .375 .5 .625 .75 .8125 .875 .9375 .96875 1 16 633 207 0 ?638 639 628 629 0 0
 1 134 634 211 0 639 629 640 0 +641 642 16 639 210 0 ?134 643 633 634 0 0 1 30 6
40 214 0 643 634 644 0 +.1269468804264656 -.270277424972883 0 -.710494528664498
 -.703702724691196 0 136 641 3 4 3 2 5 FFF1 645 646 647 135 642 2 0 45 12 645 .1
269468804264654 -.270277424972883 0 .194843521535263 -.338829372165757 0 .291447
1388530605 -.3914976669139615 0 .404663068737481 -.404663068737389 0 127 2 646 4
 4 128 2 647 0 1 16 643 213 0 ?648 649 639 640 0 0 1 134 644 217 0 649 640 650 0
 +651 652 16 649 216 0 ?653 654 643 644 0 0 1 30 650 220 0 654 644 655 0 +.40466
3068737481 -.404663068737389 0 .1155074268538838 .99330661647932 0 136 651 3 17
 3 15 6 FFF1 656 657 658 135 652 2 0 45 51 656 .404836329877762 -.40317310881267
 0 .4013210253263725 -.402764328908658 0 .3942831445925005 -.4018652528564015 0
 .380381350138957 -.399770058809015 0 .363243612291675 -.3965941754584865 0 .343
107984586092 -.391929935301597 0 .3168465215194775 -.384618147340923 0 .28516723
8062744 -.373516141574133 0 .2491278074659135 -.357329728218045 0 .2152060788382
635 -.338555397634091 0 .188820639392869 -.3209835460893815 0 .1689132904286145
 -.305908815493606 0 .1546000339269715 -.2941277466947135 0 .143204886614977 -.2
83946621976731 0 .1344095447101736 -.2755931983472315 0 .1301332655226072 -.2713
62981629442 0 .1280126222194622 -.2692218708858465 0 127 15 657 4 1 1 1 1 1 1 1
 1 1 1 1 1 1 4 128 15 658 0 .03125 .0625 .125 .1875 .25 .375 .5 .625 .75 .8125 .
875 .9375 .96875 1 16 654 219 0 ?659 660 649 650 0 0 1 134 655 223 0 660 650 661
 0 +662 663 16 660 222 0 ?122 664 654 655 0 0 1 30 661 226 0 664 655 665 0 +.052
6683253264945 -.293924215414931 0 -.868416681914756 -.495835120349663 0 136 662
 3 4 3 2 5 FFF1 666 667 668 135 663 2 0 45 12 666 .0526683253264942 -.2939242154
14931 0 .100508894979384 -.3777132554683805 0 .180189266105682 -.453589777579917
 0 .2861400000000455 -.495609018077719 0 127 2 667 4 4 128 2 668 0 1 16 664 225
 0 ?669 670 660 661 0 0 1 134 665 229 0 670 661 671 0 +672 673 16 670 228 0 ?674
 675 664 665 0 0 1 30 671 232 0 675 665 676 0 +.2861400000000455 -.4956090180777
19 0 .3686582766975955 .929564992360598 0 136 672 3 17 3 15 6 FFF1 677 678 679 1
35 673 2 0 45 51 677 .286692987415092 -.494214670589178 0 .283403263986047 -.492
90999175539 0 .276837891228177 -.490220013405631 0 .2639520650563865 -.484598162
198496 0 .248220260561666 -.477094921504088 0 .2299779319158365 -.46737812754123
4 0 .206503736481631 -.453518515919774 0 .178777308963723 -.4345955999322175 0 .
14815524423395 -.4096330342234715 0 .1202485247943114 -.382718834029506 0 .09931
00772335033 -.3589166745648865 0 .0839826821139577 -.339203201908626 0 .07320630
29775371 -.3241190199144245 0 .0648345048720912 -.311335527462562 0 .05850088210
2323 -.300990337847744 0 .055465174246105 -.2957974797733135 0 .0539709503493667
 -.2931804627344065 0 127 15 678 4 1 1 1 1 1 1 1 1 1 1 1 1 1 4 128 15 679 0 .031
25 .0625 .125 .1875 .25 .375 .5 .625 .75 .8125 .875 .9375 .96875 1 16 675 231 0
 ?680 681 670 671 0 0 1 134 676 235 0 681 671 682 0 +683 684 16 681 234 0 ?110 6
85 675 676 0 0 1 30 682 238 0 685 676 686 0 +-.0251994891059534 -.29754055630918
1 0 -.96715767341892 -.254177171962594 0 136 683 3 4 3 2 5 FFF1 687 688 689 135
 684 2 0 45 12 687 -.0251994891059535 -.297540556309181 0 -.000675246670536978 -
.3908566046114985 0 .0566517926500436 -.484770494496348 0 .1481169631313156 -.55
2780031868677 0 127 2 688 4 4 128 2 689 0 1 16 685 237 0 ?690 691 681 682 0 0 1
 134 686 241 0 691 682 692 0 +693 694 16 691 240 0 ?695 696 685 686 0 0 1 30 692
 244 0 696 686 697 0 +.1481169631313156 -.552780031868677 0 .596685674220921 .80
2475050191297 0 136 693 3 17 3 15 6 FFF1 698 699 700 135 694 2 0 45 51 698 .1490
11991642647 -.55157631929339 0 .146172038551111 -.549464653236265 0 .14052659307
29008 -.54516709016814 0 .129534882941636 -.536401701670474 0 .1162811082777556
 -.525082437085819 0 .10117526324202 -.510975272767809 0 .0820880630661219 -.491
512347113473 0 .0602040017022977 -.466058086358105 0 .0370861459455606 -.4340205
25897162 0 .017096232505711 -.4008006143585855 0 .003031697428337645 -.372390224
806641 0 -.00667120719882031 -.3493814506733655 0 -.01317631654067986 -.33202211
7558971 0 -.0179542412337417 -.317507431258103 0 -.0213945189435215 -.3058754832
339815 0 -.02298277699473405 -.300073868499079 0 -.023748752595825 -.29715929055
12375 0 127 15 699 4 1 1 1 1 1 1 1 1 1 1 1 1 1 4 128 15 700 0 .03125 .0625 .125
 .1875 .25 .375 .5 .625 .75 .8125 .875 .9375 .96875 1 16 696 243 0 ?701 702 691
 692 0 0 1 134 697 247 0 702 692 703 0 +704 705 16 702 246 0 ?98 706 696 697 0 0
 1 30 703 250 0 706 697 707 0 +-.1013499999999544 -.280879999999976 0 -.99998846
7783201 .00480253064605295 0 136 704 3 4 3 2 5 FFF1 708 709 710 135 705 2 0 45 1
2 708 -.1013499999999544 -.280879999999976 0 -.101813371375758 -.377363722071419
5 0 -.0707464068531806 -.482914903333971 0 425215418431435e-28 -.572279999999977
 0 127 2 709 4 4 128 2 710 0 1 16 706 249 0 ?711 712 702 703 0 0 1 134 707 253 0
 712 703 713 0 +714 715 16 712 252 0 ?716 717 706 707 0 0 1 30 713 256 0 717 707
 718 0 +425215418431435e-28 -.572279999999977 0 .784049929115797 .62069775950418
4 0 136 714 3 17 3 15 6 FFF1 719 720 721 135 715 2 0 45 51 719 .0011760748937161
84 -.571348953360721 0 -.00102056975036735 -.568574206632358 0 -.005361360169117
59 -.562961930666902 0 -.0137098873790711 -.551650351619331 0 -.0235824093716654
5 -.537286452319904 0 -.03452233242171145 -.519750297581819 0 -.0479217761904041
 -.496010424113946 0 -.0624721087833217 -.465759484396089 0 -.0765103119012638 -
.42883023598379 0 -.0872211397752929 -.391568495173457 0 -.0934532875464513 -.36
0485996631764 0 -.0968704647656891 -.3357499309548595 0 -.0986609918615414 -.317
2984565843635 0 -.0995194354702806 -.302041728319241 0 -.0998319188794783 -.2899
15719920957 0 -.0998644899642159 -.2839007189821445 0 -.0998500172982796 -.28088
7203795945 0 127 15 720 4 1 1 1 1 1 1 1 1 1 1 1 1 1 4 128 15 721 0 .03125 .0625
 .125 .1875 .25 .375 .5 .625 .75 .8125 .875 .9375 .96875 1 16 717 255 0 ?722 723
 712 713 0 0 1 134 718 259 0 723 713 724 0 +725 726 16 723 258 0 ?86 727 717 718
 0 0 1 30 724 262 0 727 718 728 0 +-.170593675882752 -.245077935866917 0 -.96467
1700627134 .2634549487277715 0 136 725 3 4 3 2 5 FFF1 729 730 731 135 726 2 0 45
 12 729 -.170593675882752 -.245077935866917 0 -.1960130830762715 -.3381541254952
075 0 -.1933233556433245 -.448149459563992 0 -.1481169631312326 -.55278003186869
2 0 127 2 730 4 4 128 2 731 0 1 16 727 261 0 ?732 733 723 724 0 0 1 134 728 265
 0 733 724 734 0 +735 736 16 733 264 0 ?737 738 727 728 0 0 1 30 734 268 0 738 7
28 739 0 +-.1481169631312326 -.552780031868692 0 .9179824770452 .396620942258422
5 0 136 735 3 17 3 15 6 FFF1 740 741 742 135 736 2 0 45 51 740 -.146739989415665
 -.552185100455305 0 -.1481436279099286 -.548936367459757 0 -.1508839455756765 -
.54239184592929 0 -.1560203515315535 -.529304941750639 0 -.161838824794181 -.512
87528373623 0 -.167867288181754 -.493105198543604 0 -.1746658255940325 -.4667062
10407032 0 -.180890848295398 -.433720143276418 0 -.184892718431285 -.39441587416
3593 0 -.1855945355203585 -.355651630139789 0 -.1835695854138085 -.3240152435177
065 0 -.1804681602447875 -.2992376082947725 0 -.177422083632036 -.28095143015402
1 0 -.1743025446431625 -.2659923807429765 0 -.1714659385238445 -.254198679403697
 0 -.1699406029765085 -.248380204634695 0 -.169146668331811 -.2454731182900085 0
 127 15 741 4 1 1 1 1 1 1 1 1 1 1 1 1 1 4 128 15 742 0 .03125 .0625 .125 .1875 .
25 .375 .5 .625 .75 .8125 .875 .9375 .96875 1 16 738 267 0 ?743 744 733 734 0 0
 1 134 739 271 0 744 734 745 0 +746 747 16 744 270 0 ?74 748 738 739 0 0 1 30 74
5 274 0 748 739 749 0 +-.228211674673518 -.1925742154149635 0 -.863614151268698
 .504153347433543 0 136 746 3 4 3 2 5 FFF1 750 751 752 135 747 2 0 45 12 750 -.2
282116746735175 -.1925742154149635 0 -.276854827092072 -.2758998840926095 0 -.30
2725637228326 -.3828433707267235 0 -.2861399999999685 -.495609018077748 0 127 2
 751 4 4 128 2 752 0 1 16 748 273 0 ?753 754 744 745 0 0 1 134 749 277 0 754 745
 755 0 +756 757 16 754 276 0 ?758 759 748 749 0 0 1 30 755 280 0 759 749 760 0 +
-.2861399999999685 -.495609018077748 0 .989356036201759 .14551506324482 0 136 75
6 3 17 3 15 6 FFF1 761 762 763 135 757 2 0 45 51 761 -.284655965945666 -.4953907
45482881 0 -.285170942646348 -.49188942200501 0 -.2861240394387615 -.48485865323
65 0 -.2876982865629815 -.470888274819412 0 -.2890661917582755 -.453512512132409
 0 -.2897723656660195 -.43285579511951 0 -.2895066876323515 -.405596739729357 0
 -.286982175432403 -.372123491148883 0 -.280674991749877 -.3331227223221945 0 -.
271319970379182 -.2954976942542 0 -.2611759193982975 -.265463387018422 0 -.25176
72488409385 -.2423327371429235 0 -.2440921536068625 -.2254580280528705 0 -.23720
7223447186 -.2118160919922685 0 -.2314148378186705 -.2011584189682525 0 -.228435
544736076 -.1959329898090845 0 -.2269162534466145 -.193330445436114 0 127 15 762
 4 1 1 1 1 1 1 1 1 1 1 1 1 1 4 128 15 763 0 .03125 .0625 .125 .1875 .25 .375 .5
 .625 .75 .8125 .875 .9375 .96875 1 16 759 279 0 ?764 765 754 755 0 0 1 134 760
 283 0 765 755 766 0 +767 768 16 765 282 0 ?62 769 759 760 0 0 1 30 766 286 0 76
9 760 770 0 +-.2702774249729065 -.1269468804264162 0 -.70370272469114 .710494528
664553 0 136 767 3 4 3 2 5 FFF1 771 772 773 135 768 2 0 45 12 771 -.270277424972
9065 -.126946880426416 0 -.338829372165781 -.1948435215352135 0 -.39149766691398
55 -.2914471388530105 0 -.4046630687374135 -.404663068737431 0 127 2 772 4 4 128
 2 773 0 1 16 769 285 0 ?774 775 765 766 0 0 1 134 770 289 0 775 766 776 0 +777
 778 16 775 288 0 ?779 780 769 770 0 0 1 30 776 292 0 780 770 781 0 +-.404663068
7374135 -.404663068737431 0 .99330661647932 -.1155074268538816 0 136 777 3 17 3
 15 6 FFF1 782 783 784 135 778 2 0 45 51 782 -.4031731088126945 -.40483632987771
2 0 -.4027643289086825 -.401321025326323 0 -.4018652528564255 -.3942831445924505
 0 -.3997700588090395 -.380381350138907 0 -.396594175458511 -.363243612291625 0
 -.391929935301621 -.343107984586042 0 -.384618147340947 -.3168465215194275 0 -.
3735161415741575 -.285167238062694 0 -.357329728218069 -.249127807465864 0 -.338
5553976341145 -.215206078838214 0 -.3209835460894055 -.188820639392819 0 -.30590
88154936295 -.168913290428565 0 -.294127746694737 -.154600033926922 0 -.28394662
19767545 -.1432048866149276 0 -.275593198347255 -.1344095447101242 0 -.271362981
6294655 -.1301332655225578 0 -.26922187088587 -.128012622219413 0 127 15 783 4 1
 1 1 1 1 1 1 1 1 1 1 1 1 4 128 15 784 0 .03125 .0625 .125 .1875 .25 .375 .5 .625
 .75 .8125 .875 .9375 .96875 1 16 780 291 0 ?785 786 775 776 0 0 1 134 781 295 0
 786 776 787 0 +788 789 16 786 294 0 ?50 790 780 781 0 0 1 30 787 298 0 790 781
 791 0 +-.293924215414954 -.0526683253264451 0 -.495835120349639 .86841668191477
 0 136 788 3 4 3 2 5 FFF1 792 793 794 135 789 2 0 45 12 792 -.293924215414954 -.
052668325326445 0 -.3777132554684035 -.1005088949793342 0 -.453589777579941 -.18
0189266105632 0 -.495609018077743 -.2861399999999955 0 127 2 793 4 4 128 2 794 0
 1 16 790 297 0 ?795 796 786 787 0 0 1 134 791 301 0 796 787 797 0 +798 799 16 7
96 300 0 ?800 801 790 791 0 0 1 30 797 304 0 801 791 802 0 +-.495609018077743 -.
2861399999999955 0 .929564992360614 -.368658276697557 0 136 798 3 17 3 15 6 FFF1
 803 804 805 135 799 2 0 45 51 803 -.494214670589202 -.2866929874150415 0 -.4929
09991755414 -.283403263985997 0 -.490220013405655 -.276837891228127 0 -.48459816
2198519 -.2639520650563365 0 -.477094921504112 -.2482202605616155 0 -.4673781275
41258 -.2299779319157865 0 -.453518515919798 -.2065037364815805 0 -.434595599932
241 -.178777308963673 0 -.409633034223495 -.1481552442339 0 -.3827188340295295 -
.1202485247942616 0 -.35891667456491 -.0993100772334535 0 -.339203201908649 -.08
3982682113908 0 -.324119019914448 -.0732063029774875 0 -.3113355274625855 -.0648
345048720416 0 -.300990337847767 -.0585008821022734 0 -.2957974797733365 -.05546
51742460555 0 -.2931804627344295 -.0539709503493172 0 127 15 804 4 1 1 1 1 1 1 1
 1 1 1 1 1 1 4 128 15 805 0 .03125 .0625 .125 .1875 .25 .375 .5 .625 .75 .8125 .
875 .9375 .96875 1 16 801 303 0 ?806 807 796 797 0 0 1 134 802 307 0 807 797 808
 0 +809 810 16 807 306 0 ?38 811 801 802 0 0 1 30 808 310 0 811 802 812 0 +-.297
540556309204 .0251994891060029 0 -.254177171962594 .96715767341892 0 136 809 3 4
 3 2 5 FFF1 813 814 815 135 810 2 0 45 12 813 -.297540556309204 .025199489106002
95 0 -.3908566046115215 .000675246670586785 0 -.484770494496371 -.05665179264999
33 0 -.5527800318687 -.1481169631312652 0 127 2 814 4 4 128 2 815 0 1 16 811 309
 0 ?816 817 807 808 0 0 1 134 812 313 0 817 808 818 0 +819 820 16 817 312 0 ?821
 822 811 812 0 0 1 30 818 316 0 822 812 823 0 +-.5527800318687 -.148116963131265
2 0 .80247505019131 -.596685674220904 0 136 819 3 17 3 15 6 FFF1 824 825 826 135
 820 2 0 45 51 824 -.551576319293413 -.1490119916425966 0 -.549464653236288 -.14
61720385510606 0 -.545167090168163 -.1405265930728504 0 -.536401701670497 -.1295
348829415854 0 -.525082437085843 -.1162811082777054 0 -.510975272767833 -.101175
2632419696 0 -.491512347113497 -.0820880630660717 0 -.466058086358129 -.06020400
17022475 0 -.434020525897185 -.03708614594551065 0 -.4008006143586085 -.01709623
25056611 0 -.372390224806664 -.003031697428287875 0 -.3493814506733885 .00667120
719887007 0 -.332022117558994 .0131763165407296 0 -.317507431258126 .01795424123
37913 0 -.3058754832340045 .02139451894357105 0 -.300073868499102 .0229827769947
8365 0 -.29715929055126 .02374875259587455 0 127 15 825 4 1 1 1 1 1 1 1 1 1 1 1
 1 1 4 128 15 826 0 .03125 .0625 .125 .1875 .25 .375 .5 .625 .75 .8125 .875 .937
5 .96875 1 16 822 315 0 ?827 828 817 818 0 0 1 134 823 319 0 828 818 829 0 +830
 831 16 828 318 0 ?32 832 822 823 0 0 1 31 829 322 0 832 823 833 0 +0 0 0 0 0 1
 0 -1 0 .2924994977529145 136 830 3 4 3 2 5 FFF1 834 835 836 135 831 2 0 45 12 8
34 .2890154911562785 -.0450111325940825 0 .0890154911562787 -.0450111325940825 0
 -.0987902548948069 -.0799240281254967 0 -.2454731182900335 -.1590562931250265 0
 127 2 835 4 4 128 2 836 .01030332092738366 1 16 832 321 0 ?837 20 828 829 0 0 1
 134 833 325 0 20 829 838 0 +839 840 16 20 324 0 ?17 26 832 833 0 0 1 30 838 328
 0 26 833 13 0 +-.0737843585607038 .282477997616218 0 .584518003447908 -.8113807
39015459 0 136 839 3 4 3 2 5 FFF1 841 842 843 135 840 2 0 45 12 841 -.0737843585
607038 .282477997616218 0 .00294613640680086 .1759669143912095 0 .15911646108966
75 .048529104128776 0 .2890861779183205 .0445548866263194 0 127 2 842 4 4 128 2
 843 .0161726129864445 .984569722768765 16 26 327 0 ?25 16 20 838 0 0 1 31 13 33
1 0 16 838 6 0 +0 0 0 0 0 1 0 -1 0 .2924994977529145 16 16 330 0 ?27 9 26 13 0 0
 1 17 27 0 0 0 0 18 21 16 0 0 +17 21 0 24 19 22 10 27 16 0 0 -15 24 28 0 19 12 8
44 17 19 0 24 22 21 23 17 20 0 25 -17 25 0 0 0 0 23 22 26 0 0 +14 255 12 1 845 ?
0 0 323 4 5 +0 0 0 0 4 15 844 29 0 15 12 0 17 15 0 844 15 15 0 846 9 0 0 +17 846
 0 0 0 0 0 15 9 0 0 -81 255 1 845 754 847 12 0 0 0 0 848 80 255 1 847 0 849 8001
 0 0 0 0 3 5 0 0 0 FFFFTFTFFFFFFF2 83 255 3 848 .792156862745098 .81960784313725
5 .933333333333333 79 255 15 849 SDL/TYSA_COLOUR17 837 0 0 0 0 33 850 832 0 0 +1
7 850 0 851 35 35 28 837 832 0 0 -15 851 27 0 35 12 24 17 35 0 851 850 850 33 32
 828 0 837 -17 32 0 0 0 0 28 35 828 0 850 +17 827 0 0 0 0 39 852 822 0 0 +17 852
 0 853 47 41 36 827 822 0 0 -15 853 26 0 47 12 851 17 47 0 853 44 852 45 38 807
 0 816 -17 41 0 853 852 44 39 821 817 0 827 -17 44 0 853 41 47 42 816 811 0 821
 -17 821 0 0 0 0 42 41 817 0 0 +17 816 0 0 0 0 45 44 811 0 0 +17 38 0 0 0 0 36 4
7 807 0 852 +17 806 0 0 0 0 51 854 801 0 0 +17 854 0 855 59 53 48 806 801 0 0 -1
5 855 25 0 59 12 853 17 59 0 855 56 854 57 50 786 0 795 -17 53 0 855 854 56 51 8
00 796 0 806 -17 56 0 855 53 59 54 795 790 0 800 -17 800 0 0 0 0 54 53 796 0 0 +
17 795 0 0 0 0 57 56 790 0 0 +17 50 0 0 0 0 48 59 786 0 854 +17 785 0 0 0 0 63 8
56 780 0 0 +17 856 0 857 71 65 60 785 780 0 0 -15 857 24 0 71 12 855 17 71 0 857
 68 856 69 62 765 0 774 -17 65 0 857 856 68 63 779 775 0 785 -17 68 0 857 65 71
 66 774 769 0 779 -17 779 0 0 0 0 66 65 775 0 0 +17 774 0 0 0 0 69 68 769 0 0 +1
7 62 0 0 0 0 60 71 765 0 856 +17 764 0 0 0 0 75 858 759 0 0 +17 858 0 859 83 77
 72 764 759 0 0 -15 859 23 0 83 12 857 17 83 0 859 80 858 81 74 744 0 753 -17 77
 0 859 858 80 75 758 754 0 764 -17 80 0 859 77 83 78 753 748 0 758 -17 758 0 0 0
 0 78 77 754 0 0 +17 753 0 0 0 0 81 80 748 0 0 +17 74 0 0 0 0 72 83 744 0 858 +1
7 743 0 0 0 0 87 860 738 0 0 +17 860 0 861 95 89 84 743 738 0 0 -15 861 22 0 95
 12 859 17 95 0 861 92 860 93 86 723 0 732 -17 89 0 861 860 92 87 737 733 0 743
 -17 92 0 861 89 95 90 732 727 0 737 -17 737 0 0 0 0 90 89 733 0 0 +17 732 0 0 0
 0 93 92 727 0 0 +17 86 0 0 0 0 84 95 723 0 860 +17 722 0 0 0 0 99 862 717 0 0 +
17 862 0 863 107 101 96 722 717 0 0 -15 863 21 0 107 12 861 17 107 0 863 104 862
 105 98 702 0 711 -17 101 0 863 862 104 99 716 712 0 722 -17 104 0 863 101 107 1
02 711 706 0 716 -17 716 0 0 0 0 102 101 712 0 0 +17 711 0 0 0 0 105 104 706 0 0
 +17 98 0 0 0 0 96 107 702 0 862 +17 701 0 0 0 0 111 864 696 0 0 +17 864 0 865 1
19 113 108 701 696 0 0 -15 865 20 0 119 12 863 17 119 0 865 116 864 117 110 681
 0 690 -17 113 0 865 864 116 111 695 691 0 701 -17 116 0 865 113 119 114 690 685
 0 695 -17 695 0 0 0 0 114 113 691 0 0 +17 690 0 0 0 0 117 116 685 0 0 +17 110 0
 0 0 0 108 119 681 0 864 +17 680 0 0 0 0 123 866 675 0 0 +17 866 0 867 131 125 1
20 680 675 0 0 -15 867 19 0 131 12 865 17 131 0 867 128 866 129 122 660 0 669 -1
7 125 0 867 866 128 123 674 670 0 680 -17 128 0 867 125 131 126 669 664 0 674 -1
7 674 0 0 0 0 126 125 670 0 0 +17 669 0 0 0 0 129 128 664 0 0 +17 122 0 0 0 0 12
0 131 660 0 866 +17 659 0 0 0 0 135 868 654 0 0 +17 868 0 869 143 137 132 659 65
4 0 0 -15 869 18 0 143 12 867 17 143 0 869 140 868 141 134 639 0 648 -17 137 0 8
69 868 140 135 653 649 0 659 -17 140 0 869 137 143 138 648 643 0 653 -17 653 0 0
 0 0 138 137 649 0 0 +17 648 0 0 0 0 141 140 643 0 0 +17 134 0 0 0 0 132 143 639
 0 868 +17 638 0 0 0 0 147 870 633 0 0 +17 870 0 871 155 149 144 638 633 0 0 -15
 871 17 0 155 12 869 17 155 0 871 152 870 153 146 618 0 627 -17 149 0 871 870 15
2 147 632 628 0 638 -17 152 0 871 149 155 150 627 622 0 632 -17 632 0 0 0 0 150
 149 628 0 0 +17 627 0 0 0 0 153 152 622 0 0 +17 146 0 0 0 0 144 155 618 0 870 +
17 617 0 0 0 0 159 872 612 0 0 +17 872 0 873 167 161 156 617 612 0 0 -15 873 16
 0 167 12 871 17 167 0 873 164 872 165 158 597 0 606 -17 161 0 873 872 164 159 6
11 607 0 617 -17 164 0 873 161 167 162 606 601 0 611 -17 611 0 0 0 0 162 161 607
 0 0 +17 606 0 0 0 0 165 164 601 0 0 +17 158 0 0 0 0 156 167 597 0 872 +17 596 0
 0 0 0 171 874 591 0 0 +17 874 0 875 179 173 168 596 591 0 0 -15 875 15 0 179 12
 873 17 179 0 875 176 874 177 170 576 0 585 -17 173 0 875 874 176 171 590 586 0
 596 -17 176 0 875 173 179 174 585 580 0 590 -17 590 0 0 0 0 174 173 586 0 0 +17
 585 0 0 0 0 177 176 580 0 0 +17 170 0 0 0 0 168 179 576 0 874 +17 575 0 0 0 0 1
83 876 570 0 0 +17 876 0 877 191 185 180 575 570 0 0 -15 877 14 0 191 12 875 17
 191 0 877 188 876 189 182 555 0 564 -17 185 0 877 876 188 183 569 565 0 575 -17
 188 0 877 185 191 186 564 559 0 569 -17 569 0 0 0 0 186 185 565 0 0 +17 564 0 0
 0 0 189 188 559 0 0 +17 182 0 0 0 0 180 191 555 0 876 +17 554 0 0 0 0 195 878 5
49 0 0 +17 878 0 879 203 197 192 554 549 0 0 -15 879 13 0 203 12 877 17 203 0 87
9 200 878 201 194 534 0 543 -17 197 0 879 878 200 195 548 544 0 554 -17 200 0 87
9 197 203 198 543 538 0 548 -17 548 0 0 0 0 198 197 544 0 0 +17 543 0 0 0 0 201
 200 538 0 0 +17 194 0 0 0 0 192 203 534 0 878 +17 533 0 0 0 0 207 880 528 0 0 +
17 880 0 881 215 209 204 533 528 0 0 -15 881 12 0 215 12 879 17 215 0 881 212 88
0 213 206 513 0 522 -17 209 0 881 880 212 207 527 523 0 533 -17 212 0 881 209 21
5 210 522 517 0 527 -17 527 0 0 0 0 210 209 523 0 0 +17 522 0 0 0 0 213 212 517
 0 0 +17 206 0 0 0 0 204 215 513 0 880 +17 512 0 0 0 0 219 882 507 0 0 +17 882 0
 883 227 221 216 512 507 0 0 -15 883 11 0 227 12 881 17 227 0 883 224 882 225 21
8 492 0 501 -17 221 0 883 882 224 219 506 502 0 512 -17 224 0 883 221 227 222 50
1 496 0 506 -17 506 0 0 0 0 222 221 502 0 0 +17 501 0 0 0 0 225 224 496 0 0 +17
 218 0 0 0 0 216 227 492 0 882 +17 491 0 0 0 0 231 884 486 0 0 +17 884 0 885 239
 233 228 491 486 0 0 -15 885 10 0 239 12 883 17 239 0 885 236 884 237 230 471 0
 480 -17 233 0 885 884 236 231 485 481 0 491 -17 236 0 885 233 239 234 480 475 0
 485 -17 485 0 0 0 0 234 233 481 0 0 +17 480 0 0 0 0 237 236 475 0 0 +17 230 0 0
 0 0 228 239 471 0 884 +17 470 0 0 0 0 243 886 465 0 0 +17 886 0 887 251 245 240
 470 465 0 0 -15 887 9 0 251 12 885 17 251 0 887 248 886 249 242 450 0 459 -17 2
45 0 887 886 248 243 464 460 0 470 -17 248 0 887 245 251 246 459 454 0 464 -17 4
64 0 0 0 0 246 245 460 0 0 +17 459 0 0 0 0 249 248 454 0 0 +17 242 0 0 0 0 240 2
51 450 0 886 +17 449 0 0 0 0 255 888 444 0 0 +17 888 0 889 263 257 252 449 444 0
 0 -15 889 8 0 263 12 887 17 263 0 889 260 888 261 254 429 0 438 -17 257 0 889 8
88 260 255 443 439 0 449 -17 260 0 889 257 263 258 438 433 0 443 -17 443 0 0 0 0
 258 257 439 0 0 +17 438 0 0 0 0 261 260 433 0 0 +17 254 0 0 0 0 252 263 429 0 8
88 +17 428 0 0 0 0 267 890 423 0 0 +17 890 0 891 275 269 264 428 423 0 0 -15 891
 7 0 275 12 889 17 275 0 891 272 890 273 266 408 0 417 -17 269 0 891 890 272 267
 422 418 0 428 -17 272 0 891 269 275 270 417 412 0 422 -17 422 0 0 0 0 270 269 4
18 0 0 +17 417 0 0 0 0 273 272 412 0 0 +17 266 0 0 0 0 264 275 408 0 890 +17 407
 0 0 0 0 279 892 402 0 0 +17 892 0 893 287 281 276 407 402 0 0 -15 893 6 0 287 1
2 891 17 287 0 893 284 892 285 278 387 0 396 -17 281 0 893 892 284 279 401 397 0
 407 -17 284 0 893 281 287 282 396 391 0 401 -17 401 0 0 0 0 282 281 397 0 0 +17
 396 0 0 0 0 285 284 391 0 0 +17 278 0 0 0 0 276 287 387 0 892 +17 386 0 0 0 0 2
91 894 381 0 0 +17 894 0 895 299 293 288 386 381 0 0 -15 895 5 0 299 12 893 17 2
99 0 895 296 894 297 290 366 0 375 -17 293 0 895 894 296 291 380 376 0 386 -17 2
96 0 895 293 299 294 375 370 0 380 -17 380 0 0 0 0 294 293 376 0 0 +17 375 0 0 0
 0 297 296 370 0 0 +17 290 0 0 0 0 288 299 366 0 894 +17 365 0 0 0 0 303 896 360
 0 0 +17 896 0 327 311 305 300 365 360 0 0 -15 327 4 0 311 12 895 17 311 0 327 3
08 896 309 302 345 0 354 -17 305 0 327 896 308 303 359 355 0 365 -17 308 0 327 3
05 311 306 354 349 0 359 -17 359 0 0 0 0 306 305 355 0 0 +17 354 0 0 0 0 309 308
 349 0 0 +17 302 0 0 0 0 300 311 345 0 896 +17 330 0 0 0 0 315 324 331 0 0 +136
 336 3 4 3 2 5 FFF1 897 898 899 135 337 2 0 45 12 897 -.28088 .10135 0 -.3773637
220714435 .1018133713758024 0 -.482914903333995 .070746406853224 0 -.57228 0 0 1
27 2 898 4 4 128 2 899 0 1 17 329 0 0 0 0 318 317 333 0 0 +17 317 0 323 324 320
 315 329 333 0 330 -74 4 CI16 index_map_offset0 0 1 dCCZ20 11 1 0 0 845 0 0 0 0
 0 0 0 0 0 0 0 0 0 0 0 0 0 0 0 1 0 
